<?xml version="1.0" encoding="UTF-8" standalone="no"?>
<!DOCTYPE svg PUBLIC "-//W3C//DTD SVG 1.1//EN" "http://www.w3.org/Graphics/SVG/1.1/DTD/svg11.dtd">
<svg width="100%" height="100%" viewBox="0 0 400 400" version="1.1" xmlns="http://www.w3.org/2000/svg" xmlns:xlink="http://www.w3.org/1999/xlink" xml:space="preserve" xmlns:serif="http://www.serif.com/" style="fill-rule:evenodd;clip-rule:evenodd;stroke-linejoin:round;stroke-miterlimit:1.41421;">
    <g>
        <path d="M350,200C350,282.9 282.9,350 200,350C117.1,350 50,282.9 50,200C50,117.1 117.1,50 200,50C282.9,50 350,117.1 350,200" style="fill:white;fill-rule:nonzero;"/>
        <path d="M344.5,200C344.5,279.8 279.8,344.5 200,344.5C120.2,344.5 55.5,279.7 55.5,200C55.5,120.3 120.2,55.5 200,55.5C279.8,55.5 344.5,120.2 344.5,200" style="fill-rule:nonzero;"/>
        <g>
            <path d="M77.8,224.6L80.8,234L90.8,234L82.7,240L85.7,249.2L77.8,243.5L69.9,249.2L72.9,240L64.7,234L74.8,234L77.8,224.6Z" style="fill:white;fill-rule:nonzero;"/>
            <path d="M322.3,224.6L325.2,234L335.3,234L327.1,240L330.1,249.2L322.3,243.5L314.3,249.2L317.3,240L309.2,234L319.2,234L322.3,224.6Z" style="fill:white;fill-rule:nonzero;"/>
            <path d="M112.9,275.1L115.9,284.5L125.9,284.5L117.8,290.5L120.7,299.7L112.9,294L105,299.7L108,290.5L99.8,284.5L109.8,284.5L112.9,275.1Z" style="fill:white;fill-rule:nonzero;"/>
            <path d="M290.5,275.1L293.4,284.5L303.4,284.5L295.3,290.5L298.2,299.7L290.5,294L282.5,299.7L285.5,290.5L277.4,284.5L287.3,284.5L290.5,275.1Z" style="fill:white;fill-rule:nonzero;"/>
            <path d="M167.6,308L170.6,317.4L180.6,317.4L172.5,323.4L175.5,332.6L167.6,327L159.8,332.6L162.7,323.3L154.5,317.4L164.6,317.4L167.6,308Z" style="fill:white;fill-rule:nonzero;"/>
            <path d="M234.2,308L237.1,317.4L247.1,317.4L239.1,323.4L242,332.6L234.2,327L226.3,332.6L229.3,323.3L221.1,317.4L231.1,317.4L234.2,308Z" style="fill:white;fill-rule:nonzero;"/>
        </g>
        <path d="M308.3,200.7C308.3,260.5 259.8,309 200,309C140.2,309 91.7,260.5 91.7,200.7C91.7,140.9 140.2,92.4 200,92.4C259.8,92.3 308.3,140.8 308.3,200.7" style="fill:white;fill-rule:nonzero;"/>
        <path d="M98.1,222C103.8,249.3 119.8,272.6 143,287.8C166.2,303 194,308.3 221.3,302.6C248.5,296.9 272.2,281.1 287.1,257.7C302,234.4 307.3,206.6 301.9,179.4C296.5,152.1 280.3,128.9 257,113.6C233.7,98.3 205.9,93.1 178.8,98.8C151.6,104.5 128.2,120.5 112.9,143.7C97.7,167 92.4,194.8 98.1,222" style="fill-rule:nonzero;"/>
        <g>
            <path d="M235.4,119.6C235.8,123.6 233.8,127.6 229.8,131.4C210.3,117 191.7,110 173.5,110C169.6,110 165.7,110.3 162.1,110.9C167.9,108.5 173.9,106.6 180.1,105.3C196.4,101.9 212.9,102.7 228.4,107.5C231.7,110.5 235,114.8 235.4,119.6" style="fill:white;fill-rule:nonzero;"/>
            <path d="M215.1,287.7C235.6,268.9 245.1,228.5 250.8,204.4L251.7,200.6C254.6,188.3 259.8,179.2 265.3,173.6C285.9,205.6 283.1,238.6 277.9,259.3C263.6,278.2 243.3,291.2 219.9,296.1C213.2,297.5 206.5,298.2 199.9,298.2C204.8,295.9 209.9,292.5 215.1,287.7" style="fill:white;fill-rule:nonzero;"/>
            <path d="M252.3,150.7C260.6,143.7 267.3,138.4 272.1,135C282.3,146.3 289.8,159.7 294.1,174.6C290.3,169.5 285.3,164.5 280,163.4C275.4,162.5 270.7,163.8 266.3,166.9C262.3,161.5 257.7,156 252.3,150.7" style="fill:white;fill-rule:nonzero;"/>
            <path d="M104.3,196.3C113.8,170.9 148.5,160.4 161.6,156.6L162.1,156.4C166.4,155.1 172.5,154.1 179.7,152.8C196.5,150 217.3,146.4 229.8,137.1C234.9,140.9 240.1,145.4 245.4,150.5C217,174.6 173.1,215.1 126.3,264.9C115.4,252.5 107.8,237.3 104.3,220.6C102.9,214 102.2,207.3 102.2,200.7C103.5,198.2 104.3,196.3 104.3,196.3" style="fill:white;fill-rule:nonzero;"/>
            <path d="M249,147.5C243.7,142.6 238.5,138.1 233.4,134.1C238.2,129.4 240.4,124.5 239.9,119.2C239.6,116 238.3,113 236.7,110.3C242.5,112.7 248,115.6 253.4,119.1C259.1,122.9 264.3,127.1 268.9,131.6C264,135.3 257.3,140.6 249,147.5" style="fill:white;fill-rule:nonzero;"/>
            <path d="M226.2,134.3C214.4,142.4 194.9,145.7 179.1,148.4C171.8,149.7 165.6,150.7 161,152.1L160.5,152.3C148,156.1 116.4,165.5 103.4,188.2C105.2,173.7 110.4,159.8 118.6,147.3C125.6,136.8 134.7,127 144.8,120C167.6,110.2 193.5,110.8 226.2,134.3" style="fill:white;fill-rule:nonzero;"/>
            <path d="M279,167.8C285.8,169.2 293.2,180.6 296.7,187.3C299.7,208.7 295.6,230.2 284.8,248.9C285.3,245.6 285.7,242.1 286,238.5C287.4,220.2 284.9,195.3 268.8,170.7C272.3,168.2 275.9,167.2 279,167.8" style="fill:white;fill-rule:nonzero;"/>
        </g>
        <path d="M248.9,153.6C254.3,158.9 258.9,164.3 262.7,169.8C256,176.2 250.4,186.6 247.3,199.5L246.4,203.3C240.8,226.9 231.5,266.5 212,284.3C204,291.7 196.1,295.5 189,297.6C174,296 159.5,290.7 146.6,282.2C140.3,278.1 134.6,273.3 129.6,268.1C176.9,217.9 220.9,177.4 248.9,153.6" style="fill:white;fill-rule:nonzero;"/>
        <path d="M226.9,229.6L229.6,228.9C231.2,228.4 232.3,227.9 232.3,225.6C232.3,223.7 231.8,220.2 229.5,220.2C227,220.2 227,224.3 227,226.6L226.9,229.6Z" style="fill:white;fill-rule:nonzero;"/>
        <path d="M195.2,228.2C195.2,219.9 194.9,212.7 189.3,212.7C184.7,212.7 183.9,219.9 183.9,228.2C183.9,236.5 183.6,243.7 189.3,243.7C194.1,243.7 195.2,236.5 195.2,228.2" style="fill:white;fill-rule:nonzero;"/>
        <path d="M226.9,229.6L229.6,228.9C231.2,228.4 232.3,227.9 232.3,225.6C232.3,223.7 231.8,220.2 229.5,220.2C227,220.2 227,224.3 227,226.6L226.9,229.6Z" style="fill:white;fill-rule:nonzero;"/>
        <path d="M183.2,209.1C186,204.9 191.2,202.9 196.2,202.9C207.6,202.9 214.7,212.8 214.7,226C214.7,241.7 204,251.1 190.8,251.1C170.5,251.1 163.2,234.7 163.2,215.8C163.2,193.9 172.7,175.9 196.3,175.9C205.5,175.9 213,181.8 213,190.9C213,196.8 208.4,199.7 204.1,199.7C197.7,199.7 195.7,194.4 194.8,189.7C194.4,187.7 195.2,183.3 191.9,183.3C185,183.3 183.9,196.7 183.7,201.7L183.2,209.1Z" style="fill:white;fill-rule:nonzero;"/>
        <path d="M195.2,228.2C195.2,219.9 194.9,212.7 189.3,212.7C184.7,212.7 183.9,219.9 183.9,228.2C183.9,236.5 183.6,243.7 189.3,243.7C194.1,243.7 195.2,236.5 195.2,228.2" style="fill:white;fill-rule:nonzero;"/>
        <g>
            <path d="M72.3,176.8C76.1,177.3 77.7,180 77.1,185L76.6,188.7L78.7,189C81.4,189.3 82.4,189.3 82.6,187.1L85.1,187.4L83.9,197.3L81.4,197C81.6,194.8 80.7,194.5 78,194.3L70.3,193.4C67.6,193.1 66.6,193.1 66.4,195.3L63.9,195L65.2,184.1C66,178.7 68.4,176.3 72.3,176.8ZM74.4,187.3C74.8,184 73.9,182.3 71.5,182C69.5,181.7 68,183 67.7,185.5C67.5,187.2 68.1,187.6 70,187.8L74.3,188.3C74.3,187.9 74.3,187.7 74.4,187.3Z" style="fill:white;fill-rule:nonzero;"/>
            <path d="M86.9,165.9C87.7,163.9 86.8,163.3 84.3,162.3L77.2,159.3C74.7,158.3 73.7,158 72.9,160L70.6,159.1L74.4,150L76.6,150.9C75.8,152.9 76.7,153.5 79.2,154.5L81,155.2L83.8,148.3L82,147.6C79.5,146.6 78.5,146.3 77.7,148.3L75.5,147.4L79.3,138.3L81.6,139.2C80.8,141.2 81.7,141.8 84.2,142.8L91.3,145.8C93.8,146.8 94.8,147.1 95.6,145.1L97.9,146L94.1,155.1L91.9,154.2C92.7,152.2 91.8,151.6 89.3,150.6L86.2,149.3L83.4,156.2L86.5,157.5C89,158.5 90,158.8 90.8,156.8L93,157.7L89.2,166.8L86.9,165.9Z" style="fill:white;fill-rule:nonzero;"/>
            <path d="M96.5,117.1C95.2,118.8 96,119.6 98.1,121.2L104.3,125.9C106.4,127.5 107.3,127.9 108.7,126.3L110.7,127.8L104.8,135.8L102.8,134.3C104.1,132.6 103.3,131.8 101.2,130.2L95,125.5C92.9,123.9 92,123.4 90.6,125.1L88.6,123.6L94.5,115.6L96.5,117.1Z" style="fill:white;fill-rule:nonzero;"/>
            <path d="M118.8,118.3L117.2,116.4C118.8,114.9 118.3,114.1 116.6,112.1L111.7,106.2C110,104.2 109.2,103.5 107.5,104.8L105.9,102.9L113.5,96.5L115.1,98.4C113.5,99.9 114,100.7 115.6,102.8L121.2,109.4C122.5,111 123,111.1 124.7,109.9C126.8,108.2 127.7,105 126.9,101L129.1,100.5L131.3,107.8L118.8,118.3Z" style="fill:white;fill-rule:nonzero;"/>
            <path d="M142.4,100.1L141.4,97.8C143.2,96.6 143.1,95.4 143.1,93.2L142.6,77.8L146.7,75.9L158.1,87.1C159.4,88.4 160.1,89 161.9,88.4L162.9,90.7L153.8,94.8L152.8,92.6C152.9,92.6 152.9,92.5 153,92.5C154.3,92 154.7,91.4 154.4,90.6C154.3,90.3 154.1,90.1 153.9,89.9L151.8,87.8L145.9,90.5L146.3,93.3C146.3,93.5 146.4,93.8 146.5,93.9C146.9,94.7 147.8,94.8 149.2,94.3L150.2,96.5L142.4,100.1ZM149.8,86.1L145.5,81.5L145.9,87.9L149.8,86.1Z" style="fill:white;fill-rule:nonzero;"/>
            <path d="M173,85.3C175.1,84.9 175.2,83.9 174.8,81.3L173.7,73.6C173.3,70.9 173,70 170.9,70.2L170.5,67.7L180.6,66.2C188.3,65.1 192.9,68.1 193.8,74.5C194.7,80.9 191.1,85 183.5,86.1L173.4,87.6L173,85.3ZM180.2,81.7C180.5,83.7 180.8,84.2 182.9,83.9C186.9,83.4 189,80.2 188.3,75.4C187.7,70.6 184.7,68.2 180.7,68.8C178.6,69.1 178.4,69.7 178.7,71.6L180.2,81.7Z" style="fill:white;fill-rule:nonzero;"/>
            <path d="M208,82.4C210.2,82.7 210.5,81.7 210.8,79L211.9,71.3C212.3,68.6 212.3,67.6 210.1,67.3L210.5,64.8L227.1,67.2L228.9,73.6L226.9,74.3C225.3,71 223,69.1 219.9,68.6C217.9,68.3 217.6,68.9 217.3,70.8L216.8,73.6L217.7,73.8C219.8,74.1 220.4,73.5 220.9,71.1L223,71.4L221.7,80.4L219.6,80.1C219.7,77.7 219,76.6 217.3,76.3L216.4,76.1L215.8,80.8C215.5,82.7 215.7,83.4 217.7,83.6C220.6,84.1 224.1,82.6 226.8,79.4L228.5,80.7L224.5,87.1L207.6,84.6L208,82.4Z" style="fill:white;fill-rule:nonzero;"/>
            <path d="M239.1,91.2L240.1,88.9C242.1,89.7 242.7,88.9 243.8,86.4L246.9,79.4C248,76.9 248.3,76 246.3,75.1L247.3,72.8L256.4,76.7L255.4,79C253.4,78.2 252.8,79 251.7,81.5L248.2,89.4C247.4,91.2 247.5,91.9 249.3,92.7C251.8,93.8 255.1,93.2 258.2,90.8L259.6,92.5L254,97.7L239.1,91.2Z" style="fill:white;fill-rule:nonzero;"/>
            <path d="M290.1,105.9C287.6,108.9 284.5,108.8 280.6,105.6L277.8,103.3L276.5,104.9C274.9,107 274.3,107.8 276,109.3L274.4,111.2L266.6,105L268.2,103.1C269.9,104.4 270.7,103.7 272.4,101.7L277.2,95.7C278.8,93.6 279.4,92.8 277.7,91.3L279.3,89.4L287.8,96.3C291.8,99.5 292.6,102.8 290.1,105.9ZM280,102C282.6,104.1 284.6,104.2 286,102.4C287.3,100.8 287,98.9 285.1,97.4C283.7,96.3 283.1,96.7 281.9,98.1L279.2,101.5C279.6,101.6 279.8,101.8 280,102Z" style="fill:white;fill-rule:nonzero;"/>
            <path d="M291.6,123.9C292.9,125.6 293.8,125.3 296,123.7L302.3,119.2C304.5,117.6 305.2,116.9 304,115.2L306,113.8L311.7,121.9L309.7,123.3C308.4,121.6 307.5,121.9 305.3,123.5L303.7,124.7L308,130.8L309.6,129.6C311.8,128 312.5,127.3 311.3,125.6L313.3,124.2L319,132.3L317,133.7C315.7,132 314.8,132.3 312.6,133.9L306.3,138.4C304.1,140 303.4,140.7 304.6,142.4L302.6,143.8L296.9,135.7L298.9,134.3C300.2,136 301.1,135.7 303.3,134.1L306,132.2L301.7,126.1L299,128C296.8,129.6 296.1,130.3 297.3,132L295.3,133.4L289.6,125.3L291.6,123.9Z" style="fill:white;fill-rule:nonzero;"/>
            <path d="M327.7,158C326.9,156 325.9,156.2 323.4,157.2L316.2,159.9C313.7,160.9 312.8,161.4 313.5,163.5L311.2,164.4L307.6,155.2L309.9,154.3C310.7,156.3 311.7,156.1 314.2,155.1L321.4,152.4C323.9,151.4 324.8,150.9 324.1,148.9L326.4,148L330,157.2L327.7,158Z" style="fill:white;fill-rule:nonzero;"/>
            <path d="M314.8,175.2L317.3,174.8C317.8,176.9 319.1,177.2 321.1,177.8L335.9,181.8L336.4,186.3L322.3,194C320.7,194.8 319.9,195.4 319.9,197.2L317.4,197.6L316.1,187.7L318.5,187.4C318.5,187.5 318.5,187.6 318.5,187.6C318.7,189 319,189.6 319.9,189.4C320.2,189.4 320.4,189.3 320.7,189.1L323.4,187.7L322.6,181.3L319.8,180.8C319.6,180.8 319.3,180.7 319.2,180.8C318.3,180.9 317.9,181.7 318.1,183.3L315.7,183.6L314.8,175.2ZM326,186.5L331.7,183.8L325.5,182.2L326,186.5Z" style="fill:white;fill-rule:nonzero;"/>
        </g>
        <g>
            <g>
                <path d="M260.8,213.4C258.5,213.4 256.9,214.4 255.6,215.8C255.5,215.5 255.3,215.2 255.1,214.9L254,212.8L238.5,217.4L238.5,225.9L241.8,225.9C241.9,226.2 242.2,226.9 242.2,229.6L242.2,239.5L239.4,239.9L239.4,249.2L261,249.2L261,239.9L258.2,239.5L258.2,236.6C258.2,235 258.6,231.8 259,229.9C259.8,230.2 260.7,230.4 261.8,230.4C265.6,230.4 268.4,226.9 268.4,222C268.4,216.7 265.4,213.4 260.8,213.4Z" style="fill:white;fill-rule:nonzero;"/>
                <path d="M287.9,223.3C287.7,222.6 287.6,222.3 287.6,221.9C287.6,219.3 286.6,213.4 277.2,213.4C272,213.4 261.7,217.4 261.7,226.8C261.7,230.3 262.7,232.7 264.2,234.7C262.2,235.9 260.9,238.3 260.9,241.1C260.9,244.5 262.5,250.1 273.9,250.1C283.6,250.1 289.1,245.1 289.1,236.4C289.1,227.9 288.4,225.2 287.9,223.3Z" style="fill:white;fill-rule:nonzero;"/>
                <path d="M173.9,173.2C173.4,172.6 172.4,172.1 171.5,172.1C170,172.1 168.9,173 167.6,174.5C163,179.3 156.8,181.9 149.6,181.9C140.2,181.9 130.3,177.6 122.4,170C121.8,169.4 120.9,169.1 120.1,169.1C116.3,169.1 115.3,175.2 115.3,175.3L115.3,206.2L117.8,206.6C127.1,208 135.2,207.7 142.5,205.7C134.6,212.7 116.8,232 117.1,250.4C117.1,253.8 119.2,254.2 120.1,254.2C121.2,254.2 121.9,253.6 122.5,253.2C122.6,253.1 122.8,252.9 123,252.8C125.6,250.9 129.7,249.9 134.3,249.9C138.1,249.9 142,250.6 144.8,252C145.3,252.3 146,252.5 146.7,252.5C147.6,252.5 148.4,252.1 149,251.5C150,250.4 149.9,249 149.8,248.1C148.5,234.7 151.4,220.2 157.1,211.8L157.9,210.5C162.7,203.4 172.8,188.5 174.6,176.2C174.8,175 174.7,173.9 173.9,173.2Z" style="fill:white;fill-rule:nonzero;"/>
                <path d="M245.6,232.2L245.4,229.8C245.3,228.2 245,226.8 244.8,225.4L244.7,222.7L244.2,223.4C241.9,217.1 236.6,213.2 229.9,213.2C219.9,213.2 212.9,221.1 212.9,232.4C212.9,241.1 218,249.9 229.4,249.9C235.9,249.9 241.8,246.6 244.9,241.4L245.4,240.7L245,232.3L245.6,232.2ZM233.6,237.6C232.5,237.6 231.8,236.9 231.3,236L236.9,234.5C235.2,236.5 234,237.5 233.6,237.6Z" style="fill:white;fill-rule:nonzero;"/>
                <path d="M208.5,204.8C208,204 207.3,203.1 206.8,202.3C211.7,201.3 216,197.5 216,191C216,180.8 207.6,173.1 196.3,173.1C173.8,173.1 160.4,189.1 160.4,215.8C160.4,240 171.6,253.9 190.9,253.9C206.6,253.9 217.6,242.4 217.6,225.9C217.6,217.8 212.1,210.1 208.5,204.8Z" style="fill:white;fill-rule:nonzero;"/>
            </g>
            <g>
                <path d="M233.6,240.5C230.1,240.5 228,237.3 227.7,234.1L242.7,230.1C242.2,222.8 238,216.3 230.1,216.3C221.6,216.3 216,222.9 216,232.7C216,240.3 220.4,247.2 229.5,247.2C234.7,247.2 239.8,244.7 242.6,240.1L239.7,236.5C238.1,238.8 236.5,240.5 233.6,240.5ZM227,226.7C227,224.4 227,220.3 229.5,220.3C231.8,220.3 232.3,223.8 232.3,225.7C232.3,228 231.2,228.5 229.6,229L226.9,229.7L227,226.7Z" style="fill-rule:nonzero;"/>
                <path d="M258.3,246.3L242.5,246.3L242.5,242.3L245.3,241.9L245.3,229.5C245.3,225.1 244.8,222.9 241.5,222.9L241.5,219.4L252.8,216.1C254.1,218.6 254.4,221.5 254.6,224.3L254.7,224.3C255.8,220.9 257.3,216.2 260.9,216.2C264.1,216.2 265.6,218.7 265.6,221.7C265.6,224.8 264.2,227.3 261.9,227.3C260.3,227.3 258.9,226.7 258.1,226.4C256.1,225.7 255.4,234.6 255.4,236.5L255.4,241.9L258.2,242.3L258.3,246.3Z" style="fill-rule:nonzero;"/>
                <path d="M284.8,222C284.8,224.5 282.7,225.7 280.4,225.7C277.7,225.7 275.7,223.5 275.3,220.9C274.1,220.9 273.3,221.5 273.3,223.5C273.3,228.1 286.3,224.8 286.3,236.4C286.3,245.1 280,247.3 274,247.3C270.3,247.3 263.8,246.8 263.8,241.2C263.8,238.6 265.2,236.7 267.7,236.7C271.6,236.7 272.3,240.3 273,242.8C273.2,243.4 273.7,243.6 274.3,243.6C276.4,243.6 277.9,242.8 277.9,241.4C277.9,236.2 264.6,238.2 264.6,226.9C264.6,219.7 273.1,216.5 277.2,216.5C281.9,216.4 284.8,217.9 284.8,222" style="fill-rule:nonzero;"/>
                <path d="M196.3,202.8C191.3,202.8 186.1,204.8 183.4,209L183.3,209L183.2,209L183.3,209L183.8,201.7C184.1,196.8 185.2,183.3 192,183.3C195.3,183.3 194.6,187.7 194.9,189.7C195.8,194.4 197.8,199.7 204.2,199.7C208.5,199.7 213.1,196.9 213.1,190.9C213.1,181.8 205.5,175.9 196.4,175.9C172.8,175.9 163.3,193.9 163.3,215.8C163.3,234.7 170.6,251.1 190.9,251.1C204.1,251.1 214.8,241.8 214.8,226C214.8,212.7 207.8,202.8 196.3,202.8ZM189.3,243.7C183.6,243.7 183.9,236.5 183.9,228.2C183.9,219.9 184.7,212.7 189.3,212.7C195,212.7 195.2,219.9 195.2,228.2C195.2,236.5 194.1,243.7 189.3,243.7Z" style="fill-rule:nonzero;"/>
                <path d="M118.3,175.7L118.3,203.8C134,206.1 152.9,204.6 166.1,185.1C166.6,184.3 167,184.8 166.6,185.6C162.8,193.2 154.1,200.1 146.5,206.1C139.2,211.9 119.6,232.4 119.9,250.4C119.9,251.8 120,251.4 121.2,250.5C127.1,246.1 138.8,245.9 145.9,249.4C146.9,249.9 147,249.8 146.8,248.4C145.4,234.4 148.5,219.1 154.6,210.3C158.7,204.2 169.9,188.3 171.8,175.9C172,174.6 171.3,174.8 169.7,176.5C157.1,189.9 134.3,189.5 119.6,175.4C118.8,174.4 118.4,174.8 118.3,175.7" style="fill-rule:nonzero;"/>
            </g>
        </g>
        <g>
            <circle cx="145.6" cy="158.7" r="27" style="fill:white;"/>
            <g>
                <path d="M145.6,132.8L146.5,135.6L149.6,135.6L147,137.4L148,140.2L145.6,138.5L143.2,140.2L144.1,137.4L141.6,135.6L144.7,135.6L145.6,132.8Z" style="fill-rule:nonzero;"/>
                <path d="M163.6,143.2L164.5,146L167.5,146L165.1,147.9L166,150.7L163.6,149L161.1,150.7L162.1,147.9L159.6,146L162.7,146L163.6,143.2Z" style="fill-rule:nonzero;"/>
                <path d="M155.8,135.2L156.7,138L159.8,138L157.4,139.8L158.3,142.7L155.8,140.9L153.4,142.7L154.4,139.8L151.9,138L154.9,138L155.8,135.2Z" style="fill-rule:nonzero;"/>
                <path d="M166.5,153.1L167.4,155.9L170.5,155.9L168,157.7L168.9,160.6L166.5,158.8L164.1,160.6L165.1,157.7L162.5,155.9L165.5,155.9L166.5,153.1Z" style="fill-rule:nonzero;"/>
                <path d="M165.2,163.5L166.2,166.4L169.2,166.4L166.7,168.3L167.6,171L165.2,169.3L162.9,171L163.7,168.2L161.2,166.4L164.3,166.4L165.2,163.5Z" style="fill-rule:nonzero;"/>
                <path d="M159.5,171.9L160.3,174.8L163.4,174.8L160.9,176.6L161.9,179.3L159.5,177.6L157,179.3L157.9,176.6L155.5,174.8L158.6,174.8L159.5,171.9Z" style="fill-rule:nonzero;"/>
                <path d="M150.3,176.6L151.3,179.4L154.4,179.4L151.9,181.3L152.8,184.1L150.3,182.3L148,184.1L148.9,181.3L146.4,179.4L149.4,179.4L150.3,176.6Z" style="fill-rule:nonzero;"/>
                <path d="M127.3,142.3L126.4,145.1L123.4,145.1L125.8,147L124.9,149.8L127.3,148L129.8,149.8L128.8,147L131.3,145.1L128.2,145.1L127.3,142.3Z" style="fill-rule:nonzero;"/>
                <path d="M134.9,135.2L134,138L130.9,138L133.3,139.8L132.4,142.7L134.9,140.9L137.3,142.7L136.3,139.8L138.8,138L135.8,138L134.9,135.2Z" style="fill-rule:nonzero;"/>
                <path d="M123.8,151.8L122.9,154.6L119.9,154.6L122.3,156.5L121.4,159.3L123.8,157.6L126.2,159.3L125.4,156.5L127.8,154.6L124.7,154.6L123.8,151.8Z" style="fill-rule:nonzero;"/>
                <path d="M124.7,162.2L123.8,165.2L120.8,165.2L123.3,166.9L122.3,169.7L124.7,168L127.2,169.7L126.3,166.9L128.8,165.2L125.6,165.2L124.7,162.2Z" style="fill-rule:nonzero;"/>
                <path d="M130.5,170.8L129.7,173.7L126.6,173.7L129,175.5L128.1,178.2L130.5,176.5L133,178.2L132,175.5L134.5,173.7L131.5,173.7L130.5,170.8Z" style="fill-rule:nonzero;"/>
                <path d="M139.6,176.2L138.7,179.1L135.6,179.1L138.1,180.9L137.3,183.7L139.5,182L142,183.7L141.1,180.9L143.6,179.1L140.5,179.1L139.6,176.2Z" style="fill-rule:nonzero;"/>
            </g>
        </g>
    </g>
</svg>
