<?xml version="1.0" encoding="UTF-8" standalone="no"?>
<!DOCTYPE svg PUBLIC "-//W3C//DTD SVG 1.1//EN" "http://www.w3.org/Graphics/SVG/1.1/DTD/svg11.dtd">
<svg width="100%" height="100%" viewBox="0 0 2336 880" version="1.1" xmlns="http://www.w3.org/2000/svg" xmlns:xlink="http://www.w3.org/1999/xlink" xml:space="preserve" xmlns:serif="http://www.serif.com/" style="fill-rule:evenodd;clip-rule:evenodd;stroke-linejoin:round;stroke-miterlimit:1.41421;">
    <g id="Image">
        <path id="path196" d="M1926.67,800.055C1910.23,797.925 1890.48,791.845 1868.45,782.132C1862.47,779.493 1857.01,777.333 1856.32,777.333C1855.64,777.333 1853.99,776.133 1852.67,774.667C1851.34,773.2 1849.58,772 1848.75,772C1847.93,772 1845.36,777.55 1843.06,784.333L1838.86,796.667L1820.96,797.036L1803.06,797.406L1797.7,781.036C1794.76,772.033 1785.91,744.867 1778.06,720.667C1770.2,696.467 1761.69,670.445 1759.15,662.841C1756.61,655.236 1754.71,648.155 1754.93,647.105C1755.18,645.93 1763.79,642.408 1777.33,637.942C1789.43,633.952 1799.63,630.691 1800,630.696C1800.37,630.701 1802.38,633.846 1804.47,637.686C1822.38,670.588 1853.03,704.282 1879.74,720.426C1905.63,736.076 1937.87,744.153 1963.04,741.292C1996.22,737.522 2017.39,721.811 2024.16,695.923C2025.55,690.616 2025.38,688.647 2022.87,680.365C2019.48,669.217 2013.65,663.179 1999.7,656.375C1989.72,651.511 1988.27,651.091 1933.84,637.337C1829.2,610.895 1811.7,603.717 1791.13,578.799C1774.84,559.061 1768.51,541.973 1767.16,514C1766.08,491.559 1769.21,476.844 1779.45,456.259C1785.9,443.294 1788.76,439.243 1799.13,428.402C1812.95,413.941 1822.56,406.7 1838.47,398.737C1874.57,380.679 1917.5,376.462 1959.33,386.866C1971.14,389.804 1992.1,398.502 2001.26,404.268C2004.52,406.321 2007.53,408 2007.95,408C2008.37,408 2010.44,403.484 2012.55,397.965L2016.38,387.931L2035.83,388.299L2055.27,388.667L2056.24,392C2056.77,393.833 2058.67,400.433 2060.47,406.667C2064.91,422.113 2069.08,436.423 2071.94,446C2073.25,450.4 2075.67,458.8 2077.32,464.667C2078.96,470.533 2081.36,478.633 2082.64,482.667C2089.47,504.111 2089.82,505.595 2088.56,507.594C2087.32,509.564 2058.94,520.884 2051.81,522.251C2048.6,522.867 2047.54,521.776 2039.62,509.796C2023.95,486.108 2003.2,466.54 1981.33,454.856C1966.99,447.192 1958.43,444.092 1943.62,441.208C1912.53,435.153 1884.99,440.817 1869.56,456.435C1860.54,465.573 1858.1,473.092 1860.2,485.243C1861.51,492.776 1862.44,494.57 1867.88,500.002C1879.33,511.453 1894.33,516.711 1955.33,530.658C2008.89,542.901 2032.23,549.859 2054.9,560.337C2081.1,572.447 2098.62,589.77 2107.44,612.278C2109.23,616.844 2111.59,626.555 2112.68,633.858C2124.74,714.473 2076.1,778.681 1988.9,797.262C1974.1,800.415 1940.93,801.904 1926.67,800.055ZM662.667,795.641C614.556,792.679 574.684,773.055 549.935,740.156C535.568,721.058 526.859,702.529 520.095,676.667C512.833,648.903 511.456,636.124 511.544,597.333C511.617,565.394 511.956,560.143 515.078,542.667C521.031,509.347 532.404,478.997 547.304,456.667C555.26,444.744 575.3,424.44 587.333,416.109C607.118,402.413 631.836,392.253 658,387.062C675.503,383.589 731.985,383.604 747.333,387.087C801.485,399.372 834.667,428.469 834.667,463.668C834.667,477.664 831.505,486.214 823.392,494.156C814.284,503.072 806.195,505.922 790,505.922C776.039,505.922 767.054,503.35 759.623,497.225C751.107,490.205 747.159,481.34 741.266,456C737.705,440.69 726.819,433.238 706.574,432.253C685.195,431.212 664.299,438.909 648.58,453.613C627.179,473.633 614.394,503.852 612.455,539C611.611,554.289 611.658,554.667 614.383,554.667C615.919,554.667 617.526,554.101 617.953,553.409C619.172,551.438 636.972,542.026 648,537.522C663.233,531.301 676.33,528.251 694.794,526.625C740.526,522.596 782.234,534.55 811.638,560.113C832.66,578.388 847.965,606.593 852.002,634.493C856.185,663.414 850.919,697.307 838.438,721.784C834.199,730.097 822.603,745.202 815.126,752.149C786.259,778.971 748.122,793.234 698.667,795.702C688.033,796.233 671.833,796.205 662.667,795.641L662.667,795.641ZM698,739.319C718.477,735 731.565,724.829 740.624,706.193C748.686,689.608 751.423,663.227 747.433,640.557C741.666,607.786 723.902,588.473 695.401,583.989C673.654,580.567 652.955,587.206 638.541,602.227C629.831,611.303 625.577,618.439 621.192,631.333C618.314,639.797 618.017,642.904 618.009,664.667C618.001,686.298 618.304,689.547 621.082,697.587C626.653,713.708 637.297,727.247 649.037,733.142C664.536,740.925 680.71,742.965 698,739.319ZM878.667,766.768L878.667,741.525L886.333,740.646C894.617,739.695 906.109,735.967 911.36,732.527C916.924,728.881 922.169,717.75 924.172,705.333C926.861,688.664 926.846,482.694 924.154,472C921.853,462.854 919.752,458.662 914.435,452.606C908.438,445.777 901.426,442.67 889.581,441.596L879.333,440.667L878.971,415.662L878.608,390.656L1046.24,390.995L1213.87,391.333L1216.14,397.333C1217.39,400.633 1229.27,427.333 1242.54,456.667C1255.81,486 1266.66,510.425 1266.67,510.944C1266.67,511.463 1264.12,513.317 1261,515.063C1257.88,516.81 1249.86,521.335 1243.16,525.119C1236.47,528.904 1230.42,532 1229.73,532C1229.04,532 1224.95,527.05 1220.66,521C1209.74,505.624 1182.1,478.437 1166.94,468.169C1152.95,458.689 1137.4,451.157 1122.67,446.724C1101.72,440.42 1071.71,438.309 1054.67,441.94C1047.17,443.538 1045.27,444.586 1040.6,449.727C1032.68,458.441 1032,463.06 1032,508.102L1032,546.667L1047,546.643C1065.22,546.615 1078.18,544.063 1085.71,539.02C1095.38,532.54 1101.71,517.036 1103.55,495.321L1104.39,485.333L1148,485.333L1148,666.731L1125.67,666.366L1103.33,666L1102.52,658C1100.57,638.821 1092.58,620.565 1081.84,610.754C1072.68,602.379 1065.3,599.942 1046.33,599.02L1032,598.324L1032,656.253C1032,722.158 1032.26,724.31 1041.17,732.357C1049.13,739.554 1053.98,740.678 1076.67,740.583C1103.45,740.472 1117.13,737.307 1144,725.005C1177.43,709.698 1213.57,676.426 1236.68,639.669C1239.52,635.166 1241.54,633.337 1243.68,633.336C1245.33,633.335 1253.55,637.233 1261.95,642C1270.35,646.767 1277.81,650.667 1278.53,650.667C1279.25,650.667 1280.22,651.274 1280.68,652.016C1281.36,653.118 1267.31,686.332 1249.66,725.333C1247.83,729.367 1244.73,736.567 1242.75,741.333C1240.78,746.1 1237.81,753 1236.15,756.667C1234.49,760.333 1230.3,769.633 1226.85,777.333L1220.56,791.333L1049.61,791.672L878.667,792.01L878.667,766.768ZM1306.67,766.836L1306.67,741.656L1316.28,740.229C1336.85,737.176 1345.76,728.909 1350.28,708.667C1352.46,698.906 1352.67,688.942 1352.67,591.333C1352.67,503.282 1352.33,482.842 1350.71,474.21C1346.74,452.963 1336.84,443.493 1316.82,441.8L1306.67,440.942L1306.67,415.471L1306.67,390L1433.67,390.329C1539.67,390.603 1563.09,390.998 1575.33,392.717C1615.05,398.296 1641.91,409.076 1661.02,427.107C1678.92,443.995 1687.02,463.422 1688.94,494.119C1689.81,508.06 1686.65,530.527 1682.54,539.594C1681.14,542.67 1680,545.727 1680,546.387C1680,548.699 1669.22,564.233 1662.98,570.926C1651.18,583.559 1621.8,600.707 1607.28,603.431C1604.74,603.907 1602.67,605.017 1602.67,605.896C1602.67,606.776 1606.42,612.359 1611,618.304C1692.2,723.612 1694.02,725.717 1711.33,734.039C1717.13,736.832 1725.68,739.653 1731.11,740.567L1740.67,742.176L1741.03,767.088L1741.39,792L1678.36,791.98C1643.7,791.969 1614.69,791.518 1613.91,790.98C1613.13,790.441 1604.73,778.943 1595.24,765.428C1576.32,738.466 1569.55,728.853 1550.79,702.373C1534.99,680.053 1515.94,653.031 1502.37,633.667L1491.86,618.667L1475.26,618.667L1458.67,618.667L1458.67,656.612C1458.67,697.845 1459.99,711.924 1464.76,721.453C1470.35,732.61 1478.48,737.276 1498.67,740.927L1504.67,742.012L1504.67,791.333L1405.67,791.675L1306.67,792.017L1306.67,766.836L1306.67,766.836ZM1513.8,560.676C1544.37,556.057 1565.19,545.291 1573.66,529.712C1591.63,496.698 1576.76,459.86 1539.97,446.245C1523.31,440.08 1492.49,438.27 1478.25,442.62C1471.79,444.591 1463.34,452.983 1461.16,459.58C1459.98,463.18 1459.34,479.245 1459,514.545L1458.52,564.423L1479.59,563.542C1491.18,563.057 1506.58,561.768 1513.8,560.676ZM208.869,788.327C207.799,786.596 216.76,743.728 221.479,728C239.351,668.431 269.153,613.124 312.751,558.617C331.421,535.274 346.109,519.035 372.399,492.667L396.329,468.667L319.831,468.31C277.294,468.111 238.208,468.519 231.789,469.229C217.958,470.757 207.442,475.575 199.066,484.219C192.904,490.578 181.333,512.501 181.333,517.815C181.333,519.664 180.763,521.529 180.065,521.96C179.368,522.391 172.618,521.766 165.065,520.571C157.513,519.376 148.183,518.085 144.333,517.701C139.459,517.215 137.333,516.421 137.333,515.086C137.333,512.752 148.184,434.689 152.172,408.333L155.046,389.333L311.523,389.333C463.413,389.333 468,390.995 468,390.995L474.097,457.26C474.097,457.26 470.233,462.477 466.515,466.322C421.213,513.17 377.277,580.737 354.631,638.386C335.809,686.297 324.333,740.795 324.039,783.667L324,789.333L266.745,789.333C235.255,789.333 209.211,788.88 208.869,788.327ZM124,266.859L124,256.347L128.542,256.351C144.047,255.056 144.333,243.428 144.333,243.428C144.333,243.428 144.935,157.617 144.667,146.581C144.317,132.218 124,133.333 124,133.333C124,133.333 124,132.564 124,121.07L124,110.424L181,111.004C233.634,111.539 238.672,111.791 246.776,114.3C269.752,121.413 281.532,137.036 281.738,160.667C281.873,176.135 278.582,185.532 270.019,194.128C258.251,205.942 245.197,209.262 210.333,209.307L189.333,209.333L189.333,222.601C189.333,251.413 192.228,254.48 203.377,255.687L208.869,256.786L208.869,277.493L124,277.371L124,266.859ZM222.667,182.325C233.154,177.091 236.667,171.49 236.667,160C236.667,150.629 232.928,143.294 225.464,138.022C220.692,134.651 218.318,133.967 209.92,133.543C196.197,132.85 194.048,133.604 191.483,140.015C189.833,144.138 189.333,150.135 189.333,165.805C189.333,177.034 189.783,186.69 190.333,187.262C190.883,187.834 196.433,187.93 202.667,187.476C211.725,186.816 215.74,185.782 222.667,182.325ZM289.333,277.333L289.333,256.347L295.623,255.638C300.414,255.098 302.768,253.973 305.499,250.916C310.369,245.466 310.99,237.276 310.426,186C309.933,141.116 309.588,138.905 302.473,135.226C300.452,134.181 289.333,133.315 289.333,133.315C289.333,133.315 289.333,132.246 289.333,121.191L289.333,110.667L374.667,110.667L374.667,131.811L367.216,133.358C360.473,134.758 359.566,135.369 357.674,139.786C356.194,143.242 355.547,149.338 355.459,160.667L355.333,176.667L414,176.667C414,176.667 414.815,147.906 414.666,145.045C413.957,131.412 394.667,131.837 394.667,131.837L394.667,121.252L394.667,110.667L480,110.667L480,133.333L474.097,133.333C461.369,133.333 459.923,145.548 459.923,145.548L460.005,193.97C460.01,242.287 460.135,244.872 462.672,249.033C465.545,253.745 469.886,256 476.087,256L480,256L480,277.333L437.334,277.333L394.667,277.333L394.667,266.667L394.667,256L399.421,256C405.622,256 408.48,254.362 411.881,248.859C414.414,244.761 414.667,242.341 414.667,222.176L414.667,200L384.667,200L354.667,200L354.667,217.778C354.667,237.5 356.497,249.496 359.987,252.655C361.256,253.803 364.927,255.19 368.147,255.737L374.779,256.733L374.779,277.333L332.056,277.333L289.333,277.333ZM489.333,266.84L489.333,256.347L495.387,255.664C502.936,254.814 505.983,252.126 507.862,244.661C510.186,235.434 509.854,147.827 507.474,142.131C505.044,136.315 500.603,133.333 494.37,133.333L489.333,133.333L489.333,122L489.333,110.667L574.667,110.667L574.667,133.333C574.667,133.333 554.655,131.115 554.667,144.83C554.685,166.706 554.667,240 554.667,240C554.667,240 554.006,254.775 567.6,256.009C568.414,256.083 574.667,256.158 574.667,256.158L574.667,277.333L532,277.333L489.333,277.333L489.333,266.84ZM585.333,266.667L585.333,256L589.979,256C597.55,256 602.31,250.553 603.959,240C605.875,227.739 605.718,157.731 603.751,147.055C601.875,136.874 598.453,133.333 590.487,133.333L585.333,133.333L585.333,122L585.333,110.667L670.667,110.667L670.667,131.879L665.667,132.784C658.835,134.021 653.745,136.779 651.706,140.347C649.815,143.658 648.395,229.268 650.014,242.447C650.812,248.946 651.277,249.725 655.401,251.447C661.628,254.049 675.48,253.809 684.126,250.95C698.531,246.187 709.768,240.507 728.05,209.669C728.387,209.101 747.333,220.465 747.333,220.465L721.066,277.296C721.066,277.296 703.913,277.333 652.571,277.333L585.333,277.333L585.333,266.667ZM744,277.333L744.353,256.32C744.353,256.32 755.187,257.13 763.727,245.443C766.176,242.091 820.668,110.424 820.668,110.424L858.575,110.594C858.575,110.594 881.984,169.867 882.645,171.333C883.943,174.209 892.331,195.754 901.334,219.333C910.751,243.997 914.646,248.668 919.797,253.059C923.205,255.965 930.667,256 930.667,256L930.667,277.333L888,277.333L845.333,277.333L845.333,256.667C845.333,256.667 850.26,256 854.197,256C865.462,256 866.729,249.986 859.439,231.13L854.879,219.333L829.827,219.333L804.775,219.333L800.387,230.591C797.974,236.783 796,243.466 796,245.443C796,251.341 800.086,255.069 807.483,255.918L814,256.667L814.389,267L814.779,277.333L779.389,277.333L744,277.333ZM845.618,196.604C846.019,196.203 843.069,187.953 839.064,178.271C835.058,168.589 831.298,159.467 830.71,158C829.69,155.46 829.57,155.492 828.186,158.667C825.656,164.469 813.333,196.015 813.333,196.688C813.333,197.585 844.719,197.503 845.618,196.604L845.618,196.604ZM932,266.746L932,256L935.803,256C937.894,256 941.644,254.627 944.136,252.949C948.315,250.134 948.75,249.178 949.735,240.615C950.322,235.51 949.842,156.483 949.735,143.384C949.645,132.359 931.892,133.333 931.892,133.333L932.279,122.333L932.667,111.333L975.333,110.938C1037.38,110.363 1057.15,112.957 1077.51,124.344C1088.06,130.241 1099.92,142.579 1105.18,153.122C1117.11,177.009 1116.69,214.772 1104.24,237.973C1095.61,254.058 1077.15,267.125 1053.92,273.594C1043.92,276.379 1040.22,276.57 987.667,277.018L932,277.493L932,266.746ZM1037.59,251.541C1058.49,241.462 1069.77,215.392 1066.63,184.426C1064.94,167.806 1056.88,150.708 1047.28,143.384C1037.21,135.7 1029.74,133.36 1015.25,133.346C1005.76,133.337 1001.09,133.886 999.255,135.226C996.763,137.048 996.667,139.23 996.667,193.753C996.667,262.326 994.864,256.545 1016,255.736C1027.86,255.282 1031.16,254.641 1037.59,251.541ZM1126.67,277.194L1126.67,256.782C1126.67,256.782 1138.4,254.9 1140.65,253.059C1145.51,249.073 1146.74,242 1146.74,242C1146.74,242 1146.4,168.412 1146.09,144.673C1145.96,135.049 1126.67,132.718 1126.67,132.718C1126.67,132.718 1126.67,127.012 1126.67,121.308L1126.67,110.667L1195.67,110.687C1233.62,110.698 1265.33,111.148 1266.15,111.687C1267.58,112.636 1279.76,139.131 1286.18,155.254C1288.62,161.393 1288.96,163.43 1287.67,164.308C1285.53,165.762 1273.58,172 1272.93,172C1272.66,172 1270.15,168.673 1267.35,164.608C1258.2,151.324 1244.78,141.086 1229.73,135.906C1222.02,133.255 1199.77,132.25 1196.38,134.4C1192.89,136.618 1190.96,145.016 1190.49,160L1190,175.333L1196.26,175.737C1210.72,176.668 1217.87,171.18 1219.79,157.663L1220.69,151.333L1229.68,150.939L1238.67,150.545L1238.67,186.497C1238.67,206.27 1238.3,223.398 1237.86,224.558C1237.25,226.144 1235.14,226.667 1229.34,226.667L1221.63,226.667L1217.82,215.703C1213.11,202.191 1208.97,198.667 1197.8,198.667L1190.67,198.667L1190.67,221.376C1190.67,244.277 1192.01,252.152 1196.38,254.933C1197.27,255.497 1202.8,255.956 1208.67,255.951C1220.37,255.943 1232.15,252.573 1243.66,245.943C1251.21,241.593 1272.23,220.653 1274.74,214.98C1276.39,211.248 1276.78,211.076 1280.59,212.385C1285.12,213.943 1294.66,219.894 1294.68,221.177C1294.69,221.63 1289.19,234.45 1282.47,249.667L1270.24,277.333L1199.34,277.333C1160.35,277.333 1127.16,277.683 1126.67,277.194ZM1304,266.842L1304,256.351L1309.54,255.608C1313.31,255.102 1316.4,253.547 1319.21,250.74L1323.33,246.616L1323.81,203.796C1324.51,139.815 1323.64,135.199 1310.55,133.452L1304.67,132.667L1304.67,122L1304.67,111.333L1388.67,111.333L1388.67,132.667L1382.42,133.385C1374.66,134.277 1371.36,137.153 1369.47,144.673C1367.54,152.351 1367.48,237.418 1369.41,244.346C1371.55,252.059 1375.17,253.684 1389,253.134C1398.99,252.736 1402.02,252.029 1409.37,248.37C1414.12,246.007 1420.82,241.634 1424.27,238.651C1430.01,233.691 1445.67,214.336 1446.88,210.706C1447.48,208.89 1458.31,214.591 1462,218.666C1464.35,221.263 1464.28,221.649 1459.42,232.336C1453.97,244.317 1453.83,244.647 1448.64,257.333C1446.69,262.1 1443.96,268.55 1442.57,271.667L1440.04,277.333L1372.02,277.333L1304,277.333L1304,266.842ZM1470.67,266.861L1470.67,256.351L1476.2,255.608C1484.47,254.5 1487.66,250.526 1489.27,239.333C1491.15,226.3 1491.05,157.02 1489.14,147.512C1487.3,138.346 1482.38,133.333 1475.23,133.333L1470.67,133.333L1470.67,121.887L1470.67,110.44L1526.33,110.997C1573.08,111.464 1583.24,111.909 1589.71,113.77C1614.82,120.995 1626.67,136.038 1626.67,160.714C1626.67,184.356 1618.25,197.225 1597.77,204.915C1589.41,208.052 1586.47,208.384 1561.67,208.999L1534.67,209.669L1534.73,223.835C1534.8,241.812 1536.1,248.542 1540.15,251.96C1543.16,254.495 1544.44,254.981 1552.73,256.707C1556.03,257.394 1556.11,257.67 1555.73,267.04L1555.33,276.667L1513,277.019L1470.67,277.371L1470.67,266.861L1470.67,266.861ZM1563.93,184.49C1576.21,179.398 1581.33,171.98 1581.33,159.31C1581.33,143.135 1570.31,133.333 1552.13,133.333C1544.21,133.333 1542.26,133.815 1539.07,136.548L1535.33,139.763L1534.91,162.015C1534.67,174.253 1534.83,185.177 1535.26,186.29C1535.91,187.989 1537.9,188.159 1547.68,187.354C1554.09,186.827 1561.4,185.538 1563.93,184.49L1563.93,184.49ZM1634.67,266.84L1634.67,256.347L1640.75,255.661C1649.58,254.666 1652.64,251.179 1654.48,240.019C1656.45,228.074 1654.94,158.519 1654.53,147.097C1653.91,129.991 1634.67,133.333 1634.67,133.333C1634.67,133.333 1634.67,132.575 1634.67,121.191L1634.67,110.667L1720,110.667L1720,131.837L1714.12,132.718C1710.12,133.318 1707.05,134.842 1704.52,137.483C1700.84,141.324 1700.8,141.557 1700.74,159.016L1700.67,176.667L1760.27,177.385C1760.27,177.385 1760.58,149.679 1760.27,143.384C1759.73,132.289 1738.67,131.811 1738.67,131.811C1738.67,131.811 1738.67,126.014 1738.67,121.178L1738.67,110.667L1824,110.667L1824,133.333L1818.96,133.333C1812.15,133.333 1808.67,136.107 1806.13,143.555C1804.35,148.785 1804,156.981 1804,193.647C1804,221.637 1804.54,239.634 1805.5,243.428C1807.38,250.887 1813.04,256 1819.44,256L1824,256L1824,277.333L1781.33,277.333L1738.67,277.333L1738.67,266.667L1738.67,256L1745.31,256C1751.64,256 1752.14,255.729 1755.65,250.437C1759.25,244.995 1759.34,244.383 1759.75,222.437L1760.18,200L1730.09,200L1700,200L1700.06,219C1700.15,248.828 1702.19,254.378 1713.61,255.902L1719.33,256.667L1720.11,277.333L1677.39,277.333L1634.67,277.333L1634.67,266.84L1634.67,266.84ZM1834.67,266.667L1834.67,256L1838.58,256C1845.73,256 1848.76,253.9 1851.79,246.867C1854.55,240.445 1854.67,238.339 1854.66,195.086C1854.66,167.002 1854.11,148.05 1853.22,144.83C1851.11,137.26 1846.62,133.333 1840.06,133.333L1834.67,133.333L1834.67,122L1834.67,110.667L1920,110.667L1920,133.333L1914,133.333C1909.69,133.333 1907.21,134.119 1905.22,136.117C1898.99,142.346 1898.67,145.137 1898.67,193.124C1898.67,217.989 1899.05,240.255 1899.52,242.604C1901.92,254.62 1909.95,256 1914.49,256L1920,256L1920,277.333L1877.33,277.333L1834.67,277.333L1834.67,266.667ZM1921.33,266.667C1921.33,256.419 1921.33,256 1921.33,256C1921.33,256 1937.02,256.06 1943.27,242.235C1944.83,238.767 1949.68,229.154 1953.25,220.465C1956.82,211.776 1967.35,186.367 1976.67,164C1985.98,141.633 1997.78,111.008 1997.78,111.008C1997.78,111.008 2010.82,110.667 2018,110.667L2037.01,110.667L2039.84,117.247C2041.39,120.866 2042.67,124.226 2042.67,124.712C2042.67,125.199 2043.53,127.488 2044.59,129.799C2045.65,132.109 2048.7,139.7 2051.37,146.667C2054.05,153.633 2057.64,162.933 2059.36,167.333C2061.07,171.733 2065.56,183.433 2069.32,193.333C2073.08,203.233 2076.94,213.133 2077.9,215.333C2078.86,217.533 2081.25,223.848 2083.22,229.365C2089.82,247.846 2096.65,256 2105.53,256L2109.33,256L2109.33,277.194L2066.67,277.296L2024,277.399L2024,266.86L2024,256.32L2032.11,255.734C2037.15,255.369 2040.67,254.427 2041.42,253.241C2043.41,250.096 2042.77,242.364 2040.03,236.315C2038.61,233.188 2037.06,228.56 2036.58,226.029C2036.11,223.499 2034.96,220.794 2034.02,220.018C2032.92,219.105 2023.23,218.736 2006.53,218.971L1980.73,219.333L1978.55,227.333C1977.34,231.733 1975.55,238.193 1974.56,241.688C1972.81,247.883 1972.86,248.13 1976.32,251.589C1978.61,253.887 1981.88,255.405 1985.6,255.901L1992.11,256.667L1992.11,277.333L1956.72,277.333L1921.33,277.333L1921.33,266.667L1921.33,266.667ZM2024,195.86C2024,194.515 2014.28,165.846 2010.79,156.892C2008.8,151.79 2006.6,152.922 2004.61,160.068C2002.51,167.66 1997.18,181.676 1993.56,189.184C1992,192.399 1991.05,195.548 1991.45,196.181C1992.54,197.954 2024,197.643 2024,195.86Z" style="fill-rule:nonzero;"/>
    </g>
</svg>
