<?xml version="1.0" encoding="UTF-8" standalone="no"?>
<!DOCTYPE svg PUBLIC "-//W3C//DTD SVG 1.1//EN" "http://www.w3.org/Graphics/SVG/1.1/DTD/svg11.dtd">
<svg width="100%" height="100%" viewBox="0 0 792 612" version="1.1" xmlns="http://www.w3.org/2000/svg" xmlns:xlink="http://www.w3.org/1999/xlink" xml:space="preserve" xmlns:serif="http://www.serif.com/" style="fill-rule:evenodd;clip-rule:evenodd;stroke-linejoin:round;stroke-miterlimit:1.41421;">
    <g>
        <g transform="matrix(5.73545,0,0,5.73545,-1103.14,-3728.19)">
            <path d="M232.663,727.207C232.748,726.899 232.913,726.079 233.031,725.385C233.149,724.691 233.682,723.258 234.216,722.199C236.033,718.601 238.099,716.248 243.712,711.386C245.004,710.266 246.371,708.845 246.749,708.228C247.31,707.314 247.101,707.449 245.621,708.956C244.425,710.174 243.065,711.151 241.634,711.821C239.694,712.729 239.08,712.852 235.848,712.975L232.232,713.114L232.232,708.589C232.232,706.1 232.29,704.064 232.36,704.064C232.431,704.064 233.234,704.566 234.147,705.18C238.41,708.049 243.887,707.972 247.652,704.99L248.997,703.925L248.777,705.035C248.474,706.567 246.648,710.341 244.908,713.031C241.981,717.556 241.214,719.965 241.206,724.656L241.201,727.47L240.48,727.074C239.355,726.456 235.161,726.54 233.864,727.207C233.265,727.516 232.715,727.768 232.642,727.768C232.569,727.768 232.578,727.516 232.663,727.207L232.663,727.207Z" style="fill:rgb(5,15,28);"/>
        </g>
        <g transform="matrix(5.73545,0,0,5.73545,-1103.14,-3728.19)">
            <path d="M251.254,727.018C248.415,725.662 246.832,722.763 246.454,718.23C246.077,713.714 247.228,709.489 249.469,707.16C253.983,702.468 262.022,703.565 262.022,708.872C262.022,709.38 261.681,710.19 261.263,710.677C259.625,712.58 256.869,711.417 256.406,708.627C256.095,706.759 256.011,706.627 255.127,706.627C253.988,706.627 253.059,708.781 252.816,711.985L252.633,714.407L253.574,713.711C254.092,713.328 255.043,712.93 255.688,712.825C259.576,712.194 262.466,715.142 262.492,719.764L262.503,721.552L263.326,720.256C265.813,716.342 271.529,713.637 272.143,716.084C272.345,716.889 271.906,717.929 270.898,719.036C270.142,719.866 267.216,721.041 265.905,721.041C265.151,721.041 264.944,721.234 264.61,722.246C264.391,722.908 264.26,723.953 264.318,724.568C264.414,725.573 264.531,725.696 265.484,725.787C267.643,725.995 271.706,722.474 274.206,718.23C275.209,716.528 275.927,715.669 276.522,715.459C276.997,715.293 277.47,715.242 277.575,715.346C277.806,715.577 277,717.19 275.72,719.062C275.199,719.823 274.83,720.503 274.9,720.572C274.97,720.642 276.414,719.316 278.11,717.626C280.778,714.967 281.301,714.58 281.995,714.754L282.796,714.955L281.698,716.778C280.576,718.642 280.349,719.566 280.926,719.923C281.436,720.238 280.961,720.721 280.14,720.721C279.215,720.721 278.767,720.199 278.627,718.959C278.519,718 278.515,718.002 276.007,720.561C274.625,721.97 273.12,723.7 272.662,724.404C271.602,726.034 271.051,726.486 270.129,726.486C269.251,726.486 269.187,725.957 269.937,724.887L270.484,724.106L269.47,724.827C266.973,726.606 263.61,727.406 262.501,726.485C262.221,726.253 262.022,725.552 262.022,724.798L262.022,723.509L261.297,724.585C260.898,725.177 259.966,726.087 259.226,726.607C258.077,727.415 257.519,727.57 255.387,727.677C253.244,727.784 252.662,727.691 251.254,727.018L251.254,727.018ZM255.898,724.429C256.378,723.422 256.538,718.22 256.127,716.957C255.585,715.288 253.62,715.4 253.137,717.126C252.694,718.707 252.846,724.409 253.346,725.012C254.02,725.825 255.3,725.556 255.898,724.429ZM267.275,719.954C268.389,719.489 269.798,717.876 270.175,716.637C270.347,716.071 270.267,715.916 269.803,715.916C269.478,715.916 268.881,716.147 268.477,716.43C267.119,717.382 265.263,720.4 266.036,720.4L267.275,719.954Z" style="fill:rgb(5,15,28);"/>
        </g>
        <g transform="matrix(5.73545,0,0,5.73545,-1103.14,-3728.19)">
            <path d="M281.003,727.102C279.584,726.675 278.869,725.518 279.138,724.083C279.415,722.607 281.49,720.4 282.601,720.4L283.42,720.4L282.495,721.39C281.21,722.767 280.718,724.688 281.389,725.712C282.608,727.572 286.687,725.755 286.687,723.352C286.687,722.479 286.356,721.89 285.085,720.5C284.059,719.377 283.483,718.46 283.483,717.948C283.483,716.126 286.746,714.334 289.218,714.798C290.87,715.108 290.912,715.181 290.212,716.552C289.375,718.195 288.929,718.433 288.929,717.239C288.929,716.47 288.262,715.275 287.833,715.275C287.226,715.275 285.641,716.117 285.4,716.567C284.964,717.381 285.247,717.923 286.727,719.113C287.431,719.679 288.237,720.622 288.516,721.207C289.001,722.224 288.987,722.341 288.219,723.819C286.83,726.491 283.797,727.892 281.003,727.102Z" style="fill:rgb(5,15,28);"/>
        </g>
        <g transform="matrix(5.73545,0,0,5.73545,-1103.14,-3728.19)">
            <path d="M275.663,707.347C276.712,705.758 281.882,696.986 281.882,696.796C281.882,696.693 281.184,697.262 280.331,698.06C278.53,699.744 277.128,700.541 275.962,700.541C274.87,700.541 274.642,699.823 275.247,698.284L275.741,697.025L274.247,698.283C272.324,699.902 270.223,700.845 268.516,700.854C266.866,700.863 266.042,699.894 266.242,698.182L266.368,697.1L264.523,698.593C262.306,700.387 260.613,701.099 259.924,700.528C259.307,700.015 259.347,699.378 260.101,697.716L260.729,696.334L258.77,698.106C257.693,699.081 256.302,700.046 255.68,700.252C254.685,700.58 254.494,700.552 254.102,700.022C253.857,699.691 253.714,699.107 253.786,698.726C253.899,698.117 253.708,698.189 252.216,699.315C250.09,700.92 248.123,701.322 247.833,700.213C247.66,699.551 248.246,697.286 248.922,696.002C249.077,695.708 248.16,696.528 246.884,697.823C244.633,700.108 243.361,700.823 242.282,700.409C241.869,700.251 241.794,699.904 241.924,698.748L242.089,697.287L241.245,698.081C238.899,700.284 236.317,701.22 235.861,700.032C235.753,699.752 235.815,699.035 235.998,698.439L236.331,697.356L234.604,698.762C231.399,701.373 229.398,701.406 229.808,698.842L230.008,697.592L228.67,698.738C227.933,699.368 226.696,700.126 225.92,700.423C224.637,700.913 224.462,700.916 224.005,700.459C223.251,699.705 223.666,698.206 225.526,694.962C226.482,693.295 227.095,691.862 227.025,691.457C226.925,690.871 226.487,691.191 224.023,693.654C222.436,695.239 220.542,697.419 219.815,698.497C218.544,700.378 217.363,701.175 216.75,700.562C216.592,700.404 217.434,698.705 218.689,696.648C219.909,694.649 222.255,690.707 223.902,687.888C225.549,685.069 227.053,682.657 227.242,682.527C227.641,682.256 229.029,682.199 229.029,682.454C229.029,682.595 224.078,691.001 222.337,693.814C222.065,694.254 222.923,693.6 224.244,692.361C227.064,689.713 228.485,688.968 229.251,689.734C230.017,690.501 229.564,692.059 227.733,694.952C226.057,697.602 225.62,698.668 225.975,699.242C226.574,700.211 230.691,696.279 232.914,692.613C234.043,690.751 234.751,689.913 235.311,689.772C235.748,689.663 236.183,689.65 236.277,689.744C236.371,689.838 235.556,691.459 234.467,693.347C232.044,697.544 231.443,698.919 231.853,699.329C232.84,700.316 237.142,695.923 239.919,691.091C244.352,683.377 245.794,681.557 246.923,682.255C247.139,682.389 246.054,684.445 244.036,687.727C240.985,692.688 237.678,698.575 237.678,699.046C237.678,699.163 237.99,699.259 238.372,699.259C238.839,699.259 240.438,697.866 243.258,695.002C248.086,690.097 249.441,689.257 252.839,689.061C255.35,688.915 255.818,689.175 255.259,690.402C254.787,691.439 254.579,691.464 254.17,690.531C253.44,688.866 250.56,689.594 248.086,692.069C245.352,694.802 243.47,698.619 244.855,698.619C245.631,698.619 251.451,692.404 251.451,691.577C251.451,691.154 252.656,690.854 253.158,691.152C253.501,691.355 253.188,692.143 251.723,694.769C249.16,699.363 249.243,700.646 251.975,698.666C253.378,697.65 254.362,696.505 255.741,694.283C257.508,691.437 261.47,689.017 263.599,689.484C264.442,689.669 264.594,689.504 266.621,686.177C268.688,682.787 269.709,681.833 270.463,682.587C270.627,682.751 269.34,685.201 267.396,688.422C265.553,691.476 263.518,694.925 262.873,696.087C261.739,698.132 261.38,699.58 262.005,699.58C262.455,699.58 266.062,696.51 266.73,695.559C268.621,692.866 269.816,691.57 271.267,690.639C273.126,689.446 275.198,689.02 275.98,689.67C276.646,690.222 276.359,691.747 275.39,692.8C274.44,693.834 271.728,695.088 270.435,695.092C269.547,695.095 269.328,695.262 268.913,696.255C267.565,699.482 269.248,700.953 272.118,699.057C274.328,697.596 276.758,695.016 278.109,692.693C283.481,683.46 285.157,681.266 286.11,682.218C286.269,682.377 285.05,684.69 283.276,687.595C278.992,694.609 277.079,698.037 277.078,698.699C277.075,700.85 282.576,695.74 285.35,691.014C286.308,689.383 286.95,688.635 287.515,688.493C287.957,688.382 288.403,688.376 288.507,688.48C288.611,688.584 288.171,689.549 287.531,690.624C286.89,691.699 286.366,692.642 286.366,692.72C286.366,692.797 287.14,692.231 288.085,691.461C289.811,690.055 291.227,689.448 291.863,689.842C292.931,690.502 291.066,695.356 288.76,697.921C286.944,699.94 285.542,700.612 283.388,700.498L281.724,700.41L280.121,703.008C277.91,706.591 276.538,708.228 275.744,708.228C275.094,708.228 275.092,708.212 275.663,707.347L275.663,707.347ZM286.308,698.142C288.697,695.527 290.678,691.251 289.5,691.251C288.464,691.251 281.959,698.926 282.396,699.634C282.486,699.78 283.042,699.9 283.63,699.9C284.519,699.9 284.974,699.601 286.308,698.142ZM260.063,695.875C263.158,692.489 264.227,690.502 263.172,690.097C261.935,689.622 258.696,692.684 257.101,695.837C255.36,699.278 256.935,699.298 260.063,695.875L260.063,695.875ZM271.754,693.97C272.754,693.496 274.515,691.21 274.515,690.386C274.515,689.113 271.958,690.838 270.623,693.013C269.666,694.571 269.928,694.826 271.754,693.97Z" style="fill:rgb(5,15,28);"/>
        </g>
        <g transform="matrix(5.73545,0,0,5.73545,-1103.14,-3728.19)">
            <path d="M200.2,703.635C200.2,703.529 200.62,702.825 201.133,702.071C201.646,701.318 204.187,697.123 206.779,692.749C209.371,688.376 211.843,684.381 212.272,683.871C213.061,682.933 214.512,682.452 215.934,682.657C216.665,682.762 216.652,682.793 215.621,683.405C214.851,683.862 213.875,685.177 212.193,688.024C210.9,690.214 209.926,692.142 210.03,692.309C210.331,692.796 213.741,692.344 215.135,691.633C216.762,690.803 218.967,688.601 219.793,686.983C220.612,685.378 220.871,682.708 220.311,681.642C218.962,679.07 213.185,679.122 209.758,681.736C207.909,683.145 206.488,685.86 206.745,687.488C206.953,688.808 206.776,688.932 205.73,688.199C204.195,687.124 204.523,684.141 206.372,682.361C208.571,680.247 212.164,678.984 215.966,678.99C218.903,678.995 221.462,680.034 222.385,681.597C223.119,682.839 223.091,685.289 222.324,686.979C220.623,690.723 214.743,693.836 210.456,693.261L209.299,693.106L206.657,697.787C205.204,700.361 203.676,702.689 203.262,702.96C202.483,703.471 200.2,703.974 200.2,703.635L200.2,703.635Z" style="fill:rgb(5,15,28);"/>
        </g>
        <g transform="matrix(5.73545,0,0,5.73545,-1103.14,-3728.19)">
            <path d="M289.431,700.567C289.317,700.377 299.529,683.086 300.08,682.535C300.246,682.368 300.746,682.279 301.19,682.337C301.982,682.44 301.945,682.53 299.375,686.77C297.932,689.151 296.26,691.962 295.66,693.017L294.57,694.935L296.976,692.516C299.42,690.058 300.986,689.094 301.937,689.459C302.91,689.832 302.325,692.119 300.507,695.05C298.525,698.246 298.187,699.259 299.1,699.259C300.514,699.259 303.704,695.992 305.869,692.325C307.149,690.157 308.233,689.286 308.864,689.917C309,690.053 308.59,691.021 307.954,692.069C305.812,695.594 304.223,698.986 304.556,699.319C305.045,699.808 306.705,698.795 308.488,696.918C314.576,690.51 314.696,690.403 316.573,689.701C317.709,689.276 319.159,689.009 320.332,689.009C322.13,689.009 322.242,689.054 322.242,689.771C322.242,690.189 322.049,690.693 321.812,690.889C321.478,691.166 321.3,691.067 321.018,690.448C320.185,688.62 316.606,689.924 314.04,692.989C311.839,695.619 310.622,698.614 311.752,698.621C312.257,698.625 317.351,693.308 317.947,692.155C318.443,691.197 319.568,690.691 320.075,691.198C320.303,691.426 319.948,692.31 318.939,694.033C316.967,697.396 316.341,698.932 316.768,699.359C317.281,699.872 318.461,699.101 320.643,696.829C321.699,695.73 322.563,695.026 322.563,695.265C322.563,695.955 319.053,699.56 317.717,700.241C314.63,701.816 313.743,700.257 315.608,696.537C316.195,695.365 316.043,695.466 313.838,697.722C310.554,701.08 308.789,701.497 308.789,698.916L308.789,697.591L307.632,698.607C306.996,699.165 305.837,699.933 305.056,700.312C303.191,701.218 302.517,700.85 302.603,698.972L302.664,697.652L301.162,698.877C299.379,700.332 298.043,700.95 297.237,700.694C295.875,700.262 296.276,698.311 298.459,694.744C299.97,692.275 300.298,691.386 299.808,691.083C299.329,690.788 294.529,695.777 292.751,698.418C291.685,700.002 291.145,700.519 290.45,700.621C289.95,700.694 289.491,700.67 289.43,700.567L289.431,700.567Z" style="fill:rgb(5,15,28);"/>
        </g>
        <g transform="matrix(5.73545,0,0,5.73545,-1103.14,-3728.19)">
            <path d="M235.756,687.632C235.756,686.745 236.312,686.126 237.111,686.126C237.955,686.126 238.171,687.006 237.507,687.74C236.709,688.622 235.756,688.563 235.756,687.632Z" style="fill:rgb(5,15,28);"/>
        </g>
        <g transform="matrix(5.73545,0,0,5.73545,-1103.14,-3728.19)">
            <path d="M308.367,687.925C308.127,687.299 309.028,686.126 309.749,686.126C310.639,686.126 310.834,686.691 310.25,687.582C309.713,688.402 308.73,688.613 308.367,687.925Z" style="fill:rgb(5,15,28);"/>
        </g>
    </g>
</svg>
