<?xml version="1.0" encoding="UTF-8" standalone="no"?>
<!DOCTYPE svg PUBLIC "-//W3C//DTD SVG 1.1//EN" "http://www.w3.org/Graphics/SVG/1.1/DTD/svg11.dtd">
<svg width="100%" height="100%" viewBox="0 0 800 400" version="1.1" xmlns="http://www.w3.org/2000/svg" xmlns:xlink="http://www.w3.org/1999/xlink" xml:space="preserve" xmlns:serif="http://www.serif.com/" style="fill-rule:evenodd;clip-rule:evenodd;stroke-linejoin:round;stroke-miterlimit:1.41421;">
    <g transform="matrix(1.22414,0,0,1.22414,8.2806,-44.7892)">
        <g id="g305">
            <g id="g309">
                <path id="path315" d="M26.219,310.756L17.938,302.168L73.661,287.214L73.5,258.828L60.749,261.904L60.51,221.385L110.6,207.84L126,188.293L126,114.136L143,130.544L142.998,205.5L126.962,224.994C126.962,224.994 103.679,231.422 98,232.967C94.425,233.94 88.463,235.52 84.75,236.479L78,238.222L78,262.194L84.528,268.957L91.057,275.719L90.778,290.074L90.5,304.429L84,306.205C55.833,313.9 39.12,318.342 37,318.697C34.947,319.042 33.02,317.622 26.219,310.756ZM622,318.427L567.157,304.344L556.25,294.353C556.25,294.353 556.663,301.084 556.25,301.33C555.576,301.733 500.785,286.761 500.785,286.761L484.666,270.447L538.994,284.099L539.483,257.022L525.892,253.37L526.456,211.825L562.485,221.385L562.485,233.382L543.71,229.276L543.308,260.274L549.682,265.736L550.459,287.214L604.174,301.538L605,274.248L592,270.766L588.27,139.947L577.143,120.072L608.918,156.435L609,277.279L622,290.089L622,318.427ZM159.5,286.761L143.362,269.324L198.06,264.021L198.5,235.295L185.5,235.964L185.5,196.085L221.462,192.514L221.462,210.48L201.936,212.44L202,238.391L208.5,243.824L208.75,262.343C208.75,262.343 263.613,257.034 263.75,257.022C263.888,257.01 264,227.944 264,227.944L251,229.276L251,170.638L251,112L263.947,110.747L264,82.181L281,98.758L281,127.767L274.5,128.463L268,129.159L268,232.142L281,244.64L281,273.929L225.245,280.018L216.712,272L215.776,280.864L159.5,286.761ZM483,284.099L374.5,272.938L358.106,255.735L465.724,266.952L465.693,217.285L483,234.77L483,284.099ZM300.137,272.993L283.116,255.43L338.65,255.43L338.65,227L332.5,227L325.686,227L325.68,109.798L338.65,109.798L338.65,80.997L356,97.758L356,127L343,127L343,230.558L356,243.442L356,272.393L300.137,272.993ZM417,233.411L400,231.506L400,172.981L399.967,113.621L414,115L414,87.082L431.049,104.5L430.5,132.354L417,131.862L417,233.411ZM60.749,192.103L60.51,144.531C60.51,144.531 95.938,135.25 96.095,135.225C96.251,135.2 96.5,156.435 96.5,156.435L77.594,161.929L77.499,187.755L60.749,192.103ZM543.308,187.755L526.456,183.402L526.534,135.047L562.485,144.531L562.485,156.989L543.308,152.135L543.308,187.755ZM31.024,169.099L17.938,155.604L31.012,152.135L31.024,169.099ZM184.985,167.14L185.5,118.794L198.869,116.986L198.869,88.684L208.5,98.093L208.5,116.413L222.161,115L222.161,133.878L202,135.964L202,164.771L184.985,167.14ZM156.031,136.233L143.146,123.132L156.061,121.686L156.031,136.233ZM296,122.481L283.016,109.798L296.003,109.798L296,122.481ZM371.318,122.091L358.175,109.746L371.182,110.942L371.318,122.091Z" style="fill:rgb(200,16,46);fill-rule:nonzero;"/>
                <path id="path311" d="M18.048,302.128L18,273.222L30.974,269.703L31,152.145L18,155.635L18,127.077L111.681,102.613L126,114.119L126,188.33L110.587,207.887L60.573,221.452L60.854,261.889L73.495,258.828L73.751,287.213L18.048,302.128ZM60.854,191.952L97.025,182.786L95.957,135.468L60.571,144.522L60.854,191.952ZM604.25,301.931C603.838,301.893 550.5,287.403 550.5,287.403L549.478,259.228L562.435,262.402L562.485,221.452L526.5,212L526.004,252.853L539.561,256.884L539.111,284.455L484.5,270.447L484.223,241.008L496.986,244.506L497.5,113.636C497.5,113.636 511.116,103.716 511.868,103.354C512.621,102.992 576.953,119.941 576.953,119.941L591.5,139.5L592.139,270.741L605,274.222C605,274.222 604.663,301.969 604.25,301.931ZM562.437,191.952L562.5,144.522L526.5,134.975L526.5,183.5C526.531,183.541 562.437,191.952 562.437,191.952ZM143.341,269.321L143,240.973L156,239.626L156,180.697L156,121.767L149.5,122.463L143,123.159L143,108.803L143,95.419L198.962,88.55L198.962,117.275L185.5,118.833L184.964,167.174L221.636,161.933L222.162,114.972L208.458,116.457L208.458,88.141L264.033,82.053L264.033,110.801L251.033,112.016L251.033,229.199L264.058,227.954L263.812,257.114C263.812,257.114 208.801,262.578 208.655,262.402C208.509,262.226 207.956,234.129 207.956,234.129L221.478,233.102L221.478,192.558L185.508,196.092L185.515,235.972L198.511,235.304L198.202,264.058L143.341,269.321ZM465.794,267.102L358,255.742L358,227.075L370.831,228.273C370.831,228.273 371.389,111.295 371.224,111.045C371.058,110.795 358,109.767 358,109.767L358,80.901L413.98,87.114L414.007,114.962L400,113.767L400,231.537L437,235.238L437.852,214.293L465.704,217.232L465.794,267.102ZM283,255.407L283,227L296,227L296,109.84L282.999,109.84L283,81L338.677,80.997L338.677,109.84L325.679,109.84L325.663,227L338.677,227L338.677,255.407L283,255.407Z" style="fill:rgb(29,66,138);fill-rule:nonzero;"/>
            </g>
        </g>
    </g>
</svg>
