<?xml version="1.0" encoding="UTF-8" standalone="no"?><!DOCTYPE svg PUBLIC "-//W3C//DTD SVG 1.1//EN" "http://www.w3.org/Graphics/SVG/1.1/DTD/svg11.dtd"><svg width="100%" height="100%" viewBox="0 0 1300 520" version="1.1" xmlns="http://www.w3.org/2000/svg" xmlns:xlink="http://www.w3.org/1999/xlink" xml:space="preserve" xmlns:serif="http://www.serif.com/" style="fill-rule:evenodd;clip-rule:evenodd;stroke-linejoin:round;stroke-miterlimit:1.41421;"><path id="path3998" d="M303.334,477.411c-15.902,-1.834 -30.376,-5.991 -43.667,-12.539l-12.333,-6.077l0,-101.942l0,-101.942l-6,0l-6,0l0,-22l0,-22l72,0l0.003,109c0.001,101.102 0.171,109.338 2.333,113.666c3.104,6.214 10.377,8.853 16.894,6.13c9.357,-3.91 8.77,4.011 8.77,-118.426l0,-110.37l60.014,0l-0.341,124.333l-0.34,124.333l-10.947,5.49c-22.102,11.084 -51.791,15.643 -80.386,12.344Zm172.235,0.067c-14.73,-1.911 -29.885,-6.367 -41.569,-12.222l-11.333,-5.679l-0.341,-117.522l-0.34,-117.523l11.077,-5.487c6.093,-3.018 17.046,-7.077 24.341,-9.019c11.807,-3.145 15.824,-4.435 36.596,-4.546c25.176,-0.135 35.83,2.379 53.334,9.024c6.542,2.483 8.415,2.607 11.971,2.918c3.556,0.311 9.362,-1.052 9.362,-1.052l0,77.207l-29.23,0l-29.23,0l0,-29.61c0,0 -0.933,-14.745 -14.579,-14.501c-14.291,0.255 -13.676,14.501 -13.676,14.501c0,0 0.072,33.849 0,80.971l0,82.038c0,0 -0.423,12.074 13.282,11.825c13.704,-0.25 14.1,-12.324 14.1,-12.324l0,-31.089l0,-35.745l-8,-1.733c-4.4,-0.953 -11.028,-2.999 -11.028,-2.999l9.249,-40l69.135,0l-0.345,72.333l-0.345,72.333l-11.333,5.674c-22.463,11.244 -53.09,15.862 -81.098,12.227Zm172.431,0.626c-15.397,-2.239 -31.483,-6.949 -42.468,-12.435l-12.198,-6.092l0,-117.333l0,-117.333l8,-4.32c31.55,-17.034 83.17,-19.517 118,-5.677c5.352,2.127 9.224,2.761 14.333,2.346l7,-0.569l0,78.22l-29.899,0l-29.899,0l0,-30.847c0,0 -0.828,-14.509 -14.077,-14.509c-14.731,0 -14.125,14.509 -14.125,14.509l0,162.912c0,0 1.349,12.136 13.188,11.825c14.666,-0.386 14.579,-11.825 14.579,-11.825c0,0 0.148,-15.705 -0.058,-34.006l-0.376,-33.274l-18.672,-3.867l9.192,-40.918l70.147,0l0,143.887l-6.081,3.564c-8.847,5.184 -23.704,10.661 -35.919,13.24c-10.226,2.159 -42.177,3.737 -50.667,2.502Zm511.337,-0.693c-15.52,-1.79 -30.28,-6.003 -42.67,-12.182l-12.05,-6.434l0,-67.884l58.53,0l0.42,19.973c0.18,8.112 0,16.054 0,16.054c0,0 2.62,11.863 13.91,11.863c11.29,0 13.86,-11.825 13.86,-11.825l0,-32.669l0,-35.227l-33,-0.418c-32.37,-0.41 -33.11,-0.481 -38.88,-3.751c-3.24,-1.834 -7.74,-5.639 -10,-8.456l-4.12,-5.123l-0.38,-58.494l-0.37,-58.495l12.37,-6.004c16.83,-8.163 30.91,-11.436 53.2,-12.365c22.3,-0.93 35.8,0.841 54.4,7.138c11.12,3.764 10.75,4.028 15.42,4.148c3.36,0.087 10.07,-1.591 10.07,-1.591l-0.05,39.16l0,38.748l-30,0l-30,0l0,-17.436l0,-12.174c0,0 0.98,-13.412 -13.66,-13.412c-13.53,0 -13,13.412 -13,13.412l0,50.944l30.18,0c36.09,0 37.84,0.669 46.46,8.259c10.22,8.998 10.14,8.324 9.72,76.263l-0.36,59.855l-10.08,5.076c-13.35,6.729 -30.15,11.463 -46.7,13.161c-15.12,1.551 -18.9,1.538 -33.22,-0.114Zm-1096.33,-112.834l-0.341,-109.666l-12.667,-0.146l0,-21.949l0,-21.949l71.255,0l13.036,44.71c15.47,52.213 13.804,47.469 16.326,46.502c1.789,-0.687 2.05,-6.544 2.05,-45.978l0,-45.19l60,0l0,262.36l-55.147,0l-14.817,-45.395c-8.872,-27.2 -14.741,-44.649 -14.741,-44.649l-4.313,0l-0.351,90.35l-29.974,0l-29.975,0l-0.341,-109Zm713.659,-0.333l0,-109.333l-13.333,0l0,-22.667l0,-22.667l148,0l0,45.289l-70.357,0.045l-0.003,29.666l-0.359,29l54.989,0c0,0 -2.173,12.809 -4.499,24.823l-4.23,21.844l-23.127,0l-23.127,0l0.356,33.667l0.357,33.666l70,0.299l0,45.701l-67.334,0l-67.333,0l0,-109.333Zm202.549,109.333c0,0 -1.216,-151.839 -1.216,-175.552l0,-43.114l-22,0l-22,0l0,-22l0,-22l150.667,0l0,43.935l-22.33,0.366l-22.337,0.365l0.872,218l-30.551,0l-31.105,0Zm-621.216,-363.964l0,-68.309l27,0.165c24.141,0.504 26.268,0.597 33.207,3.312c1.419,0.555 4.934,2.334 6.84,2.684c3.83,0.703 7.62,-0.36 7.62,-0.36l0,119.654l-3,2.115c-9.479,5.512 -24.345,8.816 -46,8.369l-25.667,0l0,-67.63Zm37.348,46.548c7.152,0.188 6.659,-7.914 6.659,-7.914l0,-76.472c0,0 0.588,-6.203 -6.336,-6.334c-6.924,-0.131 -7.012,5.883 -7.012,5.883l0,77.138c0,0 -0.601,7.508 6.689,7.699Zm66.652,-34.584l0,-56l-6.666,0c0,0 0,-0.089 0,-12l0,-12l76,0l0,24l-18,0l-18,0l0,30.667l28.151,0l-4.433,21.238l-23.036,0l-0.388,18.429l-0.372,17.666l36.078,0l0,24l-34.667,0l-34.667,0l0,-56Zm99.681,-0.333l-0.353,-57.185l-5.994,0c0,0 0,-0.599 0,-11.241l0,-11.241l35.885,0l3.969,13c2.183,7.15 5.302,17.65 6.93,23.334c1.084,3.785 3.414,11.615 3.414,11.615l1.802,0c0,0 0,-11.782 0,-24.615l0,-23.334l32,0l0,136l-14.627,0l-14.627,0l-15.892,-46.666l-1.521,0l0,46.666l-15.319,0l-15.319,0l-0.348,-56.333Zm108.592,-9.155c-4.572,-36.215 -8.443,-70.489 -8.443,-70.489l26.8,-0.023c0,0 8.777,72.219 10.274,72.189c2.475,-0.049 10.09,-72.205 10.09,-72.205l29.3,0l-20.008,136.361l-39.701,0.013l-8.312,-65.846Zm97.061,8.822l0,-56.667l-3.334,0c-3.294,0 -3.333,-0.133 -3.333,-11.333l0,-11.334l76,0l0,22.59l-17.667,0.372l-17.666,0.372l-0.377,15l-0.377,15l28.088,0c0,0 -0.981,6.95 -2.182,13l-2.184,11l-11.817,0l-11.818,0l0,34.666l36,0l0,24l-34.667,0l-34.666,0l0,-56.666Zm93.333,-11.334l0,-68l23,0.023c17.376,0.018 26.243,0.232 32.814,1.938c5.051,1.311 8.749,2.965 12.132,3.005c2.227,0.026 6.803,-0.594 6.803,-0.594l-0.082,37.734l0,36.493l-4.334,2.203c-2.383,1.212 -4.53,2.374 -4.77,2.582c-0.359,0.311 13.272,45.36 15.416,50.95c0.488,1.271 -2.859,1.666 -14.113,1.666l-14.753,0l-2.645,-9c-1.454,-4.95 -4.209,-14.7 -6.122,-21.666c-1.912,-6.967 -4.848,-17.334 -4.848,-17.334c0,0 -2.706,0 -3.921,0l-3.91,0l0,48l-15.334,0l-15.333,0l0,-68Zm37.043,-2.74c6.366,0.129 6.665,-6.276 6.665,-6.276l0.401,-15.131l0,-14.106c0,0 -0.195,-6.44 -6.596,-6.785c-6.402,-0.346 -6.846,6.269 -6.846,6.269l0,29.517c0,0 -0.926,6.364 6.376,6.512Z" style="fill:#0e2240;fill-rule:nonzero;"/></svg>