<?xml version="1.0" encoding="UTF-8" standalone="no"?><!DOCTYPE svg PUBLIC "-//W3C//DTD SVG 1.1//EN" "http://www.w3.org/Graphics/SVG/1.1/DTD/svg11.dtd"><svg width="100%" height="100%" viewBox="0 0 500 400" version="1.1" xmlns="http://www.w3.org/2000/svg" xmlns:xlink="http://www.w3.org/1999/xlink" xml:space="preserve" xmlns:serif="http://www.serif.com/" style="fill-rule:evenodd;clip-rule:evenodd;stroke-linejoin:round;stroke-miterlimit:1.41421;"><g id="g1571"><path id="path1579" d="M261.133,112.098l0,47.821c21.88,-2.622 42.341,-11.609 58.675,-26.547c-17.11,-11.549 -37.02,-19.098 -58.675,-21.274" style="fill:#0E2240;fill-rule:nonzero;"/><path id="path1583" d="M261.133,360.536c21.655,-2.289 41.565,-9.791 58.675,-21.232c-16.334,-14.961 -36.795,-24.094 -58.675,-26.731l0,47.963Z" style="fill:#0E2240;fill-rule:nonzero;"/><path id="path1587" d="M458.934,132.121l5.937,-3.285l-19.126,-29.33l-5.354,3.821c-32.527,-40.578 -90.28,-85.833 -145.241,-92.682c41.377,18.684 87.929,66.398 116.357,103.183l-29.866,21.466l3.601,5.453l-34.826,22.378c-3.478,-4.728 -7.224,-9.236 -11.313,-13.405c-21.448,20.094 -48.616,32.775 -77.97,35.342l0,36.874l112.776,0c-1.405,-11.506 -4.465,-22.51 -8.79,-32.851l36.597,-22.764l3.215,5.034l32.315,-17.955c21.975,41.283 46.501,103.3 46.219,148.381c16.992,-52.179 -0.681,-123.521 -24.531,-169.66" style="fill:#0E2240;fill-rule:nonzero;"/><path id="path1591" d="M441.942,350.061l-0.254,0.324l-83.004,-53.316c8.569,-15.06 14.04,-32.029 15.479,-50.153l-113.035,0l0,40.545c29.354,2.726 56.738,15.159 77.97,35.497c1.471,-1.494 2.895,-3.041 4.287,-4.601l84.743,52.752l-0.188,0.324l14.679,17.584l0.432,-0.606c4.456,-0.813 10.384,-5.687 15.084,-13.091c4.573,-7.2 6.74,-14.745 5.659,-18.815l0.263,-0.541l-22.115,-5.903Z" style="fill:#0E2240;fill-rule:nonzero;"/><path id="path1595" d="M139.06,297.985l-80.405,51.666l-0.254,-0.31l-22.148,5.899l0.235,0.536c-1.086,4.07 0.936,11.61 5.655,18.815c4.7,7.413 10.637,12.278 15.088,13.082l0.371,0.611l14.703,-17.575l-0.122,-0.329l82.35,-51.234c1.152,1.269 2.233,2.594 3.432,3.812c21.414,-20.339 48.672,-32.771 78.082,-35.497l0,-40.546l-112.978,0c1.678,18.501 7.239,35.798 15.991,51.07" style="fill:#0E2240;fill-rule:nonzero;"/><path id="path1599" d="M236.042,360.536l0,-47.963c-21.936,2.637 -42.223,11.77 -58.919,26.731c17.363,11.441 37.373,18.943 58.919,21.232" style="fill:#0E2240;fill-rule:nonzero;"/><path id="path1603" d="M177.401,133.376c16.418,14.943 36.709,23.93 58.646,26.539l0,-47.817c-21.546,2.176 -41.561,9.725 -58.646,21.278" style="fill:#0E2240;fill-rule:nonzero;"/><path id="path1607" d="M146.984,162.73l-31.943,-20.512l3.619,-5.453l-30.049,-21.476c28.62,-36.78 75.06,-84.498 116.489,-103.182c-54.891,6.839 -112.692,52 -144.969,92.541l-5.598,-3.986l-19.126,29.264l5.97,3.418l-0.156,0.249c-23.76,46.129 -41.212,117.471 -24.216,169.655c-0.442,-45.091 24.061,-107.108 46.068,-148.381l32.217,17.95l3.332,-5.034l33.585,20.879c-4.395,10.459 -7.498,21.608 -8.884,33.274l112.719,0l0,-36.87c-29.405,-2.575 -56.465,-15.252 -78.073,-35.351c-3.962,4.061 -7.591,8.437 -10.985,13.015" style="fill:#0E2240;fill-rule:nonzero;"/></g></svg>