<svg clip-rule="evenodd" fill-rule="evenodd" stroke-linejoin="round" stroke-miterlimit="1.41421" viewBox="0 0 800 600" xmlns="http://www.w3.org/2000/svg"><g fill-rule="nonzero"><path d="m400.23 10.085c158.961.273 289.661 131.039 289.855 290 0 159.935-130.065 290-289.855 290-.063 0-.126 0-.189 0-159.065 0-289.956-130.891-289.956-289.956 0-76.893 30.587-150.714 84.97-205.074 54.268-54.581 128.207-85.201 205.175-84.97" fill="#fec524"/><path d="m400.23 567.03c147.03 0 266.655-119.625 266.655-266.945 0-147.03-119.625-266.8-266.655-266.8-147.32-.145-266.945 119.625-266.945 266.655 0 147.32 119.625 267.09 266.945 267.09" fill="#8b2131"/><path d="m153.005 299.94c0-136.155 110.925-246.935 247.08-246.935 135.504 0 247.007 111.503 247.007 247.007 0 135.505-111.503 247.008-247.007 247.008-136.155.145-247.08-110.78-247.08-247.08" fill="#0e2240"/><g fill="#fec524"><path d="m594.675 196.555 5.51-3.045-17.69-27.55-4.93 3.625c-30.16-38.135-83.81-80.62-134.85-87 38.425 17.545 81.635 62.35 108.025 96.86l-27.695 20.155 3.335 5.075-125.28 81.345-125.28-81.345 3.335-5.075-27.84-20.155c26.535-34.51 69.6-79.315 108.17-96.86-50.895 6.38-104.545 48.865-134.56 86.855l-5.22-3.77-17.69 27.405 5.51 3.19-.145.29c-22.04 43.355-38.28 110.2-22.475 159.21-.435-42.34 22.33-100.485 42.775-139.2l29.87 16.82 3.045-4.785 116.29 73.08-153.41 99.76-.29-.29-20.59 5.51.29.58c-1.015 3.77.87 10.875 5.22 17.69 4.35 6.96 9.86 11.455 14.065 12.325l.29.58 13.63-16.53-.145-.29 305.515-192.125 3.045 4.785 30.015-16.82c20.445 38.715 43.21 97.005 42.92 139.2 15.66-49.155-.725-116.145-22.765-159.5"/><path d="m578.87 401.15-.29.29-141.085-91.64-24.65 14.645 153.265 96.425-.145.29 13.63 16.53.435-.58c4.06-.725 9.57-5.365 14.065-12.325 4.205-6.815 6.235-13.775 5.22-17.69l.29-.58z"/><path d="m425.17 107.235-10.585 13.921-14.645-35.091v161.966l49.3-63.221 49.591 12.904z"/></g><path d="m425.17 145.224v-37.989l-10.585 13.921z" fill="#fff"/><path d="m399.94 86.065-89.465 109.185 39.439-10.15 50.026 62.931z" fill="#fff"/><path d="m347.45 494.385c12.571-12.115 28.878-19.629 46.255-21.315v-24.215h-66.845c1.315 17.116 8.605 33.238 20.59 45.53" fill="#fec524"/><path d="m393.56 516.86v-28.71c-12.969 1.588-25.131 7.162-34.8 15.95 10.359 7.078 22.321 11.463 34.8 12.76" fill="#fec524"/><path d="m408.495 368.235v28.565c12.951-1.497 25.094-7.086 34.655-15.95-10.337-6.993-22.242-11.327-34.655-12.615" fill="#fff"/><path d="m454.605 390.71c-12.529 12.069-28.791 19.535-46.11 21.17v22.04h66.7c-2.005-16.25-9.232-31.418-20.59-43.21" fill="#fff"/><path d="m393.56 396.8v-28.565c-12.446 1.247-24.372 5.638-34.655 12.76 9.626 8.742 21.743 14.268 34.655 15.805" fill="#fff"/><path d="m408.495 448.855v24.215c17.359 1.594 33.649 9.124 46.11 21.315 12.081-12.24 19.432-28.382 20.735-45.53z" fill="#fec524"/><path d="m326.86 433.92h66.7v-22.04c-17.347-1.692-33.637-9.148-46.255-21.17-11.316 11.805-18.493 26.974-20.445 43.21" fill="#fff"/><path d="m408.495 516.86c12.445-1.248 24.372-5.639 34.655-12.76-9.578-8.839-21.712-14.424-34.655-15.95z" fill="#fec524"/></g></svg>