<?xml version="1.0" encoding="UTF-8" standalone="no"?><!DOCTYPE svg PUBLIC "-//W3C//DTD SVG 1.1//EN" "http://www.w3.org/Graphics/SVG/1.1/DTD/svg11.dtd"><svg width="100%" height="100%" viewBox="0 0 792 612" version="1.1" xmlns="http://www.w3.org/2000/svg" xmlns:xlink="http://www.w3.org/1999/xlink" xml:space="preserve" xmlns:serif="http://www.serif.com/" style="fill-rule:evenodd;clip-rule:evenodd;stroke-linejoin:round;stroke-miterlimit:1.41421;"><g><path id="path1219" d="M396,594.927c-159.319,0 -288.924,-129.611 -288.924,-288.924c0,-159.312 129.605,-288.93 288.924,-288.93c159.312,0 288.924,129.618 288.924,288.93c0,159.313 -129.612,288.924 -288.924,288.924" style="fill:#fec524;fill-rule:nonzero;"/><path id="path1223" d="M396,31.788c151.216,0 274.22,123.01 274.22,274.214c0,151.197 -123.004,274.208 -274.22,274.208c-151.197,0 -274.214,-123.011 -274.214,-274.208c0,-151.204 123.017,-274.214 274.214,-274.214" style="fill:#8b2131;fill-rule:nonzero;"/><path id="path1227" d="M656.132,306.808c0,144.12 -116.813,260.945 -260.945,260.945c-144.102,0 -260.939,-116.825 -260.939,-260.945c0,-144.12 116.837,-260.951 260.939,-260.951c144.132,0 260.945,116.831 260.945,260.951" style="fill:#0e2240;fill-rule:nonzero;"/><path id="path1231" d="M395.116,498.932c104.533,0 189.569,-85.073 189.569,-189.771c0,-104.502 -85.036,-189.66 -189.569,-189.66c-104.655,0 -189.728,85.158 -189.728,189.66c0,104.698 85.073,189.771 189.728,189.771" style="fill:#8b2131;fill-rule:nonzero;"/><path id="path1235" d="M218.028,309.158c0,-97.572 79.442,-176.984 177.094,-176.984c97.621,0 176.959,79.412 176.959,176.984c0,97.645 -79.338,177.088 -176.959,177.088c-97.652,0 -177.094,-79.443 -177.094,-177.088" style="fill:#0e2240;fill-rule:nonzero;"/><path id="path1239" d="M523.183,381.641l-0.171,0.22l-101.138,-65.704l-17.708,10.491l109.827,69.147l-0.122,0.22l9.752,11.822l0.293,-0.397c2.955,-0.55 6.906,-3.829 10.039,-8.812c3.04,-4.842 4.475,-9.916 3.755,-12.658l0.183,-0.36l-14.71,-3.969Zm27.607,-32.467c0.195,-30.324 -16.121,-72.036 -30.733,-99.795l-21.494,12.066l-2.131,-3.377l-0.025,0.006l0.025,0.037l-5.466,3.389l-213.456,134.295l0.073,0.22l-9.776,11.822l-0.25,-0.397c-2.968,-0.55 -6.907,-3.829 -10.039,-8.812c-3.133,-4.842 -4.476,-9.916 -3.755,-12.658l-0.159,-0.36l14.734,-3.969l0.165,0.22l109.907,-71.419l-74.118,-46.591l-0.006,0l-9.196,-5.74l0.018,-0.037l-0.018,-0.006l-2.223,3.377l-21.427,-12.066c-14.637,27.759 -30.928,69.471 -30.635,99.795c-11.303,-35.093 0.299,-83.076 16.102,-114.114l0.104,-0.159l-3.969,-2.296l12.719,-19.686l3.725,2.68c21.464,-27.27 59.909,-57.637 96.418,-62.247c-27.558,12.573 -58.443,44.667 -77.47,69.404l19.973,14.441l-2.399,3.67l0.042,0.024l0.013,-0.024l5.141,3.377l84.529,54.913l83.314,-54.126l6.357,-4.164l0.018,0.024l0.043,-0.024l-2.394,-3.67l19.87,-14.441c-18.911,-24.737 -49.864,-56.831 -77.397,-69.404c36.558,4.616 74.973,35.056 96.601,62.339l3.566,-2.571l12.719,19.736l-3.95,2.204c15.87,31.038 27.618,79.021 16.31,114.114" style="fill:#fec524;fill-rule:nonzero;"/><path id="path1243" d="M413.078,171.006l-7.603,9.941l-10.527,-25.121l0,116.019l35.343,-45.247l35.575,9.171l-52.788,-64.763Z" style="fill:#fec524;fill-rule:nonzero;"/><path id="path1247" d="M413.078,198.201l0,-27.192l-7.603,9.929l7.603,17.263Z" style="fill:#fff;fill-rule:nonzero;"/><path id="path1251" d="M394.956,155.815l-64.153,78.197l28.315,-7.199l35.838,45.027l0,-116.025Z" style="fill:#fff;fill-rule:nonzero;"/><path id="path1255" d="M355.749,450.707c9.281,-8.915 21.097,-14.368 33.835,-15.558l0,-17.763l-48.96,0c1.16,12.927 6.601,24.528 15.125,33.321" style="fill:#fec524;fill-rule:nonzero;"/><path id="path1259" d="M389.584,467.171l0,-21.017c-9.508,1.154 -18.301,5.153 -25.543,11.724c7.535,5.007 16.206,8.292 25.543,9.293" style="fill:#fec524;fill-rule:nonzero;"/><path id="path1263" d="M400.451,358.303l0,20.956c9.484,-1.154 18.35,-5.08 25.421,-11.632c-7.413,-5.062 -16.035,-8.372 -25.421,-9.324" style="fill:#fff;fill-rule:nonzero;"/><path id="path1267" d="M434.241,374.79c-9.288,8.805 -21.067,14.362 -33.786,15.485l0,16.163l48.874,0c-1.484,-12.249 -6.985,-23.307 -15.088,-31.648" style="fill:#fff;fill-rule:nonzero;"/><path id="path1271" d="M389.584,379.255l0,-20.957c-9.337,0.959 -18.008,4.268 -25.414,9.33c7.113,6.546 15.906,10.485 25.414,11.627" style="fill:#fff;fill-rule:nonzero;"/><path id="path1275" d="M400.451,417.381l0,17.769c12.72,1.197 24.578,6.644 33.78,15.559c8.555,-8.793 14.179,-20.389 15.199,-33.328l-48.979,0Z" style="fill:#fec524;fill-rule:nonzero;"/><path id="path1279" d="M340.732,406.435l48.85,0l0,-16.157c-12.737,-1.129 -24.48,-6.686 -33.835,-15.498c-8.078,8.348 -13.586,19.406 -15.015,31.655" style="fill:#fff;fill-rule:nonzero;"/><path id="path1283" d="M400.451,467.171c9.386,-1.001 18.008,-4.286 25.421,-9.293c-7.071,-6.571 -15.937,-10.57 -25.421,-11.724l0,21.017Z" style="fill:#fec524;fill-rule:nonzero;"/><path id="path1287" d="M605.604,283.218l6.9,11.865l-17.11,15.974l22.209,-8.25l7.016,11.993l1.136,-13.458l14.85,-0.965l-12.2,-7.419l14.966,-23.418l-24.632,19.827l-13.135,-6.149Z" style="fill:#fec524;fill-rule:nonzero;"/><path id="path1291" d="M184.889,283.021l-6.906,11.865l17.097,15.968l-22.196,-8.25l-7.01,11.999l-1.142,-13.458l-14.85,-0.971l12.194,-7.419l-14.96,-23.418l24.639,19.833l13.134,-6.149Z" style="fill:#fec524;fill-rule:nonzero;"/><path id="path1295" d="M200.987,167.654c-0.745,1.044 -0.843,2.357 -0.251,3.261c0.159,0.238 0.324,0.397 0.501,0.525l21.134,15.015l0.085,0.018c1.045,0.226 2.168,-0.226 2.901,-1.172l0.098,-0.122c0.94,-1.337 0.824,-3.053 -0.275,-3.835l-20.395,-14.63c-1.118,-0.8 -2.742,-0.434 -3.707,0.812l-0.091,0.128Zm21.61,31.233l-34.452,-24.412l7.682,-10.839c1.27,-1.746 2.754,-3.389 4.421,-4.879c0.983,-0.879 2.039,-1.661 3.126,-2.339c0.269,-0.25 0.44,-0.452 0.593,-0.665c0.11,-0.159 0.207,-0.312 0.293,-0.477l0.421,-0.769l30.293,21.494c-0.177,2.082 -0.702,4.189 -1.551,6.271c-0.806,1.936 -1.789,3.774 -2.925,5.459l-0.189,0.275l-7.712,10.881Z" style="fill:#fff;fill-rule:nonzero;"/><path id="path1299" d="M273.804,143.359l-19.65,-29.799l-2.003,1.319l-3.59,-5.447l21.964,-14.472l3.591,5.441l-10.772,7.108l5.978,9.055l8.268,-5.447l2.064,5.734l-7.071,4.665l6.815,10.344l10.771,-7.095l3.584,5.447l-19.949,13.147Z" style="fill:#fff;fill-rule:nonzero;"/><path id="path1303" d="M355.836,107.728l-8.512,-14.227l-0.818,0.317l3.144,15.193l-9.977,2.064l-7.248,-35.02l-2.174,0.452l-1.295,-6.357l10.57,-2.186l9.935,14.142l0.806,-0.348l-3.181,-15.351l9.971,-2.064l8.573,41.352l-9.794,2.033Z" style="fill:#fff;fill-rule:nonzero;"/><path id="path1307" d="M423.13,105.342l1.008,-42.652l9.355,1.563l-1.295,26.196l0.873,0.153l7.731,-25.14l9.391,1.564c-3.755,11.284 -12.89,37.168 -14.056,40.484l-13.007,-2.168Z" style="fill:#fff;fill-rule:nonzero;"/><path id="path1311" d="M588.494,164.879c-0.775,-0.996 -1.905,-1.539 -2.833,-1.338c-0.25,0.08 -0.44,0.171 -0.598,0.287l-7.993,6.131c-1.155,0.885 -0.868,2.412 -0.116,3.45l0.085,0.122c1.02,1.313 2.54,1.771 3.468,1.05l8.048,-6.014c0.929,-0.727 0.941,-2.29 0.031,-3.56l-0.092,-0.128Zm-15.772,13.061l-2.296,-2.974l-12.084,9.33l-6.039,-7.816l33.437,-25.78l8.067,10.454c1.3,1.722 2.455,3.596 3.419,5.575c0.574,1.172 1.057,2.375 1.423,3.578c0.165,0.311 0.305,0.537 0.47,0.739c0.11,0.14 0.226,0.281 0.354,0.415l0.611,0.635l-17.8,13.709c-1.019,-0.477 -2.051,-1.063 -3.041,-1.734l-0.366,-0.257l-9.575,14.722l-5.764,-7.425l9.184,-13.171Z" style="fill:#fff;fill-rule:nonzero;"/><path id="path1315" d="M493.085,128.346l18.521,-30.592l-2.052,-1.24l3.364,-5.544l22.496,13.629l-3.365,5.544l-11.034,-6.68l-5.446,8.983l8.487,5.141l-4.683,4.909l-7.236,-4.384l-6.235,10.295l11.028,6.681l-3.401,5.642l-20.444,-12.384Z" style="fill:#fff;fill-rule:nonzero;"/><path id="path1319" d="M324.025,545.068c-2.18,-0.654 -4.347,-1.588 -6.46,-2.766c-2.021,-1.142 -3.768,-2.486 -5.197,-4.012l10.882,-36.027c2.039,-0.489 4.238,-0.641 6.546,-0.47c2.418,0.183 4.738,0.616 6.912,1.264c2.174,0.659 4.342,1.587 6.454,2.772c0.928,0.525 1.844,1.123 2.687,1.771c0.415,0.323 0.904,0.568 1.441,0.72c0.177,0.067 0.367,0.104 0.556,0.141l0.873,0.152l-0.287,0.99l-3.12,10.301l-9.636,-2.907l1.386,-4.567c0.342,-1.154 -0.33,-2.449 -1.606,-3.072c-0.177,-0.085 -0.372,-0.165 -0.562,-0.226c-1.593,-0.482 -3.218,0.196 -3.614,1.496l-7.847,25.867c-0.171,0.549 -0.086,1.154 0.201,1.703c0.391,0.715 1.106,1.283 1.979,1.551c1.594,0.477 3.212,-0.189 3.609,-1.496l3.34,-10.918l-3.09,-1.612l3.157,-5.178l11.449,3.45l-6.601,21.867c-2.039,0.488 -4.231,0.641 -6.539,0.47c-2.419,-0.177 -4.745,-0.611 -6.913,-1.264" style="fill:#fff;fill-rule:nonzero;"/><path id="path1323" d="M408.425,554.699c-2.266,0.128 -4.629,-0.006 -7.016,-0.403c-2.284,-0.379 -4.391,-1.05 -6.247,-2.009l-2.046,-37.572c1.747,-1.148 3.756,-2.052 6.003,-2.668c2.326,-0.648 4.659,-1.045 6.924,-1.167c2.26,-0.122 4.623,0.013 7.016,0.416c1.057,0.171 2.107,0.415 3.127,0.745c0.501,0.158 1.032,0.225 1.587,0.195c0.196,-0.006 0.397,-0.037 0.587,-0.067l0.873,-0.153l0.055,1.026l0.586,10.747l-10.051,0.543l-0.256,-4.75c-0.068,-1.215 -1.142,-2.205 -2.547,-2.351c-0.213,-0.025 -0.415,-0.031 -0.604,-0.018c-1.673,0.097 -2.962,1.276 -2.895,2.644l1.429,26.983c0.037,0.574 0.293,1.118 0.764,1.533c0.61,0.549 1.477,0.83 2.387,0.788c1.667,-0.098 2.962,-1.283 2.888,-2.638l-0.586,-11.407l-3.444,-0.458l1.203,-5.947l11.938,-0.648l1.24,22.801c-1.747,1.154 -3.75,2.046 -5.985,2.675c-2.332,0.647 -4.665,1.038 -6.93,1.16" style="fill:#fff;fill-rule:nonzero;"/><path id="path1327" d="M248.025,506.456c-1.789,-1.392 -3.481,-3.041 -5.032,-4.909c-1.477,-1.777 -2.625,-3.67 -3.407,-5.6l20.511,-26.428l-1.771,-1.367l3.969,-5.117l9.752,7.565l-21.671,27.93c-0.831,1.069 -0.446,2.766 0.855,3.78c1.313,1.02 3.053,0.965 3.889,-0.098l21.672,-27.93l7.993,6.192l-24.486,31.545c-2.064,-0.275 -4.177,-0.922 -6.272,-1.905c-2.192,-1.038 -4.213,-2.266 -6.002,-3.658" style="fill:#fff;fill-rule:nonzero;"/><path id="path1331" d="M551.532,498.414l-23.223,-27.136l-6.197,5.282l-4.208,-4.928l20.31,-17.311l4.207,4.934l-6.21,5.288l23.216,27.142l-7.895,6.729Z" style="fill:#fff;fill-rule:nonzero;"/><path id="path1335" d="M603.804,439.899c-1.196,1.912 -2.656,3.731 -4.317,5.392c-1.6,1.594 -3.334,2.882 -5.19,3.847l-8.689,-5.471l5.343,-8.482l4.543,2.852c0.568,0.366 1.27,0.421 1.966,0.177c0.672,-0.244 1.27,-0.733 1.673,-1.392l0.086,-0.122c0.781,-1.374 0.494,-3.023 -0.654,-3.75l-9.715,-6.106l-5.746,9.117c-1.514,2.418 -4.262,3.431 -6.131,2.265c-0.348,-0.214 -0.677,-0.415 -0.879,-0.537l-13.647,-8.586c0.073,-2.082 0.482,-4.219 1.227,-6.344c0.775,-2.217 1.783,-4.311 2.986,-6.228c1.203,-1.918 2.668,-3.737 4.348,-5.423c0.867,-0.873 1.807,-1.667 2.796,-2.375c0.299,-0.293 0.519,-0.574 0.696,-0.861c0.11,-0.171 0.196,-0.336 0.281,-0.513l0.379,-0.794l9.996,6.277l-5.355,8.525l-4.049,-2.553c-0.189,-0.116 -0.397,-0.195 -0.647,-0.25c-1.093,-0.208 -2.259,0.385 -2.949,1.472l-0.068,0.134c-0.793,1.362 -0.5,3.016 0.648,3.737l6.918,4.354c0.092,0.055 0.177,0.097 0.263,0.152l0.36,0.196l5.581,-8.854c1.606,-2.571 4.531,-3.64 6.515,-2.394l1.741,1.099l0.372,0.257l13.574,8.548c-0.067,2.083 -0.488,4.226 -1.245,6.369c-0.794,2.241 -1.802,4.354 -3.011,6.265" style="fill:#fff;fill-rule:nonzero;"/><path id="path1339" d="M466.775,506.461l-2.217,0.91l-2.491,-5.972l24.291,-10.1l2.485,5.984l-11.907,4.958l4.03,9.691l9.159,-3.81l1.203,6.68l-7.816,3.249l4.623,11.119l11.901,-4.952l2.491,6.082l-22.013,9.171l-13.739,-33.01Z" style="fill:#fff;fill-rule:nonzero;"/><path id="path1343" d="M191.988,446.934l9.941,-13.263l-0.599,-0.635l-12.872,8.665l-5.691,-8.457l29.677,-19.968l-1.246,-1.844l5.373,-3.584l6.04,8.939l-9.325,14.551l0.635,0.611l13.001,-8.763l5.685,8.464l-35.032,23.576l-5.587,-8.292Z" style="fill:#fff;fill-rule:nonzero;"/></g></svg>