<?xml version="1.0" encoding="UTF-8" standalone="no"?><!DOCTYPE svg PUBLIC "-//W3C//DTD SVG 1.1//EN" "http://www.w3.org/Graphics/SVG/1.1/DTD/svg11.dtd"><svg width="100%" height="100%" viewBox="0 0 800 600" version="1.1" xmlns="http://www.w3.org/2000/svg" xmlns:xlink="http://www.w3.org/1999/xlink" xml:space="preserve" xmlns:serif="http://www.serif.com/" style="fill-rule:evenodd;clip-rule:evenodd;stroke-linejoin:round;stroke-miterlimit:1.41421;"><g><path d="M400.23,10.085c158.961,0.273 289.661,131.039 289.855,290c0,159.935 -130.065,290 -289.855,290c-0.063,0 -0.126,0 -0.189,0c-159.065,0 -289.956,-130.891 -289.956,-289.956c0,-76.893 30.587,-150.714 84.97,-205.074c54.268,-54.581 128.207,-85.201 205.175,-84.97" style="fill-rule:nonzero;"/><path d="M400.23,567.03c147.03,0 266.655,-119.625 266.655,-266.945c0,-147.03 -119.625,-266.8 -266.655,-266.8c-147.32,-0.145 -266.945,119.625 -266.945,266.655c0,147.32 119.625,267.09 266.945,267.09" style="fill:#fff;fill-rule:nonzero;"/><path d="M153.005,299.94c0,-136.155 110.925,-246.935 247.08,-246.935c135.504,0 247.007,111.503 247.007,247.007c0,135.505 -111.503,247.008 -247.007,247.008c-136.155,0.145 -247.08,-110.78 -247.08,-247.08" style="fill-rule:nonzero;"/><path d="M594.675,196.555l5.51,-3.045l-17.69,-27.55l-4.93,3.625c-30.16,-38.135 -83.81,-80.62 -134.85,-87c38.425,17.545 81.635,62.35 108.025,96.86l-27.695,20.155l3.335,5.075l-125.28,81.345l-125.28,-81.345l3.335,-5.075l-27.84,-20.155c26.535,-34.51 69.6,-79.315 108.17,-96.86c-50.895,6.38 -104.545,48.865 -134.56,86.855l-5.22,-3.77l-17.69,27.405l5.51,3.19l-0.145,0.29c-22.04,43.355 -38.28,110.2 -22.475,159.21c-0.435,-42.34 22.33,-100.485 42.775,-139.2l29.87,16.82l3.045,-4.785l116.29,73.08l-153.41,99.76l-0.29,-0.29l-20.59,5.51l0.29,0.58c-1.015,3.77 0.87,10.875 5.22,17.69c4.35,6.96 9.86,11.455 14.065,12.325l0.29,0.58l13.63,-16.53l-0.145,-0.29l305.515,-192.125l3.045,4.785l30.015,-16.82c20.445,38.715 43.21,97.005 42.92,139.2c15.66,-49.155 -0.725,-116.145 -22.765,-159.5" style="fill:#fff;fill-rule:nonzero;"/><path d="M578.87,401.15l-0.29,0.29l-141.085,-91.64l-24.65,14.645l153.265,96.425l-0.145,0.29l13.63,16.53l0.435,-0.58c4.06,-0.725 9.57,-5.365 14.065,-12.325c4.205,-6.815 6.235,-13.775 5.22,-17.69l0.29,-0.58l-20.735,-5.365Z" style="fill:#fff;fill-rule:nonzero;"/><g><path d="M424.17,107.235l-10.585,13.921l-14.645,-35.091l0,161.966l49.3,-63.221l49.591,12.904l-73.661,-90.479Z" style="fill:#fff;fill-rule:nonzero;"/><path d="M424.17,145.224l0,-37.989l-10.585,13.921l10.585,24.068Z" style="fill:#fff;fill-rule:nonzero;"/></g><path d="M399.94,86.065l-89.465,109.185l39.439,-10.15l50.026,62.931l0,-161.966Z" style="fill:#fff;fill-rule:nonzero;"/><path d="M347.45,494.385c12.571,-12.115 28.878,-19.629 46.255,-21.315l0,-24.215l-66.845,0c1.315,17.116 8.605,33.238 20.59,45.53" style="fill:#fff;fill-rule:nonzero;"/><path d="M393.56,516.86l0,-28.71c-12.969,1.588 -25.131,7.162 -34.8,15.95c10.359,7.078 22.321,11.463 34.8,12.76" style="fill:#fff;fill-rule:nonzero;"/><path d="M408.495,368.235l0,28.565c12.951,-1.497 25.094,-7.086 34.655,-15.95c-10.337,-6.993 -22.242,-11.327 -34.655,-12.615" style="fill:#fff;fill-rule:nonzero;"/><path d="M454.605,390.71c-12.529,12.069 -28.791,19.535 -46.11,21.17l0,22.04l66.7,0c-2.005,-16.25 -9.232,-31.418 -20.59,-43.21" style="fill:#fff;fill-rule:nonzero;"/><path d="M393.56,396.8l0,-28.565c-12.446,1.247 -24.372,5.638 -34.655,12.76c9.626,8.742 21.743,14.268 34.655,15.805" style="fill:#fff;fill-rule:nonzero;"/><path d="M408.495,448.855l0,24.215c17.359,1.594 33.649,9.124 46.11,21.315c12.081,-12.24 19.432,-28.382 20.735,-45.53l-66.845,0Z" style="fill:#fff;fill-rule:nonzero;"/><path d="M326.86,433.92l66.7,0l0,-22.04c-17.347,-1.692 -33.637,-9.148 -46.255,-21.17c-11.316,11.805 -18.493,26.974 -20.445,43.21" style="fill:#fff;fill-rule:nonzero;"/><path d="M408.495,516.86c12.445,-1.248 24.372,-5.639 34.655,-12.76c-9.578,-8.839 -21.712,-14.424 -34.655,-15.95l0,28.71Z" style="fill:#fff;fill-rule:nonzero;"/></g></svg>