<?xml version="1.0" encoding="UTF-8" standalone="no"?><!DOCTYPE svg PUBLIC "-//W3C//DTD SVG 1.1//EN" "http://www.w3.org/Graphics/SVG/1.1/DTD/svg11.dtd"><svg width="100%" height="100%" viewBox="0 0 500 500" version="1.1" xmlns="http://www.w3.org/2000/svg" xmlns:xlink="http://www.w3.org/1999/xlink" xml:space="preserve" xmlns:serif="http://www.serif.com/" style="fill-rule:evenodd;clip-rule:evenodd;stroke-linejoin:round;stroke-miterlimit:1.41421;"><g><path id="path1973" d="M250.003,489.995c-132.333,0 -240.003,-107.655 -240.003,-239.982c0,-132.343 107.67,-240.008 240.003,-240.008c132.333,0 239.998,107.665 239.998,240.008c0,132.327 -107.665,239.982 -239.998,239.982" style="fill:#FEC524;fill-rule:nonzero;"/><path id="path1977" d="M250.003,26.878c123.037,0 223.12,100.102 223.12,223.129c0,123.017 -100.083,223.11 -223.12,223.11c-123.017,0 -223.12,-100.093 -223.12,-223.11c0,-123.027 100.103,-223.13 223.12,-223.13" style="fill:#8B2131;fill-rule:nonzero;"/><path id="path1981" d="M461.666,250.663c0,117.264 -95.049,212.314 -212.324,212.314c-117.249,0 -212.313,-95.05 -212.313,-212.314c0,-117.269 95.064,-212.329 212.313,-212.329c117.275,0 212.324,95.06 212.324,212.329" style="fill:#244289;fill-rule:nonzero;"/><path id="path1985" d="M414.465,272.822l5.677,9.767l-14.075,13.132l18.261,-6.781l5.778,9.863l0.938,-11.075l12.22,-0.79l-10.035,-6.108l12.306,-19.265l-20.264,16.31l-10.806,-5.053Z" style="fill:#FEC524;fill-rule:nonzero;"/><path id="path1989" d="M83.183,272.662l-5.682,9.757l14.065,13.132l-18.261,-6.781l-5.768,9.873l-0.933,-11.075l-12.225,-0.8l10.035,-6.103l-12.306,-19.265l20.264,16.315l10.811,-5.053Z" style="fill:#FEC524;fill-rule:nonzero;"/><path id="path1993" d="M382.872,179.769c-26.184,-47.781 -76.787,-77.457 -132.085,-77.457c-25.656,0 -51.201,6.574 -73.873,18.992c-35.662,19.549 -61.708,51.653 -73.341,90.417c-11.647,38.784 -7.45,79.494 11.81,114.639c19.078,34.82 50.746,60.183 89.144,71.389c14.025,4.095 28.465,6.174 42.91,6.174l0.015,0c25.551,0 51.101,-6.61 73.889,-19.104c73.746,-40.411 101.354,-132.403 61.531,-205.05" style="fill:#0E2240;fill-rule:nonzero;"/><path id="path1997" d="M158.602,341.742c21.43,-20.608 48.739,-33.193 78.181,-35.951l0,-41.07l-113.133,0c2.681,29.899 15.241,56.696 34.952,77.021" style="fill:#FEC524;fill-rule:nonzero;"/><path id="path2001" d="M236.787,379.787l0,-48.566c-21.972,2.681 -42.296,11.906 -59.017,27.071c17.39,11.586 37.446,19.174 59.017,21.495" style="fill:#FEC524;fill-rule:nonzero;"/><path id="path2005" d="M261.911,128.195l0,48.434c21.911,-2.65 42.403,-11.753 58.759,-26.888c-17.142,-11.693 -37.076,-19.336 -58.759,-21.546" style="fill:#fff;fill-rule:nonzero;"/><path id="path2009" d="M339.988,166.296c-21.465,20.355 -48.678,33.193 -78.075,35.794l0,37.349l112.941,0c-3.431,-28.312 -16.133,-53.847 -34.866,-73.143" style="fill:#fff;fill-rule:nonzero;"/><path id="path2013" d="M236.787,176.628l0,-48.434c-21.571,2.215 -41.627,9.853 -58.728,21.551c16.432,15.129 36.756,24.232 58.728,26.883" style="fill:#fff;fill-rule:nonzero;"/><path id="path2017" d="M261.911,264.722l0,41.065c29.387,2.772 56.802,15.352 78.075,35.956c19.762,-20.32 32.773,-47.127 35.119,-77.021l-113.194,0Z" style="fill:#FEC524;fill-rule:nonzero;"/><path id="path2021" d="M123.899,239.434l112.885,0l0,-37.345c-29.448,-2.605 -56.549,-15.443 -78.186,-35.788c-18.678,19.28 -31.379,44.826 -34.699,73.133" style="fill:#fff;fill-rule:nonzero;"/><path id="path2025" d="M261.911,379.787c21.683,-2.321 41.617,-9.909 58.759,-21.495c-16.356,-15.165 -36.848,-24.39 -58.759,-27.071l0,48.566Z" style="fill:#FEC524;fill-rule:nonzero;"/><path id="path2029" d="M66.062,173.735l32.479,11.804l-1.764,4.851l-25.368,-9.22l-0.03,0.092l23.533,14.262l-0.983,2.692l-27.193,-4.167l-0.03,0.082l25.367,9.209l-1.768,4.871l-32.474,-11.8l2.656,-7.334l20.426,2.935l0.035,-0.091l-17.547,-10.852l2.661,-7.334Z" style="fill:#fff;fill-rule:nonzero;"/><path id="path2033" d="M107.575,169.013l-29.372,-18.171l3.117,-5.048l29.372,18.171l-3.117,5.048Z" style="fill:#fff;fill-rule:nonzero;"/><path id="path2037" d="M121.716,148.645l-25.839,-22.925l3.938,-4.445l21.977,19.499l6.189,-6.975l3.867,3.437l-10.132,11.409Z" style="fill:#fff;fill-rule:nonzero;"/><path id="path2041" d="M143.955,126.208l-20.801,-27.618l12.697,-9.554l3.112,4.131l-7.958,5.985l5.362,7.106l6.118,-4.602l3.107,4.131l-6.118,4.607l6.108,8.105l8.49,-6.392l3.107,4.136l-13.224,9.965Z" style="fill:#fff;fill-rule:nonzero;"/><path id="path2045" d="M193.353,97.802l-9.894,-33.128l5.687,-1.703l4.035,13.487l6.051,-1.809l-4.029,-13.487l5.687,-1.698l9.899,33.122l-5.687,1.703l-4.384,-14.678l-6.057,1.804l4.384,14.684l-5.692,1.703Z" style="fill:#fff;fill-rule:nonzero;"/><path id="path2049" d="M229.818,89.397l-3.482,-34.395l5.91,-0.608l3.482,34.4l-5.91,0.603Z" style="fill:#fff;fill-rule:nonzero;"/><path id="path2053" d="M264.505,71.366l9.681,0.846l-1.531,17.466l-2.859,-0.248l-0.871,-2.671c-1.947,1.936 -3.467,2.772 -6.229,2.534c-4.674,-0.411 -7.629,-4.035 -7.152,-9.524l1.556,-17.75c0.426,-4.86 3.634,-8.57 9.453,-8.064c5.915,0.512 8.5,5.074 8.048,10.213l-0.192,2.205l-5.626,-0.497c0.451,-5.154 -0.482,-6.573 -2.823,-6.776c-1.43,-0.127 -2.697,0.618 -2.95,3.538l-1.551,17.699c-0.193,2.2 0.4,3.685 2.453,3.872c2.382,0.208 3.36,-1.059 3.659,-4.496l0.289,-3.335l-3.766,-0.334l0.411,-4.678Z" style="fill:#fff;fill-rule:nonzero;"/><path id="path2057" d="M290.659,93.223l10.395,-32.94l5.657,1.784l-4.232,13.412l6.026,1.895l4.227,-13.411l5.662,1.789l-10.391,32.93l-5.656,-1.774l4.602,-14.602l-6.021,-1.901l-4.608,14.603l-5.661,-1.785Z" style="fill:#fff;fill-rule:nonzero;"/><path id="path2061" d="M368.508,107.755l1.668,-2.103c1.814,-2.281 1.54,-4.086 0.339,-5.049c-1.87,-1.49 -3.249,-0.983 -4.855,1.029l-10.898,13.721c-1.606,2.027 -1.779,3.472 0.092,4.967c1.692,1.343 3.02,0.806 4.424,-0.953l2.585,-3.259l4.648,3.69l-2.473,3.112c-3.031,3.826 -7.75,5.154 -12.403,1.454c-4.871,-3.872 -4.643,-8.763 -1.607,-12.595l11.075,-13.933c3.036,-3.817 7.755,-5.145 12.631,-1.277c4.642,3.695 4.212,8.859 0.998,12.889l-1.576,2.002l-4.648,-3.695Z" style="fill:#fff;fill-rule:nonzero;"/><path id="path2065" d="M372.433,143.324l26.204,-22.534l3.872,4.495l-26.199,22.54l-3.877,-4.501Z" style="fill:#fff;fill-rule:nonzero;"/><path id="path2069" d="M414.847,151.209l-2.945,-4.942l4.435,-2.651l8.941,14.973l-4.44,2.651l-2.945,-4.937l-25.241,15.079l-3.046,-5.099l25.241,-15.074Z" style="fill:#fff;fill-rule:nonzero;"/><path id="path2073" d="M405.923,201.032l-1.982,-5.591l13.523,-4.774l16.63,-13.497l2.012,5.676l-11.009,8.313l0.03,0.086l13.721,-0.644l2.012,5.672l-21.414,-0.021l-13.523,4.78Z" style="fill:#fff;fill-rule:nonzero;"/><path id="path2077" d="M104.487,355.339l1.237,1.784c1.287,1.86 3.543,2.397 5.92,0.75c2.645,-1.84 3.309,-3.821 1.804,-6.001l-1.292,-1.86l-7.669,5.327Zm-12.808,8.895l1.429,2.058c1.815,2.615 3.969,2.514 6.853,0.512c2.934,-2.033 3.624,-4.161 1.591,-7.081l-1.094,-1.581l-8.779,6.092Zm21.105,-21.921l5.053,7.268c3.65,5.261 2.585,9.458 -2.28,12.839c-2.449,1.693 -5.733,2.458 -8.328,0.74c0.618,3.259 -0.34,6.102 -4.014,8.652c-4.709,3.274 -9.722,3.649 -13.594,-1.926l-5.378,-7.745l28.541,-19.828Z" style="fill:#fff;fill-rule:nonzero;"/><path id="path2081" d="M125.404,391.823l3.553,3.239l8.322,-12.611l-0.071,-0.071l-11.804,9.443Zm-10.122,8.231l-4.267,-3.897l28.165,-21.364l5.479,4.992l-18.708,30.001l-4.257,-3.888l4.399,-6.411l-4.835,-4.41l-5.976,4.977Z" style="fill:#fff;fill-rule:nonzero;"/><path id="path2085" d="M168.768,406.528c1.222,-2.742 0.243,-4.258 -0.943,-4.906c-1.693,-0.923 -3.218,-0.335 -4.252,1.566c-2.844,5.195 6.442,13.512 1.921,21.774c-2.747,5.033 -7.649,5.981 -12.555,3.3c-4.855,-2.651 -5.519,-8.059 -3.239,-12.737l5.378,2.002c-1.47,3.198 -1.08,5.392 0.608,6.315c1.815,0.988 3.574,0.684 4.562,-1.13c3.305,-6.042 -6.462,-13.457 -1.688,-22.21c2.656,-4.851 7.116,-5.981 12.266,-3.168c4.267,2.331 5.114,6.797 3.228,11.363l-5.286,-2.169Z" style="fill:#fff;fill-rule:nonzero;"/><path id="path2089" d="M185.716,441.849l9.022,-33.553l5.763,1.561l-3.335,12.407l0.091,0.021l9.382,-10.786l5.757,1.551l-9.589,10.821l1.353,22.935l-5.859,-1.576l-0.487,-16.868l-0.096,-0.026l-3.036,3.163l-3.203,11.901l-5.763,-1.551Z" style="fill:#fff;fill-rule:nonzero;"/><path id="path2093" d="M227.551,450.132l2.793,-34.689l15.945,1.293l-0.415,5.19l-9.995,-0.811l-0.715,8.936l7.684,0.618l-0.416,5.185l-7.689,-0.613l-0.816,10.182l10.659,0.867l-0.415,5.18l-16.62,-1.338Z" style="fill:#fff;fill-rule:nonzero;"/><path id="path2097" d="M270.053,420.704l-5.738,0.715l-0.643,-5.17l17.4,-2.149l0.639,5.165l-5.733,0.704l3.639,29.352l-5.925,0.729l-3.639,-29.346Z" style="fill:#fff;fill-rule:nonzero;"/><path id="path2101" d="M313.67,436.125l2.347,-0.867c2.98,-1.105 3.441,-3.213 2.225,-6.513c-1.227,-3.345 -3.107,-4.546 -6.452,-3.314l-1.81,0.658l3.69,10.036Zm-5.383,-14.643l2.038,-0.75c2.123,-0.781 3.213,-2.823 2.22,-5.52c-1.115,-3.041 -2.869,-4.191 -5.353,-3.279l-2.123,0.781l3.218,8.768Zm-10.517,-11.313l8.312,-3.056c6.012,-2.21 9.803,-0.117 11.851,5.444c1.028,2.797 0.927,6.163 -1.384,8.251c3.315,0.218 5.819,1.86 7.364,6.062c1.972,5.378 1.07,10.33 -5.291,12.666l-8.865,3.259l-11.987,-32.626Z" style="fill:#fff;fill-rule:nonzero;"/><path id="path2105" d="M348.684,409.968l3.984,-2.707l-10.33,-11.018l-0.086,0.055l6.432,13.67Zm5.646,11.744l-4.774,3.249l-14.217,-32.337l6.133,-4.172l24.81,25.16l-4.78,3.244l-5.2,-5.778l-5.413,3.675l3.441,6.959Z" style="fill:#fff;fill-rule:nonzero;"/><path id="path2109" d="M384.881,397.431l-24.952,-24.217l4.156,-4.288l21.227,20.603l6.538,-6.746l3.731,3.629l-10.7,11.019Z" style="fill:#fff;fill-rule:nonzero;"/><path id="path2113" d="M410.639,367.54l-28.718,-19.595l3.36,-4.926l24.425,16.66l5.292,-7.76l4.298,2.93l-8.657,12.691Z" style="fill:#fff;fill-rule:nonzero;"/></g></svg>