<?xml version="1.0" encoding="UTF-8" standalone="no"?><!DOCTYPE svg PUBLIC "-//W3C//DTD SVG 1.1//EN" "http://www.w3.org/Graphics/SVG/1.1/DTD/svg11.dtd"><svg width="100%" height="100%" viewBox="0 0 800 500" version="1.1" xmlns="http://www.w3.org/2000/svg" xmlns:xlink="http://www.w3.org/1999/xlink" xml:space="preserve" xmlns:serif="http://www.serif.com/" style="fill-rule:evenodd;clip-rule:evenodd;stroke-linejoin:round;stroke-miterlimit:1.41421;"><g><path id="path1769" d="M23.86,473.539l0.329,-42.904c0,-99.359 19.053,-170.597 63.707,-238.031c68.861,-104.034 185.617,-166.149 312.303,-166.149c72.052,0 142.227,20.431 202.936,59.088c59.16,37.671 106.033,90.627 135.567,153.15c28.519,60.387 36.222,99.801 37.421,191.692l0.015,0.507l-1.278,42.49l-751,0.157Z" style="fill:#FEC524;fill-rule:nonzero;"/><path id="path1773" d="M726.068,392.777l-62.237,0l0,11.137l-26.87,0.328l0,13.378l-17.005,2.97l-0.057,-144.119c0,0 0.935,-11.672 -8.082,-22.337c-9.401,-11.123 -27.834,-12.715 -27.848,-12.715l-0.022,-0.028l-42.761,14.32l0.085,9.781c0,0 -10.03,3.012 -14.62,10.401c-4.583,7.417 -4.24,13.114 -4.419,18.818l0.121,56.818l-17.618,0.05l0.185,-32.96l-48.801,-16.148l0,0.007l0,-0.014l-54.441,11.729l-0.342,58.16l-25.686,0.014l-0.093,18.411l-19.16,-0.028l0.1,-149.316l-45.404,-23.659l0,0.008l-57.731,21.052l0,112.408l-18.633,0l0.093,-38.742l-55.683,-16.505l0,0.007l0,-0.007l-42.655,18.404l0,77.87l-16.362,0l0,-41.562l-39.785,0c1,-6.468 2.178,-12.764 3.477,-18.975l37.258,0.521l0.042,-31.411l56.983,-24.393l57.003,17.725l0.265,-67.297l7.738,-3.07l34.524,-13.757l0.007,0.007l1.192,-0.714l-1.185,0.707l34.495,-13.499l22.351,11.857l-0.007,0.007l41.313,22.095l-0.928,120.74l7.881,-0.172l0.293,-53.163l73.666,-15.855l48.986,16.776l0.357,-11.529c0,0 0.45,-7.881 3.955,-15.97c3.505,-8.074 14.735,-15.541 14.735,-15.541l-0.107,-11.586l47.93,-16.305l-0.007,0l15.405,-4.205c0,0 34.295,7.71 43.233,29.997l0,0.079c6.904,10.258 5.811,27.549 5.811,27.549l0,104.22l10.68,-0.129l0,-11.686l76.75,0c0.621,6.311 1.321,12.6 1.656,19.046l-0.021,0Zm-595.016,-172.225c0.078,-0.121 0.171,-0.228 0.264,-0.356l-0.214,0c0,0 64.249,-57.461 181.398,-77.7c-5.968,12.465 -19.161,31.811 -46.174,62.465l-38.586,-17.347l-113.65,61.051c5.054,-9.323 10.622,-18.654 16.962,-28.113m144.604,-117.005c12.4,1.171 28.506,4.804 36.508,12.707c-47.809,7.767 -87.265,21.338 -118.126,35.38c24.822,-20.132 52.378,-36.251 81.618,-48.087m65.663,34.887c13.571,-1.485 27.935,-2.291 42.712,-2.655l0,10.358l-70.596,42.426c16.012,-21.195 24.65,-37.172 27.884,-50.129m-22.116,-49.086c21.174,-5.312 42.912,-8.481 64.828,-9.531l0,-0.014l0.193,0c-0.064,0 -0.122,0.014 -0.193,0.014l0,30.055c-15.177,0.357 -29.905,1.156 -43.868,2.641c-0.279,-0.678 -0.486,-1.378 -0.8,-2.049c-4.376,-9.516 -11.843,-16.262 -20.367,-21.116l0.207,0Zm90.706,57.396l0,-11.044c15.121,0.329 29.22,1.235 42.691,2.484c5.632,20.468 21.609,43.369 39.313,64.978l-82.004,-56.418Zm0,-67.234l0.193,0c21.145,0.643 42.319,3.356 63.229,8.11l-0.207,0c-8.988,5.354 -15.627,12.236 -19.482,20.503c-0.6,1.306 -0.957,2.684 -1.392,4.033c-13.421,-1.163 -27.378,-2.034 -42.341,-2.334l0,-30.312Zm107.583,21.567l0.214,0c19.625,7.531 38.764,17.012 57.147,28.584c12.057,7.574 23.286,15.712 33.881,24.236l-0.208,0c-33.688,-16.833 -74.893,-31.325 -129.391,-38.764c6.789,-9.68 25.486,-13.043 38.357,-14.056m152.086,121.339c1.435,1.028 2.841,1.999 4.276,2.998l0.2,0c5.126,7.803 9.73,15.905 14.099,24.129l-138.208,-63.264l-25.407,15.484c-19.775,-22.48 -36.901,-43.297 -44.332,-60.359c94.397,13.964 146.175,50.415 189.372,81.012m47.416,26.413c-27.613,-58.46 -71.46,-107.989 -126.836,-143.255c-56.911,-36.229 -122.674,-55.376 -190.179,-55.376c-118.697,0 -228.043,58.139 -292.5,155.491c-44.025,66.499 -59.752,135.332 -59.752,225.131l-0.157,18.961l704.019,-0.15l0.564,-18.932c-1.171,-88.693 -8.31,-125.023 -35.159,-181.87" style="fill:#0E2240;fill-rule:nonzero;"/><path id="path1777" d="M275.489,103.535c0.05,0 0.107,0.015 0.157,0.015c0.007,-0.015 0.022,-0.015 0.036,-0.015l-0.193,0Z" style="fill:#fff;fill-rule:nonzero;"/><path id="path1781" d="M194.042,151.637c-0.157,0.079 -0.336,0.15 -0.486,0.221l0.207,0c0.079,-0.071 0.179,-0.142 0.279,-0.221" style="fill:#fff;fill-rule:nonzero;"/><path id="path1785" d="M384.034,79.806l0,0.007c0.064,0 0.135,-0.007 0.193,-0.007l-0.193,0Z" style="fill:#0E2240;fill-rule:nonzero;"/><path id="path1789" d="M726.068,392.777l-62.237,0l0,11.137l-26.87,0.328l0,13.35l32.381,-5.618l57.29,10.294c0,0 0.499,-16.248 -0.564,-29.491" style="fill:#244289;fill-rule:nonzero;"/><path id="path1793" d="M504.738,351.673l17.618,-0.142l-0.121,-56.818c0.179,-5.712 -0.164,-11.401 4.419,-18.818c4.59,-7.389 14.62,-10.402 14.62,-10.402l-0.092,-9.78l42.768,-14.321l-0.042,13.778c-14.978,3.249 -13.607,24.38 -13.607,24.38l0.871,118.762l-27.856,-14.185l-38.842,10.858l0.264,-43.312Z" style="fill:#244289;fill-rule:nonzero;"/><path id="path1797" d="M375.558,390.78l0.093,-18.411l25.678,-0.014l0.343,-58.16l54.434,-11.73l-0.35,103.264l-12.122,2.97l-44.068,-6.247l-36.893,9.866l-6.29,-1.642l0,-19.946l19.175,0.05Z" style="fill:#244289;fill-rule:nonzero;"/><path id="path1801" d="M311.1,217.782l-57.739,21.053l0,112.408l-18.633,0l-0.15,58.988l17.648,0.471l56.189,-8.595l2.685,-184.325Z" style="fill:#244289;fill-rule:nonzero;"/><path id="path1805" d="M179.136,295.996l-42.662,18.411l0,77.863l-16.355,0l0,-41.562l-39.885,0c0,0 -2.384,16.398 -3.591,31.653c-1.227,15.263 -1.977,30.833 -1.948,33.539l24.664,-1.499l45.168,10.665l33.981,-10.687l0.628,-118.383Z" style="fill:#244289;fill-rule:nonzero;"/><path id="path1809" d="M548.133,425.036l-14.599,-0.828l-4.39,8.309l-3.313,-8.281l-24.286,2.934l21.081,-9.708l-3.698,-9.374l10.23,6.368l22.645,-11.165l-14.25,15.463l10.58,6.282Z" style="fill:#FEC524;fill-rule:nonzero;"/><path id="path1813" d="M121.113,300.841l56.982,-24.393l57.004,17.725l0.264,-67.29l7.739,-3.077l34.53,-13.757l-49.886,-22.43l-113.651,61.044c-14.613,26.935 -24.229,53.77 -30.311,83.068l37.286,0.521l0.043,-31.411Z" style="fill:#fff;fill-rule:nonzero;"/><path id="path1817" d="M549.948,186.284l-43.789,26.678l-108.768,-74.794l-119.754,71.888l34.495,-13.507l22.359,11.865l-0.008,0.007l41.306,22.095l-0.921,120.732l7.881,-0.171l0.293,-53.156l73.659,-15.855l48.994,16.776l0.356,-11.536c0,0 0.45,-7.875 3.955,-15.963c3.506,-8.074 14.735,-15.541 14.735,-15.541l-0.107,-11.587l47.93,-16.305l-0.007,0l15.406,-4.204c0,0 34.295,7.702 43.232,29.99l0,0.086c6.904,10.258 5.811,27.548 5.811,27.548l0,104.22l10.673,-0.128l0,-11.694l76.885,0c-4.483,-45.21 -16.576,-86.829 -36.408,-124.18l-138.208,-63.264Z" style="fill:#fff;fill-rule:nonzero;"/><path id="path1821" d="M334.487,208.418l62.55,-36.166l109.189,73.395l45.496,-26.807l20.838,9.067l-47.923,16.312l0.1,11.579c0,0 -11.23,7.475 -14.728,15.542c-3.505,8.088 -3.962,15.969 -3.962,15.969l-0.349,11.529l-48.994,-16.776l-73.659,15.856l-0.293,53.163l-7.888,0.171l0.928,-120.739l-41.305,-22.095Z" style="fill:#8B2131;fill-rule:nonzero;"/><path id="path1825" d="M121.07,332.254l0.043,-31.411l56.982,-24.393l57.004,17.725l0.264,-67.298l7.746,-3.076l-13.807,-6.518l-132.511,69.175c-5.483,14.649 -9.759,29.605 -13.007,45.275l37.286,0.521Z" style="fill:#8B2131;fill-rule:nonzero;"/><path id="path1829" d="M631.192,253.783c6.903,10.259 5.811,27.549 5.811,27.549l0,104.22l10.68,-0.135l0,-11.687l76.878,0c-3.084,-31.068 -9.716,-60.458 -20.01,-87.922l-73.359,-32.025Z" style="fill:#8B2131;fill-rule:nonzero;"/></g></svg>