<?xml version="1.0" encoding="UTF-8" standalone="no"?>
<!DOCTYPE svg PUBLIC "-//W3C//DTD SVG 1.1//EN" "http://www.w3.org/Graphics/SVG/1.1/DTD/svg11.dtd">
<svg width="100%" height="100%" viewBox="0 0 800 600" version="1.1" xmlns="http://www.w3.org/2000/svg" xmlns:xlink="http://www.w3.org/1999/xlink" xml:space="preserve" xmlns:serif="http://www.serif.com/" style="fill-rule:evenodd;clip-rule:evenodd;stroke-linejoin:round;stroke-miterlimit:1.41421;">
    <g transform="matrix(8.24106,0,0,8.23981,-741.595,-1379.45)">
        <g transform="matrix(1,0,0,1,138.127,196.32)">
            <path d="M0,28.942C-7.977,28.942 -14.469,22.449 -14.469,14.467C-14.469,6.49 -7.977,0 0,0C7.977,0 14.469,6.49 14.469,14.467C14.469,22.449 7.977,28.942 0,28.942" style="fill:rgb(197,158,101);fill-rule:nonzero;"/>
        </g>
        <g transform="matrix(1,0,0,1,133.547,175.341)">
            <path d="M0,57.092C-3.789,56.067 -5.702,51.708 -5.702,51.708C-5.614,51.666 -1.845,49.451 -0.63,46.562L-12.113,46.562L-12.113,37.545L-9.569,37.528L-7.932,37.528C-8.422,35.359 -9.49,33.038 -11.803,32.991C-16.611,32.895 -13.696,40.515 -13.696,40.515C-13.696,40.515 -25.861,41.111 -25.837,28.722C-25.826,23.874 -22.759,18.611 -15.905,17.785C-15.399,17.724 -14.896,17.694 -14.409,17.694C-10.757,17.694 -7.904,19.503 -5.952,21.921C-10.278,7.749 4.546,-6.649 4.546,-6.649C4.546,-6.649 20.2,8.439 14.807,21.921C16.774,19.367 19.763,17.694 23.53,17.694C24.017,17.694 24.521,17.724 25.025,17.785C31.879,18.611 34.939,23.874 34.956,28.724C34.997,40.358 22.958,40.609 22.958,40.609C23.17,39.811 25.403,33.46 20.942,32.991C18.633,32.749 17.553,35.36 17.062,37.528L19.597,37.528L19.597,37.545L21.227,37.545L21.227,46.562L9.678,46.562C10.665,49.577 14.757,51.677 14.757,51.677C14.757,51.677 13.238,55.847 8.998,57.13C8.363,60.206 4.51,63.741 4.51,63.741C4.51,63.741 0.589,60.081 0,57.092" style="fill:rgb(197,158,101);fill-rule:nonzero;"/>
        </g>
        <g transform="matrix(1,0,0,1,138.103,176.316)">
            <path d="M0,29.151C-1.04,25.888 -2.555,23.915 -3.799,22.293C-5.383,20.231 -6.337,18.986 -6.337,15.547C-6.337,9.788 -2.47,3.481 0.039,0C2.542,3.399 6.388,9.556 6.388,15.289C6.388,18.746 5.363,20.11 3.812,22.173C2.564,23.832 1.045,25.852 0,29.151" style="fill:rgb(0,21,67);fill-rule:nonzero;"/>
        </g>
        <g transform="matrix(1,0,0,1,158.379,212.779)">
            <path d="M0,-18.038C-11.09,-19.379 -12.917,-3.606 -13.215,1.732L-18.256,1.732C-18.197,-13.324 -10.635,-11.09 -10.635,-21.173C-10.635,-31.271 -20.27,-41.677 -20.27,-41.677C-20.27,-41.677 -29.865,-31.012 -29.865,-20.916C-29.865,-10.832 -22.336,-13.324 -22.295,1.732L-27.328,1.732C-27.618,-3.606 -29.456,-19.379 -40.541,-18.038C-52.518,-16.597 -51.217,-0.004 -40.541,1.304C-40.541,1.304 -42.563,-6.072 -36.635,-6.072C-32.341,-6.072 -31.158,-1.02 -30.845,1.732L-34.411,1.732L-35.32,1.732L-35.32,7.498L-23.039,7.498C-24.657,13.052 -28.349,14.731 -28.349,14.731C-28.349,14.731 -26.786,17.847 -23.384,18.311C-23.069,19.72 -22.289,21.836 -20.325,23.639C-18.376,21.844 -17.595,19.738 -17.279,18.329C-13.874,17.853 -12.188,14.731 -12.188,14.731C-12.188,14.731 -15.894,13.052 -17.512,7.498L-5.229,7.498L-5.229,1.732L-6.126,1.732L-9.69,1.732C-9.376,-1.02 -8.214,-6.072 -3.89,-6.072C2.008,-6.072 0,1.304 0,1.304C10.675,-0.004 11.972,-16.597 0,-18.038" style="fill:rgb(0,21,67);fill-rule:nonzero;"/>
        </g>
        <g transform="matrix(1,0,0,1,151.289,175.248)">
            <path d="M0,41.122L-4.107,41.122L-5.873,41.122L-7.632,41.122L-11.167,41.122L-13.034,41.122L-13.025,39.256C-12.992,30.369 -10.368,26.881 -8.262,24.079C-6.665,21.957 -5.405,20.282 -5.405,16.358C-5.405,9.337 -10.604,1.959 -13.159,-1.242C-15.704,2.026 -20.918,9.585 -20.918,16.615C-20.918,20.527 -19.733,22.072 -18.091,24.209C-15.989,26.949 -13.372,30.357 -13.349,39.258L-13.344,41.122L-15.209,41.122L-18.732,41.122L-20.166,41.122L-22.248,41.122L-26.371,41.122L-26.371,42.364L0,42.364L0,41.122Z" style="fill:rgb(220,25,49);fill-rule:nonzero;"/>
        </g>
        <g transform="matrix(1,0,0,1,139.083,231.364)">
            <path d="M0,-10.565L-0.336,-11.721L-1.623,-11.718L-1.96,-10.565C-3.036,-6.867 -4.967,-4.644 -6.412,-3.422C-5.815,-2.839 -4.941,-2.247 -3.782,-2.104L-3.225,-2.035L-2.799,-1.669C-2.621,-1.517 -2.121,-1.088 -1.054,1.156C0.217,-1.201 0.75,-1.604 0.938,-1.744L1.335,-2.044L1.827,-2.104C2.992,-2.247 3.867,-2.838 4.465,-3.418C3.013,-4.641 1.078,-6.865 0,-10.565" style="fill:rgb(220,25,49);fill-rule:nonzero;"/>
        </g>
        <g transform="matrix(1,0,0,1,133.457,223.978)">
            <path d="M0,4.985C0,4.985 2.589,3.292 2.634,-0.659L3.387,-1.129C3.387,-1.129 3.763,4.609 2.917,5.832C2.917,5.832 1.694,6.114 0,4.985" style="fill:rgb(0,21,67);fill-rule:nonzero;"/>
        </g>
        <g transform="matrix(1,0,0,1,142.777,223.978)">
            <path d="M0,4.985C0,4.985 -2.588,3.292 -2.635,-0.659L-3.387,-1.129C-3.387,-1.129 -3.762,4.609 -2.916,5.832C-2.916,5.832 -1.694,6.114 0,4.985" style="fill:rgb(0,21,67);fill-rule:nonzero;"/>
        </g>
        <g transform="matrix(1,0,0,1,138.127,223.637)">
            <ellipse cx="0" cy="-12.846" rx="12.843" ry="12.846" style="fill:rgb(0,21,67);"/>
        </g>
        <g transform="matrix(1,0,0,1,150.042,210.792)">
            <path d="M0,-0.002C0,6.581 -5.334,11.918 -11.915,11.918C-18.499,11.918 -23.832,6.581 -23.832,-0.002C-23.832,-6.584 -18.499,-11.92 -11.915,-11.92C-5.334,-11.92 0,-6.584 0,-0.002" style="fill:white;fill-rule:nonzero;"/>
        </g>
        <g transform="matrix(1,0,0,1,147.577,213.259)">
            <path d="M0,-0.004C0,5.218 -4.23,9.451 -9.45,9.451C-14.671,9.451 -18.902,5.218 -18.902,-0.004C-18.902,-5.222 -14.671,-9.455 -9.45,-9.455C-4.23,-9.455 0,-5.222 0,-0.004" style="fill:rgb(197,158,101);fill-rule:nonzero;"/>
        </g>
        <g transform="matrix(1,0,0,1,144.395,201.775)">
            <path d="M0,18.033C-0.474,17.66 -1.158,16.995 -1.279,16.175C-1.291,16.102 -1.297,16.03 -1.304,15.956C1.118,14.94 3.163,13.192 4.546,10.945C4.026,13.871 2.347,16.397 0,18.033M-17.087,10.937C-15.703,13.187 -13.658,14.939 -11.232,15.956C-11.241,16.03 -11.246,16.102 -11.259,16.175C-11.381,16.998 -12.061,17.663 -12.538,18.035C-14.888,16.397 -16.569,13.864 -17.087,10.937M-14.554,1.808C-15.049,4.52 -13.923,7.08 -12.889,9.418C-12.171,11.045 -11.485,12.612 -11.265,14.196C-14.099,12.78 -16.258,10.184 -17.059,6.933C-16.687,4.995 -15.801,3.238 -14.554,1.808M-2.93,14.838C-3.744,15.102 -4.597,15.271 -5.475,15.335L-5.475,-1.942C-3.715,-1.818 -2.067,-1.277 -0.632,-0.415C1.551,2.735 0.323,5.546 -1.102,8.776C-1.955,10.715 -2.832,12.708 -2.93,14.838M-5.475,16.925C-4.567,16.87 -3.683,16.724 -2.832,16.491C-2.655,17.515 -2.025,18.326 -1.434,18.884C-2.673,19.493 -4.034,19.873 -5.475,19.977L-5.475,16.925ZM-9.704,16.491C-8.856,16.724 -7.971,16.87 -7.063,16.925L-7.063,19.977C-8.502,19.873 -9.868,19.493 -11.102,18.885C-10.512,18.326 -9.882,17.515 -9.704,16.491M-11.906,-0.415C-10.472,-1.277 -8.824,-1.818 -7.063,-1.942L-7.063,15.337C-7.941,15.276 -8.792,15.109 -9.607,14.858C-9.699,12.721 -10.577,10.722 -11.438,8.776C-12.86,5.547 -14.089,2.735 -11.906,-0.415M4.52,6.945C3.729,10.127 1.551,12.722 -1.27,14.156C-1.044,12.586 -0.36,11.034 0.353,9.418C1.383,7.077 2.509,4.52 2.016,1.808C3.266,3.243 4.147,5.001 4.52,6.945M-6.269,-3.829C-13.351,-3.829 -19.111,1.933 -19.111,9.013C-19.111,16.099 -13.351,21.862 -6.269,21.862C0.812,21.862 6.574,16.099 6.574,9.013C6.574,1.933 0.812,-3.829 -6.269,-3.829" style="fill:rgb(0,21,67);fill-rule:nonzero;"/>
        </g>
        <g transform="matrix(1,0,0,1,142.953,195.702)">
            <path d="M0,-13.742L-4.81,-19.387L-9.414,-13.816C-10.585,-12.746 -13.108,-9.88 -13.763,-4.563C-14.401,0.602 -11.112,5.645 -11.112,5.645L-9.928,4.379L-4.364,4.379L0.271,4.858L1.254,5.056C1.254,5.056 4.1,0.578 4.1,-4.662C4.1,-9.862 1.41,-12.641 0,-13.742" style="fill:rgb(0,21,67);fill-rule:nonzero;"/>
        </g>
        <g transform="matrix(1,0,0,1,145.717,192.641)">
            <path d="M0,-1.031C0,-3.783 -1.119,-6.026 -2.326,-7.359C-2.326,-7.359 -2.363,-6.576 -3.68,-7.453C-4.815,-8.231 -6.15,-8.685 -7.583,-8.685C-9.025,-8.685 -10.36,-8.228 -11.496,-7.447C-12.766,-6.583 -12.827,-7.359 -12.827,-7.359C-14.031,-6.026 -15.152,-3.783 -15.152,-1.031C-15.152,1.252 -14.593,2.38 -14.398,2.7C-13.264,5.61 -10.641,7.654 -7.583,7.654C-4.56,7.654 -1.963,5.653 -0.809,2.792C-0.741,2.698 0,1.602 0,-1.031" style="fill:white;fill-rule:nonzero;"/>
        </g>
        <g transform="matrix(1,0,0,1,140.992,228.227)">
            <path d="M0,-30.404C-0.011,-30.417 -0.021,-30.434 -0.027,-30.448C-0.027,-30.448 -0.778,-31.858 0.456,-32.833C0.456,-32.833 3.252,-32.249 3.315,-35.952C3.315,-35.952 3.252,-36.344 3.641,-37.123C3.641,-37.123 2.923,-37.775 1.367,-36.603C-0.198,-35.436 -1.038,-32.119 -1.885,-32.898C-2.721,-33.67 -2.417,-37.99 -2.846,-38.151L-2.862,-38.151C-3.295,-37.99 -2.99,-33.67 -3.823,-32.898C-4.669,-32.119 -5.517,-35.436 -7.077,-36.603C-8.635,-37.775 -9.35,-37.123 -9.35,-37.123C-8.958,-36.344 -9.027,-35.952 -9.027,-35.952C-8.958,-32.249 -6.163,-32.833 -6.163,-32.833C-4.929,-31.858 -5.676,-30.442 -5.676,-30.442C-5.683,-30.429 -5.692,-30.413 -5.7,-30.4C-9.038,-33.983 -10.976,-33.496 -10.018,-29.483C-9.079,-25.543 -5.471,-8.617 -4.893,-4.691C-4.977,-1.163 -5.382,0.097 -5.491,0.374L-5.852,1.097L-5.451,1.902C-4.818,2.823 -4.376,3.861 -4.222,4.256L-2.843,7.747L-1.486,4.264C-1.321,3.861 -0.88,2.823 -0.246,1.902L0.172,1.137L-0.21,0.374C-0.314,0.109 -0.713,-1.105 -0.805,-4.51C-0.327,-8.03 3.361,-25.473 4.318,-29.483C5.273,-33.494 3.335,-33.983 0,-30.404" style="fill:rgb(0,21,67);fill-rule:nonzero;"/>
        </g>
        <g transform="matrix(1,0,0,1,135.879,198.549)">
            <path d="M0,16.92C-1.196,10.62 -2.14,5.961 -2.902,2.583C-3.482,0 -1.933,1.033 -1.101,2.649L0,16.92Z" style="fill:rgb(220,25,49);fill-rule:nonzero;"/>
        </g>
        <g transform="matrix(1,0,0,1,140.405,198.549)">
            <path d="M0,16.92C1.198,10.62 2.14,5.961 2.904,2.583C3.485,0 1.933,1.033 1.095,2.649L0,16.92Z" style="fill:rgb(220,25,49);fill-rule:nonzero;"/>
        </g>
        <g transform="matrix(1,0,0,1,133.987,193.397)">
            <path d="M0,0.741C-0.239,0.675 -0.376,0.43 -0.312,0.196C-0.284,0.102 -0.227,0.027 -0.153,-0.027C-0.312,-0.203 -0.495,-0.382 -0.716,-0.539C-0.716,-0.539 -1.108,1.28 0.517,1.087C0.517,1.087 0.465,0.925 0.34,0.692C0.24,0.75 0.121,0.773 0,0.741" style="fill:rgb(220,25,49);fill-rule:nonzero;"/>
        </g>
        <g transform="matrix(1,0,0,1,143.011,194.677)">
            <path d="M0,-1.819C-0.22,-1.664 -0.403,-1.483 -0.563,-1.307C-0.49,-1.252 -0.435,-1.179 -0.403,-1.086C-0.338,-0.851 -0.482,-0.605 -0.717,-0.539C-0.838,-0.507 -0.959,-0.528 -1.06,-0.586C-1.179,-0.356 -1.232,-0.194 -1.232,-0.194C0.393,0 0,-1.819 0,-1.819" style="fill:rgb(220,25,49);fill-rule:nonzero;"/>
        </g>
        <g transform="matrix(1,0,0,1,138.902,211.032)">
            <path d="M0,6.771C0.516,-2.958 1.295,-9.847 1.295,-10.707C1.295,-11.016 1.258,-11.409 1.131,-11.841L0.563,-9.991L0.39,-13.263C0.106,-13.63 -0.281,-13.994 -0.771,-14.349L-0.799,-14.349C-1.291,-13.997 -1.627,-13.63 -1.913,-13.263L-2.083,-9.991L-2.656,-11.843C-2.777,-11.409 -2.817,-11.016 -2.817,-10.707C-2.817,-9.847 -2.043,-2.958 -1.527,6.771C-1.013,16.5 -2.215,18.308 -2.215,18.308C-1.516,19.322 -0.76,21.12 -0.76,21.12C-0.76,21.12 -0.006,19.322 0.693,18.308C0.693,18.308 -0.511,16.5 0,6.771" style="fill:rgb(220,25,49);fill-rule:nonzero;"/>
        </g>
        <g transform="matrix(1,0,0,1,165.019,202.638)">
            <path d="M0,1.431C-0.002,-1.788 -1.807,-5.442 -6.863,-6.053C-7.232,-6.097 -7.595,-6.12 -7.942,-6.12C-12.304,-6.12 -14.78,-2.38 -16.19,1.807C-15.447,0.327 -14.305,-1.23 -12.5,-2.837C-7.746,-7.068 -1.399,-3.869 -1.399,1.745C-1.399,5.336 -2.742,7.442 -3.713,8.499C-1.188,6.93 0.003,4.042 0,1.431" style="fill:rgb(220,25,49);fill-rule:nonzero;"/>
        </g>
        <g transform="matrix(1,0,0,1,123.695,206.907)">
            <path d="M0,-7.107C1.839,-5.47 2.994,-3.883 3.735,-2.379C2.333,-6.6 -0.152,-10.389 -4.558,-10.389C-4.904,-10.389 -5.267,-10.367 -5.637,-10.322C-10.692,-9.713 -12.498,-6.058 -12.5,-2.841C-12.504,-0.228 -11.311,2.662 -8.785,4.23C-9.755,3.174 -11.101,1.067 -11.101,-2.524C-11.101,-8.138 -4.754,-11.337 0,-7.107" style="fill:rgb(220,25,49);fill-rule:nonzero;"/>
        </g>
    </g>
</svg>
