<?xml version="1.0" encoding="UTF-8" standalone="no"?>
<!DOCTYPE svg PUBLIC "-//W3C//DTD SVG 1.1//EN" "http://www.w3.org/Graphics/SVG/1.1/DTD/svg11.dtd">
<svg width="100%" height="100%" viewBox="0 0 800 600" version="1.1" xmlns="http://www.w3.org/2000/svg" xmlns:xlink="http://www.w3.org/1999/xlink" xml:space="preserve" xmlns:serif="http://www.serif.com/" style="fill-rule:evenodd;clip-rule:evenodd;stroke-linejoin:round;stroke-miterlimit:1.41421;">
    <g transform="matrix(2.31305,0,0,2.31305,-1994.39,-1690.13)">
        <g transform="matrix(4.16667,0,0,4.16667,1035.17,737.279)">
            <path d="M0,59.095C-16.292,59.095 -29.548,45.84 -29.548,29.548C-29.548,13.255 -16.292,0 0,0C16.294,0 29.548,13.255 29.548,29.548C29.548,45.84 16.294,59.095 0,59.095" style="fill:rgb(197,158,101);fill-rule:nonzero;"/>
        </g>
        <g transform="matrix(4.16667,0,0,4.16667,1152.65,860.391)">
            <path d="M0,0.001C0,15.573 -12.622,28.198 -28.197,28.198C-43.768,28.198 -56.393,15.573 -56.393,0.001C-56.393,-15.572 -43.768,-28.197 -28.197,-28.197C-12.622,-28.197 0,-15.572 0,0.001" style="fill:rgb(0,21,67);fill-rule:nonzero;"/>
        </g>
        <g transform="matrix(4.16667,0,0,4.16667,948.975,918.447)">
            <path d="M0,-1.583L0.663,-0.564C0.717,-0.48 0.772,-0.402 0.837,-0.352C1.016,-0.228 1.206,-0.351 1.237,-0.371C1.541,-0.567 1.395,-0.8 1.323,-0.913L0.626,-1.987L0,-1.583ZM-1.224,-0.79L-0.533,0.278C-0.426,0.438 -0.237,0.743 0.153,0.489C0.496,0.269 0.322,-0.002 0.257,-0.107L-0.494,-1.262L-1.224,-0.79ZM0.663,-3.013L1.858,-1.168C2.043,-0.87 2.266,-0.506 2.113,-0.133C2.032,0.062 1.884,0.176 1.783,0.242C1.707,0.291 1.541,0.387 1.333,0.374C1.102,0.356 0.956,0.235 0.873,0.162C0.941,0.371 1.117,0.879 0.548,1.247C0.382,1.354 0.187,1.43 -0.013,1.428C-0.494,1.424 -0.728,1.058 -0.912,0.782L-2.178,-1.171L0.663,-3.013Z" style="fill:white;fill-rule:nonzero;"/>
        </g>
        <g transform="matrix(4.16667,0,0,4.16667,967.22,940.675)">
            <path d="M0,-1.964C0.013,-2.011 0.031,-2.06 0.049,-2.1C0.067,-2.141 0.093,-2.18 0.122,-2.218C0.08,-2.197 0.049,-2.175 0.015,-2.154C-0.031,-2.136 -0.07,-2.114 -0.112,-2.097L-1.26,-1.631L-0.398,-0.813L0,-1.964ZM0.325,-3.089L0.99,-2.458L-0.156,1.125L-0.842,0.471L-0.613,-0.189L-1.874,-1.385L-2.521,-1.12L-3.191,-1.757L0.325,-3.089Z" style="fill:white;fill-rule:nonzero;"/>
        </g>
        <g transform="matrix(4.16667,0,0,4.16667,978.893,949.889)">
            <path d="M0,-0.319C-0.039,0.13 0.317,0.481 0.715,0.712C0.891,0.817 1.471,1.113 1.676,0.757C1.801,0.546 1.624,0.378 1.487,0.257C1.38,0.162 0.832,-0.279 0.709,-0.383C0.471,-0.59 -0.135,-1.114 0.25,-1.776C0.335,-1.921 0.463,-2.046 0.608,-2.122C1.081,-2.374 1.679,-2.163 2.144,-1.894C2.57,-1.646 2.861,-1.393 3.069,-1.052C3.272,-0.716 3.275,-0.425 3.277,-0.297L2.482,-0.528C2.482,-0.588 2.484,-0.73 2.362,-0.917C2.225,-1.126 1.98,-1.29 1.84,-1.372C1.518,-1.561 1.149,-1.692 0.988,-1.413C0.878,-1.223 1.019,-1.074 1.208,-0.897C1.315,-0.802 1.853,-0.355 1.973,-0.247C2.277,0.013 2.781,0.473 2.404,1.114C1.861,2.055 0.72,1.437 0.351,1.222C-0.127,0.942 -0.821,0.428 -0.766,-0.533L0,-0.319Z" style="fill:white;fill-rule:nonzero;"/>
        </g>
        <g transform="matrix(4.16667,0,0,4.16667,1001.14,967.264)">
            <path d="M0,-4.351L0.803,-4.106L0.372,-2.689L2.386,-3.624L3.428,-3.306L1.432,-2.421L2.658,0L1.575,-0.33L0.73,-2.112L0.112,-1.841L-0.185,-0.867L-0.988,-1.112L0,-4.351Z" style="fill:white;fill-rule:nonzero;"/>
        </g>
        <g transform="matrix(4.16667,0,0,4.16667,1022.48,969.528)">
            <path d="M0,-3.593L3.147,-3.385L3.105,-2.776L0.805,-2.93L0.754,-2.169L2.978,-2.021L2.939,-1.423L0.715,-1.571L0.66,-0.762L3.056,-0.603L3.017,0L-0.226,-0.215L0,-3.593Z" style="fill:white;fill-rule:nonzero;"/>
        </g>
        <g transform="matrix(4.16667,0,0,4.16667,1042.44,966.235)">
            <path d="M0,-2.654L3.321,-3.158L3.415,-2.547L2.173,-2.358L2.588,0.377L1.749,0.504L1.333,-2.231L0.091,-2.043L0,-2.654Z" style="fill:white;fill-rule:nonzero;"/>
        </g>
        <g transform="matrix(4.16667,0,0,4.16667,1070.87,950.3)">
            <path d="M0,2.499L1.182,2.032C1.359,1.962 1.697,1.834 1.525,1.402C1.377,1.023 1.076,1.141 0.962,1.187L-0.32,1.692L0,2.499ZM-0.535,1.144L0.592,0.698C0.686,0.661 0.774,0.621 0.837,0.566C0.993,0.416 0.91,0.207 0.897,0.17C0.764,-0.163 0.507,-0.067 0.382,-0.018L-0.808,0.452L-0.535,1.144ZM-1.806,0.213L0.236,-0.595C0.567,-0.714 0.967,-0.863 1.302,-0.64C1.476,-0.523 1.559,-0.354 1.603,-0.243C1.637,-0.158 1.697,0.024 1.645,0.226C1.583,0.447 1.434,0.567 1.346,0.632C1.564,0.609 2.097,0.537 2.344,1.166C2.417,1.348 2.453,1.556 2.414,1.753C2.315,2.22 1.907,2.38 1.603,2.507L-0.561,3.362L-1.806,0.213Z" style="fill:white;fill-rule:nonzero;"/>
        </g>
        <g transform="matrix(4.16667,0,0,4.16667,1092.46,950.008)">
            <path d="M0,-2.1C-0.044,-2.122 -0.088,-2.149 -0.125,-2.176C-0.161,-2.203 -0.192,-2.233 -0.224,-2.269C-0.213,-2.226 -0.198,-2.189 -0.185,-2.153C-0.174,-2.105 -0.161,-2.062 -0.151,-2.016L0.078,-0.799L1.05,-1.484L0,-2.1ZM-1.037,-2.641L-0.289,-3.168L2.996,-1.343L2.219,-0.796L1.619,-1.151L0.2,-0.152L0.333,0.534L-0.426,1.068L-1.037,-2.641Z" style="fill:white;fill-rule:nonzero;"/>
        </g>
        <g transform="matrix(4.16667,0,0,4.16667,1101.82,934.804)">
            <path d="M0,-1.651L0.574,-2.277L2.614,-0.42L3.877,-1.81L4.34,-1.389L2.503,0.626L0,-1.651Z" style="fill:white;fill-rule:nonzero;"/>
        </g>
        <g transform="matrix(4.16667,0,0,4.16667,1113.93,916.784)">
            <path d="M0,-0.824L0.437,-1.552L2.804,-0.13L3.771,-1.742L4.306,-1.42L2.9,0.918L0,-0.824Z" style="fill:white;fill-rule:nonzero;"/>
        </g>
        <g transform="matrix(4.16667,0,0,4.16667,941.46,841.304)">
            <path d="M0,-3.788C0.187,-3.672 0.403,-3.533 0.59,-3.168C0.759,-2.838 0.912,-2.328 0.684,-1.495C0.364,-0.334 -0.463,0.304 -1.606,-0.011C-2.835,-0.349 -3.067,-1.467 -2.781,-2.498C-2.679,-2.873 -2.303,-3.923 -1.25,-4.092L-1.385,-3.164C-1.549,-3.114 -2.006,-2.967 -2.18,-2.333C-2.386,-1.593 -1.988,-1.031 -1.364,-0.859C-0.652,-0.662 -0.07,-1.106 0.101,-1.725C0.294,-2.434 -0.062,-2.766 -0.231,-2.927L0,-3.788Z" style="fill:white;fill-rule:nonzero;"/>
        </g>
        <g transform="matrix(4.16667,0,0,4.16667,943.539,808.928)">
            <path d="M0,1.054L0.66,-0.126C0.748,-0.285 0.889,-0.581 0.556,-0.766C0.499,-0.8 0.392,-0.847 0.294,-0.837C0.19,-0.822 0.08,-0.79 -0.083,-0.497L-0.725,0.649L0,1.054ZM-1.658,1.1L-0.522,-0.935C-0.333,-1.271 -0.133,-1.559 0.288,-1.646C0.551,-1.699 0.795,-1.616 0.967,-1.521C1.193,-1.394 1.419,-1.169 1.46,-0.87C1.492,-0.644 1.419,-0.416 1.375,-0.287L3.113,-0.492L2.625,0.38L0.993,0.506L0.522,1.347L1.71,2.012L1.297,2.753L-1.658,1.1Z" style="fill:white;fill-rule:nonzero;"/>
        </g>
        <g transform="matrix(4.16667,0,0,4.16667,950.361,791.63)">
            <path d="M0,0.055L2.123,-2.277L2.573,-1.867L1.021,-0.162L1.585,0.351L3.085,-1.298L3.526,-0.894L2.027,0.753L2.627,1.299L4.244,-0.476L4.688,-0.07L2.503,2.332L0,0.055Z" style="fill:white;fill-rule:nonzero;"/>
        </g>
        <g transform="matrix(4.16667,0,0,4.16667,974.984,772.844)">
            <path d="M0,2.074C0.39,2.299 0.86,2.125 1.237,1.862C1.406,1.744 1.92,1.346 1.684,1.007C1.544,0.807 1.318,0.894 1.149,0.97C1.019,1.027 0.385,1.337 0.239,1.404C-0.047,1.534 -0.78,1.863 -1.216,1.232C-1.315,1.094 -1.375,0.925 -1.383,0.762C-1.411,0.226 -0.969,-0.229 -0.528,-0.536C-0.12,-0.819 0.231,-0.976 0.629,-1.019C1.019,-1.063 1.284,-0.943 1.403,-0.89L0.858,-0.265C0.803,-0.292 0.676,-0.356 0.455,-0.323C0.205,-0.284 -0.047,-0.132 -0.179,-0.04C-0.489,0.174 -0.761,0.452 -0.58,0.716C-0.45,0.898 -0.257,0.833 -0.016,0.734C0.117,0.678 0.748,0.378 0.897,0.315C1.26,0.149 1.889,-0.114 2.316,0.496C2.939,1.391 1.897,2.162 1.546,2.406C1.089,2.724 0.33,3.137 -0.52,2.681L0,2.074Z" style="fill:white;fill-rule:nonzero;"/>
        </g>
        <g transform="matrix(4.16667,0,0,4.16667,1007.34,766.121)">
            <path d="M0,-0.429C0.018,-0.209 0.034,0.046 -0.146,0.415C-0.309,0.746 -0.626,1.173 -1.432,1.488C-2.549,1.925 -3.558,1.644 -3.986,0.54C-4.452,-0.647 -3.69,-1.5 -2.697,-1.888C-2.334,-2.03 -1.268,-2.354 -0.504,-1.611L-1.331,-1.166C-1.466,-1.267 -1.855,-1.546 -2.469,-1.307C-3.183,-1.029 -3.396,-0.374 -3.163,0.228C-2.892,0.917 -2.193,1.117 -1.596,0.883C-0.91,0.616 -0.857,0.132 -0.829,-0.1L0,-0.429Z" style="fill:white;fill-rule:nonzero;"/>
        </g>
        <g transform="matrix(4.16667,0,0,4.16667,1014.06,765.538)">
            <path d="M0,-2.926L3.129,-3.354L3.209,-2.75L0.925,-2.439L1.029,-1.682L3.241,-1.984L3.319,-1.39L1.11,-1.089L1.219,-0.285L3.599,-0.61L3.683,-0.011L0.46,0.428L0,-2.926Z" style="fill:white;fill-rule:nonzero;"/>
        </g>
        <g transform="matrix(4.16667,0,0,4.16667,1038.49,766.856)">
            <path d="M0,-3.746L0.84,-3.661L2.3,-1.618C2.477,-1.364 2.511,-1.312 2.695,-1.028C2.698,-1.351 2.705,-1.437 2.729,-1.729L2.903,-3.452L3.711,-3.369L3.371,0L2.536,-0.084L1.058,-2.153C0.902,-2.376 0.84,-2.469 0.676,-2.727C0.676,-2.466 0.668,-2.41 0.647,-2.152L0.457,-0.295L-0.343,-0.377L0,-3.746Z" style="fill:white;fill-rule:nonzero;"/>
        </g>
        <g transform="matrix(4.16667,0,0,4.16667,1064.28,771.403)">
            <path d="M0,-3.89L3.176,-2.783L2.973,-2.2L1.785,-2.613L0.873,0L0.073,-0.278L0.982,-2.893L-0.203,-3.306L0,-3.89Z" style="fill:white;fill-rule:nonzero;"/>
        </g>
        <g transform="matrix(4.16667,0,0,4.16667,1106.38,774.7)">
            <path d="M0,3.74C-0.184,3.861 -0.4,3.997 -0.811,4.013C-1.182,4.026 -1.707,3.949 -2.365,3.389C-3.282,2.607 -3.511,1.588 -2.742,0.685C-1.913,-0.286 -0.803,-0.021 0.01,0.673C0.307,0.925 1.097,1.712 0.806,2.736L0.021,2.22C0.047,2.052 0.107,1.574 -0.392,1.148C-0.977,0.65 -1.655,0.772 -2.076,1.265C-2.555,1.828 -2.401,2.54 -1.91,2.957C-1.351,3.433 -0.899,3.251 -0.681,3.165L0,3.74Z" style="fill:white;fill-rule:nonzero;"/>
        </g>
        <g transform="matrix(2.61544,3.24354,3.24354,-2.61544,1121.8,796.383)">
            <rect x="-1.476" y="-3.085" width="0.85" height="3.384" style="fill:white;"/>
        </g>
        <g transform="matrix(4.16667,0,0,4.16667,1127.09,816.131)">
            <path d="M0,-3.48L1.629,-0.541L1.089,-0.242L0.481,-1.339L-1.939,0L-2.352,-0.742L0.07,-2.082L-0.538,-3.18L0,-3.48Z" style="fill:white;fill-rule:nonzero;"/>
        </g>
        <g transform="matrix(4.16667,0,0,4.16667,1137.48,838.413)">
            <path d="M0,-3.916L0.291,-2.912L-0.686,-1.697C-0.751,-1.608 -0.767,-1.598 -0.826,-1.556C-0.754,-1.548 -0.733,-1.543 -0.66,-1.519L0.845,-0.991L1.13,0L-1.351,-0.967L-2.57,-0.614L-2.804,-1.43L-1.585,-1.781L0,-3.916Z" style="fill:white;fill-rule:nonzero;"/>
        </g>
        <g transform="matrix(4.16667,0,0,4.16667,1035.17,774.177)">
            <path d="M0,41.383C-11.408,41.383 -20.691,32.101 -20.691,20.692C-20.691,9.282 -11.408,0 0,0C11.409,0 20.694,9.282 20.694,20.692C20.694,32.101 11.409,41.383 0,41.383" style="fill:rgb(197,158,101);fill-rule:nonzero;"/>
        </g>
        <g transform="matrix(4.16667,0,0,4.16667,1115.73,860.458)">
            <path d="M0,-0.002C0,10.676 -8.656,19.331 -19.335,19.331C-30.01,19.331 -38.667,10.676 -38.667,-0.002C-38.667,-10.677 -30.01,-19.333 -19.335,-19.333C-8.656,-19.333 0,-10.677 0,-0.002" style="fill:rgb(0,21,67);fill-rule:nonzero;"/>
        </g>
        <g transform="matrix(4.16667,0,0,4.16667,927.318,875.441)">
            <path d="M0,-0.931C1.073,-1.145 1.372,0.385 1.442,0.904L1.785,0.878C1.668,-0.594 0.92,-1.133 0.845,-2.12C0.767,-3.107 1.601,-4.096 1.601,-4.096C1.601,-4.096 2.575,-3.246 2.651,-2.258C2.729,-1.273 2.074,-0.628 2.186,0.846L2.529,0.819C2.516,0.295 2.575,-1.262 3.672,-1.216C4.854,-1.166 4.854,0.468 3.818,0.677C3.818,0.677 3.958,-0.059 3.381,-0.014C2.957,0.018 2.882,0.522 2.872,0.794L3.371,0.755L3.384,0.754L3.428,1.318L3.415,1.321L2.3,1.406C2.5,1.936 2.877,2.073 2.877,2.073C2.877,2.073 2.747,2.395 2.409,2.464C2.409,2.464 2.438,2.846 2.165,3.165C1.845,2.891 1.816,2.512 1.816,2.512C1.473,2.493 1.294,2.193 1.294,2.193C1.294,2.193 1.642,2.004 1.759,1.448L0.645,1.535L0.631,1.535L0.587,0.971L0.6,0.971L1.099,0.932C1.045,0.664 0.891,0.179 0.47,0.212C-0.107,0.257 0.146,0.963 0.146,0.963C-0.91,0.915 -1.162,-0.698 0,-0.931" style="fill:rgb(220,25,49);fill-rule:nonzero;"/>
        </g>
        <g transform="matrix(4.16667,0,0,4.16667,1143.96,875.441)">
            <path d="M0,-0.931C-1.076,-1.145 -1.375,0.385 -1.442,0.904L-1.791,0.878C-1.671,-0.594 -0.925,-1.133 -0.845,-2.12C-0.769,-3.107 -1.601,-4.096 -1.601,-4.096C-1.601,-4.096 -2.578,-3.246 -2.653,-2.258C-2.729,-1.273 -2.076,-0.628 -2.186,0.846L-2.529,0.819C-2.518,0.295 -2.578,-1.262 -3.672,-1.216C-4.857,-1.166 -4.854,0.468 -3.82,0.677C-3.82,0.677 -3.958,-0.059 -3.384,-0.014C-2.96,0.018 -2.882,0.522 -2.874,0.794L-3.371,0.755L-3.384,0.754L-3.428,1.318L-3.415,1.321L-2.302,1.406C-2.503,1.936 -2.877,2.073 -2.877,2.073C-2.877,2.073 -2.747,2.395 -2.409,2.464C-2.409,2.464 -2.44,2.846 -2.165,3.165C-1.845,2.891 -1.817,2.512 -1.817,2.512C-1.473,2.493 -1.294,2.193 -1.294,2.193C-1.294,2.193 -1.645,2.004 -1.759,1.448L-0.647,1.535L-0.634,1.535L-0.59,0.971L-0.6,0.971L-1.099,0.932C-1.047,0.664 -0.894,0.179 -0.473,0.212C0.109,0.257 -0.145,0.963 -0.145,0.963C0.907,0.915 1.162,-0.698 0,-0.931" style="fill:rgb(220,25,49);fill-rule:nonzero;"/>
        </g>
        <g transform="matrix(4.16667,0,0,4.16667,1093.21,877.652)">
            <path d="M0,-0.005C0,7.691 -6.237,13.927 -13.929,13.927C-21.624,13.927 -27.856,7.691 -27.856,-0.005C-27.856,-7.696 -21.624,-13.932 -13.929,-13.932C-6.237,-13.932 0,-7.696 0,-0.005" style="fill:white;fill-rule:nonzero;"/>
        </g>
        <g transform="matrix(4.16667,0,0,4.16667,1081.2,889.65)">
            <path d="M0,-0.002C0,6.102 -4.945,11.047 -11.047,11.047C-17.149,11.047 -22.089,6.102 -22.089,-0.002C-22.089,-6.102 -17.149,-11.049 -11.047,-11.049C-4.945,-11.049 0,-6.102 0,-0.002" style="fill:rgb(197,158,101);fill-rule:nonzero;"/>
        </g>
        <g transform="matrix(4.16667,0,0,4.16667,972.623,812.502)">
            <path d="M0,15.631C0,7.354 6.733,0.621 15.01,0.621C23.287,0.621 30.021,7.354 30.021,15.631C30.021,17.598 29.639,19.477 28.947,21.199C30.883,18.437 32.024,15.076 32.024,11.446C32.024,2.051 24.407,-5.568 15.013,-5.568C5.613,-5.568 -2.001,2.051 -2.001,11.446C-2.001,15.076 -0.863,18.437 1.076,21.198C0.385,19.475 0,17.598 0,15.631" style="fill:rgb(220,25,49);fill-rule:nonzero;"/>
        </g>
        <g transform="matrix(4.16667,0,0,4.16667,1065.7,833.724)">
            <path d="M0,21.079C-0.554,20.642 -1.351,19.864 -1.494,18.906C-1.507,18.821 -1.515,18.736 -1.525,18.652C1.305,17.462 3.698,15.42 5.312,12.793C4.706,16.213 2.744,19.166 0,21.079M-19.971,12.784C-18.352,15.414 -15.961,17.461 -13.129,18.652C-13.139,18.737 -13.144,18.822 -13.16,18.906C-13.3,19.869 -14.098,20.644 -14.654,21.081C-17.401,19.165 -19.363,16.208 -19.971,12.784M-17.011,2.115C-17.586,5.287 -16.271,8.275 -15.065,11.01C-14.228,12.912 -13.423,14.741 -13.165,16.591C-16.479,14.938 -18.999,11.905 -19.937,8.107C-19.501,5.841 -18.469,3.787 -17.011,2.115M-3.422,17.345C-4.379,17.651 -5.374,17.851 -6.398,17.925L-6.398,-2.269C-4.342,-2.121 -2.417,-1.489 -0.738,-0.482C1.811,3.2 0.374,6.484 -1.289,10.26C-2.287,12.526 -3.313,14.855 -3.422,17.345M-6.398,19.784C-5.338,19.718 -4.303,19.548 -3.313,19.274C-3.103,20.47 -2.367,21.421 -1.679,22.074C-3.124,22.783 -4.717,23.228 -6.398,23.348L-6.398,19.784ZM-11.341,19.274C-10.348,19.548 -9.316,19.718 -8.256,19.784L-8.256,23.348C-9.938,23.228 -11.531,22.783 -12.973,22.074C-12.287,21.421 -11.549,20.47 -11.341,19.274M-13.916,-0.482C-12.24,-1.489 -10.314,-2.121 -8.256,-2.269L-8.256,17.927C-9.283,17.855 -10.275,17.662 -11.229,17.367C-11.336,14.869 -12.362,12.534 -13.365,10.262C-15.031,6.485 -16.468,3.2 -13.916,-0.482M5.286,8.118C4.358,11.836 1.811,14.872 -1.484,16.547C-1.219,14.712 -0.421,12.897 0.411,11.009C1.617,8.274 2.929,5.285 2.355,2.115C3.815,3.791 4.849,5.848 5.286,8.118M-7.328,-4.473C-15.605,-4.473 -22.339,2.261 -22.339,10.538C-22.339,18.818 -15.605,25.552 -7.328,25.552C0.949,25.552 7.682,18.818 7.682,10.538C7.682,2.261 0.949,-4.473 -7.328,-4.473" style="fill:rgb(0,21,67);fill-rule:nonzero;"/>
        </g>
    </g>
</svg>
