<?xml version="1.0" encoding="UTF-8" standalone="no"?>
<!DOCTYPE svg PUBLIC "-//W3C//DTD SVG 1.1//EN" "http://www.w3.org/Graphics/SVG/1.1/DTD/svg11.dtd">
<svg width="100%" height="100%" viewBox="0 0 760 220" version="1.1" xmlns="http://www.w3.org/2000/svg" xmlns:xlink="http://www.w3.org/1999/xlink" xml:space="preserve" xmlns:serif="http://www.serif.com/" style="fill-rule:evenodd;clip-rule:evenodd;stroke-linejoin:round;stroke-miterlimit:1.41421;">
    <g transform="matrix(2.60207,0,0,2.60207,-137.987,-443.44)">
        <path d="M75.056,232.007L85.468,232.007C88.63,232.007 93.823,232.007 93.823,237.743C93.823,243.45 88.63,243.45 85.468,243.45L78.706,243.45L78.706,250.704L75.056,250.704L75.056,232.007ZM86.265,240.317C88.35,240.317 90.173,240.136 90.173,237.718C90.173,235.329 88.35,235.148 86.265,235.148L78.706,235.148L78.706,240.317L86.265,240.317Z" style="fill:rgb(0,22,68);fill-rule:nonzero;"/>
        <path d="M109.295,232.007L126.059,232.007L126.059,235.148L112.945,235.148L112.945,239.492L124.232,239.492L124.232,242.629L112.945,242.629L112.945,247.568L126.367,247.568L126.367,250.7L109.295,250.7L109.295,232.007Z" style="fill:rgb(0,22,68);fill-rule:nonzero;"/>
        <path d="M142.125,232.007L145.775,232.007L145.775,247.461L159.323,247.461L159.323,250.7L142.125,250.7L142.125,232.007Z" style="fill:rgb(0,22,68);fill-rule:nonzero;"/>
        <rect x="175.184" y="232.007" width="3.65" height="18.693" style="fill:rgb(0,22,68);fill-rule:nonzero;"/>
        <path d="M215.968,244.044C215.607,246.126 214.117,251.167 205.532,251.167C205.203,251.202 204.873,251.219 204.543,251.219C199.278,251.219 194.947,246.887 194.947,241.623C194.947,241.435 194.952,241.247 194.963,241.059C194.963,235.607 198.379,231.546 205.811,231.546C214.17,231.546 215.402,236.974 215.685,237.976L212.035,237.976C210.938,235.715 208.515,234.389 206.02,234.683C205.807,234.663 205.594,234.652 205.38,234.652C201.708,234.652 198.686,237.674 198.686,241.346C198.686,245.019 201.708,248.04 205.38,248.04C205.524,248.04 205.667,248.036 205.811,248.027C208.623,248.333 211.309,246.689 212.314,244.044L215.968,244.044Z" style="fill:rgb(0,22,68);fill-rule:nonzero;"/>
        <path d="M239.201,232.009L243.368,232.009L252.442,250.703L248.586,250.703L246.632,246.412L235.859,246.412L233.88,250.703L229.996,250.703L239.201,232.009ZM245.191,243.271L241.282,234.937L237.378,243.271L245.191,243.271Z" style="fill:rgb(0,22,68);fill-rule:nonzero;"/>
        <path d="M267.682,232.007L271.537,232.007L284.035,245.507L284.035,232.007L287.529,232.007L287.529,250.7L284.187,250.7L271.176,236.712L271.176,250.7L267.682,250.7L267.682,232.007Z" style="fill:rgb(0,22,68);fill-rule:nonzero;"/>
        <path d="M319.327,237.694C318.736,236.019 317.221,234.578 312.771,234.578C310.303,234.578 307.807,235.198 307.807,236.922C307.807,237.719 308.271,238.564 311.999,239.028L316.421,239.694C320.612,240.338 323.08,241.964 323.08,245.097C323.08,249.523 318.863,251.169 313.875,251.169C305.852,251.169 303.898,247.207 303.463,245.791L306.986,244.686C307.655,246.049 309.042,248.028 313.982,248.028C316.962,248.028 319.43,247.051 319.43,245.433C319.43,244.226 318.042,243.426 315.365,243.093L310.894,242.473C306.575,241.882 304.157,240.001 304.157,237.152C304.157,231.548 311.432,231.548 312.873,231.548C320.92,231.548 322.312,235.276 322.772,236.561L319.327,237.694Z" style="fill:rgb(0,22,68);fill-rule:nonzero;"/>
        <path d="M186.717,194.4L186.717,183.326C186.746,181.937 186.467,180.559 185.899,179.291C185.383,178.18 184.614,177.206 183.654,176.445C182.652,175.669 181.504,175.102 180.279,174.778C177.536,174.05 174.65,174.05 171.907,174.778C170.674,175.104 169.517,175.67 168.503,176.445C167.527,177.197 166.745,178.173 166.225,179.291C165.657,180.559 165.378,181.937 165.408,183.326L165.408,194.412C164.252,194.584 163.388,195.586 163.388,196.754C163.388,197.923 164.252,198.925 165.408,199.097L165.408,211.508C165.378,212.9 165.657,214.281 166.225,215.552C166.749,216.676 167.529,217.66 168.503,218.426C169.51,219.22 170.668,219.798 171.907,220.126C174.649,220.86 177.537,220.86 180.279,220.126C181.509,219.8 182.659,219.221 183.654,218.426C184.611,217.652 185.379,216.669 185.899,215.552C186.468,214.281 186.747,212.9 186.717,211.508L186.717,199.113C187.919,198.99 188.844,197.965 188.844,196.756C188.844,195.548 187.919,194.523 186.717,194.4M180.767,211.27C180.791,211.97 180.646,212.666 180.344,213.298C180.083,213.818 179.71,214.273 179.252,214.633C178.808,214.978 178.302,215.236 177.762,215.392C177.22,215.556 176.657,215.639 176.091,215.639C175.515,215.637 174.943,215.554 174.391,215.392C173.841,215.242 173.326,214.984 172.876,214.633C172.414,214.278 172.04,213.821 171.784,213.298C171.479,212.667 171.333,211.971 171.357,211.27L171.357,183.581C171.333,182.876 171.479,182.176 171.784,181.54C172.044,181.021 172.417,180.566 172.876,180.21C173.328,179.863 173.842,179.605 174.391,179.451C174.943,179.29 175.516,179.208 176.091,179.208C176.657,179.207 177.22,179.289 177.762,179.451C178.301,179.61 178.806,179.868 179.252,180.21C179.707,180.571 180.079,181.024 180.344,181.54C180.646,182.177 180.791,182.877 180.767,183.581L180.767,211.27Z" style="fill:rgb(0,22,68);fill-rule:nonzero;"/>
        <path d="M73.89,204.592C73.89,204.711 73.861,204.727 73.799,204.657C73.742,204.563 73.688,204.485 73.652,204.411C73.487,203.881 73.162,202.829 72.674,201.254C72.19,199.673 71.634,197.839 71.007,195.752C70.375,193.67 69.707,191.485 69.004,189.195C68.293,186.908 67.635,184.803 67.029,182.88C66.421,180.955 65.912,179.358 65.51,178.056C65.107,176.759 64.906,176.07 64.906,175.991C64.81,175.633 64.62,175.307 64.356,175.047C64.047,174.802 63.657,174.682 63.264,174.71L56.403,174.71L56.403,176.718C56.379,177.289 56.483,177.859 56.707,178.385C56.877,178.768 57.126,179.111 57.438,179.391C57.734,179.68 58.084,179.907 58.469,180.06L58.469,194.426C57.348,194.633 56.526,195.62 56.526,196.76C56.526,197.9 57.348,198.887 58.469,199.094L58.469,220.177L63.81,220.177L63.81,191.232C63.81,190.989 63.835,190.891 63.868,190.928C63.921,190.979 63.965,191.04 63.995,191.108C63.995,191.145 64.196,191.81 64.598,193.083C65.005,194.36 65.51,195.945 66.118,197.854C66.725,199.755 67.383,201.817 68.092,204.041C68.799,206.271 69.466,208.367 70.096,210.331C70.724,212.286 71.258,213.977 71.701,215.369C72.149,216.765 72.412,217.557 72.494,217.767C72.658,218.35 72.871,218.919 73.13,219.467C73.333,219.897 73.78,220.161 74.255,220.132L77.778,220.132C78.199,220.158 78.607,219.977 78.87,219.647C79.108,219.335 79.236,218.952 79.235,218.559L79.235,199.037C80.25,198.748 80.956,197.815 80.956,196.76C80.956,195.705 80.25,194.771 79.235,194.483L79.235,180.483C79.248,180.209 79.32,179.942 79.445,179.698C79.555,179.519 79.689,179.354 79.843,179.21C80.214,178.915 80.54,178.568 80.812,178.179C81.152,177.677 81.322,177.078 81.296,176.471L81.296,174.71L73.89,174.767L73.89,204.592Z" style="fill:rgb(0,22,68);fill-rule:nonzero;"/>
        <path d="M309.306,204.592C309.306,204.711 309.274,204.727 309.212,204.657C309.15,204.563 309.105,204.485 309.064,204.411C308.896,203.881 308.576,202.83 308.091,201.254C307.607,199.673 307.048,197.839 306.416,195.752C305.788,193.67 305.127,191.482 304.412,189.195C303.71,186.908 303.055,184.803 302.446,182.88C301.834,180.955 301.329,179.358 300.923,178.056C300.52,176.759 300.315,176.069 300.315,175.991C300.223,175.633 300.036,175.306 299.773,175.047C299.462,174.803 299.071,174.683 298.677,174.71L291.82,174.71L291.82,176.718C291.796,177.289 291.9,177.859 292.124,178.385C292.291,178.767 292.537,179.11 292.847,179.391C293.146,179.679 293.499,179.906 293.885,180.06L293.885,194.426C292.764,194.633 291.943,195.62 291.943,196.76C291.943,197.9 292.764,198.887 293.885,199.094L293.885,220.177L299.227,220.177L299.227,191.232C299.227,190.989 299.243,190.891 299.284,190.928C299.337,190.979 299.379,191.041 299.408,191.108C299.408,191.145 299.613,191.81 300.015,193.083C300.418,194.36 300.923,195.945 301.53,197.854C302.142,199.755 302.795,201.816 303.509,204.041C304.215,206.271 304.882,208.367 305.509,210.331C306.137,212.286 306.671,213.977 307.118,215.369C307.566,216.765 307.824,217.557 307.91,217.767C308.075,218.35 308.288,218.919 308.547,219.467C308.749,219.898 309.197,220.162 309.672,220.132L313.195,220.132C313.615,220.158 314.023,219.977 314.287,219.647C314.522,219.333 314.648,218.951 314.648,218.559L314.648,199.032C315.665,198.747 316.372,197.814 316.372,196.758C316.372,195.702 315.665,194.768 314.648,194.483L314.648,180.483C314.661,180.209 314.732,179.942 314.857,179.698C314.968,179.519 315.102,179.354 315.256,179.21C315.626,178.915 315.953,178.568 316.225,178.179C316.566,177.677 316.736,177.078 316.709,176.471L316.709,174.71L309.306,174.767L309.306,204.592Z" style="fill:rgb(0,22,68);fill-rule:nonzero;"/>
        <path d="M337.725,197.852C336.762,196.997 335.732,196.22 334.645,195.528C334.699,195.333 334.728,195.131 334.732,194.929C334.729,193.623 333.656,192.55 332.35,192.547C331.799,192.55 331.265,192.746 330.844,193.102C330.651,192.97 330.445,192.843 330.256,192.716C329.242,192.062 328.287,191.32 327.403,190.499C326.708,189.93 326.287,189.092 326.245,188.195L326.245,182.18C326.243,181.748 326.396,181.328 326.676,180.998C326.979,180.637 327.35,180.338 327.768,180.119C328.207,179.877 328.677,179.695 329.164,179.577C329.62,179.457 330.089,179.394 330.56,179.389C331.02,179.394 331.477,179.444 331.927,179.536C332.411,179.637 332.879,179.801 333.319,180.025C333.735,180.238 334.1,180.539 334.387,180.908C334.668,181.271 334.818,181.721 334.81,182.18L334.81,184.43C334.788,185.352 335.168,186.239 335.848,186.861C336.535,187.506 337.449,187.854 338.39,187.83L341.124,187.83L341.124,183.33C341.154,181.943 340.886,180.565 340.34,179.29C339.838,178.179 339.078,177.203 338.123,176.445C337.122,175.677 335.99,175.1 334.781,174.741C333.43,174.348 332.029,174.154 330.622,174.166C329.228,174.155 327.839,174.329 326.491,174.683C325.298,175 324.181,175.558 323.211,176.322C322.266,177.087 321.517,178.066 321.027,179.179C320.472,180.491 320.204,181.906 320.242,183.33L320.242,187.649C320.195,189.172 320.583,190.678 321.359,191.989C322.115,193.186 323.071,194.244 324.184,195.118C325.32,196.005 326.519,196.808 327.772,197.52C327.631,197.824 327.556,198.156 327.555,198.493C327.555,198.495 327.555,198.498 327.555,198.5C327.555,199.802 328.626,200.874 329.928,200.874C330.634,200.874 331.304,200.559 331.755,200.016C332.733,200.69 333.608,201.502 334.354,202.426C335.114,203.407 335.512,204.622 335.479,205.862L335.479,212.3C335.484,212.813 335.322,213.315 335.019,213.729C334.701,214.167 334.301,214.538 333.841,214.821C333.346,215.126 332.817,215.371 332.264,215.552C331.735,215.731 331.18,215.822 330.622,215.823C330.067,215.819 329.515,215.736 328.984,215.577C328.438,215.427 327.916,215.204 327.432,214.911C326.987,214.64 326.596,214.289 326.278,213.877C325.978,213.474 325.819,212.983 325.826,212.481L325.826,209.874C325.874,209.069 325.576,208.282 325.009,207.71C324.312,207.157 323.433,206.886 322.546,206.95L319.631,206.95L319.631,211.512C319.599,212.91 319.902,214.295 320.513,215.552C321.072,216.672 321.883,217.648 322.882,218.401C323.928,219.177 325.113,219.746 326.372,220.076C329.159,220.799 332.085,220.799 334.871,220.076C336.139,219.743 337.332,219.175 338.39,218.401C339.408,217.649 340.24,216.675 340.825,215.552C341.452,214.3 341.764,212.912 341.732,211.512L341.732,205.554C341.76,204.041 341.362,202.549 340.582,201.252C339.804,199.983 338.84,198.837 337.725,197.852" style="fill:rgb(0,22,68);fill-rule:nonzero;"/>
        <path d="M141.106,197.422C140.863,199.524 140.621,201.593 140.379,203.613C140.132,205.646 139.911,207.44 139.71,209.021C139.504,210.597 139.34,211.87 139.225,212.847C139.195,213.34 139.114,213.828 138.983,214.305C138.49,211.353 138.059,208.7 137.673,206.352C137.291,204.003 136.866,201.382 136.396,198.489C135.932,195.595 135.459,192.74 134.976,189.925C134.491,187.108 134.031,184.505 133.608,182.095C133.181,179.685 132.808,177.77 132.488,176.351C132.401,175.904 132.032,175.546 131.358,175.263C130.717,174.986 130.025,174.843 129.326,174.844C128.675,174.851 128.03,174.961 127.413,175.169C126.843,175.297 126.387,175.73 126.23,176.294C125.902,177.628 125.532,179.5 125.105,181.91C124.683,184.32 124.228,186.93 123.742,189.74C123.258,192.557 122.782,195.42 122.314,198.329C121.85,201.252 121.424,203.894 121.037,206.253C120.655,208.626 120.22,211.31 119.731,214.305C119.589,213.83 119.498,213.341 119.46,212.847C119.316,211.87 119.156,210.597 118.971,209.021C118.791,207.44 118.577,205.646 118.335,203.613C118.093,201.593 117.847,199.524 117.604,197.422C117.042,192.478 115.071,174.705 115.071,174.705L107.648,174.709L107.648,176.536C107.627,177.131 107.775,177.721 108.075,178.236C108.303,178.623 108.614,178.956 108.986,179.209C109.191,179.368 109.375,179.553 109.532,179.759C109.707,179.99 109.831,180.256 109.894,180.539C110.485,185.601 111.019,190.266 111.52,194.56C110.63,194.924 110.046,195.795 110.046,196.756C110.046,197.921 110.903,198.922 112.053,199.101L112.082,199.368C112.361,201.753 112.635,204.081 112.903,206.352C113.162,208.614 113.403,210.649 113.626,212.457C113.852,214.255 114.032,215.725 114.176,216.85C114.32,217.987 114.385,218.591 114.385,218.673C114.433,219.016 114.57,219.341 114.784,219.613C114.999,219.915 115.353,220.088 115.724,220.073L122.589,220.073C122.967,220.096 123.338,219.966 123.619,219.712C123.915,219.375 124.141,218.983 124.284,218.558L129.449,188.98L134.491,218.558C134.632,218.984 134.859,219.376 135.156,219.712C135.438,219.967 135.812,220.097 136.191,220.073L142.99,220.073C143.361,220.089 143.715,219.916 143.93,219.613C144.141,219.339 144.277,219.015 144.324,218.673C144.324,218.591 144.394,217.987 144.538,216.85C144.682,215.725 144.862,214.255 145.088,212.457C145.302,210.65 145.548,208.614 145.815,206.352C146.078,204.077 146.35,201.749 146.632,199.368L146.661,199.101C147.806,198.914 148.656,197.915 148.656,196.754C148.656,195.797 148.078,194.929 147.194,194.56C147.687,190.266 148.229,185.605 148.82,180.539C148.881,180.255 149.006,179.988 149.186,179.759C149.341,179.552 149.523,179.367 149.728,179.209C150.605,178.61 151.111,177.597 151.062,176.536L151.062,174.709L143.667,174.734C143.667,174.734 141.672,192.478 141.106,197.422" style="fill:rgb(0,22,68);fill-rule:nonzero;"/>
        <path d="M286.318,196.76C286.316,195.6 285.464,194.601 284.319,194.416C284.035,192.815 283.748,191.209 283.473,189.653C283.087,187.465 282.743,185.492 282.442,183.733C282.138,181.971 281.885,180.524 281.683,179.389C281.481,178.256 281.379,177.607 281.379,177.447C281.298,176.714 280.954,176.035 280.41,175.538C279.805,174.969 278.994,174.67 278.164,174.708L270.022,174.708L270.022,176.113C270.022,177.849 270.527,178.925 271.541,179.332C271.745,179.416 271.869,179.626 271.845,179.845C271.843,180.139 271.823,180.432 271.784,180.723C271.784,180.764 271.697,181.269 271.513,182.242C271.328,183.22 271.086,184.492 270.782,186.069C270.482,187.646 270.148,189.437 269.78,191.443C269.604,192.408 269.423,193.394 269.238,194.383C267.95,194.404 266.902,195.469 266.902,196.757C266.902,197.717 267.484,198.587 268.372,198.953C267.218,205.116 264.467,220.13 264.467,220.13L270.248,220.13C270.248,220.13 271.927,209.891 271.968,209.693C272.046,208.881 272.412,208.478 273.061,208.478L279.983,208.478C280.303,208.467 280.619,208.548 280.894,208.712C281.181,208.961 281.355,209.315 281.379,209.693C281.379,209.891 282.738,220.13 282.738,220.13L288.859,220.175C288.859,220.175 286.347,205.904 285.099,198.821C285.847,198.406 286.314,197.616 286.318,196.76M280.164,203.137C280,203.332 279.753,203.44 279.498,203.428L273.787,203.428C273.555,203.433 273.331,203.334 273.18,203.157C273.014,202.967 272.948,202.709 273.003,202.463C273.003,202.426 273.052,202.077 273.151,201.429C273.254,200.784 273.381,199.955 273.549,198.941C273.705,197.931 273.89,196.785 274.091,195.512C274.292,194.231 274.518,192.934 274.76,191.591L276.579,181.027L276.706,181.027L278.525,191.591C278.768,192.934 278.989,194.231 279.199,195.512C279.396,196.785 279.576,197.931 279.741,198.941C279.901,199.955 280.044,200.784 280.164,201.429C280.287,202.077 280.344,202.426 280.344,202.463C280.388,202.703 280.322,202.951 280.164,203.137" style="fill:rgb(0,22,68);fill-rule:nonzero;"/>
        <path d="M213.251,215.455C213.049,215.332 212.881,215.221 212.737,215.123C212.594,215.024 212.524,214.77 212.524,214.363L212.524,203.98C212.544,202.597 212.317,201.222 211.855,199.919C211.467,198.782 210.75,197.785 209.794,197.058C209.346,196.618 209.309,196.212 209.67,195.846C210.545,195.129 211.249,194.225 211.732,193.202C212.267,192.097 212.538,190.883 212.524,189.655L212.524,184.855C212.538,183.469 212.354,182.088 211.978,180.754C211.64,179.578 211.049,178.49 210.245,177.568C209.419,176.648 208.39,175.932 207.24,175.478C205.828,174.93 204.32,174.669 202.806,174.71L190.304,174.71L190.304,176.471C190.258,177.151 190.416,177.829 190.759,178.418C190.998,178.804 191.318,179.134 191.696,179.387C191.868,179.481 192.014,179.617 192.123,179.781C192.256,180.011 192.32,180.275 192.307,180.54L192.307,194.438C191.211,194.667 190.419,195.642 190.419,196.762C190.419,197.882 191.211,198.857 192.307,199.086L192.307,220.128L198.252,220.161L198.252,200.157C198.252,199.591 198.519,199.303 199.045,199.303L202.806,199.303C203.886,199.208 204.947,199.655 205.635,200.494C206.274,201.471 206.582,202.629 206.513,203.795L206.513,217.155C206.505,217.239 206.501,217.323 206.501,217.408C206.501,218.913 207.74,220.151 209.245,220.151C209.365,220.151 209.486,220.144 209.605,220.128L214.647,220.128L214.647,217.763C214.703,217.207 214.539,216.652 214.191,216.215C213.906,215.928 213.591,215.673 213.251,215.455M206.513,189.655C206.571,190.851 206.265,192.037 205.635,193.055C204.976,193.939 203.904,194.421 202.806,194.327L198.983,194.327C198.805,194.32 198.633,194.255 198.495,194.143C198.339,194.033 198.248,193.853 198.252,193.662L198.252,180.659C198.252,180.101 198.577,179.822 199.221,179.822L202.806,179.822C203.897,179.73 204.963,180.197 205.635,181.062C206.268,182.066 206.575,183.242 206.513,184.428L206.513,189.655Z" style="fill:rgb(0,22,68);fill-rule:nonzero;"/>
        <path d="M232.254,202.323C231.603,202.683 231.24,203.41 231.342,204.146C231.342,204.384 231.396,214.657 231.256,214.879C231.12,215.097 230.876,215.224 230.62,215.211L225.274,215.211C225.017,215.228 224.774,215.084 224.666,214.85C224.541,214.583 224.479,214.291 224.486,213.996L224.424,180.604C224.4,180.294 224.452,179.982 224.576,179.696C224.691,179.518 224.847,179.37 225.032,179.265C225.405,178.973 225.732,178.626 226.001,178.235C226.344,177.736 226.515,177.14 226.489,176.535L226.489,174.712L216.348,174.712L216.348,176.535C216.324,177.139 216.495,177.736 216.837,178.235C217.106,178.624 217.431,178.971 217.801,179.265C217.991,179.376 218.157,179.522 218.29,179.696C218.439,179.974 218.502,180.29 218.471,180.604L218.471,194.424C217.363,194.644 216.557,195.626 216.557,196.756C216.557,197.886 217.363,198.867 218.471,199.088L218.471,220.13L235.715,220.13C236.08,220.115 236.427,219.966 236.688,219.711C237.014,219.419 237.192,218.995 237.172,218.557L237.172,201.904L234.623,201.904C233.813,201.88 233.006,202.023 232.254,202.323" style="fill:rgb(0,22,68);fill-rule:nonzero;"/>
        <path d="M103.27,174.761C103.172,174.734 103.071,174.72 102.97,174.72L102.859,174.72L102.855,174.712L83.603,174.712L83.603,176.473C83.571,177.119 83.686,177.764 83.94,178.358C84.136,178.777 84.467,179.118 84.88,179.327C85.091,179.454 85.276,179.62 85.426,179.816C85.604,180.06 85.691,180.359 85.672,180.661L85.672,194.424C84.563,194.642 83.755,195.625 83.755,196.756C83.755,197.887 84.563,198.869 85.672,199.088L85.672,220.13L102.97,220.13C103.12,220.131 103.268,220.101 103.405,220.039C103.618,219.972 103.814,219.86 103.98,219.711C104.28,219.426 104.445,219.025 104.431,218.611L104.431,205.76L101.878,205.76C101.067,205.738 100.259,205.88 99.505,206.178C98.855,206.541 98.493,207.269 98.593,208.005C98.593,208.248 98.651,214.657 98.511,214.878C98.374,215.098 98.128,215.225 97.87,215.211L92.352,215.211C91.864,215.211 91.622,214.928 91.622,214.365L91.622,200.217C91.622,199.646 91.921,199.371 92.529,199.371L99.821,199.371C100.42,199.371 100.732,199.088 100.732,198.509L100.732,195.118C100.752,194.841 100.624,194.573 100.396,194.416C100.205,194.287 99.981,194.214 99.751,194.206L92.529,194.206C91.921,194.206 91.622,193.923 91.622,193.356L91.622,180.661C91.62,180.421 91.719,180.191 91.893,180.025C92.041,179.86 92.25,179.764 92.471,179.758L98.281,179.758C98.373,179.807 98.452,179.877 98.511,179.963C98.651,180.185 98.593,186.594 98.593,186.84C98.493,187.576 98.856,188.302 99.505,188.663C100.258,188.967 101.066,189.112 101.878,189.09L104.431,189.09L104.431,176.051C104.419,175.699 104.265,175.367 104.004,175.131C103.803,174.936 103.546,174.807 103.27,174.761" style="fill:rgb(0,22,68);fill-rule:nonzero;"/>
        <path d="M259.356,174.761C259.257,174.733 259.155,174.72 259.052,174.72L258.941,174.72L258.941,174.712L239.685,174.712L239.685,176.473C239.655,177.119 239.77,177.763 240.022,178.358C240.219,178.777 240.55,179.118 240.962,179.327C241.173,179.454 241.358,179.62 241.508,179.816C241.686,180.06 241.773,180.359 241.755,180.661L241.755,194.424C240.645,194.642 239.838,195.625 239.838,196.756C239.838,197.887 240.645,198.869 241.755,199.088L241.755,220.13L259.052,220.13C259.203,220.131 259.353,220.101 259.492,220.039C259.703,219.972 259.898,219.86 260.062,219.711C260.364,219.427 260.529,219.025 260.514,218.611L260.514,205.76L257.96,205.76C257.15,205.738 256.344,205.88 255.591,206.178C254.941,206.54 254.577,207.268 254.68,208.005C254.68,208.248 254.737,214.657 254.593,214.878C254.457,215.096 254.213,215.223 253.957,215.211L248.431,215.211C247.946,215.211 247.704,214.928 247.704,214.365L247.704,200.217C247.704,199.646 248.008,199.371 248.611,199.371L255.903,199.371C256.507,199.371 256.81,199.088 256.81,198.509L256.81,195.118C256.834,194.84 256.705,194.571 256.474,194.416C256.286,194.286 256.065,194.214 255.837,194.206L248.611,194.206C248.008,194.206 247.704,193.923 247.704,193.356L247.704,180.661C247.703,180.421 247.801,180.191 247.975,180.025C248.124,179.862 248.333,179.766 248.554,179.758L254.363,179.758C254.456,179.806 254.536,179.876 254.593,179.963C254.737,180.185 254.68,186.594 254.68,186.84C254.577,187.577 254.941,188.304 255.591,188.663C256.343,188.967 257.15,189.112 257.96,189.09L260.514,189.09L260.514,176.051C260.503,175.7 260.35,175.367 260.091,175.131C259.888,174.937 259.632,174.809 259.356,174.761" style="fill:rgb(0,22,68);fill-rule:nonzero;"/>
        <path d="M186.717,194.4L186.717,183.326C186.746,181.937 186.467,180.559 185.899,179.291C185.383,178.18 184.614,177.206 183.654,176.445C182.652,175.669 181.504,175.102 180.279,174.778C177.536,174.05 174.65,174.05 171.907,174.778C170.674,175.104 169.517,175.67 168.503,176.445C167.527,177.197 166.745,178.173 166.225,179.291C165.657,180.559 165.378,181.937 165.408,183.326L165.408,194.412C164.252,194.584 163.388,195.586 163.388,196.754C163.388,197.923 164.252,198.925 165.408,199.097L165.408,211.508C165.378,212.9 165.657,214.281 166.225,215.552C166.749,216.676 167.529,217.66 168.503,218.426C169.51,219.22 170.668,219.798 171.907,220.126C174.649,220.86 177.537,220.86 180.279,220.126C181.509,219.8 182.659,219.221 183.654,218.426C184.611,217.652 185.379,216.669 185.899,215.552C186.468,214.281 186.747,212.9 186.717,211.508L186.717,199.113C187.919,198.99 188.844,197.965 188.844,196.756C188.844,195.548 187.919,194.523 186.717,194.4M180.767,211.27C180.791,211.97 180.646,212.666 180.344,213.298C180.083,213.818 179.71,214.273 179.252,214.633C178.808,214.978 178.302,215.236 177.762,215.392C177.22,215.556 176.657,215.639 176.091,215.639C175.515,215.637 174.943,215.554 174.391,215.392C173.841,215.242 173.326,214.984 172.876,214.633C172.414,214.278 172.04,213.821 171.784,213.298C171.479,212.667 171.333,211.971 171.357,211.27L171.357,183.581C171.333,182.876 171.479,182.176 171.784,181.54C172.044,181.021 172.417,180.566 172.876,180.21C173.328,179.863 173.842,179.605 174.391,179.451C174.943,179.29 175.516,179.208 176.091,179.208C176.657,179.207 177.22,179.289 177.762,179.451C178.301,179.61 178.806,179.868 179.252,180.21C179.707,180.571 180.079,181.024 180.344,181.54C180.646,182.177 180.791,182.877 180.767,183.581L180.767,211.27Z" style="fill:rgb(0,22,68);fill-rule:nonzero;"/>
        <path d="M73.89,204.592C73.89,204.711 73.861,204.727 73.799,204.657C73.742,204.563 73.688,204.485 73.652,204.411C73.487,203.881 73.162,202.829 72.674,201.254C72.19,199.673 71.634,197.839 71.007,195.752C70.375,193.67 69.707,191.485 69.004,189.195C68.293,186.908 67.635,184.803 67.029,182.88C66.421,180.955 65.912,179.358 65.51,178.056C65.107,176.759 64.906,176.07 64.906,175.991C64.81,175.633 64.62,175.307 64.356,175.047C64.047,174.802 63.657,174.682 63.264,174.71L56.403,174.71L56.403,176.718C56.379,177.289 56.483,177.859 56.707,178.385C56.877,178.768 57.126,179.111 57.438,179.391C57.734,179.68 58.084,179.907 58.469,180.06L58.469,194.426C57.348,194.633 56.526,195.62 56.526,196.76C56.526,197.9 57.348,198.887 58.469,199.094L58.469,220.177L63.81,220.177L63.81,191.232C63.81,190.989 63.835,190.891 63.868,190.928C63.921,190.979 63.965,191.04 63.995,191.108C63.995,191.145 64.196,191.81 64.598,193.083C65.005,194.36 65.51,195.945 66.118,197.854C66.725,199.755 67.383,201.817 68.092,204.041C68.799,206.271 69.466,208.367 70.096,210.331C70.724,212.286 71.258,213.977 71.701,215.369C72.149,216.765 72.412,217.557 72.494,217.767C72.658,218.35 72.871,218.919 73.13,219.467C73.333,219.897 73.78,220.161 74.255,220.132L77.778,220.132C78.199,220.158 78.607,219.977 78.87,219.647C79.108,219.335 79.236,218.952 79.235,218.559L79.235,199.037C80.25,198.748 80.956,197.815 80.956,196.76C80.956,195.705 80.25,194.771 79.235,194.483L79.235,180.483C79.248,180.209 79.32,179.942 79.445,179.698C79.555,179.519 79.689,179.354 79.843,179.21C80.214,178.915 80.54,178.568 80.812,178.179C81.152,177.677 81.322,177.078 81.296,176.471L81.296,174.71L73.89,174.767L73.89,204.592Z" style="fill:rgb(0,22,68);fill-rule:nonzero;"/>
        <path d="M309.306,204.592C309.306,204.711 309.274,204.727 309.212,204.657C309.15,204.563 309.105,204.485 309.064,204.411C308.896,203.881 308.576,202.83 308.091,201.254C307.607,199.673 307.048,197.839 306.416,195.752C305.788,193.67 305.127,191.482 304.412,189.195C303.71,186.908 303.055,184.803 302.446,182.88C301.834,180.955 301.329,179.358 300.923,178.056C300.52,176.759 300.315,176.069 300.315,175.991C300.223,175.633 300.036,175.306 299.773,175.047C299.462,174.803 299.071,174.683 298.677,174.71L291.82,174.71L291.82,176.718C291.796,177.289 291.9,177.859 292.124,178.385C292.291,178.767 292.537,179.11 292.847,179.391C293.146,179.679 293.499,179.906 293.885,180.06L293.885,194.426C292.764,194.633 291.943,195.62 291.943,196.76C291.943,197.9 292.764,198.887 293.885,199.094L293.885,220.177L299.227,220.177L299.227,191.232C299.227,190.989 299.243,190.891 299.284,190.928C299.337,190.979 299.379,191.041 299.408,191.108C299.408,191.145 299.613,191.81 300.015,193.083C300.418,194.36 300.923,195.945 301.53,197.854C302.142,199.755 302.795,201.816 303.509,204.041C304.215,206.271 304.882,208.367 305.509,210.331C306.137,212.286 306.671,213.977 307.118,215.369C307.566,216.765 307.824,217.557 307.91,217.767C308.075,218.35 308.288,218.919 308.547,219.467C308.749,219.898 309.197,220.162 309.672,220.132L313.195,220.132C313.615,220.158 314.023,219.977 314.287,219.647C314.522,219.333 314.648,218.951 314.648,218.559L314.648,199.032C315.665,198.747 316.372,197.814 316.372,196.758C316.372,195.702 315.665,194.768 314.648,194.483L314.648,180.483C314.661,180.209 314.732,179.942 314.857,179.698C314.968,179.519 315.102,179.354 315.256,179.21C315.626,178.915 315.953,178.568 316.225,178.179C316.566,177.677 316.736,177.078 316.709,176.471L316.709,174.71L309.306,174.767L309.306,204.592Z" style="fill:rgb(0,22,68);fill-rule:nonzero;"/>
        <path d="M337.725,197.852C336.762,196.997 335.732,196.22 334.645,195.528C334.699,195.333 334.728,195.131 334.732,194.929C334.729,193.623 333.656,192.55 332.35,192.547C331.799,192.55 331.265,192.746 330.844,193.102C330.651,192.97 330.445,192.843 330.256,192.716C329.242,192.062 328.287,191.32 327.403,190.499C326.708,189.93 326.287,189.092 326.245,188.195L326.245,182.18C326.243,181.748 326.396,181.328 326.676,180.998C326.979,180.637 327.35,180.338 327.768,180.119C328.207,179.877 328.677,179.695 329.164,179.577C329.62,179.457 330.089,179.394 330.56,179.389C331.02,179.394 331.477,179.444 331.927,179.536C332.411,179.637 332.879,179.801 333.319,180.025C333.735,180.238 334.1,180.539 334.387,180.908C334.668,181.271 334.818,181.721 334.81,182.18L334.81,184.43C334.788,185.352 335.168,186.239 335.848,186.861C336.535,187.506 337.449,187.854 338.39,187.83L341.124,187.83L341.124,183.33C341.154,181.943 340.886,180.565 340.34,179.29C339.838,178.179 339.078,177.203 338.123,176.445C337.122,175.677 335.99,175.1 334.781,174.741C333.43,174.348 332.029,174.154 330.622,174.166C329.228,174.155 327.839,174.329 326.491,174.683C325.298,175 324.181,175.558 323.211,176.322C322.266,177.087 321.517,178.066 321.027,179.179C320.472,180.491 320.204,181.906 320.242,183.33L320.242,187.649C320.195,189.172 320.583,190.678 321.359,191.989C322.115,193.186 323.071,194.244 324.184,195.118C325.32,196.005 326.519,196.808 327.772,197.52C327.631,197.824 327.556,198.156 327.555,198.493C327.555,198.495 327.555,198.498 327.555,198.5C327.555,199.802 328.626,200.874 329.928,200.874C330.634,200.874 331.304,200.559 331.755,200.016C332.733,200.69 333.608,201.502 334.354,202.426C335.114,203.407 335.512,204.622 335.479,205.862L335.479,212.3C335.484,212.813 335.322,213.315 335.019,213.729C334.701,214.167 334.301,214.538 333.841,214.821C333.346,215.126 332.817,215.371 332.264,215.552C331.735,215.731 331.18,215.822 330.622,215.823C330.067,215.819 329.515,215.736 328.984,215.577C328.438,215.427 327.916,215.204 327.432,214.911C326.987,214.64 326.596,214.289 326.278,213.877C325.978,213.474 325.819,212.983 325.826,212.481L325.826,209.874C325.874,209.069 325.576,208.282 325.009,207.71C324.312,207.157 323.433,206.886 322.546,206.95L319.631,206.95L319.631,211.512C319.599,212.91 319.902,214.295 320.513,215.552C321.072,216.672 321.883,217.648 322.882,218.401C323.928,219.177 325.113,219.746 326.372,220.076C329.159,220.799 332.085,220.799 334.871,220.076C336.139,219.743 337.332,219.175 338.39,218.401C339.408,217.649 340.24,216.675 340.825,215.552C341.452,214.3 341.764,212.912 341.732,211.512L341.732,205.554C341.76,204.041 341.362,202.549 340.582,201.252C339.804,199.983 338.84,198.837 337.725,197.852" style="fill:rgb(0,22,68);fill-rule:nonzero;"/>
        <path d="M141.106,197.422C140.863,199.524 140.621,201.593 140.379,203.613C140.132,205.646 139.911,207.44 139.71,209.021C139.504,210.597 139.34,211.87 139.225,212.847C139.195,213.34 139.114,213.828 138.983,214.305C138.49,211.353 138.059,208.7 137.673,206.352C137.291,204.003 136.866,201.382 136.396,198.489C135.932,195.595 135.459,192.74 134.976,189.925C134.491,187.108 134.031,184.505 133.608,182.095C133.181,179.685 132.808,177.77 132.488,176.351C132.401,175.904 132.032,175.546 131.358,175.263C130.717,174.986 130.025,174.843 129.326,174.844C128.675,174.851 128.03,174.961 127.413,175.169C126.843,175.297 126.387,175.73 126.23,176.294C125.902,177.628 125.532,179.5 125.105,181.91C124.683,184.32 124.228,186.93 123.742,189.74C123.258,192.557 122.782,195.42 122.314,198.329C121.85,201.252 121.424,203.894 121.037,206.253C120.655,208.626 120.22,211.31 119.731,214.305C119.589,213.83 119.498,213.341 119.46,212.847C119.316,211.87 119.156,210.597 118.971,209.021C118.791,207.44 118.577,205.646 118.335,203.613C118.093,201.593 117.847,199.524 117.604,197.422C117.042,192.478 115.071,174.705 115.071,174.705L107.648,174.709L107.648,176.536C107.627,177.131 107.775,177.721 108.075,178.236C108.303,178.623 108.614,178.956 108.986,179.209C109.191,179.368 109.375,179.553 109.532,179.759C109.707,179.99 109.831,180.256 109.894,180.539C110.485,185.601 111.019,190.266 111.52,194.56C110.63,194.924 110.046,195.795 110.046,196.756C110.046,197.921 110.903,198.922 112.053,199.101L112.082,199.368C112.361,201.753 112.635,204.081 112.903,206.352C113.162,208.614 113.403,210.649 113.626,212.457C113.852,214.255 114.032,215.725 114.176,216.85C114.32,217.987 114.385,218.591 114.385,218.673C114.433,219.016 114.57,219.341 114.784,219.613C114.999,219.915 115.353,220.088 115.724,220.073L122.589,220.073C122.967,220.096 123.338,219.966 123.619,219.712C123.915,219.375 124.141,218.983 124.284,218.558L129.449,188.98L134.491,218.558C134.632,218.984 134.859,219.376 135.156,219.712C135.438,219.967 135.812,220.097 136.191,220.073L142.99,220.073C143.361,220.089 143.715,219.916 143.93,219.613C144.141,219.339 144.277,219.015 144.324,218.673C144.324,218.591 144.394,217.987 144.538,216.85C144.682,215.725 144.862,214.255 145.088,212.457C145.302,210.65 145.548,208.614 145.815,206.352C146.078,204.077 146.35,201.749 146.632,199.368L146.661,199.101C147.806,198.914 148.656,197.915 148.656,196.754C148.656,195.797 148.078,194.929 147.194,194.56C147.687,190.266 148.229,185.605 148.82,180.539C148.881,180.255 149.006,179.988 149.186,179.759C149.341,179.552 149.523,179.367 149.728,179.209C150.605,178.61 151.111,177.597 151.062,176.536L151.062,174.709L143.667,174.734C143.667,174.734 141.672,192.478 141.106,197.422" style="fill:rgb(0,22,68);fill-rule:nonzero;"/>
        <path d="M286.318,196.76C286.316,195.6 285.464,194.601 284.319,194.416C284.035,192.815 283.748,191.209 283.473,189.653C283.087,187.465 282.743,185.492 282.442,183.733C282.138,181.971 281.885,180.524 281.683,179.389C281.481,178.256 281.379,177.607 281.379,177.447C281.298,176.714 280.954,176.035 280.41,175.538C279.805,174.969 278.994,174.67 278.164,174.708L270.022,174.708L270.022,176.113C270.022,177.849 270.527,178.925 271.541,179.332C271.745,179.416 271.869,179.626 271.845,179.845C271.843,180.139 271.823,180.432 271.784,180.723C271.784,180.764 271.697,181.269 271.513,182.242C271.328,183.22 271.086,184.492 270.782,186.069C270.482,187.646 270.148,189.437 269.78,191.443C269.604,192.408 269.423,193.394 269.238,194.383C267.95,194.404 266.902,195.469 266.902,196.757C266.902,197.717 267.484,198.587 268.372,198.953C267.218,205.116 264.467,220.13 264.467,220.13L270.248,220.13C270.248,220.13 271.927,209.891 271.968,209.693C272.046,208.881 272.412,208.478 273.061,208.478L279.983,208.478C280.303,208.467 280.619,208.548 280.894,208.712C281.181,208.961 281.355,209.315 281.379,209.693C281.379,209.891 282.738,220.13 282.738,220.13L288.859,220.175C288.859,220.175 286.347,205.904 285.099,198.821C285.847,198.406 286.314,197.616 286.318,196.76M280.164,203.137C280,203.332 279.753,203.44 279.498,203.428L273.787,203.428C273.555,203.433 273.331,203.334 273.18,203.157C273.014,202.967 272.948,202.709 273.003,202.463C273.003,202.426 273.052,202.077 273.151,201.429C273.254,200.784 273.381,199.955 273.549,198.941C273.705,197.931 273.89,196.785 274.091,195.512C274.292,194.231 274.518,192.934 274.76,191.591L276.579,181.027L276.706,181.027L278.525,191.591C278.768,192.934 278.989,194.231 279.199,195.512C279.396,196.785 279.576,197.931 279.741,198.941C279.901,199.955 280.044,200.784 280.164,201.429C280.287,202.077 280.344,202.426 280.344,202.463C280.388,202.703 280.322,202.951 280.164,203.137" style="fill:rgb(0,22,68);fill-rule:nonzero;"/>
        <path d="M213.251,215.455C213.049,215.332 212.881,215.221 212.737,215.123C212.594,215.024 212.524,214.77 212.524,214.363L212.524,203.98C212.544,202.597 212.317,201.222 211.855,199.919C211.467,198.782 210.75,197.785 209.794,197.058C209.346,196.618 209.309,196.212 209.67,195.846C210.545,195.129 211.249,194.225 211.732,193.202C212.267,192.097 212.538,190.883 212.524,189.655L212.524,184.855C212.538,183.469 212.354,182.088 211.978,180.754C211.64,179.578 211.049,178.49 210.245,177.568C209.419,176.648 208.39,175.932 207.24,175.478C205.828,174.93 204.32,174.669 202.806,174.71L190.304,174.71L190.304,176.471C190.258,177.151 190.416,177.829 190.759,178.418C190.998,178.804 191.318,179.134 191.696,179.387C191.868,179.481 192.014,179.617 192.123,179.781C192.256,180.011 192.32,180.275 192.307,180.54L192.307,194.438C191.211,194.667 190.419,195.642 190.419,196.762C190.419,197.882 191.211,198.857 192.307,199.086L192.307,220.128L198.252,220.161L198.252,200.157C198.252,199.591 198.519,199.303 199.045,199.303L202.806,199.303C203.886,199.208 204.947,199.655 205.635,200.494C206.274,201.471 206.582,202.629 206.513,203.795L206.513,217.155C206.505,217.239 206.501,217.323 206.501,217.408C206.501,218.913 207.74,220.151 209.245,220.151C209.365,220.151 209.486,220.144 209.605,220.128L214.647,220.128L214.647,217.763C214.703,217.207 214.539,216.652 214.191,216.215C213.906,215.928 213.591,215.673 213.251,215.455M206.513,189.655C206.571,190.851 206.265,192.037 205.635,193.055C204.976,193.939 203.904,194.421 202.806,194.327L198.983,194.327C198.805,194.32 198.633,194.255 198.495,194.143C198.339,194.033 198.248,193.853 198.252,193.662L198.252,180.659C198.252,180.101 198.577,179.822 199.221,179.822L202.806,179.822C203.897,179.73 204.963,180.197 205.635,181.062C206.268,182.066 206.575,183.242 206.513,184.428L206.513,189.655Z" style="fill:rgb(0,22,68);fill-rule:nonzero;"/>
        <path d="M232.254,202.323C231.603,202.683 231.24,203.41 231.342,204.146C231.342,204.384 231.396,214.657 231.256,214.879C231.12,215.097 230.876,215.224 230.62,215.211L225.274,215.211C225.017,215.228 224.774,215.084 224.666,214.85C224.541,214.583 224.479,214.291 224.486,213.996L224.424,180.604C224.4,180.294 224.452,179.982 224.576,179.696C224.691,179.518 224.847,179.37 225.032,179.265C225.405,178.973 225.732,178.626 226.001,178.235C226.344,177.736 226.515,177.14 226.489,176.535L226.489,174.712L216.348,174.712L216.348,176.535C216.324,177.139 216.495,177.736 216.837,178.235C217.106,178.624 217.431,178.971 217.801,179.265C217.991,179.376 218.157,179.522 218.29,179.696C218.439,179.974 218.502,180.29 218.471,180.604L218.471,194.424C217.363,194.644 216.557,195.626 216.557,196.756C216.557,197.886 217.363,198.867 218.471,199.088L218.471,220.13L235.715,220.13C236.08,220.115 236.427,219.966 236.688,219.711C237.014,219.419 237.192,218.995 237.172,218.557L237.172,201.904L234.623,201.904C233.813,201.88 233.006,202.023 232.254,202.323" style="fill:rgb(0,22,68);fill-rule:nonzero;"/>
        <path d="M103.27,174.761C103.172,174.734 103.071,174.72 102.97,174.72L102.859,174.72L102.855,174.712L83.603,174.712L83.603,176.473C83.571,177.119 83.686,177.764 83.94,178.358C84.136,178.777 84.467,179.118 84.88,179.327C85.091,179.454 85.276,179.62 85.426,179.816C85.604,180.06 85.691,180.359 85.672,180.661L85.672,194.424C84.563,194.642 83.755,195.625 83.755,196.756C83.755,197.887 84.563,198.869 85.672,199.088L85.672,220.13L102.97,220.13C103.12,220.131 103.268,220.101 103.405,220.039C103.618,219.972 103.814,219.86 103.98,219.711C104.28,219.426 104.445,219.025 104.431,218.611L104.431,205.76L101.878,205.76C101.067,205.738 100.259,205.88 99.505,206.178C98.855,206.541 98.493,207.269 98.593,208.005C98.593,208.248 98.651,214.657 98.511,214.878C98.374,215.098 98.128,215.225 97.87,215.211L92.352,215.211C91.864,215.211 91.622,214.928 91.622,214.365L91.622,200.217C91.622,199.646 91.921,199.371 92.529,199.371L99.821,199.371C100.42,199.371 100.732,199.088 100.732,198.509L100.732,195.118C100.752,194.841 100.624,194.573 100.396,194.416C100.205,194.287 99.981,194.214 99.751,194.206L92.529,194.206C91.921,194.206 91.622,193.923 91.622,193.356L91.622,180.661C91.62,180.421 91.719,180.191 91.893,180.025C92.041,179.86 92.25,179.764 92.471,179.758L98.281,179.758C98.373,179.807 98.452,179.877 98.511,179.963C98.651,180.185 98.593,186.594 98.593,186.84C98.493,187.576 98.856,188.302 99.505,188.663C100.258,188.967 101.066,189.112 101.878,189.09L104.431,189.09L104.431,176.051C104.419,175.699 104.265,175.367 104.004,175.131C103.803,174.936 103.546,174.807 103.27,174.761" style="fill:rgb(0,22,68);fill-rule:nonzero;"/>
        <path d="M259.356,174.761C259.257,174.733 259.155,174.72 259.052,174.72L258.941,174.72L258.941,174.712L239.685,174.712L239.685,176.473C239.655,177.119 239.77,177.763 240.022,178.358C240.219,178.777 240.55,179.118 240.962,179.327C241.173,179.454 241.358,179.62 241.508,179.816C241.686,180.06 241.773,180.359 241.755,180.661L241.755,194.424C240.645,194.642 239.838,195.625 239.838,196.756C239.838,197.887 240.645,198.869 241.755,199.088L241.755,220.13L259.052,220.13C259.203,220.131 259.353,220.101 259.492,220.039C259.703,219.972 259.898,219.86 260.062,219.711C260.364,219.427 260.529,219.025 260.514,218.611L260.514,205.76L257.96,205.76C257.15,205.738 256.344,205.88 255.591,206.178C254.941,206.54 254.577,207.268 254.68,208.005C254.68,208.248 254.737,214.657 254.593,214.878C254.457,215.096 254.213,215.223 253.957,215.211L248.431,215.211C247.946,215.211 247.704,214.928 247.704,214.365L247.704,200.217C247.704,199.646 248.008,199.371 248.611,199.371L255.903,199.371C256.507,199.371 256.81,199.088 256.81,198.509L256.81,195.118C256.834,194.84 256.705,194.571 256.474,194.416C256.286,194.286 256.065,194.214 255.837,194.206L248.611,194.206C248.008,194.206 247.704,193.923 247.704,193.356L247.704,180.661C247.703,180.421 247.801,180.191 247.975,180.025C248.124,179.862 248.333,179.766 248.554,179.758L254.363,179.758C254.456,179.806 254.536,179.876 254.593,179.963C254.737,180.185 254.68,186.594 254.68,186.84C254.577,187.577 254.941,188.304 255.591,188.663C256.343,188.967 257.15,189.112 257.96,189.09L260.514,189.09L260.514,176.051C260.503,175.7 260.35,175.367 260.091,175.131C259.888,174.937 259.632,174.809 259.356,174.761" style="fill:rgb(0,22,68);fill-rule:nonzero;"/>
    </g>
</svg>
