<svg clip-rule="evenodd" fill-rule="evenodd" stroke-linejoin="round" stroke-miterlimit="1.41421" viewBox="0 0 792 310" xmlns="http://www.w3.org/2000/svg"><g fill-rule="nonzero" transform="matrix(1.98574 0 0 1.98574 .701305 1.67781)"><path d="m221.468 7.924c-2.438 4.582 1.006 9.694 2.468 11.891 4.486 6.124 7.053 13.445 7.374 21.029.082 9.934-4.912 19.252-13.229 24.684 4.049-5.984 6.111-13.094 5.892-20.315 0-21.383-12.814-29.118-12.814-29.118s-.308 1.281-1.088 1.281c-2.772-.961-5.452-2.17-8.006-3.613-1.006-.542-2.406-1.359-2.895-1.642 0 0-2.09 1.1-3.092 1.642-2.553 1.444-5.233 2.653-8.006 3.613-.78 0-1.092-1.281-1.092-1.281s-12.81 7.735-12.81 29.118c-.219 7.221 1.843 14.331 5.892 20.315-8.317-5.433-13.311-14.75-13.233-24.684.324-7.584 2.892-14.905 7.378-21.029 1.466-2.197 4.907-7.308 2.468-11.891-1.855-2.826-5.23-4.286-8.561-3.703-35.022.587-110.785 15.869-162.361 45.919 5.25 8.484 14.722 13.47 24.688 12.994-2.529 1.236-5.053 2.504-7.571 3.802 5.798 8.131 15.749 12.284 25.607 10.687-3.009 1.425-6.006 2.884-8.991 4.377 6.784 8.196 17.109 12.651 27.726 11.964-4.393 2.217-7.046 3.63-7.029 3.626 9.06 7.782 21.171 11.061 32.92 8.913-2.197 1.601-4.414 3.297-7.038 5.128 10.039 5.038 21.343 7.005 32.493 5.654-2.266 1.72-4.529 3.449-6.791 5.206-.041-.238 26.893 7.37 46.054-1.072.711-.312 1.392-.669 2.074-1.022 4.823 17.593 20.934 29.882 39.177 29.882 18.241 0 34.351-12.287 39.177-29.878.685.349 1.359.706 2.069 1.018 19.161 8.442 46.091.834 46.058 1.072-2.258-1.757-4.525-3.486-6.795-5.206 11.149 1.352 22.452-.615 32.489-5.654-2.612-1.831-4.829-3.527-7.029-5.128 11.746 2.149 23.855-1.131 32.911-8.913.017.004-2.632-1.409-7.021-3.626 10.617.686 20.941-3.769 27.726-11.964-2.984-1.499-5.984-2.958-8.999-4.377 9.859 1.598 19.812-2.555 25.611-10.687-2.512-1.297-5.033-2.565-7.563-3.802 9.965.474 19.435-4.512 24.684-12.994-51.58-30.05-127.343-45.332-162.357-45.919-4.225-.074-7.091.957-8.565 3.703" fill="#001644"/><g fill="#c69e66"><path d="m230.098.004-.468-.004c-4.775-.517-9.433 1.811-11.886 5.941-1.529 2.949-1.785 6.4-.706 9.542-.739-.797-1.559-1.514-2.447-2.139-1.967-1.443-4.044-2.729-6.212-3.847-2.168-1.119.443 2.763-.575 2.434-.584-.204-1.157-.44-1.716-.706-2.854-1.355-6.984-3.843-6.984-3.843s-4.196 2.488-7.045 3.843c-.561.266-1.135.501-1.721.706-1.014.329-.575-2.434-.575-2.434-2.166 1.119-4.241 2.405-6.207 3.847-.891.624-1.712 1.341-2.452 2.139 1.081-3.142.825-6.594-.706-9.542-2.452-4.13-7.111-6.458-11.886-5.941l-.464.004c-35.137.591-111.692 15.77-164.41 46.489l-3.436 2.127c3.351 7.906 9.87 14.053 17.958 16.936l-1.741.838s7.218 11.718 18.447 14.148l-2.143.891c5.431 7.998 13.782 13.561 23.255 15.491l-2.266 1.109c7.453 7.4 17.268 11.96 27.73 12.883l-2.435 1.856c8.4 5.046 17.796 8.211 27.537 9.275l-2.64 2.349s29.089 10.638 53.453 1.773c6.804 17.035 23.367 28.283 41.71 28.326h.008c18.344-.043 34.908-11.291 41.715-28.326 24.355 8.865 53.448-1.773 53.448-1.773l-2.636-2.349c9.741-1.065 19.137-4.229 27.537-9.275l-2.443-1.856c10.462-.92 20.277-5.481 27.726-12.883l-2.258-1.109c9.474-1.929 17.825-7.492 23.255-15.491l-2.143-.891c11.221-2.43 18.447-14.148 18.447-14.148l-1.737-.838c8.086-2.883 14.602-9.031 17.951-16.936l-3.433-2.127c-52.717-30.719-129.269-45.898-164.406-46.489m137.608 63.13c2.529 1.236 5.05 2.503 7.563 3.802-5.8 8.131-15.752 12.284-25.612 10.687 3.014 1.425 6.014 2.884 9 4.377-6.785 8.194-17.109 12.649-27.726 11.964 4.389 2.217 7.037 3.629 7.021 3.625-9.057 7.783-21.166 11.063-32.912 8.914 2.201 1.601 4.418 3.301 7.029 5.132-10.038 5.034-21.34 7-32.488 5.649 2.27 1.721 4.536 3.449 6.794 5.207.033-.234-26.896 7.369-46.058-1.072-.71-.312-1.383-.669-2.069-1.018-4.825 17.591-20.935 29.877-39.176 29.877-18.243 0-34.354-12.288-39.178-29.881-.681.353-1.363.71-2.073 1.022-19.162 8.441-46.095.838-46.05 1.072 2.258-1.758 4.52-3.486 6.787-5.207-11.15 1.349-22.453-.616-32.493-5.649 2.623-1.831 4.84-3.531 7.037-5.132-11.749 2.148-23.86-1.132-32.92-8.914-.016.004 2.636-1.408 7.029-3.625-10.617.687-20.942-3.769-27.726-11.964 2.989-1.499 5.986-2.958 8.992-4.377-9.858 1.595-19.808-2.558-25.608-10.687 2.517-1.298 5.041-2.565 7.571-3.802-9.966.476-19.438-4.51-24.687-12.995 51.576-30.05 127.343-45.331 162.361-45.918 3.33-.584 6.705.876 8.56 3.703 2.439 4.582-1.001 9.694-2.467 11.89-4.486 6.125-7.054 13.445-7.378 21.03-.079 9.934 4.916 19.25 13.233 24.684-4.049-5.984-6.111-13.094-5.892-20.316 0-21.382 12.81-29.118 12.81-29.118s.312 1.281 1.092 1.281c2.772-.959 5.452-2.169 8.006-3.613 1.002-.542 3.092-1.642 3.092-1.642.492.283 1.888 1.1 2.894 1.642 2.555 1.443 5.234 2.652 8.006 3.613.78 0 1.088-1.281 1.088-1.281s12.814 7.736 12.814 29.118c.22 7.222-1.842 14.332-5.891 20.316 8.318-5.432 13.312-14.75 13.228-24.684-.32-7.585-2.887-14.906-7.374-21.03-1.461-2.196-4.906-7.308-2.467-11.89 1.474-2.747 4.34-3.777 8.564-3.703 35.014.587 110.777 15.869 162.358 45.918-5.25 8.483-14.72 13.468-24.684 12.995"/><path d="m143.285 32.187c-26.565 3.869-52.715 10.193-78.112 18.891 6.573 11.697 24.409 6.786 24.409 6.786 33.462-9.467 48.394-12.678 53.185-13.606-.184-4.031-.011-8.071.518-12.071"/><path d="m143.576 51.415c-21.129 4.19-41.903 10.006-62.136 17.396s8.795 10.018 26.236 5.066c14.674-4.159 33.486-10.161 39.099-11.96-1.478-3.362-2.552-6.887-3.199-10.502"/><path d="m149.706 67.451c-5.962 1.926-35.761 11.579-48.337 16.411 0 0 7.218 9.677 28.05 1.474 14.51-5.715 22.508-9.053 26.031-10.556-2.164-2.237-4.089-4.693-5.744-7.329"/><path d="m160.054 78.989c-5.206 2.262-24.544 10.712-35.728 16.094 0 0 14.074 6.918 31.782-4.019l11.008-7.226c-2.472-1.438-4.833-3.059-7.062-4.849"/><path d="m254.855 32.187c26.567 3.869 52.717 10.193 78.116 18.891-6.573 11.697-24.409 6.786-24.409 6.786-33.465-9.467-48.394-12.678-53.185-13.606.183-4.031.009-8.071-.522-12.071"/><path d="m254.568 51.415c21.129 4.19 41.902 10.006 62.136 17.396 20.233 7.39-8.799 10.018-26.24 5.066-14.67-4.159-33.482-10.161-39.095-11.96 1.474-3.363 2.548-6.888 3.199-10.502"/><path d="m248.438 67.451c5.957 1.926 35.761 11.579 48.332 16.411 0 0-7.213 9.677-28.046 1.474-14.514-5.715-22.508-9.053-26.034-10.556 2.165-2.237 4.091-4.693 5.748-7.329"/><path d="m238.09 78.989c5.202 2.262 24.54 10.712 35.724 16.094 0 0-14.071 6.918-31.783-4.019l-11.003-7.226c2.471-1.439 4.831-3.059 7.062-4.849"/><path d="m143.285 32.187c-26.565 3.869-52.715 10.193-78.112 18.891 6.573 11.697 24.409 6.786 24.409 6.786 33.462-9.467 48.394-12.678 53.185-13.606-.184-4.031-.011-8.071.518-12.071"/><path d="m143.576 51.415c-21.129 4.19-41.903 10.006-62.136 17.396s8.795 10.018 26.236 5.066c14.674-4.159 33.486-10.161 39.099-11.96-1.478-3.362-2.552-6.887-3.199-10.502"/><path d="m149.706 67.451c-5.962 1.926-35.761 11.579-48.337 16.411 0 0 7.218 9.677 28.05 1.474 14.51-5.715 22.508-9.053 26.031-10.556-2.164-2.237-4.089-4.693-5.744-7.329"/><path d="m160.054 78.989c-5.206 2.262-24.544 10.712-35.728 16.094 0 0 14.074 6.918 31.782-4.019l11.008-7.226c-2.472-1.438-4.833-3.059-7.062-4.849"/><path d="m254.855 32.187c26.567 3.869 52.717 10.193 78.116 18.891-6.573 11.697-24.409 6.786-24.409 6.786-33.465-9.467-48.394-12.678-53.185-13.606.183-4.031.009-8.071-.522-12.071"/><path d="m254.568 51.415c21.129 4.19 41.902 10.006 62.136 17.396 20.233 7.39-8.799 10.018-26.24 5.066-14.67-4.159-33.482-10.161-39.095-11.96 1.474-3.363 2.548-6.888 3.199-10.502"/><path d="m248.438 67.451c5.957 1.926 35.761 11.579 48.332 16.411 0 0-7.213 9.677-28.046 1.474-14.514-5.715-22.508-9.053-26.034-10.556 2.165-2.237 4.091-4.693 5.748-7.329"/><path d="m238.09 78.989c5.202 2.262 24.54 10.712 35.724 16.094 0 0-14.071 6.918-31.783-4.019l-11.003-7.226c2.471-1.439 4.831-3.059 7.062-4.849"/><path d="m147.1 103.378c3.793 1.265 7.869 1.426 11.751.464.496-3.569 1.467-7.055 2.886-10.367-5.161 3.342-10.913 7.152-14.637 9.903"/><path d="m251.04 103.378c-3.724-2.751-9.468-6.561-14.628-9.899 1.419 3.312 2.39 6.798 2.886 10.367 3.879.96 7.952.797 11.742-.468"/></g><path d="m170.366 15.035c2.731-3.905 1.359-5.469-8.987-4.492-48.46 4.899-95.695 18.214-139.579 39.345 4.197 2.132 9.144 2.241 13.43.296 2.73-.977 7.419-2.928 7.419-2.928 66.792-26.954 115.515-28.97 115.515-28.97-13.709 33.61 3.576 51.437 15.84 59.337.554-.436 1.117-.863 1.696-1.269-31.594-27.509-7.411-58.355-5.334-61.319" fill="#fff"/><path d="m236.762 10.544c-10.351-.977-11.718.587-8.988 4.492 2.082 2.96 26.261 33.81-5.329 61.315.579.406 1.141.833 1.696 1.268 12.264-7.899 29.549-25.722 15.836-59.336 0 0 48.731 2.02 115.514 28.97 0 0 4.689 1.955 7.424 2.932 4.286 1.941 9.23 1.831 13.425-.3-43.884-21.128-91.119-34.442-139.578-39.341" fill="#fff"/><path d="m209.956 133.269c-1.932.512-3.9.88-5.887 1.1-.638 1.163-1.208 2.361-1.708 3.589l-.772 1.974v4.373c4.446-.315 8.789-1.487 12.789-3.453-2.242-1.993-3.791-4.65-4.422-7.583" fill="#c69e66"/><path d="m194.084 134.368c-1.988-.22-3.958-.588-5.892-1.1-.628 2.935-2.18 5.593-4.426 7.583 4.001 1.966 8.344 3.139 12.79 3.457v-4.401l-.776-1.971c-.496-1.221-1.062-2.412-1.696-3.568" fill="#c69e66"/><path d="m192.227 54.732.061-.102c1.015-1.944.522-4.354-1.174-5.744s-6.709 1.408-6.877-7.489c.022-.991-.247-1.968-.772-2.808-.525-.841 1.721-1.565 5.457 1.248 3.744 2.804 5.781 10.765 7.813 8.897 1.999-1.856 1.281-12.227 2.328-12.617 1.03.39.32 10.761 2.328 12.617 2.032 1.868 4.052-6.093 7.809-8.897 3.732-2.813 5.456-1.248 5.456-1.248-.521.843-.793 1.817-.784 2.808-.152 8.897-6.86 7.489-6.86 7.489-1.696 1.383-2.184 3.792-1.162 5.727.017.038.039.074.065.107 4.233-4.545 7.53-6.356 9.357-5.629.017-.037.033-.07.046-.107 1.526-2.805 2.201-5.997 1.942-9.18.048-5.574-1.94-10.978-5.588-15.191-3.649-4.214-.087 1.876-3.248-.226-5.618-3.943-13.15-3.938-18.763.012-3.055 2.073-3.203.213-3.203.213-3.639 4.219-5.623 9.62-5.579 15.192-.199 3.093.425 6.185 1.81 8.958.045.115.091.226.14.341 1.819-.764 5.132 1.047 9.398 5.629" fill="#fff"/><path d="m189.095 45.873c-.564-.155-.901-.746-.747-1.31.059-.218.195-.407.382-.534-.404-.458-.857-.871-1.351-1.231-.494-.361-.945 4.368 2.96 3.904-.116-.326-.259-.642-.427-.944-.246.144-.54.186-.817.115" fill="#da1a32"/><path d="m210.762 42.8c-.493.36-.946.771-1.351 1.227.178.136.311.322.382.534.026.093.039.189.039.285 0 .584-.481 1.065-1.065 1.065-.192 0-.381-.052-.547-.151-.162.302-.301.616-.414.94 3.9.468 2.956-3.9 2.956-3.9" fill="#da1a32"/><path d="m193.641 97.089c-2.874-15.122-5.144-26.306-6.971-34.419-1.4-6.199 2.328-3.719 4.335.156z" fill="#da1a32"/><path d="m204.504 97.089c2.878-15.122 5.144-26.306 6.971-34.419 1.392-6.199-2.328-3.719-4.335.156z" fill="#da1a32"/><path d="m200.902 102.697c1.24-23.361 3.1-39.904 3.1-41.969 0-.921-.13-1.837-.386-2.722l-1.359 4.443-.419-7.851c-.8-.996-1.738-1.873-2.784-2.607h-.074c-1.015.732-1.917 1.609-2.677 2.603l-.41 7.855-1.367-4.447c-.257.886-.387 1.804-.386 2.726 0 2.065 1.851 18.607 3.095 41.969 1.24 23.362-1.654 27.701-1.654 27.701 1.34 2.152 2.506 4.408 3.486 6.746.984-2.338 2.153-4.594 3.498-6.746 1.344-2.151-2.899-4.339-1.663-27.701" fill="#da1a32"/><path d="m228.717 113.456c2.075-3.201 3.606-6.723 4.532-10.424-1.161-6.029-3.9-11.644-7.936-16.271.721 4.728.269 9.562-1.318 14.074l-.016.045c2.513 3.79 4.124 8.107 4.709 12.617z" fill="#fff"/><path d="m174.148 100.836c-1.589-4.512-2.041-9.346-1.318-14.075-4.029 4.618-6.765 10.221-7.928 16.239.921 3.738 2.447 7.301 4.516 10.547l.025.033c.572-4.542 2.188-8.89 4.721-12.703z" fill="#fff"/><path d="m220.111 96.121c1.434-5.662.266-11.679-3.182-16.394-1.632-.957-3.341-1.78-5.107-2.459-.825 3.892-1.679 7.973-2.517 12.017l-.008.054c4.049 1.47 7.734 3.798 10.802 6.823z" fill="#fff"/><path d="m188.873 89.272c-.841-4.04-1.699-8.125-2.529-12.009-1.775.678-3.49 1.502-5.128 2.463-3.448 4.715-4.616 10.732-3.182 16.395l.008.041c3.078-3.036 6.778-5.368 10.844-6.836z" fill="#fff"/><path d="m233.33 115.707c-1.361 2.191-2.931 4.245-4.689 6.133l-.041.037c-.626 4.222-2.155 8.26-4.483 11.837l.09-.086c4.74-4.944 7.914-11.18 9.123-17.921" fill="#fff"/><path d="m169.504 121.831c-1.761-1.885-3.334-3.937-4.697-6.126 1.211 6.745 4.39 12.985 9.135 17.93.025.024.053.045.078.074-2.329-3.58-3.859-7.621-4.484-11.845z" fill="#fff"/><path d="m214.906 125.876c5.599-2.846 10.353-7.116 13.783-12.378-.585-4.511-2.196-8.827-4.71-12.617-1.128 3.399-2.442 6.734-3.937 9.989-2.371 4.752-4.098 9.798-5.136 15.006" fill="#c69e66"/><path d="m183.255 125.994c-1.028-5.25-2.76-10.338-5.148-15.126-1.497-3.256-2.814-6.592-3.946-9.993-2.531 3.815-4.147 8.164-4.721 12.707 3.397 5.311 8.173 9.601 13.815 12.412" fill="#c69e66"/><path d="m205.419 128.62.222.443c1.356-.264 2.695-.607 4.011-1.026.728-6.701 2.688-13.21 5.781-19.199 1.966-4.062 3.529-8.307 4.669-12.674-3.068-3.028-6.755-5.356-10.807-6.824-2.488 12.03-4.762 23.551-5.304 27.554-.137 3.959.346 7.915 1.428 11.726" fill="#c69e66"/><path d="m188.497 128.095c1.312.409 2.648.74 3.999.993l.238-.472c1.1-3.954 1.582-8.055 1.429-12.157-.641-4.381-2.862-15.524-5.276-27.135-4.066 1.469-7.765 3.801-10.843 6.836 1.136 4.369 2.699 8.615 4.664 12.679 3.111 6.002 5.074 12.533 5.789 19.256" fill="#c69e66"/><path d="m214.797 131.58c.028.226.049.46.082.686.592 2.39 2.034 4.485 4.056 5.892 1.867-1.31 3.602-2.798 5.182-4.443 2.327-3.577 3.856-7.615 4.483-11.837-3.856 4.183-8.563 7.491-13.803 9.702" fill="#c69e66"/><path d="m183.269 132.27c.037-.23.053-.464.082-.69-5.246-2.215-9.957-5.529-13.816-9.718.626 4.224 2.156 8.265 4.484 11.845 1.582 1.649 3.322 3.139 5.193 4.451 2.023-1.404 3.466-3.498 4.057-5.888" fill="#c69e66"/></g></svg>