<?xml version="1.0" encoding="UTF-8" standalone="no"?>
<!DOCTYPE svg PUBLIC "-//W3C//DTD SVG 1.1//EN" "http://www.w3.org/Graphics/SVG/1.1/DTD/svg11.dtd">
<svg width="100%" height="100%" viewBox="0 0 1500 850" version="1.1" xmlns="http://www.w3.org/2000/svg" xmlns:xlink="http://www.w3.org/1999/xlink" xml:space="preserve" xmlns:serif="http://www.serif.com/" style="fill-rule:evenodd;clip-rule:evenodd;stroke-linejoin:round;stroke-miterlimit:1.41421;">
    <g id="g8" transform="matrix(1,0,0,1,-530,-295)">
        <path id="path219" d="M1231.22,1120.33C1241.91,1086.2 1309.33,864.861 1309.33,863.897C1309.33,863.145 1304.43,868.71 1298.45,876.265C1284.45,893.921 1260.77,917.516 1248,926.523C1235.71,935.193 1223.42,941.508 1211.98,945.04C1178.8,955.277 1153.46,945.029 1143.43,917.321L1140.55,909.356L1129.35,923.475C1089.61,973.574 1044.01,1002.81 1005.33,1002.99C995.211,1003.03 991.061,1002.43 984.672,999.97C969.407,994.101 956.037,977.497 951.683,959C950.777,955.15 949.643,952 949.163,952C948.684,952 943.62,957.85 937.912,965C924.055,982.355 883.966,1022.38 867.134,1035.66C827.167,1067.21 786.916,1087.21 745.333,1096.2C733.574,1098.74 727.492,1099.21 707.333,1099.14C685.774,1099.07 681.977,1098.7 670,1095.53C629.683,1084.85 598.613,1058.99 577.435,1018.5C544.686,955.871 542.075,863.305 570.077,757.639C590.566,680.324 630.509,592.958 672.266,534.122C728.015,455.572 788.315,409.519 848.947,399.184C864.481,396.536 892.388,397.276 904.667,400.661C936.133,409.337 958.498,431.746 969.213,465.333C982.502,506.991 977.28,569.174 955.006,634.512L951.195,645.691L909.276,658.08C886.221,664.894 867.153,670.264 866.902,670.013C866.651,669.762 869.257,660.957 872.693,650.445C880.601,626.247 888.278,596.098 891.987,574.667C895.955,551.742 896.944,521.175 894.145,508C887.018,474.462 866.112,461.471 835.069,471.29C756.274,496.213 659.405,672.151 640.137,825.333C629.18,912.449 643.615,975.019 681.059,1002.71C707.709,1022.42 745.383,1025.42 788,1011.21C843.375,992.753 905.63,943.632 953.715,880.46L959.961,872.253L1040.88,607.126C1085.39,461.307 1121.94,341.807 1122.11,341.572C1122.66,340.797 1201.87,317.29 1202.73,317.649C1203.18,317.842 1164.68,444.6 1117.16,599.333C1069.64,754.067 1029.81,884.267 1028.64,888.667C1025.59,900.173 1024.64,915.855 1026.63,921.885C1028.6,927.851 1034.65,932.002 1041.33,931.963C1061.55,931.848 1104.67,894.638 1134.77,851.333L1142.18,840.667L1185.87,698C1209.9,619.533 1229.66,555.232 1229.79,555.108C1230.54,554.334 1309.73,531.926 1310.54,532.257C1311.09,532.482 1290.96,598.948 1265.81,679.959C1240.66,760.97 1219.09,831.17 1217.89,835.959C1211.38,861.858 1215.59,874.667 1230.63,874.667C1249.97,874.667 1288.31,841.019 1325.35,791.551L1335.17,778.435L1377.92,638.884L1420.67,499.333L1437.07,491.11C1453.16,483.036 1475.51,475.078 1491.33,471.788C1495.73,470.872 1507.73,470.12 1518,470.117C1533.14,470.112 1538.76,470.673 1547.78,473.094C1584.68,483.001 1611.5,509.714 1624.43,549.434C1630.61,568.413 1632.67,583.906 1632.6,610.667C1632.52,637.736 1630.46,654.654 1624.02,681.044C1621.92,689.63 1620.41,696.852 1620.65,697.093C1621.51,697.958 1641.63,670.349 1655.17,649.713C1679.53,612.589 1702.27,571.478 1738,500C1766.57,442.825 1792.78,392.542 1802.93,375.439C1810.32,362.977 1825.12,341.333 1826.26,341.333C1826.91,341.333 1866.37,381.935 1871.89,388.286L1876.19,393.239L1872,399.328C1869.7,402.677 1866.21,408.849 1864.24,413.042C1860.89,420.19 1860.67,421.833 1860.7,439.333C1860.75,460.765 1862.12,467.386 1876.67,516C1894.04,574.052 1898.02,596.793 1896.95,632C1896.53,646.015 1895.47,658.129 1894.32,662.333C1892.93,667.365 1892.82,669.333 1893.92,669.333C1896.6,669.333 1928.14,652.773 1943.33,643.389C1960.58,632.738 1981.98,617.573 1996,606.065C2009.67,594.847 2009.39,594.941 2007.16,602.336C2006.12,605.818 1999.82,626.967 1993.18,649.333C1981.69,688.043 1980.87,690.212 1976.24,694.41C1956.39,712.412 1920.47,727.292 1874.55,736.537L1852.05,741.068L1844.12,748.201C1833.57,757.696 1816.34,768.343 1802.15,774.128C1777.36,784.234 1746.6,789.296 1725.33,786.767C1713.13,785.316 1704.01,783.112 1703.98,781.604C1703.96,781.088 1709.13,763.811 1715.45,743.209L1726.96,705.75L1745.5,704.126C1755.69,703.233 1771.68,701.35 1781.02,699.942L1798,697.381L1805.53,689.469C1820.41,673.83 1825.84,656.871 1825.84,626C1825.84,604.034 1823.99,590.976 1816.7,561.928C1812.04,543.352 1796.38,489.95 1794.64,486.743C1793.93,485.426 1790.15,491.73 1782.64,506.743C1693.7,684.573 1644.59,754.99 1581.33,795.377C1574.96,799.444 1566.15,807.18 1557.07,816.689C1528.64,846.427 1502.48,861.895 1468,869.344C1454.41,872.279 1437.28,873.852 1435.09,872.364C1433.94,871.581 1436.93,859.954 1446.1,829.413C1453.02,806.381 1458.83,787.442 1459.01,787.328C1459.19,787.213 1464.13,785.466 1470,783.446C1475.87,781.426 1488.11,776.674 1497.21,772.887L1513.75,766L1520.23,756C1537.91,728.72 1551.49,692.427 1558.89,652.667C1563.08,630.172 1563.06,594.969 1558.85,579.333C1552.99,557.522 1542.76,542.81 1528.76,536.042C1519.16,531.4 1504.48,530.784 1492.21,534.51C1483.82,537.059 1482.73,537.791 1481.49,541.674C1480.73,544.053 1442.58,669.3 1396.71,820C1350.85,970.7 1312.8,1095.22 1312.15,1096.71C1311.21,1098.9 1303.49,1101.65 1271.82,1111.04C1250.28,1117.44 1232.16,1122.67 1231.57,1122.67C1230.97,1122.67 1230.82,1121.62 1231.22,1120.33ZM1285.44,459.808C1274.11,456.219 1262.98,445.532 1259.25,434.653C1253.74,418.547 1257.01,397.843 1267.61,381.728C1290,347.71 1338.52,337.182 1362.48,361.142C1382.44,381.105 1379.24,416.412 1355.31,440.349C1335.96,459.69 1308.89,467.231 1285.44,459.808Z" style="fill:rgb(10,34,64);fill-rule:nonzero;"/>
    </g>
</svg>
