<?xml version="1.0" encoding="UTF-8" standalone="no"?>
<!DOCTYPE svg PUBLIC "-//W3C//DTD SVG 1.1//EN" "http://www.w3.org/Graphics/SVG/1.1/DTD/svg11.dtd">
<svg width="100%" height="100%" viewBox="0 0 1900 900" version="1.1" xmlns="http://www.w3.org/2000/svg" xmlns:xlink="http://www.w3.org/1999/xlink" xml:space="preserve" xmlns:serif="http://www.serif.com/" style="fill-rule:evenodd;clip-rule:evenodd;stroke-linejoin:round;stroke-miterlimit:1.41421;">
    <g id="Image" transform="matrix(1,0,0,1,-330.667,-270)">
        <path id="path411" d="M684.052,942.534C646.222,936.722 619.165,912.989 609.717,877.333C606.541,865.346 606.541,835.987 609.717,824C616.573,798.123 632.396,778.324 654.816,767.565C685.818,752.688 723.858,752.422 752.806,766.879L758.667,769.806L758.667,785.57C758.667,794.24 758.184,801.333 757.595,801.333C757.005,801.333 754.561,799.309 752.163,796.835C743.299,787.689 726.032,781.376 709.807,781.349C689.725,781.316 674.613,789.697 667.075,805.047L663.333,812.667L663.333,850C663.333,885.322 663.487,887.665 666.183,893.497C673.209,908.692 687.109,917.374 706.041,918.394C724.945,919.412 740.419,913.476 754.865,899.667C758.509,896.183 761.755,893.333 762.078,893.333C762.402,893.333 762.667,900.492 762.667,909.243C762.667,927.311 763.224,926.35 748.452,933.792C732.295,941.931 704.598,945.691 684.052,942.534ZM1830,942.564C1816.43,940.694 1801.6,936.418 1791.86,931.564L1783.33,927.317L1782.96,910.992C1782.7,899.593 1783.04,894.667 1784.08,894.667C1784.9,894.667 1788.07,896.806 1791.12,899.42C1794.17,902.035 1800.87,906.238 1806,908.76C1833.47,922.258 1867.5,921.812 1877.46,907.823C1883.77,898.961 1881.38,885.384 1872.54,879.924C1870.14,878.441 1855.64,873.136 1840.32,868.136C1822.3,862.255 1809.91,857.41 1805.23,854.416C1770.31,832.065 1774.85,782.411 1813.43,764.759C1827.35,758.387 1836.52,756.711 1856.67,756.853C1877,756.997 1888.9,759.329 1904.11,766.154L1912,769.698L1912,785.515C1912,794.215 1911.64,801.333 1911.19,801.333C1910.75,801.333 1908.13,799.545 1905.37,797.359C1882.87,779.543 1839.3,775.89 1828.76,790.936C1823.15,798.949 1825.69,809.511 1834.38,814.281C1837.11,815.776 1851.41,821 1866.17,825.891C1895.66,835.657 1905.51,840.666 1914.9,850.662C1923.91,860.255 1927.17,869.467 1927.17,885.333C1927.17,902.584 1923.86,911.042 1912.78,922.113C1903.84,931.053 1892.94,936.946 1878.67,940.555C1868.02,943.247 1842.58,944.297 1830,942.564ZM800,864.909C800,781.781 800.087,782.745 791.369,769.55C788.783,765.636 786.667,761.886 786.667,761.217C786.667,760.516 800.527,760 819.333,760L852,760L852,914.667L888.667,914.667C908.833,914.667 925.327,915.117 925.319,915.667C925.311,916.217 924.394,919.667 923.281,923.333C922.169,927 920.652,932.25 919.911,935L918.564,940L859.282,940L800,940L800,864.909ZM950.667,864.633C950.667,793.744 950.515,788.834 948.108,781.987C946.701,777.983 943.701,771.968 941.441,768.62C939.182,765.272 937.333,761.963 937.333,761.266C937.333,760.501 950.26,760 970,760L1002.67,760L1002.67,940L976.667,940L950.667,940L950.667,864.633ZM1053.33,864.05C1053.33,791.443 1053.22,787.79 1050.68,781.05C1049.22,777.173 1046.22,771.3 1044.02,768C1041.81,764.7 1040.01,761.55 1040.01,761C1040,759.524 1141.65,759.864 1153.33,761.378C1180.18,764.858 1198.6,777.537 1206.08,797.681C1208.14,803.242 1208.66,808.065 1208.64,821.333C1208.61,842.06 1206.1,849.475 1195.1,861.356C1180.85,876.743 1165.84,881.274 1129,881.31L1105.33,881.333L1105.33,940L1079.33,940L1053.33,940L1053.33,864.05ZM1146.24,852.527C1154.16,846.612 1155.33,842.605 1155.33,821.333C1155.33,799.135 1153.83,794.187 1145.53,789.021C1141.25,786.359 1138.57,785.945 1123,785.536L1105.33,785.072L1105.33,856.202L1123.91,855.767C1140.31,855.384 1142.92,855.005 1146.24,852.527ZM1243.72,863C1243.72,863 1243.7,803.526 1243.33,786C1243.15,777.137 1230.67,761.351 1230.67,761.351C1230.67,761.351 1244.64,759.92 1288.33,760.357C1350.8,760.983 1355.04,761.422 1369.58,768.793C1393.34,780.83 1404.77,808.29 1397.99,837.042C1394.21,853.073 1385.54,864.673 1371.94,871.926C1358.4,879.142 1352.55,880.239 1322.67,881.159L1295.33,882L1294.97,911L1294.62,940L1269.36,940L1244.1,940L1243.72,863ZM1334.82,853.255C1343.4,848.88 1345.27,843.169 1345.3,821.283C1345.33,805.172 1345.01,802.596 1342.33,797.313C1337.42,787.624 1333.16,786 1312.67,786L1295.33,786L1294.98,821L1294.62,856L1312.03,856C1326.97,856 1330.2,855.611 1334.82,853.255ZM1433.33,864.05C1433.33,791.443 1433.22,787.79 1430.68,781.05C1429.21,777.173 1426.22,771.3 1424.02,768C1421.81,764.7 1420.01,761.55 1420.01,761C1420.01,760.45 1450.51,760 1487.79,760L1555.58,760L1558.52,770.717C1560.13,776.612 1561.79,782.312 1562.2,783.384C1562.85,785.067 1557.64,785.333 1524.14,785.333L1485.33,785.333L1485.33,833.333L1515.33,833.333C1531.83,833.333 1545.33,833.524 1545.33,833.758C1545.33,833.992 1544.48,837.142 1543.43,840.758C1542.38,844.374 1540.86,849.883 1540.04,853L1538.56,858.667L1511.95,858.667L1485.33,858.667L1485.33,914.628L1525.76,914.981L1566.19,915.333L1562.79,927.667L1559.38,940L1496.36,940L1433.33,940L1433.33,864.05ZM1598.37,863.667C1597.92,779.562 1598.27,783.266 1589.3,769.274C1587.12,765.878 1585.33,762.354 1585.33,761.443C1585.33,760.138 1598.03,759.907 1645,760.356C1695.28,760.837 1706.01,761.279 1713.22,763.166C1736.32,769.214 1750.04,783.502 1753.37,805.002C1756.09,822.543 1750.73,840.02 1739.43,850.439C1733.71,855.71 1721.79,862.646 1718.38,862.687C1712.02,862.763 1713.2,865.163 1737.88,902.156L1762.67,939.333L1733.03,939.693C1716.73,939.891 1702.78,939.816 1702.02,939.527C1701.27,939.238 1691.06,923.326 1679.33,904.168C1658.49,870.114 1657.91,869.333 1653.67,869.333L1649.33,869.333L1649.33,940L1624.06,940L1598.79,940L1598.37,863.667ZM1689.24,842.998C1697.7,838.685 1699.26,834.992 1699.8,818.083C1700.21,805.096 1699.9,802.151 1697.53,796.799C1693.37,787.396 1687.92,785.4 1666.33,785.363L1649.33,785.333L1649.33,845.333L1667,845.33C1681.18,845.329 1685.57,844.869 1689.24,842.997L1689.24,842.998ZM583.333,682.114C547.447,675.086 522.242,651.958 513.168,617.734C509.314,603.197 509.323,576.951 513.188,562.266C521.34,531.29 543.778,508.76 575.393,499.804C588.869,495.986 615.634,495.626 629.64,499.074C662.08,507.059 685.367,529.972 694.27,562.667C697.544,574.69 697.566,605.175 694.308,617.333C685.978,648.425 664.348,670.808 634.017,679.724C620.535,683.686 597.023,684.795 583.333,682.114L583.333,682.114ZM618.741,656.641C627.156,653.672 632.9,648.73 637.019,640.917L640.667,634L641.071,593.072C641.319,567.883 640.948,550.185 640.104,547.051C635.943,531.602 624.098,522.617 606.549,521.601C588.304,520.545 575.638,527.346 569.159,541.678C566.05,548.555 566,549.336 566.002,590.667C566.003,627.853 566.271,633.234 568.332,637.617C572.874,647.271 581.006,654.485 590.658,657.421C596.524,659.205 612.75,658.754 618.741,656.641ZM766.911,682.725C752.189,680.395 739.759,676.796 730.372,672.143L720.667,667.333L720.292,651C720.086,642.017 720.262,634.667 720.683,634.667C721.104,634.667 724.572,637.021 728.391,639.899C738.007,647.148 753.2,654.158 764.959,656.775C779.294,659.964 797.442,658.996 806.139,654.578C820.973,647.041 822.482,628.281 808.928,619.907C806.584,618.459 793.267,613.612 779.333,609.137C765.4,604.661 751.05,599.513 747.444,597.697C738.185,593.035 727.324,582.271 723.006,573.479C719.74,566.828 719.333,564.522 719.333,552.637C719.333,540.23 719.646,538.639 723.707,530.391C734.583,508.303 758.168,496.839 792.667,496.872C812.05,496.89 827.246,499.819 840.488,506.089L848,509.646L848,525.489C848,534.204 847.629,541.333 847.176,541.333C846.723,541.333 844.201,539.445 841.573,537.137C825.703,523.204 789.826,516.92 773.55,525.223C760.908,531.672 759.072,546.717 770.05,553.91C771.986,555.179 786.169,560.354 801.568,565.411C831.704,575.306 840.554,579.556 849.853,588.593C864.958,603.273 869.112,628.844 859.683,649.104C853.12,663.208 835.587,675.854 815.882,680.699C805.897,683.153 777.139,684.343 766.911,682.725ZM1450.51,681.922C1428.3,677.902 1412.67,669.853 1398.87,655.325C1383.79,639.444 1376.58,621.646 1375.11,596.667C1372.36,549.84 1395.69,514.356 1437.68,501.503C1464.66,493.244 1502.44,495.341 1525.15,506.357L1532.67,510L1533.04,525.667C1533.25,534.283 1533.07,541.333 1532.65,541.333C1532.23,541.333 1528.74,538.956 1524.89,536.049C1497.38,515.284 1455.84,516.446 1439.06,538.45C1431.26,548.679 1430.46,554.17 1430.92,594.283C1431.31,628.307 1431.48,630.323 1434.42,636.824C1438.23,645.243 1443.95,650.922 1452.67,654.932C1458.4,657.57 1461.49,658 1474.67,658C1483.1,658 1491.05,657.569 1492.33,657.042C1494.45,656.171 1494.67,653.463 1494.67,627.375L1494.67,598.667L1480,598.667C1469.99,598.667 1465.33,598.189 1465.33,597.16C1465.33,596.332 1466.63,590.932 1468.21,585.16L1471.09,574.667L1545.33,574.667L1545.33,664.718L1537.67,668.927C1514.68,681.55 1478.36,686.964 1450.51,681.922ZM2095.2,682.058C2081.59,679.944 2067.93,675.732 2059.33,670.999L2052.67,667.328L2052.29,650.997C2052.09,642.015 2052.22,634.667 2052.6,634.667C2052.97,634.667 2056.44,637.087 2060.31,640.045C2075.42,651.612 2096.26,658.667 2115.3,658.667C2130.16,658.667 2138.48,656.005 2144.52,649.322C2148.76,644.624 2149.33,643.163 2149.33,636.996C2149.33,628.306 2145.96,622.382 2139.05,618.88C2136.27,617.472 2123.2,612.889 2110,608.697C2082.52,599.969 2072.69,595.229 2063.96,586.499C2053.69,576.231 2051.35,569.944 2051.34,552.667C2051.34,539.098 2051.62,537.425 2055.23,530.312C2062.61,515.731 2078.99,503.855 2098.33,499.066C2104.65,497.503 2112.7,496.867 2125.33,496.935C2144.98,497.041 2157.14,499.438 2172.11,506.154L2180,509.698L2180,525.515C2180,534.215 2179.7,541.333 2179.35,541.333C2178.99,541.333 2175.84,539.143 2172.35,536.465C2163.98,530.045 2154.57,525.972 2142.21,523.42C2122.39,519.326 2107.64,521.384 2099.67,529.357C2095.3,533.719 2094.67,535.152 2094.67,540.643C2094.67,545.983 2095.33,547.599 2099.07,551.34C2102.78,555.042 2107.74,557.122 2130.13,564.361C2144.78,569.099 2160.32,574.707 2164.66,576.822C2175.43,582.075 2187.03,593.098 2191.62,602.43C2195.03,609.381 2195.33,611.254 2195.33,625.333C2195.33,642.549 2193.39,648.781 2184.68,659.406C2168.76,678.834 2132.89,687.914 2095.2,682.058ZM378.384,603L378,526L374.376,518.266C372.383,514.013 369.533,508.82 368.043,506.727C366.553,504.634 365.333,502.264 365.333,501.461C365.333,500.443 375.024,500 397.323,500L429.312,500L429.656,577L430,654L467.134,654.355C497.359,654.643 504.142,655.039 503.589,656.481C503.215,657.455 501.589,663.146 499.975,669.126L497.041,680L437.905,680L378.769,680L378.384,603ZM964.636,663.041C1015.97,537.929 1016.39,536.843 1017.03,527.961C1017.54,520.728 1017.06,517.763 1014.16,510.519C1012.24,505.718 1010.67,501.388 1010.67,500.895C1010.67,500.403 1025.55,500 1043.73,500L1076.8,500L1113.05,587.859C1132.99,636.182 1149.68,676.682 1150.13,677.859C1150.87,679.783 1148.13,679.999 1123.14,679.989L1095.33,679.979L1088.2,661.97L1081.07,643.961L1041.74,644.314L1002.42,644.667L995.31,662L988.204,679.333L972.924,679.708L957.644,680.082L964.636,663.041L964.636,663.041ZM1070.67,618.975C1070.67,616.75 1043.05,549.136 1042.05,548.909C1041.46,548.776 1034.5,564.717 1026.58,584.333L1012.18,620L1041.42,620C1057.51,620 1070.67,619.539 1070.67,618.975ZM1177.05,603L1176.67,526L1172.89,518.667C1170.82,514.633 1167.67,509.423 1165.89,507.089C1164.12,504.755 1162.67,501.399 1162.67,501.399L1195.64,500.31L1228.62,500.667L1269.31,553.266L1310,605.866L1310.35,552.933L1310.7,500L1342.67,500L1342.67,680L1322.33,679.922L1302,679.843L1255.67,619.8L1209.33,559.756L1209.33,680L1193.38,680L1177.44,680L1177.05,603L1177.05,603ZM1581.05,603L1580.67,526L1577.04,518.266C1575.05,514.013 1572.2,508.82 1570.71,506.727C1569.22,504.634 1568,502.264 1568,501.461C1568,500.421 1587.4,500 1635.28,500L1702.55,500L1705.2,509C1706.66,513.95 1708.24,519.641 1708.73,521.646L1709.61,525.292L1671.14,525.646L1632.67,526L1632.67,574L1662.33,574.359C1678.65,574.556 1692,575.072 1692,575.504C1692,575.937 1690.68,581.325 1689.07,587.479L1686.13,598.667L1659.04,598.667L1631.95,598.667L1632.31,626.333L1632.67,654L1673.14,654.353L1713.61,654.706L1712.73,658.353C1712.25,660.359 1710.66,666.05 1709.2,671L1706.55,680L1644,680L1581.44,680L1581.05,603ZM1746.67,605.575C1746.67,523.304 1746.79,524.694 1738.05,510.172C1735.45,505.866 1733.33,501.816 1733.33,501.172C1733.33,500.527 1748.03,500 1766,500L1798.67,500L1798.67,654.667L1835.33,654.667C1855.5,654.667 1872,654.829 1872,655.027C1872,655.42 1866.98,673.896 1865.85,677.667C1865.2,679.843 1861.18,680 1805.91,680L1746.67,680L1746.67,605.575ZM1896,604.909C1896,521.678 1896.06,522.295 1887.31,509.302C1884.76,505.505 1882.67,501.859 1882.67,501.199C1882.67,500.505 1911.16,500 1950.36,500L2018.05,500L2021.46,512.333L2024.86,524.667L1986.43,525.02L1948,525.374L1948,574.667L2007.86,574.667L2006.02,581C2005.01,584.483 2003.52,589.883 2002.71,593L2001.23,598.667L1974.62,598.667L1948,598.667L1948,654.628L2028.86,655.333L2025.45,667.667L2022.05,680L1959.03,680L1896,680L1896,604.909Z" style="fill:rgb(10,34,64);fill-rule:nonzero;"/>
    </g>
</svg>
