<?xml version="1.0" encoding="UTF-8" standalone="no"?>
<!DOCTYPE svg PUBLIC "-//W3C//DTD SVG 1.1//EN" "http://www.w3.org/Graphics/SVG/1.1/DTD/svg11.dtd">
<svg width="100%" height="100%" viewBox="0 0 1900 900" version="1.1" xmlns="http://www.w3.org/2000/svg" xmlns:xlink="http://www.w3.org/1999/xlink" xml:space="preserve" xmlns:serif="http://www.serif.com/" style="fill-rule:evenodd;clip-rule:evenodd;stroke-linejoin:round;stroke-miterlimit:1.41421;">
    <g id="path285" transform="matrix(1,0,0,1,-330,-270)">
        <path d="M872,1140.05C872,1139.45 885.225,1095.85 901.388,1043.15C917.551,990.451 931.131,946.133 931.566,944.667C932,943.2 925.927,948.742 918.069,956.983C889.87,986.555 864.075,1001.46 841.387,1001.27C826.05,1001.15 815.23,994.342 805.829,978.891C805.681,978.648 798.771,985.458 790.473,994.023C765.936,1019.35 747.29,1031.65 724.787,1037.33C706.338,1042 691.554,1040.22 680.154,1031.96C673.956,1027.47 667.388,1018.05 665.076,1010.33C664.252,1007.58 663.212,1005.33 662.765,1005.33C662.318,1005.33 657.259,1011.02 651.522,1017.98C606.649,1072.4 551.721,1109.38 499.942,1120.04C481.452,1123.85 450.15,1123.25 434.895,1118.79C393.969,1106.83 363.24,1072.34 350.051,1023.55C344.607,1003.42 342.508,988.555 341.713,964.53C337.231,829.057 421.829,647.569 520.058,581.928C548.43,562.969 573.251,554.526 601.333,554.284C628.912,554.046 643.768,559.512 660.053,575.89C677.675,593.61 683.932,611.216 684.986,646.031C685.931,677.27 681.169,705.769 668.969,741.886L664.504,755.105L630.823,765.013C612.299,770.462 596.913,774.691 596.633,774.411C596.353,774.131 598.199,767.323 600.736,759.284C607.291,738.508 612.72,717.748 616.239,700C618.647,687.856 619.275,680.229 619.259,663.333C619.241,644.18 618.924,641.205 616.15,634.224C609.946,618.612 600.635,612.057 584.667,612.061C566.81,612.065 551.076,620.931 527.982,644C503.409,668.546 486.176,693.567 465.531,734.667C416.413,832.454 398.397,941.368 420.896,1004.5C425.654,1017.85 431.119,1026.96 440.177,1036.64C480.83,1080.1 562.214,1057.72 634.707,983.148C649.147,968.294 663.526,951.564 668.354,944C669.524,942.167 699.649,845.267 735.298,728.667C770.947,612.067 800.693,514.844 801.4,512.617C802.66,508.649 803.313,508.386 834.058,499.443C851.312,494.425 865.645,490.547 865.909,490.826C866.172,491.105 835.532,591.833 797.819,714.667C721.213,964.179 721.333,963.776 721.333,970.964C721.333,982.606 728.762,988.437 739.835,985.488C752.554,982.1 771.373,967.879 787.257,949.651C806.13,927.991 802.571,937.3 843.474,802.633L880.541,680.598L911.691,671.497C928.823,666.492 943.069,662.624 943.348,662.903C943.627,663.182 927.966,715.293 908.547,778.705C864.611,922.172 864,924.268 864,931.558C864,936.39 864.748,938.287 867.897,941.436C872.856,946.395 877.039,946.417 887.349,941.539C903.468,933.914 930.459,907.363 948.21,881.671C951.2,877.343 960.442,848.924 987.449,761.005C1006.88,697.752 1023.37,644.126 1024.1,641.835C1025.24,638.281 1027.17,636.873 1037.27,632.244C1064.12,619.947 1084.31,614.655 1104.28,614.686C1124.81,614.719 1139.2,619.42 1154.45,631.067C1180.25,650.78 1193.83,692.736 1189.53,739.488C1187.02,766.697 1177.96,802.473 1167.87,824.968C1165.69,829.804 1164.09,834.2 1164.29,834.738C1164.97,836.516 1184.45,820.87 1196.74,808.667C1219.81,785.774 1215.32,796.579 1253.57,672L1287.33,562L1299.66,555.845C1338.69,536.36 1379.03,533.238 1405.71,547.638C1414.65,552.46 1427.9,564.896 1434.17,574.342C1453.62,603.652 1457.64,654.247 1444.6,705.843C1440.11,723.634 1434.37,740.591 1428.68,752.917C1423.32,764.517 1423.57,764.553 1438.38,754.328C1457.61,741.053 1477.32,720.386 1488.96,701.301L1494.27,692.602L1495.05,671.301C1496.01,645.448 1499.84,625.631 1509.49,596.711C1532.79,526.887 1575.37,474.622 1622.24,458.324C1637.37,453.065 1657.78,451.754 1670.1,455.252C1704.24,464.946 1715.44,503.479 1698.67,553.543C1681.09,606.017 1636.44,650.832 1570.24,682.467L1554.47,690L1555.1,694.91C1556.05,702.362 1561.73,713.637 1567.37,719.285C1575.1,727.008 1582.69,729.887 1595.33,729.889C1617.15,729.892 1640.42,717.953 1665.16,694.062C1701.39,659.078 1733.67,605.231 1758.52,538.312C1764.49,522.252 1777.33,480.633 1777.33,477.37C1777.33,476.724 1774.18,474.747 1770.33,472.978C1760.5,468.456 1755.36,463.689 1751.23,455.245C1748.05,448.741 1747.73,446.812 1748.26,437.544C1748.98,425.213 1752.16,417.744 1760.79,408.144C1764.04,404.528 1769.94,399.419 1773.9,396.791C1781.07,392.035 1800.62,383.463 1802.5,384.252C1803.05,384.48 1807.59,389.167 1812.59,394.667C1817.59,400.167 1822.2,404.866 1822.84,405.109C1823.77,405.466 1850.66,397.839 1916.28,378.608C1919.66,377.617 1921.16,378.882 1939.28,398.06L1958.67,418.572L1951.51,429.62C1923.66,472.628 1894.91,540.986 1884.63,588.667C1881.34,603.908 1880.6,623.734 1883.09,629.664C1887.57,640.311 1897.57,639.774 1909.68,628.235C1930.22,608.683 1952.56,566.507 2007.31,444C2042.54,365.171 2059.64,331.326 2075.63,308.723L2083.13,298.113L2092.31,308.057C2124.62,343.055 2122.58,340.499 2120.38,343.365C2115.67,349.511 2110.73,362.384 2109.91,370.667C2108.62,383.684 2111.96,399.542 2123.38,434.773C2135.38,471.765 2140.68,492.927 2142.72,512C2144.31,526.85 2143.5,544.718 2140.69,556.805C2139.36,562.527 2139.36,564 2140.67,564C2141.58,564 2150.05,560.173 2159.5,555.497C2177.37,546.644 2195.99,535.028 2210.46,523.707C2217.59,518.133 2218.77,517.58 2217.93,520.209C2217.38,521.928 2212.87,536.734 2207.9,553.112C2202.94,569.49 2197.94,583.928 2196.79,585.197C2189.2,593.589 2157.54,606.518 2129.23,612.791L2112.67,616.461L2102.51,625.231C2089.09,636.812 2078.07,643.169 2062.67,648.213C2051.75,651.789 2047.49,652.452 2031.79,653.014C2015.82,653.587 2012.42,653.317 2004.19,650.816C1999.03,649.248 1994.52,647.503 1994.17,646.939C1993.62,646.059 2009.85,590.967 2010.94,589.992C2011.15,589.798 2021.53,588.928 2034,588.059C2048.49,587.048 2058.2,585.749 2060.92,584.455C2063.27,583.342 2067.96,579.469 2071.35,575.847C2087.82,558.242 2091.5,531.731 2082.64,494.667C2079.14,480.073 2059.66,416 2058.72,416C2058.32,416 2051.76,430.55 2044.13,448.333C1978.98,600.322 1940.85,667.2 1905.67,691.184C1892.89,699.898 1883.24,703.074 1869.26,703.164C1859.45,703.228 1856.82,702.729 1850.38,699.579C1827.35,688.309 1818.28,657.882 1824.73,613.504C1831.56,566.435 1856.23,494.044 1879.27,453.446C1882.71,447.38 1885.27,442.16 1884.96,441.847C1884.64,441.534 1870.68,445.958 1853.93,451.678L1823.47,462.079L1814.66,490.039C1772.29,624.587 1715.73,718.896 1651.33,762.367C1613.79,787.71 1569.14,793.771 1538.34,777.704C1526.82,771.693 1513.72,758.012 1507.33,745.318C1504.74,740.193 1502.42,736 1502.17,736C1501.91,736 1498.68,740.061 1494.99,745.024C1491.3,749.988 1481.75,760.338 1473.77,768.024C1451.52,789.462 1425.57,806.606 1395.75,819.561C1384.91,824.273 1379.2,827.725 1372.64,833.548C1362.45,842.592 1351.6,850.146 1341.33,855.341C1325.6,863.303 1303.18,868.967 1294.13,867.269L1289.79,866.456L1299.16,835.453L1308.53,804.451L1317.27,801.345C1322.07,799.637 1330.29,796.296 1335.54,793.921C1344.18,790.01 1345.72,788.688 1351.9,779.887C1367.82,757.216 1383.01,721.187 1389.5,690.667C1393.47,672.038 1393.82,639.754 1390.19,626.762C1385.28,609.16 1378.45,599.382 1367.23,593.889C1360.95,590.817 1358.73,590.405 1351.62,590.985C1347.06,591.357 1341.23,592.556 1338.67,593.649L1334,595.637L1265.5,820.991L1197,1046.34L1165.5,1055.64C1148.17,1060.75 1133.87,1064.84 1133.7,1064.73C1133.54,1064.61 1148.66,1014.77 1167.29,953.96C1185.93,893.153 1201.05,843.268 1200.88,843.106C1200.72,842.944 1195.31,847.883 1188.86,854.08C1176.38,866.061 1155.05,880.958 1135.33,891.457C1127.6,895.575 1119.54,901.357 1112.67,907.713C1093.59,925.352 1074.71,936.364 1054.79,941.469C1045.48,943.852 1028,944.971 1028,943.183C1028,941.655 1045.66,884.678 1046.83,882.424C1047.47,881.19 1049.35,879.778 1051,879.286C1052.65,878.794 1060.3,875.748 1068,872.516C1081.99,866.646 1082.01,866.629 1089.19,856.571C1098.23,843.916 1111.55,818.072 1118.01,800.677C1128.4,772.677 1133.37,739.994 1130.7,717.107C1126.01,676.736 1106.21,658.654 1077.57,668.572L1073,670.153L1004.59,894.743C966.967,1018.27 935.634,1120.23 934.962,1121.33C933.899,1123.08 919.44,1127.7 881.641,1138.4C876.338,1139.9 872,1140.64 872,1140.05ZM1568.67,643.363C1599.96,624.948 1621.56,601.947 1636.06,571.599C1647.63,547.371 1652.21,522.417 1647,512.019C1638.65,495.378 1615.86,505.957 1596.12,535.64C1587.68,548.325 1576.57,570.832 1569.95,588.667C1562.18,609.594 1552.5,650.667 1555.34,650.667C1555.85,650.667 1561.85,647.38 1568.67,643.363ZM925.325,604.162C915.072,600.815 905.497,591.91 902.551,582.981C901.665,580.299 901.257,573.508 901.58,566.842C902.058,556.972 902.766,554.154 906.56,547.052C912.003,536.861 924.23,524.957 933.625,520.701C959.947,508.78 987.351,517.862 993.485,540.539C995.791,549.063 994.324,563.596 990.263,572.467C985.524,582.819 973.807,594.305 962.136,600.041C954.018,604.03 951.513,604.601 940.802,604.907C934.128,605.097 927.163,604.762 925.325,604.162Z" style="fill:rgb(10,34,64);fill-rule:nonzero;"/>
    </g>
</svg>
