<?xml version="1.0" encoding="UTF-8" standalone="no"?>
<!DOCTYPE svg PUBLIC "-//W3C//DTD SVG 1.1//EN" "http://www.w3.org/Graphics/SVG/1.1/DTD/svg11.dtd">
<svg width="100%" height="100%" viewBox="0 0 1200 900" version="1.1" xmlns="http://www.w3.org/2000/svg" xmlns:xlink="http://www.w3.org/1999/xlink" xml:space="preserve" xmlns:serif="http://www.serif.com/" style="fill-rule:evenodd;clip-rule:evenodd;stroke-linejoin:round;stroke-miterlimit:1.41421;">
    <g id="Image" transform="matrix(1,0,0,1,-680,-270)">
        <path id="path346" d="M1422,1133.79C1418.33,1133.58 1403.93,1132.75 1390,1131.96C1353.75,1129.9 1297.06,1125.05 1211.33,1116.69C1056.65,1101.61 1008.31,1098.03 921.134,1095.23L893.602,1094.35L876.252,1101.18C849.674,1111.65 813.985,1119.97 788.74,1121.58L782.147,1122L756.471,1068.67C742.349,1039.33 730.766,1014.67 730.731,1013.85C730.695,1013.02 734.061,1011.97 738.333,1011.47C749.863,1010.13 776.462,1004.56 790,1000.65C847.01,984.178 889.383,951.796 924.319,898C933.222,884.289 1088.59,605.475 1087.78,604.664C1087.53,604.415 1079.39,607.734 1069.69,612.039C1045.73,622.674 1015.65,633.9 981.333,645.008C965.567,650.112 951.167,654.627 949.333,655.042C946.118,655.769 944.976,653.718 917.024,596.985C901.088,564.638 888.251,537.971 888.498,537.724C888.745,537.477 901.336,535.485 916.479,533.297C1012.95,519.356 1089.04,497.942 1155.86,465.929L1174.6,456.945L1185.56,442.206C1222.4,392.631 1262.84,352.497 1301.57,327.068C1315.99,317.598 1341.85,304.735 1344.45,305.734C1345.39,306.092 1356.8,328.412 1369.81,355.335L1393.47,404.285L1386.4,415.542C1367.93,444.961 1328.98,482.79 1276.6,522.182L1261.86,533.265L1144.33,745.018C1034.62,942.676 1014.42,978.059 1001.34,995.453L996.236,1002.24L1044.45,1003.13C1070.97,1003.62 1114.87,1004.88 1142,1005.95C1350.65,1014.11 1473.92,1011.24 1600.67,995.28C1629.99,991.587 1676.95,984.192 1698.45,979.882C1706.03,978.363 1712.49,977.375 1712.8,977.688C1713.23,978.118 1614.98,1124.13 1612.78,1126.33C1611.85,1127.26 1569.12,1131.96 1549.56,1133.28C1531.63,1134.5 1440.15,1134.86 1422,1133.79ZM1170.67,920.682C1170.67,920.324 1176.52,913.223 1183.67,904.902C1209.62,874.703 1234.58,841.124 1265,795.493C1276.18,778.714 1285.33,764.419 1285.33,763.726C1285.33,762.969 1280.68,762.793 1273.67,763.283C1267.25,763.733 1249.75,764.98 1234.78,766.054C1219.81,767.129 1207.3,767.743 1206.98,767.419C1206.65,767.095 1220.1,744.893 1236.86,718.081C1264.56,673.768 1267.7,669.274 1271.33,668.697C1273.53,668.348 1289.73,667.428 1307.33,666.652C1324.93,665.877 1341.2,664.952 1343.48,664.597C1347.13,664.026 1349.14,661.594 1360.75,643.642C1452.84,501.29 1526.51,432.243 1624.67,396.301C1662.18,382.565 1716.65,373.388 1760.9,373.347L1775.81,373.333L1802.24,424.984C1816.77,453.392 1828.85,477.336 1829.07,478.193C1829.3,479.051 1792.92,552.858 1748.24,642.209C1703.55,731.561 1662.96,813.967 1658.04,825.333C1648,848.507 1637.41,879.272 1633.95,895.333C1632.69,901.2 1631.49,906.192 1631.29,906.426C1630.72,907.097 1486.07,918.405 1485.43,917.828C1484.05,916.57 1523.95,831.432 1549.1,781.971C1557.26,765.937 1563.78,752.667 1563.59,752.483C1563.11,751.996 1415.84,757.043 1415.36,757.563C1415.14,757.803 1407.01,771.2 1397.28,787.333C1366.94,837.642 1338.2,882.07 1319.42,907.667C1313.41,915.851 1313.19,916 1306.99,916.011C1303.51,916.018 1273.67,917.213 1240.67,918.667C1175.92,921.52 1170.67,921.671 1170.67,920.682L1170.67,920.682ZM1562,657.293C1585.47,656.52 1606.47,655.614 1608.67,655.278C1612.5,654.693 1614.54,650.962 1657.82,565.244L1702.97,475.821L1697.82,476.712C1681.44,479.541 1671.2,482.003 1659.14,486.007C1609.01,502.655 1565.03,539.011 1513.19,606.667C1498.96,625.234 1476,657.766 1476,659.355C1476,659.92 1485.75,660.004 1497.67,659.54C1509.58,659.077 1538.53,658.066 1562,657.293Z" style="fill:rgb(10,34,64);fill-rule:nonzero;"/>
    </g>
</svg>
