<?xml version="1.0" encoding="UTF-8" standalone="no"?>
<!DOCTYPE svg PUBLIC "-//W3C//DTD SVG 1.1//EN" "http://www.w3.org/Graphics/SVG/1.1/DTD/svg11.dtd">
<svg width="100%" height="100%" viewBox="0 0 1900 900" version="1.1" xmlns="http://www.w3.org/2000/svg" xmlns:xlink="http://www.w3.org/1999/xlink" xml:space="preserve" xmlns:serif="http://www.serif.com/" style="fill-rule:evenodd;clip-rule:evenodd;stroke-linejoin:round;stroke-miterlimit:1.41421;">
    <g id="Image" transform="matrix(1,0,0,1,-330,-270)">
        <path id="path476" d="M959.436,1123.8C960.63,1121.49 974.451,1096.5 990.15,1068.26C1005.85,1040.02 1018.53,1016.75 1018.33,1016.55C1018.13,1016.35 1014.67,1018.29 1010.65,1020.87C996.807,1029.72 979.417,1036 968.731,1036C954.471,1036 942.825,1028.28 939.753,1016.8L938.187,1010.94L927.906,1018.15C903.899,1034.97 878.936,1040.2 861.934,1031.97C855.021,1028.62 848.881,1020.45 847.415,1012.63L846.548,1008.01L834.898,1015.85C813.696,1030.1 793.896,1038.92 769.392,1045.02C757.654,1047.94 752.253,1048.52 736.667,1048.56C707.771,1048.63 690.663,1042.73 675.453,1027.48C665.977,1017.97 660.025,1007.44 655.757,992.62C651.448,977.66 651.482,947.084 655.83,926.667C665.151,882.889 689.396,833.815 720.83,795.1C733.736,779.204 756.425,757.555 771.431,746.816C785.426,736.802 808.567,725.293 822.667,721.335C828.167,719.791 838.177,718.174 844.913,717.74C873.036,715.93 891.853,724.884 900.806,744.337C904.321,751.972 904.642,753.946 904.654,768C904.664,779.696 903.971,785.873 901.733,794.041C897.892,808.063 890.885,824.61 882.835,838.667L876.345,850L854.167,850.366L831.989,850.731L837.326,842.012C852.8,816.73 862.601,792.38 863.628,776.667C864.466,763.85 862.293,757.355 855.859,753.442C838.072,742.626 806.675,756.734 775.151,789.709C736.984,829.633 706.923,886.299 699.313,932.667C688.21,1000.33 725.256,1029.76 793.003,1007.11C811.217,1001.02 842.037,983.851 855.4,972.352C856.903,971.058 889.003,914.359 926.733,846.354L995.333,722.708L1015.14,722.687C1032.2,722.67 1034.85,722.944 1034.18,724.665C1033.76,725.765 1001.68,783.815 962.88,853.665C883.841,995.972 887.217,989.711 885.986,996.27C885.249,1000.2 885.625,1001.62 888.044,1004.04C890.597,1006.6 891.983,1006.9 898.1,1006.27C907.406,1005.31 923.232,997.059 936.427,986.286L946.575,978L983.617,911.667L1020.66,845.333L1040.33,845.333C1051.15,845.333 1060,845.675 1060,846.092C1060,846.509 1042.42,878.459 1020.93,917.092C999.438,955.725 981.138,989.012 980.261,991.063C976.288,1000.36 979.746,1006.67 988.809,1006.67C998.13,1006.67 1020.73,994.22 1035.2,981.119C1040.71,976.135 1047.03,965.601 1077.83,910.05C1110.38,851.355 1114.4,844.714 1118,843.661C1120.2,843.018 1130.12,842.152 1140.05,841.736C1160,840.901 1168.7,842.469 1179.8,848.904C1216.11,869.958 1215.51,927.941 1178.4,983C1173.87,989.716 1173.56,990.667 1175.83,990.667C1180.24,990.667 1204.24,977.841 1212.49,971.079C1220,964.919 1221.62,962.295 1253.67,904.438L1287.04,844.209L1295.3,842.771C1306.81,840.766 1328.65,841.004 1336.99,843.226C1375.46,853.468 1389.77,891.789 1373.19,940.185C1369.47,951.046 1359.04,971.717 1352.08,982C1348.14,987.814 1347.18,990.113 1348.57,990.412C1351.48,991.043 1369.59,983.095 1378.79,977.149C1389.04,970.524 1401.33,958.369 1401.33,954.86C1401.33,950.698 1409.11,929.73 1415,918C1440.17,867.889 1480.48,837.534 1518.09,840.378C1552.6,842.988 1564.02,870.712 1545.31,906.501C1527.63,940.342 1494.95,960.556 1440.33,971.452C1434.09,972.698 1437.64,988.358 1446.09,996.814C1468.12,1018.88 1519.49,995.509 1560.25,944.87C1572.32,929.875 1587.63,907.158 1595.65,892.336L1600.88,882.673L1595.4,876.956C1590.34,871.675 1586.67,863.697 1586.67,858C1586.67,843.556 1601.06,831.231 1621.01,828.584L1627.58,827.712L1638.71,845.333L1698.07,845.333L1707.17,860.634L1716.28,875.935L1711.38,881.634C1673.82,925.316 1648,969.297 1648,989.575C1648,995.113 1651.62,1000.02 1655.67,999.971C1660.01,999.916 1668.63,995.044 1676,988.482C1691.85,974.37 1705.47,958.307 1742.55,910C1756.63,891.667 1773.33,870.367 1779.68,862.667C1790.84,849.123 1813.84,825.333 1815.77,825.333C1816.29,825.333 1820.49,832.916 1825.11,842.183L1833.5,859.032L1829.57,863.183C1819.68,873.612 1818.46,883.883 1821.9,927.556C1824.76,963.771 1823.17,978.366 1813.97,1000.49C1813.01,1002.79 1813.45,1002.91 1820.13,1002.08C1835.36,1000.18 1849.23,997.201 1860.39,993.427C1866.78,991.268 1872,989.806 1872,990.177C1872,990.548 1867.68,998.623 1862.4,1008.12L1852.79,1025.39L1846.06,1027.53C1837.82,1030.16 1807.94,1031.41 1796.73,1029.6C1789.67,1028.46 1787.85,1028.68 1780.07,1031.65C1769.57,1035.64 1752.15,1037.05 1741.25,1034.79C1733.36,1033.15 1718.26,1026.58 1716.75,1024.13C1716.25,1023.33 1719.57,1015.85 1724.12,1007.52L1732.4,992.383L1744.54,995.498C1763.65,1000.41 1767.42,999.611 1777.08,988.637C1783.38,981.478 1786.38,973.584 1787.54,961.061C1788.51,950.69 1785.41,893.333 1783.88,893.333C1783.33,893.333 1777.27,900.981 1770.43,910.329C1712.89,988.973 1681.27,1023.18 1657.47,1032.51C1642.05,1038.55 1624.03,1036.11 1615.66,1026.85C1609.17,1019.66 1607.57,1013.89 1608.29,1000.18C1609.67,974.031 1632.59,925.912 1660.99,889.534C1668.43,880.01 1669.31,878.365 1666.58,879.096C1664.79,879.573 1656.03,879.972 1647.1,879.982L1630.86,880L1621.22,896.333C1597.53,936.465 1576.79,964.512 1553.34,988.123C1529.5,1012.13 1512.61,1023.32 1488,1031.41C1477.95,1034.71 1474.62,1035.15 1458.67,1035.23C1443.1,1035.32 1439.45,1034.91 1431.65,1032.22C1415.56,1026.66 1403.67,1012.74 1399.95,995.118L1398.5,988.236L1389.58,995.008C1372.79,1007.76 1345.76,1018.16 1322.57,1020.78C1316.82,1021.43 1310.99,1023.35 1304.25,1026.8C1293.15,1032.47 1279.64,1036 1269.07,1035.99C1261.5,1035.98 1252.56,1033.99 1251.36,1032.04C1250.95,1031.38 1254.98,1023.09 1260.3,1013.61L1269.99,996.363L1283.33,995.591L1296.67,994.819L1305.06,985.743C1327.99,960.957 1342.67,928.957 1342.67,903.744C1342.67,889.065 1338.43,880.046 1329.33,875.364C1324.52,872.888 1315.17,871.584 1312.59,873.029C1311.37,873.712 1278.74,931.209 1240.07,1000.8L1169.77,1127.33L1149.64,1127.7L1129.51,1128.07L1164.75,1064.65C1184.14,1029.77 1200,1000.94 1200,1000.58C1200,1000.22 1196.85,1002.06 1193,1004.65C1183.6,1011 1168.51,1016.67 1153.97,1019.31C1146,1020.76 1138.43,1023.26 1131.33,1026.78C1120.05,1032.38 1106.2,1035.94 1095.59,1035.98C1087.27,1036.01 1077.01,1033.42 1077.79,1031.49C1078.12,1030.67 1082.6,1022.5 1087.74,1013.33L1097.09,996.667L1110.21,995.804L1123.33,994.941L1132.33,985.351C1153.68,962.587 1168.4,933.144 1170.22,909.579C1171.97,886.949 1162.58,873.29 1145.33,873.382L1138,873.422L1067.52,1000.71L997.031,1128L977.148,1128L957.265,1128L959.436,1123.8ZM1455.99,943.913C1481.12,936.948 1500.3,921.92 1510.56,901.15C1513.8,894.606 1516.4,887.155 1516.88,883.112C1517.6,876.926 1517.33,875.872 1514.23,872.779C1501.44,859.982 1470.2,886.16 1449.99,926.614C1447.25,932.086 1444.21,938.836 1443.23,941.614C1441.05,947.803 1441.6,947.902 1455.99,943.913ZM1054.68,807.633C1030.88,795.045 1050.22,757.184 1080.67,756.788C1105.36,756.466 1113.79,780.898 1095.37,799.432C1084.23,810.638 1066.95,814.121 1054.68,807.633ZM1415.62,771.827C1385.79,767.665 1373.22,743.026 1386.75,715.273C1390.01,708.607 1394.28,702.998 1401.97,695.322C1419.27,678.05 1443.6,663.483 1490,642.617C1501.73,637.341 1512.12,632.387 1513.09,631.609C1515.02,630.048 1519.12,622.673 1518.43,621.985C1518.19,621.747 1514.7,622.44 1510.66,623.526C1495.4,627.637 1478.24,622.341 1470.89,611.256L1466.94,605.287L1459.8,611.441C1435.36,632.518 1409.93,644.158 1388,644.303C1366.71,644.445 1356,635.964 1356,618.951C1356,605.995 1360.57,595.797 1388.24,546.959C1397.1,531.323 1405.76,515.11 1407.48,510.931C1413.05,497.378 1410.9,486.313 1401.86,482.022C1396.89,479.664 1385.76,479.55 1377.63,481.774L1371.93,483.333L1328.84,560.667L1285.75,638L1265.37,638.369L1244.98,638.738L1246.92,635.702C1247.99,634.033 1270.64,593.252 1297.26,545.078L1345.65,457.489L1360.49,453.812C1373.14,450.678 1378.19,450.125 1394.67,450.068C1416.71,449.991 1424.86,451.783 1435.37,459.027C1444.97,465.644 1449.68,474.923 1450.4,488.625C1451.25,504.725 1447.25,514.827 1422.83,558.282C1411.63,578.221 1401.51,597.518 1400.34,601.164C1398.38,607.297 1398.39,608.049 1400.48,611.23C1406.54,620.488 1430.17,610.331 1453.28,588.531C1461.93,580.373 1462.41,579.596 1463.32,572.328C1465.71,553.182 1475.29,529.048 1488.73,508.347C1498.09,493.921 1518.73,473.23 1530.67,466.308C1554.55,452.458 1584.42,446.675 1612.59,450.45L1619.18,451.333L1626.84,466.667C1631.05,475.1 1634.53,482.9 1634.58,484C1634.63,485.1 1619.39,513.579 1600.73,547.286C1582.06,580.993 1566.95,608.726 1567.14,608.916C1567.33,609.106 1582.15,603.321 1600.07,596.061C1628.78,584.436 1632.7,582.491 1632.99,579.764C1635.67,554.294 1645.62,528.071 1661.72,504.011C1669.82,491.912 1691.03,470.459 1701.92,463.352C1723.85,449.044 1751.24,444.876 1769.64,453.045C1796.83,465.114 1793.61,505.474 1762.89,537.625C1747.24,554.009 1721.55,569.738 1686,584.708C1679.4,587.488 1673.46,590.232 1672.81,590.807C1671.25,592.167 1674.2,599.246 1678.4,604.236C1694.67,623.567 1733.68,614.301 1771.83,582.043L1782,573.449L1848.67,452.762L1915.33,332.076L1935.55,332.038L1955.77,332L1881.22,466.221C1814.44,586.444 1806.67,601.051 1806.67,606.289C1806.67,611.649 1807.04,612.29 1811.09,613.982C1819.49,617.494 1832.71,612.324 1849.56,598.934C1861.63,589.337 1870.65,579.066 1870.66,574.889C1870.66,573.178 1871.85,567.178 1873.31,561.555C1880.68,532.983 1897.37,502.963 1917.64,481.832C1939.52,459.012 1961.03,448.682 1986,448.995C2011.16,449.311 2025.5,461.739 2025.5,483.223C2025.5,508.293 2008.33,535.906 1981.33,554.24C1966.49,564.321 1938.89,574.966 1917.54,578.847L1907.74,580.627L1908.58,587.313C1909.88,597.595 1914.43,605.33 1921.92,609.956C1943.88,623.537 1984.5,602.429 2027.21,555.245C2034.47,547.227 2049.72,528.967 2061.11,514.667C2072.49,500.367 2087.54,481.467 2094.54,472.667C2108.93,454.58 2130.41,432.481 2131.94,434.196C2132.5,434.822 2136.44,442.698 2140.71,451.699L2148.46,468.064L2144.38,472.365C2134.61,482.659 2133.5,491.41 2136.64,533.321C2139.57,572.399 2138.79,580.954 2129.79,608.333C2129.18,610.2 2129.81,610.667 2132.94,610.667C2140.88,610.667 2162.37,606.268 2175.02,602.05L2188.04,597.711L2184.23,604.522C2182.14,608.268 2177.52,616.572 2173.97,622.975C2166.93,635.688 2166.62,635.9 2151.42,638.597C2141.83,640.298 2125.3,640.342 2112.67,638.698C2104.35,637.616 2102.13,637.856 2092.3,640.908C2082.43,643.974 2079.7,644.266 2066.3,643.688C2050.02,642.986 2039.01,639.834 2032.27,633.945L2028.67,630.797L2031.85,625.065C2033.6,621.913 2037.33,615.362 2040.14,610.508L2045.25,601.683L2058.29,604.839C2065.46,606.575 2072.71,607.996 2074.39,607.997C2079.28,608.001 2087.34,603.199 2092.45,597.224C2098.38,590.299 2101.28,582.129 2102.29,569.47C2103.13,558.987 2100.18,501.283 2098.81,501.406C2098.37,501.446 2093.54,507.834 2088.1,515.603C2066.28,546.725 2027.55,592.16 2009.22,608.12C1990.26,624.634 1975,634.004 1957.28,640.002C1946.67,643.593 1921.67,645.097 1910.67,642.806C1893.54,639.24 1880.29,629.174 1874.57,615.389L1871.54,608.082L1865.9,613.279C1844.3,633.194 1821.26,644.009 1800.47,643.993C1788.66,643.984 1782.37,642.163 1776.58,637.078C1770.42,631.67 1769.03,628.83 1768.1,619.8L1767.33,612.267L1756.68,620.225C1735.15,636.32 1713.8,644 1690.59,644C1663.39,644 1646.3,634.113 1637.79,613.439C1636.07,609.278 1633.97,606.148 1633.03,606.335C1632.1,606.52 1612.92,613.966 1590.41,622.883L1549.49,639.096L1532.48,669.881C1523.13,686.813 1510.8,707.658 1505.09,716.202C1477.1,758.069 1447.76,776.312 1415.62,771.827ZM1437.72,741.155C1445.16,737.385 1460.23,721.875 1469.31,708.65C1477.13,697.256 1496,664.972 1495.29,664.205C1495.05,663.951 1487.76,667.419 1479.09,671.912C1445.96,689.083 1420.03,711.714 1415.9,727.051C1412.06,741.287 1423.23,748.501 1437.72,741.155ZM1528.18,598.64C1532.89,597.33 1533.87,595.764 1564.84,539.703C1582.35,508.028 1596.86,481.337 1597.1,480.389C1597.72,477.904 1580,478.119 1570.02,480.717C1547.89,486.482 1525.9,508.092 1510.22,539.476C1500.15,559.644 1496.63,579.598 1501.23,590.491C1504.78,598.909 1515.52,602.156 1528.18,598.64ZM1689.14,557.906C1708.54,547.634 1721.03,538.704 1731.63,527.511C1742.8,515.725 1749.62,502.888 1750.39,492.205C1751.13,482.019 1748.23,478.116 1740.17,478.432C1728.92,478.873 1714.6,489.952 1700.01,509.5C1686.59,527.482 1669.1,565.333 1674.22,565.333C1674.7,565.333 1681.42,561.991 1689.14,557.906ZM1929.58,551.831C1954.18,543.805 1972.7,529.074 1982.09,510.078C1988.65,496.806 1989.98,484.871 1985.36,480.692C1970.55,467.283 1931.55,505.217 1914.78,549.357L1912.15,556.268L1916.66,555.423C1919.14,554.958 1924.95,553.341 1929.58,551.831ZM533.333,647.929C523.433,647.38 505.433,645.988 493.333,644.837C481.233,643.686 460.533,642.067 447.333,641.241L423.333,639.738L412.95,643.163C407.24,645.047 399.631,646.978 396.042,647.454L389.516,648.319L381.99,633.313C370.512,610.428 370.547,612.643 381.625,609.929C402.1,604.911 421.25,590.929 433.574,572C436.199,567.967 455.298,534.067 476.014,496.667C496.731,459.267 515.189,426.067 517.032,422.889L520.384,417.111L509.859,422.374C499.697,427.456 475.781,437.333 473.638,437.333C472.222,437.333 453.926,400.296 454.874,399.348C455.286,398.936 460.958,397.677 467.478,396.55C493.081,392.126 521.001,383.528 538.774,374.596C544.711,371.612 548.666,367.918 558.337,356.323C572.401,339.462 587.382,325.081 598.878,317.404C603.329,314.432 607.362,312 607.841,312C608.321,312 612.741,320.083 617.664,329.961L626.616,347.923L620.092,355.762C613.198,364.045 599.658,376.62 585.45,387.933C577.263,394.452 576.124,396.142 558.636,427.704C548.59,445.834 523.447,491.21 502.761,528.542C482.075,565.873 462.721,599.993 459.753,604.363L454.357,612.31L504.178,611.622C550.854,610.978 567.315,609.819 585.803,605.873C589.552,605.073 589.594,604.96 588.723,597.988C586.58,580.841 593.366,554.091 606.644,527.333C631.368,477.512 666.961,449.088 704.667,449.052C744.13,449.015 760.159,479.174 747.195,529.069C744.039,541.218 743.983,542.023 746.182,543.631C749.37,545.962 751.221,545.785 757.584,542.539C765.322,538.591 772.713,530.485 802.445,493.333C827.601,461.901 852.606,434.667 856.309,434.667C857.284,434.667 861.91,442.397 866.59,451.844L875.097,469.022L870.268,473.994C861.526,482.996 860.749,487.098 862.105,517.071C862.758,531.516 863.299,552.933 863.308,564.667C863.323,585.697 862.28,592.225 856.499,607.29C854.494,612.514 884.977,607.557 915.131,597.755C916.729,597.235 913.214,603.561 905.131,615.751L892.667,634.549L883.333,636.771C872.847,639.267 846.323,639.691 835.373,637.538C830.359,636.552 827.912,636.666 825.314,638.01C816.798,642.414 804.893,644.285 789.333,643.666C772.149,642.982 762.591,640.169 754.638,633.453L750,629.537L756.667,616.795C760.333,609.787 764.279,602.785 765.434,601.235L767.534,598.416L776.1,601.027C788.465,604.796 802.098,607.098 806.101,606.094C808.005,605.616 812.493,602.485 816.073,599.136C823.725,591.979 827.357,583.551 828.711,569.812C829.542,561.376 827.772,522.024 825.855,506.324L825.081,499.981L808.668,521.657C780.919,558.304 768.77,570.757 753.333,578.379C747.188,581.414 744.256,582 735.234,582L724.468,582L717.282,592.667C708.48,605.731 688.528,625.754 678.252,631.836C665.411,639.436 654.135,642.915 639.914,643.662C620.103,644.704 606.003,639.171 598.346,627.351C596.689,624.793 595.033,622.714 594.667,622.732C594.3,622.75 590.221,628.359 585.603,635.196L577.206,647.626L568.27,648.47C563.355,648.935 557.533,649.227 555.333,649.121C553.133,649.014 543.233,648.478 533.333,647.929ZM652.124,610.603C673.633,599.631 706.581,543.717 711.979,509.031C713.817,497.217 712.527,489.655 707.88,485.008C693.704,470.832 663.179,497.302 640.62,543.333C625.005,575.197 621.66,605.288 633,611.893C636.885,614.156 646.42,613.513 652.124,610.603ZM983.99,621.667C993.233,612.317 1007.1,597.445 1014.81,588.618C1028.11,573.389 1060,534.264 1060,533.176C1060,532.896 1045.75,533.059 1028.34,533.538C1010.92,534.017 996.45,534.2 996.184,533.944C995.919,533.689 1000.77,526.097 1006.98,517.073L1018.25,500.667L1052.26,500L1086.26,499.333L1101.3,480C1162.45,401.372 1205.9,361.514 1251,342.673C1273.42,333.304 1302.51,326.667 1321.16,326.667L1327.98,326.667L1336.66,343.981C1341.43,353.504 1345.33,361.963 1345.33,362.778C1345.33,363.594 1318.83,412.053 1286.44,470.464C1227.88,576.059 1209.65,610.827 1203.45,628.667L1200.21,638L1175.44,638.363C1161.82,638.562 1150.67,638.314 1150.67,637.811C1150.67,636.238 1170.94,598.083 1189.84,564.085C1199.8,546.165 1207.77,531.328 1207.56,531.115C1207.35,530.901 1184.91,531.11 1157.7,531.577L1108.23,532.427L1099.78,543.839C1078.98,571.937 1053.42,603.078 1031.53,627L1020.85,638.667L994.017,638.667L967.185,638.667L983.99,621.667ZM1263.55,431.333C1284.33,393.933 1301.33,362.898 1301.33,362.367C1301.34,359.768 1275.32,366.939 1261.87,373.246C1229.76,388.29 1192.15,423.735 1147.17,481.333C1140.58,489.767 1134.74,497.424 1134.17,498.351C1133.36,499.697 1142.44,499.964 1179.46,499.684L1225.78,499.333L1263.55,431.333Z" style="fill:rgb(10,34,64);fill-rule:nonzero;"/>
    </g>
</svg>
