<?xml version="1.0" encoding="UTF-8" standalone="no"?>
<!DOCTYPE svg PUBLIC "-//W3C//DTD SVG 1.1//EN" "http://www.w3.org/Graphics/SVG/1.1/DTD/svg11.dtd">
<svg width="100%" height="100%" viewBox="0 0 800 600" version="1.1" xmlns="http://www.w3.org/2000/svg" xmlns:xlink="http://www.w3.org/1999/xlink" xml:space="preserve" xmlns:serif="http://www.serif.com/" style="fill-rule:evenodd;clip-rule:evenodd;stroke-linejoin:round;stroke-miterlimit:1.41421;">
    <g transform="matrix(1.86709,0,0,1.86709,105,5)">
        <g id="XMLID_00000112615531847960329120000002242714481339554209_">
            <circle cx="158" cy="158" r="158" style="fill:rgb(206,14,45);"/>
            <circle cx="158" cy="158" r="150.1" style="fill:rgb(10,34,64);"/>
            <circle cx="158" cy="158" r="109.573" style="fill:rgb(58,141,222);"/>
            <circle cx="158" cy="158" r="105.228" style="fill:white;"/>
            <g>
                <path d="M53.878,236.21C58.697,232.023 64.306,233.287 68.019,237.632C69.52,239.37 70.547,241.503 70.784,243.241L68.177,245.453L68.019,245.295C68.177,243.241 67.545,241.345 66.281,239.923C64.306,237.632 61.62,237.079 59.408,238.975L56.011,241.898C53.641,243.873 53.641,246.559 55.695,249.008C56.959,250.509 58.697,251.378 60.988,251.694L61.146,251.852L58.539,254.143C56.643,253.669 54.747,252.326 53.167,250.509C49.296,246.006 48.98,240.318 53.878,236.21Z" style="fill:white;fill-rule:nonzero;"/>
                <path d="M81.686,255.249C82.002,254.538 82.16,253.669 82.16,252.326L82.318,252.089L87.769,255.96L78.605,268.837L85.794,273.893L83.424,275.789L72.68,268.126L80.975,256.434C81.291,256.118 81.528,255.644 81.686,255.249Z" style="fill:white;fill-rule:nonzero;"/>
                <path d="M107.045,270.575C107.203,269.785 107.124,268.916 106.887,267.652L106.966,267.415L113.128,270.022L105.781,287.244L100.962,285.19L106.571,271.997C106.808,271.444 106.966,270.97 107.045,270.575Z" style="fill:white;fill-rule:nonzero;"/>
                <path d="M128.375,278.159C128.375,277.369 128.138,276.5 127.585,275.315L127.664,275.078L138.25,276.974C142.911,277.843 145.281,280.687 144.491,284.795C143.78,288.903 140.541,290.878 135.88,290.009L131.851,289.298L130.903,294.749L125.768,293.801L128.296,279.739C128.375,279.107 128.375,278.633 128.375,278.159ZM135.564,287.086C137.302,287.402 138.487,286.77 138.803,284.953L139.198,282.662C139.514,280.845 138.645,279.897 136.907,279.581L133.668,279.028L132.325,286.454L135.564,287.086Z" style="fill:white;fill-rule:nonzero;"/>
                <path d="M160.765,281.714C160.528,280.924 160.054,280.213 159.264,279.186L159.264,278.949L170.008,278.08C174.748,277.685 177.75,279.897 178.066,284.005C178.382,288.192 175.854,290.878 171.114,291.273L167.006,291.589L167.48,297.119L162.266,297.593L161.081,283.294C161.002,282.583 160.923,282.109 160.765,281.714ZM170.087,288.429C171.825,288.271 172.773,287.402 172.615,285.585L172.457,283.294C172.299,281.477 171.193,280.766 169.455,280.924L166.216,281.24L166.848,288.745L170.087,288.429Z" style="fill:white;fill-rule:nonzero;"/>
                <path d="M193.076,276.658C192.681,275.947 192.049,275.394 190.943,274.604L190.864,274.367L204.847,269.39L206.585,271.839L198.132,274.841L199.712,279.265L206.19,276.974L206.427,279.897L200.66,281.951L202.477,287.086L211.404,283.926L211.562,286.928L198.527,291.589L193.708,278.08C193.471,277.448 193.313,277.053 193.076,276.658Z" style="fill:white;fill-rule:nonzero;"/>
                <path d="M221.358,264.334C220.726,263.781 220.015,263.386 218.751,262.912L218.593,262.675L227.915,256.197C231.628,253.669 235.025,253.906 237.079,256.829C238.738,259.199 238.422,261.806 236.368,264.018L244.9,267.178L239.686,270.812L231.865,267.652L230.68,268.442L234.709,274.209L230.443,277.211L222.306,265.44C221.99,264.966 221.674,264.65 221.358,264.334ZM232.497,264.018C233.682,263.228 233.998,262.122 233.129,260.858L232.181,259.436C231.312,258.172 230.127,258.093 228.942,258.962L225.703,261.174L229.258,266.23L232.497,264.018Z" style="fill:white;fill-rule:nonzero;"/>
                <path d="M257.698,253.669L255.012,251.378L255.17,251.22C257.698,250.904 259.91,249.482 261.49,247.665C263.07,245.848 263.544,244.189 262.359,243.162C261.569,242.53 260.7,242.451 259.436,243.32L255.802,245.69C253.037,247.428 250.667,247.744 248.692,246.085C246.085,243.873 246.164,239.923 249.482,236.052C251.062,234.235 252.958,232.813 254.775,232.26L257.303,234.472L257.145,234.63C255.091,234.788 253.037,236.131 251.615,237.79C250.272,239.37 249.798,240.95 250.746,241.819C251.457,242.372 252.405,242.214 253.511,241.503L257.224,239.133C260.147,237.237 262.675,236.921 264.887,238.817C267.889,241.424 267.099,245.611 263.86,249.403C262.043,251.378 259.673,253.195 257.698,253.669Z" style="fill:white;fill-rule:nonzero;"/>
            </g>
            <g>
                <path d="M29.151,112.654C28.361,112.496 27.492,112.575 26.228,112.891L25.991,112.812L28.519,106.65L43.213,112.575L46.531,104.438L48.98,106.334L43.924,118.5L30.652,113.128C30.099,112.891 29.625,112.733 29.151,112.654Z" style="fill:white;fill-rule:nonzero;"/>
                <path d="M46.452,90.613C41.633,87.137 40.843,81.607 44.398,76.63C47.953,71.653 53.483,70.626 58.302,74.102C63.121,77.578 63.911,83.108 60.356,88.085C56.801,93.062 51.271,94.089 46.452,90.613ZM57.986,86.426C59.645,84.135 59.25,81.765 56.88,80.106L53.009,77.341C50.639,75.682 48.269,76.077 46.689,78.368C45.03,80.659 45.425,83.029 47.795,84.688L51.666,87.453C54.036,89.112 56.406,88.638 57.986,86.426Z" style="fill:white;fill-rule:nonzero;"/>
                <path d="M73.154,70.073L70.942,67.387L71.1,67.229C73.628,67.387 75.998,66.281 77.894,64.701C79.711,63.121 80.501,61.541 79.474,60.356C78.842,59.566 77.894,59.408 76.551,60.04L72.601,61.778C69.599,63.121 67.229,62.963 65.57,60.988C63.358,58.381 64.069,54.51 67.94,51.192C69.757,49.612 71.89,48.585 73.786,48.269L75.998,50.876L75.84,51.034C73.786,50.876 71.495,51.903 69.915,53.246C68.335,54.589 67.624,56.09 68.414,57.038C69.046,57.749 69.994,57.749 71.179,57.196L75.208,55.458C78.368,54.036 80.975,54.194 82.792,56.406C85.32,59.487 83.898,63.437 80.106,66.676C77.815,68.493 75.208,69.915 73.154,70.073Z" style="fill:white;fill-rule:nonzero;"/>
                <path d="M116.604,25.122L116.525,24.885L123.714,22.91L136.354,38.868L130.903,40.369L128.375,37.13L119.527,39.579L118.974,43.687L115.735,44.556L117.71,30.02C118.105,27.255 118.026,26.623 116.604,25.122ZM126.4,34.76L120.949,27.887L119.843,36.577L126.4,34.76Z" style="fill:white;fill-rule:nonzero;"/>
                <path d="M148.915,21.646C148.757,20.856 148.362,20.066 147.651,18.96L147.651,18.723L154.445,18.723L163.846,30.336L163.925,18.802L167.322,18.802L167.243,37.525L162.977,37.525L152.549,24.569L152.47,37.446L149.073,37.446L149.152,23.147C148.994,22.594 148.994,22.12 148.915,21.646Z" style="fill:white;fill-rule:nonzero;"/>
                <path d="M182.253,30.099C183.754,24.411 188.573,21.567 195.13,23.305C197.105,23.858 199.238,24.727 200.66,26.307L199.791,29.625L199.554,29.546C198.606,27.729 196.631,26.623 194.814,26.149C191.575,25.28 189.205,26.386 188.415,29.388L187.309,33.575C186.44,36.735 187.941,38.789 190.864,39.579C191.733,39.816 192.602,39.895 193.313,39.816L194.735,34.444L191.496,33.575L192.997,31.047L200.66,33.101L198.29,42.107C195.683,43.055 192.918,43.134 190.074,42.344C183.438,40.448 180.752,35.708 182.253,30.099Z" style="fill:white;fill-rule:nonzero;"/>
                <path d="M217.329,34.918C217.566,34.128 217.566,33.259 217.487,31.995L217.645,31.758L230.68,38.868L230.048,41.791L222.148,37.446L219.857,41.554L225.94,44.872L223.886,47.005L218.514,44.082L215.907,48.901L224.202,53.404L222.069,55.537L209.903,48.901L216.776,36.34C217.013,35.787 217.171,35.392 217.329,34.918Z" style="fill:white;fill-rule:nonzero;"/>
                <path d="M243.873,51.824C244.268,51.113 244.505,50.323 244.663,48.98L244.821,48.822L249.798,53.246L239.291,65.096L245.848,70.942L243.241,72.601L233.366,63.832L242.846,53.088C243.399,52.614 243.636,52.219 243.873,51.824Z" style="fill:white;fill-rule:nonzero;"/>
                <path d="M264.966,73.075C265.519,72.443 265.914,71.732 266.388,70.468L266.625,70.31L275.236,82.397L273.419,84.767L268.205,77.42L264.413,80.185L268.442,85.794L265.677,86.821L262.122,81.844L257.698,85.004L263.228,92.667L260.384,93.694L252.326,82.476L263.939,74.181C264.334,73.786 264.65,73.47 264.966,73.075Z" style="fill:white;fill-rule:nonzero;"/>
                <path d="M267.731,104.201L270.97,102.858L271.049,103.095C270.18,105.465 270.417,108.072 271.365,110.284C272.313,112.496 273.577,113.681 274.999,113.128C275.947,112.733 276.342,111.943 276.184,110.442L275.789,106.097C275.473,102.858 276.342,100.567 278.712,99.619C281.872,98.355 285.348,100.172 287.323,104.912C288.271,107.124 288.587,109.494 288.271,111.311L285.19,112.575L285.111,112.338C285.901,110.442 285.585,107.993 284.795,106.018C284.005,104.122 282.82,102.937 281.635,103.411C280.766,103.806 280.529,104.675 280.608,106.018L281.003,110.363C281.319,113.839 280.45,116.209 277.764,117.315C274.051,118.816 270.733,116.209 268.758,111.627C267.81,109.099 267.336,106.176 267.731,104.201Z" style="fill:white;fill-rule:nonzero;"/>
            </g>
        </g>
        <path d="M87.295,151.522L68.493,154.445C70.389,106.65 109.731,68.414 158,68.414L158,116.288L158.474,116.446L159.817,111.39L183.28,111.39L183.438,111.943C183.201,113.681 183.359,118.737 191.891,122.45L192.128,123.161L158.079,122.292L124.03,123.161L124.267,122.45C132.878,118.737 132.957,113.681 132.72,111.943L132.878,111.39L156.341,111.39L155.156,106.729L138.092,107.282L138.25,106.808C143.306,103.964 143.464,99.935 143.385,98.434L143.543,97.881L152.865,97.881L150.1,87.374C116.762,91.166 90.376,117.947 87.295,151.522ZM218.514,120.791L215.749,129.086L216.302,130.35L241.108,130.35L242.135,127.269C229.969,94.01 198.685,69.994 161.634,68.572L164.557,87.374C187.467,89.349 207.138,102.226 218.514,120.791ZM216.381,185.65L215.828,186.914L218.593,195.209C207.217,213.695 187.546,226.572 164.794,228.705L161.871,247.507C198.922,246.006 230.127,221.99 242.293,188.81L241.266,185.729L216.381,185.729L216.381,185.65ZM193.708,127.901L193.471,127.19L158,127.19L122.529,127.19L122.292,127.901C122.213,130.034 121.265,136.749 111.943,145.992L111.706,146.782C116.92,144.57 121.581,142.674 125.926,141.015C131.298,139.04 136.354,137.381 141.252,136.117C143.938,135.406 146.624,134.774 149.231,134.221C151.996,133.668 154.682,133.194 157.368,132.799L157.921,132.72L158.474,132.799C160.765,133.115 163.056,133.51 165.426,133.984C167.638,134.458 169.929,134.932 172.299,135.564C176.565,136.67 180.91,138.013 185.65,139.672C192.049,141.963 198.29,144.491 204.373,147.098L204.057,145.992C194.814,136.828 193.787,130.034 193.708,127.901ZM177.908,106.887C172.852,104.043 172.694,100.014 172.773,98.513L172.615,97.96L163.293,97.96L161.002,106.729L178.066,107.282L177.908,106.887ZM173.879,199.949C173.958,200.028 174.037,200.107 174.116,200.265C174.274,200.502 174.59,200.739 174.906,200.976C175.222,201.213 175.617,201.45 176.091,201.608C176.881,202.003 177.987,202.319 179.33,202.635C181.779,203.267 184.544,203.583 186.993,203.82C187.704,203.899 188.336,203.978 189.047,203.978C190.153,200.818 191.496,197.658 193.076,194.498C190.232,195.762 187.151,196.868 183.912,197.816C179.804,199.001 176.328,199.633 173.879,199.949ZM136.749,202.635C138.092,202.319 139.119,202.003 139.988,201.608C140.462,201.45 140.857,201.134 141.173,200.976C141.489,200.739 141.805,200.502 141.963,200.265C142.042,200.186 142.121,200.028 142.2,199.949C139.83,199.633 136.275,199.001 132.167,197.895C128.928,196.947 125.847,195.841 123.003,194.577C124.583,197.737 125.926,200.818 127.032,204.057C127.743,203.978 128.375,203.978 129.086,203.899C131.456,203.583 134.3,203.267 136.749,202.635ZM247.507,158L247.507,161.555L228.705,164.478L209.034,167.559C204.847,174.353 200.344,181.147 196.394,188.02C195.92,188.336 195.446,188.573 194.972,188.889C188.731,192.444 181.779,194.577 174.116,195.209C174.827,193.55 175.854,191.97 176.881,190.39C177.434,189.521 178.066,188.652 178.856,187.546C179.488,186.677 180.199,185.729 180.989,184.702C182.964,182.174 185.018,179.567 186.993,177.118C187.941,175.933 188.968,174.669 189.995,173.405L192.286,170.561C192.365,170.403 192.444,170.324 192.602,170.166C193.234,169.297 193.866,168.428 194.498,167.638C195.209,166.69 195.92,165.663 196.631,164.636C196.868,164.32 197.026,164.004 197.263,163.688C197.342,163.53 197.5,163.293 197.658,163.135L193.866,162.029C193.866,162.029 193.866,162.108 193.787,162.108C193.629,162.424 193.392,162.74 193.234,163.056C192.681,163.925 192.049,164.794 191.18,165.9C190.074,167.401 188.573,169.297 186.914,171.114C186.835,171.193 186.756,171.351 186.677,171.43C184.702,173.721 182.49,176.091 180.436,178.303C179.251,179.567 177.987,180.91 176.802,182.253C175.301,183.912 173.563,185.887 171.983,187.941C171.193,188.968 170.482,189.995 169.771,191.022C169.218,191.891 168.507,193.155 167.954,194.498C167.559,195.446 167.085,196.947 167.164,198.685C167.164,200.344 167.875,202.082 169.06,203.346C169.692,204.057 170.403,204.61 171.114,205.084C171.904,205.558 172.694,205.953 173.405,206.269C174.748,206.822 176.249,207.217 177.987,207.533C179.488,207.849 180.989,208.007 182.411,208.086C183.912,208.244 185.492,208.244 186.756,208.244L187.783,208.244C187.546,209.113 187.388,209.982 187.151,210.851L174.037,215.591L165.9,218.593L160.212,160.133L159.659,154.84L158.632,144.096L158,144.333L158,247.665C108.546,247.665 68.414,207.612 68.414,158.158L68.414,158.079L126.4,158.079L126.558,157.526L117.947,155.156L109.889,152.944L110.205,152.075C124.978,145.518 141.015,139.277 158,136.907C174.669,139.119 190.706,145.755 205.874,152.312L206.111,152.944L198.053,155.156L189.521,157.526L189.679,158.079L247.507,158.079L247.507,158ZM151.522,228.705L149.942,218.435L142.2,215.512L129.086,210.772L129.007,210.772C128.849,209.903 128.612,209.034 128.375,208.165L129.402,208.165C130.745,208.165 132.246,208.165 133.747,208.007C135.169,207.928 136.67,207.77 138.171,207.454C139.909,207.138 141.331,206.743 142.753,206.19C143.464,205.874 144.254,205.558 145.044,205.005C145.676,204.531 146.466,203.978 147.098,203.267C148.283,202.003 148.915,200.265 148.994,198.606C148.994,197.816 148.994,196.473 148.204,194.419C147.651,193.076 146.94,191.812 146.387,190.943C145.755,189.916 144.965,188.81 144.175,187.862C142.595,185.808 140.857,183.833 139.356,182.174C138.171,180.831 136.907,179.488 135.722,178.224C133.589,176.012 131.456,173.642 129.481,171.351C129.402,171.272 129.323,171.193 129.244,171.035C127.585,169.139 126.084,167.243 124.978,165.742C124.188,164.636 123.556,163.767 122.924,162.898C122.687,162.582 122.529,162.266 122.371,161.95C122.371,161.95 122.371,161.871 122.292,161.871L118.5,162.977C118.658,163.135 118.737,163.372 118.895,163.53C119.132,163.846 119.29,164.162 119.527,164.478C120.238,165.505 120.949,166.532 121.66,167.48C122.292,168.349 122.924,169.218 123.556,170.087C123.635,170.166 123.714,170.324 123.793,170.403L126.084,173.247C127.111,174.511 128.059,175.775 129.086,176.96C131.061,179.488 133.194,182.016 135.09,184.544C135.88,185.571 136.591,186.44 137.223,187.388C138.013,188.494 138.645,189.363 139.198,190.232C140.225,191.812 141.252,193.392 141.963,195.051C134.379,194.34 127.348,192.207 121.186,188.731C120.712,188.494 120.238,188.178 119.764,187.862C115.893,180.989 111.39,174.195 107.124,167.401L87.453,164.32C90.455,198.527 117.473,225.624 151.522,228.705Z" style="fill:rgb(10,34,64);fill-rule:nonzero;"/>
    </g>
</svg>
