<svg xmlns="http://www.w3.org/2000/svg" id="a628e87eb8877d" viewBox="0 0 32.81 58.13" aria-hidden="true" width="71" height="128" style="width: 71px; height: 128px; display: block; transform: scale(1, 1); transition-property: none;"><defs><linearGradient class="cerosgradient" data-cerosgradient="true" id="CerosGradient_id0f3379f4e" gradientUnits="userSpaceOnUse" x1="50%" y1="100%" x2="50%" y2="0%"><stop offset="0%" stop-color="#d1d1d1" style="transition-property: none;"></stop><stop offset="100%" stop-color="#d1d1d1" style="transition-property: none;"></stop></linearGradient><linearGradient></linearGradient><style>.b-628e87eb8877d{fill:#bb945c;}</style></defs><path class="b-628e87eb8877d" d="M20.74,19.05c-.49,.22-.99,.41-1.52,.55l-.56,3.22-.51-2.98c-.44,.07-.88,.12-1.33,.14l1.29,6.03-1.71,9.86-1.71-9.88,1.28-6.01c-.45-.02-.89-.07-1.33-.14l-.51,2.98-.56-3.22c-.53-.15-1.03-.33-1.52-.55l1.5,7.16-2.47,14.55c.14,.03,.28,.07,.41,.14l2.6-12.15,1.94,9.23-2.17,12.49c.08,.03,.16,.06,.24,.1l2.29-10.88,2.29,10.93c.08-.04,.17-.07,.26-.09l-2.19-12.59,1.93-9.19,2.22,10.42c.16-.07,.33-.11,.51-.12l-2.19-12.88,1.5-7.14Z" style="transition-property: none;"></path><path class="b-628e87eb8877d" d="M10.42,18.12l-1.7,10.45c.26,.03,.5,.13,.7,.29l2.21-10.02c-.42-.22-.83-.46-1.21-.73" style="transition-property: none;"></path><path class="b-628e87eb8877d" d="M21.18,18.84l2.29,10.32c.2-.12,.43-.18,.67-.19l-1.76-10.86c-.38,.27-.79,.51-1.21,.72" style="transition-property: none;"></path><path class="b-628e87eb8877d" d="M6.91,9.5C6.91,4.25,11.16,0,16.41,0s9.5,4.25,9.5,9.5-4.25,9.5-9.5,9.5S6.91,14.75,6.91,9.5" style="transition-property: none;"></path><polygon class="b-628e87eb8877d" points="28.78 14.22 25.51 14.22 16.21 58.13 19.42 58.13 28.78 14.22" style="transition-property: none;"></polygon><polygon class="b-628e87eb8877d" points="29.7 14.22 20.34 58.13 23.57 58.13 32.81 14.22 29.7 14.22" style="transition-property: none;"></polygon><polygon class="b-628e87eb8877d" points="13.33 58.13 16.55 58.13 7.3 14.22 4.1 14.22 13.33 58.13" style="transition-property: none;"></polygon><polygon class="b-628e87eb8877d" points="3.18 14.22 0 14.22 8.09 52.64 12.27 57.44 3.18 14.22" style="transition-property: none;"></polygon></svg>