<svg xmlns="http://www.w3.org/2000/svg" id="a628e87e08877b" viewBox="0 0 52.3 76.55" aria-hidden="true" width="115" height="168" style="width: 115px; height: 168px; display: block; transform: scale(1, 1); transition-property: none;"><defs><linearGradient class="cerosgradient" data-cerosgradient="true" id="CerosGradient_id4ec05a6e8" gradientUnits="userSpaceOnUse" x1="50%" y1="100%" x2="50%" y2="0%"><stop offset="0%" stop-color="#d1d1d1" style="transition-property: none;"></stop><stop offset="100%" stop-color="#d1d1d1" style="transition-property: none;"></stop></linearGradient><linearGradient></linearGradient><style>.b-628e87e08877b{fill:#bb945c;}.c-628e87e08877b{fill:#231f20;}.d-628e87e08877b{fill:#72253d;}</style></defs><path class="c-628e87e08877b" d="M50.55,32.14c0-.44,0-.96-.01-1.53v-.11c0-.17,0-.34,0-.51v-.24c0-.31,0-.65,0-1.02-.03-3.54-.2-10.6-.51-14.43-.03-.33-.05-.64-.08-.92l-.08-.77-.61-.47c-.47-.36-1.01-.73-1.63-1.11-1.21-.74-2.71-1.51-4.47-2.29-7.14-3.49-16.57-6.71-16.66-6.74l-.41-.14-.41,.14c-.09,.03-8.52,2.98-15.45,6.3-1.35,.58-2.57,1.15-3.64,1.7-1.48,.77-2.7,1.52-3.63,2.25l-.61,.48-.08,.77c-.05,.56-.11,1.26-.16,2.09-.24,4.04-.35,10.15-.36,13.27,0,.37,0,.71,0,1.02v.24c0,.18,0,.36,0,.53v.09c0,.57,0,1.09,0,1.52,.04,14.67,6.44,25.23,11.8,31.51,5.8,6.79,11.56,10.11,11.8,10.24l.89,.51,.89-.51c.24-.14,5.98-3.48,11.75-10.3,5.33-6.31,11.68-16.91,11.65-31.57" style="transition-property: none;"></path><path class="b-628e87e08877b" d="M39.5,64.23c5.42-6.41,11.87-17.18,11.84-32.09,0-.44,0-.96-.01-1.52v-.1c0-.17,0-.35,0-.53v-.24c0-.31,0-.65,0-1.03-.03-3.56-.2-10.64-.51-14.49-.03-.37-.06-.67-.08-.94l-.08-.77-.03-.34-.27-.21-.61-.47c-.49-.38-1.06-.77-1.7-1.15-1.23-.75-2.77-1.54-4.55-2.34C36.34,4.52,26.84,1.28,26.74,1.24l-.41-.14-.26-.09-.26,.09-.41,.14c-.08,.03-8.53,2.99-15.51,6.33-1.36,.58-2.6,1.16-3.67,1.72-1.52,.79-2.78,1.57-3.75,2.33l-.61,.48-.27,.21-.03,.34-.08,.77c-.06,.57-.11,1.28-.16,2.12-.24,4.06-.35,10.18-.36,13.31,0,.37,0,.72,0,1.03v.24c0,.19,0,.37,0,.55v.08c0,.59,0,1.1,0,1.52,.04,14.91,6.55,25.64,12,32.03,5.89,6.89,11.76,10.28,12.01,10.42l.89,.51,.39,.22,.39-.23,.89-.51c.25-.14,6.11-3.55,11.96-10.48m-12.38,9.79l-.89,.51-.89-.51c-.24-.14-6-3.45-11.8-10.24C8.17,57.5,1.77,46.93,1.73,32.26c0-.44,0-.96,0-1.53v-.09c0-.18-.01-.35-.01-.53v-.24c0-.31,0-.65,0-1.02,.01-3.12,.12-9.22,.36-13.27,.05-.83,.1-1.53,.16-2.09l.08-.77,.61-.48c.93-.72,2.15-1.48,3.63-2.25,1.07-.55,2.29-1.12,3.64-1.7,6.93-3.31,15.36-6.27,15.45-6.3l.41-.14,.41,.14c.09,.03,9.52,3.24,16.66,6.74,1.76,.78,3.27,1.55,4.47,2.29,.61,.37,1.16,.75,1.63,1.11l.61,.47,.08,.77c.03,.28,.06,.59,.08,.92,.31,3.84,.48,10.89,.51,14.43,0,.37,0,.71,0,1.02v.24c0,.17,0,.34,0,.51v.11c0,.57,0,1.09,0,1.53,.04,14.67-6.31,25.26-11.65,31.57-5.77,6.82-11.51,10.17-11.75,10.3" style="transition-property: none;"></path><path class="d-628e87e08877b" d="M52.29,30.47c0-.16,0-.32,0-.49v-.24c0-.31,0-.66,0-1.03-.03-3.57-.2-10.68-.51-14.56-.03-.37-.06-.69-.09-.96l-.08-.77-.04-.34-.04-.41-.33-.25-.27-.21-.61-.47c-.52-.4-1.12-.81-1.78-1.21-1.27-.78-2.84-1.58-4.67-2.4C36.76,3.66,27.44,.47,27.05,.33l-.41-.14-.26-.09-.31-.11-.31,.11-.26,.09-.41,.14c-.08,.03-8.61,3.02-15.61,6.37-1.35,.58-2.61,1.17-3.7,1.74-1.57,.82-2.88,1.63-3.9,2.42l-.61,.47-.27,.21-.33,.25-.04,.41-.03,.34-.08,.77c-.06,.58-.11,1.31-.16,2.16C.12,19.57,.02,25.71,0,28.85c0,.37,0,.72,0,1.03h0v.24c0,.19,0,.38,0,.57v.08c0,.56,0,1.08,0,1.51,.04,15.2,6.67,26.14,12.23,32.65,6,7.03,12.02,10.49,12.27,10.63l.89,.5,.39,.22,.48,.27,.48-.27,.39-.23,.89-.51c.25-.14,6.24-3.62,12.22-10.69,5.52-6.53,12.1-17.51,12.06-32.71,0-.44,0-.96-.01-1.53v-.13Zm-25.64,44.74l-.39,.23-.39-.22-.89-.51c-.25-.14-6.13-3.53-12.01-10.42C7.51,57.91,1,47.17,.97,32.27c0-.42,0-.94,0-1.52v-.08c0-.18-.01-.36-.01-.55v-.24c0-.31,0-.65,0-1.03,.01-3.13,.12-9.25,.36-13.31,.05-.84,.1-1.55,.16-2.12l.08-.77,.03-.34,.27-.21,.61-.47c.97-.75,2.23-1.54,3.75-2.33,1.08-.56,2.31-1.14,3.67-1.72,6.98-3.34,15.43-6.3,15.51-6.33l.41-.14,.26-.09,.26,.09,.41,.14c.1,.03,9.59,3.27,16.74,6.77,1.79,.79,3.32,1.58,4.55,2.34,.64,.39,1.21,.78,1.7,1.16l.61,.47,.27,.21,.03,.34,.08,.77c.03,.27,.05,.57,.08,.94,.31,3.85,.48,10.93,.51,14.49,0,.37,0,.72,0,1.03v.24c0,.18,0,.35,0,.53v.1c0,.57,0,1.08,.01,1.52,.04,14.91-6.42,25.68-11.84,32.09-5.86,6.92-11.71,10.34-11.96,10.48l-.89,.51Z" style="transition-property: none;"></path><path class="b-628e87e08877b" d="M39.06,40.14v-1.89l-.47-.47c-5.96-5.64-18.66,1.82-22.97,5.4l-2.13,3.31,2.65-.66c-4.06,5.13-2.6,8.48-2.43,8.82,.43,1.21,1.41,2.17,3,2.8,1.21,.48,2.58,.53,3.75,.48,5.07-.25,11.05-3.42,14.91-6.79l.09-.08,.76-3.89-1.5,.84c-5.21,2.3-9.41,3.58-9.41,3.58-2.75,.86-4.01,1-4.91,.8l-.11-.03c-.25-.1-.29-.32-.29-.38-.04-1.72,2.9-5.42,4.39-7.03,1.38-1.49,3.56-3.14,5.41-3.92,1.24-.52,2.03-.73,2.41-.7-.1,.32-.27,.72-.51,1.2,0,0-1.97,3.92-2.05,4.07l9.41-5.46Z" style="transition-property: none;"></path><path class="d-628e87e08877b" d="M27.32,39.89c-1.7,.9-3.65,2.72-4.26,3.37-4.97,5.32-8.44,12.42,2.46,8.99,0,0,4.24-1.29,9.5-3.62-14.87,12.63-28.95,7.4-15.14-5.87-1.26,.29-2.53,.57-3.77,.92,4.42-3.68,16.57-10.55,22.01-5.4l-5.79,3.57c2.48-4.88-2-3.73-4.99-1.96" style="transition-property: none;"></path><polygon class="b-628e87e08877b" points="16.41 13.67 17.12 14.38 17.12 14.89 16.31 15.7 16.31 14.59 16.21 14.48 15.75 14.48 15.65 14.59 15.66 17.62 15.76 17.73 16.22 17.72 16.32 17.62 16.32 17.15 17.12 16.34 17.13 17.82 16.42 18.53 15.56 18.53 14.85 17.83 14.84 14.38 15.55 13.68 16.41 13.67" style="transition-property: none;"></polygon><polygon class="b-628e87e08877b" points="18.34 13.67 18.35 17.72 19.56 17.72 19.41 18.52 17.54 18.53 17.53 13.92 17.48 13.67 18.34 13.67" style="transition-property: none;"></polygon><polygon class="b-628e87e08877b" points="21.7 13.66 21.71 14.47 20.69 14.47 20.7 15.53 21.51 15.53 21.51 16.24 20.7 16.24 20.7 17.71 21.71 17.71 21.72 18.52 19.9 18.52 19.88 13.97 19.84 13.67 21.7 13.66" style="transition-property: none;"></polygon><polygon class="b-628e87e08877b" points="24.61 13.65 23.92 18.51 23.03 18.51 22.57 17.91 21.98 13.66 22.79 13.66 23.31 17.65 23.8 13.66 24.61 13.65" style="transition-property: none;"></polygon><polygon class="b-628e87e08877b" points="26.75 13.65 26.76 14.46 25.74 14.46 25.75 15.52 26.56 15.52 26.56 16.23 25.75 16.23 25.75 17.7 26.76 17.7 26.77 18.51 24.95 18.51 24.93 13.96 24.89 13.65 26.75 13.65" style="transition-property: none;"></polygon><polygon class="b-628e87e08877b" points="27.97 13.65 27.98 17.7 29.2 17.69 29.05 18.5 27.18 18.5 27.17 13.9 27.12 13.65 27.97 13.65" style="transition-property: none;"></polygon><path class="b-628e87e08877b" d="M31.34,13.64l.72,4.85h-.81l-.12-.96h-.77l-.12,.96h-.81l.64-4.55-.05-.3h1.32Zm-.88,3.08h.56l-.28-2.23-.28,2.23Z" style="transition-property: none;"></path><polygon class="b-628e87e08877b" points="34.64 18.49 33.88 18.49 33.12 15.86 33.12 15.86 33.12 18.49 32.31 18.49 32.3 13.94 32.25 13.64 33.06 13.63 33.83 16.1 33.82 13.63 34.63 13.63 34.64 18.49" style="transition-property: none;"></polygon><path class="b-628e87e08877b" d="M37.36,14.33v3.5l-.65,.66h-1.67v-4.56l-.06-.29h1.67l.71,.7Zm-.81,.21l-.1-.1h-.61v3.24h.62l.1-.1v-3.04Z" style="transition-property: none;"></path><polygon class="b-628e87e08877b" points="7.1 20.33 8.6 21.81 8.6 22.89 6.9 24.6 6.9 22.25 6.68 22.04 5.72 22.04 5.5 22.26 5.52 28.67 5.73 28.88 6.7 28.88 6.91 28.66 6.91 27.68 8.61 25.97 8.62 29.08 7.12 30.58 5.32 30.59 3.81 29.09 3.79 21.83 5.29 20.34 7.1 20.33" style="transition-property: none;"></polygon><path class="b-628e87e08877b" d="M13.08,20.32l1.53,10.25h-1.72l-.26-2.02h-1.63l-.25,2.03h-1.7l1.36-9.61-.1-.64h2.78Zm-1.87,6.51h1.19l-.6-4.71-.59,4.71Z" style="transition-property: none;"></path><polygon class="b-628e87e08877b" points="19.71 20.3 18.25 30.56 16.36 30.56 15.4 29.28 14.16 20.31 15.86 20.31 16.96 28.74 18.01 20.3 19.71 20.3" style="transition-property: none;"></polygon><path class="b-628e87e08877b" d="M23.4,20.29l1.53,10.25h-1.72l-.26-2.02h-1.63l-.25,2.03h-1.7l1.36-9.61-.1-.64h2.78Zm-1.87,6.51h1.19l-.6-4.71-.59,4.71Z" style="transition-property: none;"></path><polygon class="b-628e87e08877b" points="27.21 20.28 27.23 28.83 29.79 28.82 29.48 30.53 25.53 30.54 25.51 20.81 25.4 20.29 27.21 20.28" style="transition-property: none;"></polygon><polygon class="b-628e87e08877b" points="32.18 20.27 32.21 30.52 30.5 30.53 30.48 20.91 30.36 20.27 32.18 20.27" style="transition-property: none;"></polygon><polygon class="b-628e87e08877b" points="36.9 20.26 36.9 21.96 34.76 21.97 34.77 24.21 36.49 24.21 36.49 25.71 34.77 25.71 34.78 28.81 36.92 28.81 36.92 30.51 33.08 30.52 33.05 20.91 32.95 20.27 36.9 20.26" style="transition-property: none;"></polygon><path class="b-628e87e08877b" d="M41.19,20.25l1.49,1.48v2.56l-1.4,.95,1.41,1.83v3.42h-1.7v-2.78l-1.06-1.57-.45,.3v4.06h-1.69l-.02-9.61-.1-.64h3.52Zm-1.71,4.48l1.5-1.08v-1.49l-.22-.22h-1.28v2.78Z" style="transition-property: none;"></path><polygon class="b-628e87e08877b" points="46.76 23.44 46.76 22.15 46.54 21.94 45.48 21.94 45.26 22.16 45.26 23.44 48.47 26 48.48 28.98 47 30.49 45.08 30.49 43.57 28.99 43.57 26.01 45.27 27.07 45.28 28.57 45.49 28.78 46.56 28.78 46.78 28.56 46.77 26.86 43.56 24.29 43.55 21.73 45.05 20.24 46.97 20.23 48.46 21.71 48.47 24.5 46.76 23.44" style="transition-property: none;"></polygon></svg>