<?xml version="1.0" encoding="UTF-8" standalone="no"?>
<!DOCTYPE svg PUBLIC "-//W3C//DTD SVG 1.1//EN" "http://www.w3.org/Graphics/SVG/1.1/DTD/svg11.dtd">
<svg width="100%" height="100%" viewBox="0 0 800 600" version="1.1" xmlns="http://www.w3.org/2000/svg" xmlns:xlink="http://www.w3.org/1999/xlink" xml:space="preserve" xmlns:serif="http://www.serif.com/" style="fill-rule:evenodd;clip-rule:evenodd;stroke-linejoin:round;stroke-miterlimit:1.41421;">
    <g id="Layer_1-2" transform="matrix(7.7984,0,0,7.7984,67.0536,13.5003)">
        <path d="M85.39,14.63L85.39,8.36L83.86,6.81C64.17,-11.92 22,12.67 7.69,24.52L0.62,35.52L9.41,33.34C-4.1,50.25 0.73,61.36 1.3,62.51C2.72,66.51 5.97,69.71 11.23,71.81C15.23,73.41 19.76,73.6 23.65,73.42C40.44,72.64 60.29,62.17 73.11,51L73.41,50.74L76,37.9L71,40.67C60.816,45.16 50.397,49.099 39.79,52.47C30.68,55.31 26.5,55.77 23.52,55.08L23.13,55C22.576,54.818 22.181,54.321 22.13,53.74C21.99,48.04 31.79,35.74 36.73,30.49C41.33,25.55 48.56,20.13 54.68,17.55C58.78,15.83 61.42,15.14 62.68,15.27C62.224,16.648 61.656,17.986 60.98,19.27C60.304,20.554 56.22,28.66 54.64,31.76C54.619,31.803 54.609,31.85 54.609,31.898C54.609,32.074 54.753,32.218 54.929,32.218C54.981,32.218 55.033,32.205 55.08,32.18L85.39,14.63Z" style="fill:rgb(35,31,32);fill-rule:nonzero;"/>
        <path d="M46.51,13.71C40.86,16.71 34.39,22.71 32.36,24.84C15.85,42.43 4.28,65.93 40.44,54.67C51.148,51.27 61.664,47.291 71.94,42.75C22.55,84.47 -24.07,67 21.81,23.16C17.63,24.11 13.42,25.02 9.29,26.16C24,14 64.27,-8.66 82.26,8.46L63,20.24C71.25,4.07 56.39,7.87 46.47,13.71" style="fill:white;fill-rule:nonzero;"/>
    </g>
</svg>
