<svg clip-rule="evenodd" fill-rule="evenodd" stroke-linejoin="round" stroke-miterlimit="1.41421" viewBox="0 0 800 600" xmlns="http://www.w3.org/2000/svg"><g fill-rule="nonzero" transform="matrix(7.7984 0 0 7.7984 67.0536 13.5003)"><path d="m85.39 14.63v-6.27l-1.53-1.55c-19.69-18.73-61.86 5.86-76.17 17.71l-7.07 11 8.79-2.18c-13.51 16.91-8.68 28.02-8.11 29.17 1.42 4 4.67 7.2 9.93 9.3 4 1.6 8.53 1.79 12.42 1.61 16.79-.78 36.64-11.25 49.46-22.42l.3-.26 2.59-12.84-5 2.77c-10.184 4.49-20.603 8.429-31.21 11.8-9.11 2.84-13.29 3.3-16.27 2.61l-.39-.08c-.554-.182-.949-.679-1-1.26-.14-5.7 9.66-18 14.6-23.25 4.6-4.94 11.83-10.36 17.95-12.94 4.1-1.72 6.74-2.41 8-2.28-.456 1.378-1.024 2.716-1.7 4s-4.76 9.39-6.34 12.49c-.021.043-.031.09-.031.138 0 .176.144.32.32.32.052 0 .104-.013.151-.038z" fill="#b4975a"/><path d="m46.51 13.71c-5.65 3-12.12 9-14.15 11.13-16.51 17.59-28.08 41.09 8.08 29.83 10.708-3.4 21.224-7.379 31.5-11.92-49.39 41.72-96.01 24.25-50.13-19.59-4.18.95-8.39 1.86-12.52 3 14.71-12.16 54.98-34.82 72.97-17.7l-19.26 11.78c8.25-16.17-6.61-12.37-16.53-6.53" fill="#72253d"/></g></svg>