<svg xmlns="http://www.w3.org/2000/svg" id="a628e87e68877c" viewBox="0 0 78.75 46.69" aria-hidden="true" width="172" height="101" style="width: 172px; height: 101px; display: block; transform: scale(1, 1); transition-property: none;"><defs><linearGradient class="cerosgradient" data-cerosgradient="true" id="CerosGradient_id749a95211" gradientUnits="userSpaceOnUse" x1="50%" y1="100%" x2="50%" y2="0%"><stop offset="0%" stop-color="#d1d1d1" style="transition-property: none;"></stop><stop offset="100%" stop-color="#d1d1d1" style="transition-property: none;"></stop></linearGradient><linearGradient></linearGradient><style>.b-628e87e68877c{fill:#bb945c;}</style></defs><polygon class="b-628e87e68877c" points="67.73 18.03 68.47 17.28 72.13 17.28 72.88 18.03 72.88 22.44 75.45 24.5 75.45 17.43 72.73 14.71 67.9 14.71 65.15 17.43 65.15 23.72 76.18 32.56 76.18 40.95 73.03 44.12 67.6 44.12 64.43 40.95 64.43 32.28 61.86 30.22 61.86 41.53 67.02 46.69 73.63 46.69 78.75 41.53 78.75 31.26 67.73 22.44 67.73 18.03" style="transition-property: none;"></polygon><polygon class="b-628e87e68877c" points="73.63 11.42 67.02 11.42 61.86 16.53 61.86 25.35 72.88 34.21 72.88 40.08 72.13 40.83 68.47 40.83 67.73 40.08 67.73 34.92 65.15 32.86 65.15 40.65 67.9 43.4 72.73 43.4 75.45 40.65 75.45 32.91 64.43 24.07 64.43 17.13 67.6 13.99 73.03 13.99 76.18 17.13 76.18 25.08 78.75 27.14 78.75 16.53 73.63 11.42" style="transition-property: none;"></polygon><polygon class="b-628e87e68877c" points="5.86 14.71 3.12 17.43 3.12 40.65 5.86 43.4 10.7 43.4 13.42 40.65 13.42 33.93 10.67 36.68 10.67 40.08 9.92 40.83 6.61 40.83 5.86 40.08 5.86 18.03 6.61 17.28 9.92 17.28 10.67 18.03 10.67 26.1 13.42 23.35 13.42 17.43 10.7 14.71 5.86 14.71" style="transition-property: none;"></polygon><polygon class="b-628e87e68877c" points="16.53 20.24 16.53 16.53 11.38 11.42 5.16 11.42 0 16.53 0 41.53 5.16 46.69 11.38 46.69 16.53 41.53 16.53 30.82 14.14 33.21 14.14 40.95 11 44.12 5.56 44.12 2.39 40.95 2.39 17.13 5.56 13.99 10.99 13.99 14.14 17.13 14.14 22.63 16.53 20.24" style="transition-property: none;"></polygon><polygon class="b-628e87e68877c" points="20.56 46.69 24.99 13.99 30.08 13.99 34.53 46.69 37.12 46.69 31.96 11.42 22.4 11.42 22.75 13.62 17.99 46.69 20.56 46.69" style="transition-property: none;"></polygon><path class="b-628e87e68877c" d="M25.63,14.71l-2.95,21.7h9.73l-2.95-21.7h-3.83Zm-.14,19.1l2.07-16.18,2.03,16.18h-4.1Z" style="transition-property: none;"></path><polygon class="b-628e87e68877c" points="32.5 37.13 22.58 37.13 21.28 46.69 23.85 46.69 24.73 39.72 30.33 39.72 31.21 46.69 33.8 46.69 32.5 37.13" style="transition-property: none;"></polygon><path class="b-628e87e68877c" d="M51.55,15.3c-.39,.18-.8,.33-1.22,.44l-.45,2.59-.41-2.39c-.35,.06-.71,.1-1.07,.11l1.03,4.84-1.37,7.92-1.38-7.94,1.03-4.83c-.36-.01-.72-.05-1.07-.11l-.41,2.4-.45-2.59c-.42-.12-.83-.27-1.22-.45l1.21,5.75-1.99,11.69c.12,.02,.23,.06,.33,.11l2.09-9.76,1.56,7.42-1.74,10.03c.07,.02,.13,.05,.19,.08l1.84-8.74,1.84,8.78c.07-.03,.14-.06,.21-.07l-1.76-10.11,1.55-7.38,1.79,8.37c.13-.06,.27-.09,.41-.09l-1.76-10.34,1.21-5.74Z" style="transition-property: none;"></path><path class="b-628e87e68877c" d="M43.26,14.55l-1.37,8.4c.21,.02,.4,.1,.56,.24l1.78-8.05c-.34-.17-.66-.37-.97-.58" style="transition-property: none;"></path><path class="b-628e87e68877c" d="M51.9,15.13l1.84,8.29c.16-.1,.35-.14,.54-.15l-1.41-8.72c-.31,.21-.63,.41-.97,.58" style="transition-property: none;"></path><path class="b-628e87e68877c" d="M40.44,7.63c0-4.21,3.42-7.63,7.63-7.63s7.63,3.42,7.63,7.63-3.42,7.63-7.63,7.63-7.63-3.42-7.63-7.63" style="transition-property: none;"></path><polygon class="b-628e87e68877c" points="58.01 11.42 55.38 11.42 47.91 46.69 50.49 46.69 58.01 11.42" style="transition-property: none;"></polygon><polygon class="b-628e87e68877c" points="58.74 11.42 51.22 46.69 53.82 46.69 61.24 11.42 58.74 11.42" style="transition-property: none;"></polygon><polygon class="b-628e87e68877c" points="45.6 46.69 48.18 46.69 40.75 11.42 38.18 11.42 45.6 46.69" style="transition-property: none;"></polygon><polygon class="b-628e87e68877c" points="37.45 11.42 34.89 11.42 41.39 42.28 44.74 46.13 37.45 11.42" style="transition-property: none;"></polygon></svg>