<svg xmlns="http://www.w3.org/2000/svg" width="230" height="230.845" viewBox="0 0 230 230.845"><path d="M138.528,252.738A113.929,113.929,0,0,1,28.036,166.09C12.782,104.942,49.853,42.838,110.68,27.667A114.381,114.381,0,0,1,236.03,197.36a112.818,112.818,0,0,1-69.886,51.98,114,114,0,0,1-27.616,3.424Z" transform="translate(-23.397 -23.08)"/><path d="M138.219,26.3a112.154,112.154,0,0,1,108.524,85.118c15.088,60.107-21.286,120.962-81.094,135.941A111.653,111.653,0,0,1,30.021,165.6C15.014,105.438,51.32,44.57,111.183,29.645A111.618,111.618,0,0,1,138.219,26.3m0-3.221h0a115.423,115.423,0,1,0,28.219,227.393,115.13,115.13,0,0,0,83.432-139.842A115.387,115.387,0,0,0,138.232,23.08h0ZM71.478,80.115l-2.542-1.957c-1.536-1.2-2.719-1.427-4.064-.652a3.06,3.06,0,0,0-1.441-2.61L61.3,73.251c-2.936-2.27-4.893.272-5.736,1.359l-2.528,3.276a.619.619,0,0,0,.109.856L68.08,90.3a.626.626,0,0,0,.367.122h.082a.689.689,0,0,0,.408-.231l2.787-3.616a5.211,5.211,0,0,0,1.4-3.969,3.931,3.931,0,0,0-1.645-2.474ZM62.7,82.562l.652-.829c.911-1.169,1.726-1.821,2.42-1.9a2,2,0,0,1,1.441.544L69.317,82c1.2.924,1.849,1.427.381,3.317L68.42,86.979ZM58.525,75.14c.217-.068.53-.082,1.169.408l1.794,1.386c.761.584,1.618,1.251-.1,3.453l-.584.761-4.581-3.534L57.1,76.5a3.856,3.856,0,0,1,1.427-1.346ZM92.1,66.5,83.78,61.982a3.6,3.6,0,0,0,.1-4.8l-1.767-2.352c-2.352-3.113-5.451-.761-6.47,0L72.1,57.51a.6.6,0,0,0-.231.394.584.584,0,0,0,.122.449L83.358,73.414a.6.6,0,0,0,.489.245.626.626,0,0,0,.367-.122l1.278-.965a.6.6,0,0,0,.231-.394.584.584,0,0,0-.122-.449l-5.179-6.851,1.21-.911,8.55,4.622a.6.6,0,0,0,.652-.054l1.359-1.019a.62.62,0,0,0,.245-.53.61.61,0,0,0-.313-.489ZM79.987,56.872,81.741,59.2a1.1,1.1,0,0,1,.245,1.1,3.126,3.126,0,0,1-1.169,1.332h0l-1.835,1.386-3.738-4.961,1.917-1.441c1.155-.87,1.835-1.047,2.827.258ZM106.534,44.2a5.632,5.632,0,0,0-2.3-3.181,5.271,5.271,0,0,0-4.486.054,5.537,5.537,0,0,0-3.48,3.194,4.9,4.9,0,0,0,.34,3.453l3.928,9.882a5.319,5.319,0,0,0,1.685,2.447,3.832,3.832,0,0,0,2.338.734,7.092,7.092,0,0,0,2.61-.571,5.347,5.347,0,0,0,3.453-3.262,4.552,4.552,0,0,0-.272-3.086L106.507,44.2Zm-1.767,14c-.761-.122-1.2-.449-1.849-2.093l-3.847-9.664a2.176,2.176,0,0,1,0-1.971,2.875,2.875,0,0,1,1.482-1.155,3.38,3.38,0,0,1,1.223-.245,2.053,2.053,0,0,1,.6.082c.843.285,1.346,1.4,1.876,2.732l3.4,8.536c.476,1.2.584,2.012-.177,2.814l-.014.014a2.952,2.952,0,0,1-1.074.707,3.292,3.292,0,0,1-1.6.245Zm28.246-19.057a5.72,5.72,0,0,0-1.346-3.684,5.315,5.315,0,0,0-4.336-1.155,5.544,5.544,0,0,0-4.2,2.134,4.871,4.871,0,0,0-.6,3.412l1.128,10.575a5.325,5.325,0,0,0,.965,2.814,4.442,4.442,0,0,0,3.738,1.55,8.171,8.171,0,0,0,.979-.054,5.453,5.453,0,0,0,4.214-2.2,4.575,4.575,0,0,0,.571-3.045l-1.1-10.33Zm-5.478,12.995c-.707-.326-1.033-.748-1.223-2.515l-1.1-10.344a2.183,2.183,0,0,1,.53-1.889,2.888,2.888,0,0,1,1.726-.72c.122,0,.258-.014.381-.014a2.642,2.642,0,0,1,1.427.353c.734.5.924,1.713,1.06,3.126l.965,9.134c.136,1.291.027,2.093-.938,2.664h-.014a2.654,2.654,0,0,1-1.223.381,3.047,3.047,0,0,1-1.6-.2ZM159.872,36.02l-1.767-.272a.619.619,0,0,0-.557.2l-5.709,6.633,1.1-7.027a.577.577,0,0,0-.109-.449.615.615,0,0,0-.394-.245l-1.577-.245a.621.621,0,0,0-.693.5l-2.922,18.636a.61.61,0,0,0,.5.693l1.55.245a.577.577,0,0,0,.449-.109.676.676,0,0,0,.245-.394l1.087-6.892,1.21-1.346,2.392,9.216a.614.614,0,0,0,.489.449l1.672.258h.1a.561.561,0,0,0,.449-.2.6.6,0,0,0,.136-.557l-3.058-11.663,5.777-6.416a.621.621,0,0,0,.122-.612.593.593,0,0,0-.476-.394Zm18.676,5.9-1.468-.639a.607.607,0,0,0-.8.313l-7.517,17.3a.549.549,0,0,0,0,.462.615.615,0,0,0,.326.34l6.973,3.031a.533.533,0,0,0,.245.054.6.6,0,0,0,.557-.367l.462-1.074a.549.549,0,0,0,0-.462.615.615,0,0,0-.326-.34l-4.948-2.148,6.81-15.672a.6.6,0,0,0-.313-.8Zm27.444,16.95a.62.62,0,0,0-.245-.53l-1.4-1.06a.617.617,0,0,0-.68-.041l-7.014,4.119L198.72,53.5a.6.6,0,0,0-.217-.639l-1.359-1.019a.578.578,0,0,0-.571-.082.593.593,0,0,0-.381.421l-2.7,11.01-4.948,6.552a.609.609,0,0,0,.122.856l1.251.938a.6.6,0,0,0,.367.122h.082a.689.689,0,0,0,.408-.231l4.948-6.552,9.977-5.505a.61.61,0,0,0,.313-.489ZM223.513,77.6l-.965-1.237a.651.651,0,0,0-.408-.231.645.645,0,0,0-.449.122l-10.684,8.536,8.305-11.866a.612.612,0,0,0-.014-.72l-1.441-1.849a.651.651,0,0,0-.408-.231.584.584,0,0,0-.449.122L202.159,81.882a.651.651,0,0,0-.231.408.645.645,0,0,0,.122.449l.924,1.183a.651.651,0,0,0,.408.231.645.645,0,0,0,.449-.122l10.521-8.319a.531.531,0,0,0,.068-.054l-8.21,11.676a.612.612,0,0,0,.014.72l1.509,1.93a.619.619,0,0,0,.476.231.666.666,0,0,0,.381-.122l14.843-11.635a.619.619,0,0,0,.109-.856ZM112.868,219.495l-1.468-.544a.6.6,0,0,0-.462.014.591.591,0,0,0-.313.34l-4.689,12.859.924-14.463a.605.605,0,0,0-.394-.612l-2.2-.829a.625.625,0,0,0-.788.353L96.842,234.27a.613.613,0,0,0,.353.788l1.4.53a.606.606,0,0,0,.462-.014.591.591,0,0,0,.313-.34l4.649-12.573a.23.23,0,0,1,.027-.068l-.938,14.245a.605.605,0,0,0,.394.612l2.284.856a.563.563,0,0,0,.217.041.5.5,0,0,0,.245-.054.591.591,0,0,0,.313-.34l6.633-17.657a.606.606,0,0,0-.014-.462.591.591,0,0,0-.34-.313Zm20.62,3.779-8.1-.911a.609.609,0,0,0-.666.53l-2.093,18.744a.645.645,0,0,0,.122.449.651.651,0,0,0,.408.231l8.074.9h.068a.57.57,0,0,0,.381-.136.58.58,0,0,0,.217-.408l.136-1.169a.592.592,0,0,0-.53-.666l-5.913-.666.761-6.837,4.771.53a.645.645,0,0,0,.449-.122.58.58,0,0,0,.217-.408l.122-1.142a.592.592,0,0,0-.53-.666l-4.744-.53.666-6.022,5.913.666a.6.6,0,0,0,.666-.53l.136-1.169a.645.645,0,0,0-.122-.449.651.651,0,0,0-.408-.231Zm21.436-1.482-9.624,1.332a.61.61,0,0,0-.517.68l.163,1.2a.619.619,0,0,0,.231.394.645.645,0,0,0,.449.122l3.371-.462,2.338,16.923a.613.613,0,0,0,.6.53h.082l1.577-.217a.619.619,0,0,0,.394-.231.645.645,0,0,0,.122-.449l-2.338-16.923,3.466-.476a.619.619,0,0,0,.394-.231.645.645,0,0,0,.122-.449l-.163-1.2a.6.6,0,0,0-.68-.517Zm25.7,7.612c-1.06-2.637-2.583-3.14-5.627-4.146-4.159-1.346-4.717-1.835-5.3-3.3a2.469,2.469,0,0,1-.217-1.74,2.239,2.239,0,0,1,1.4-1.128c1.944-.775,2.365.258,2.814,1.359l.625,1.563a.552.552,0,0,0,.326.326.6.6,0,0,0,.462,0l1.454-.584a.6.6,0,0,0,.326-.788l-.5-1.264a5.754,5.754,0,0,0-1.767-2.7c-1.142-.843-2.664-.856-4.635-.068-1.835.734-2.922,1.808-3.235,3.194a5.287,5.287,0,0,0,.421,3.086c1.087,2.719,3.058,3.344,6.321,4.363,3.126.965,3.928,1.359,4.622,3.113a2.844,2.844,0,0,1,.245,1.917,2.408,2.408,0,0,1-1.522,1.251,3.261,3.261,0,0,1-2.324.19c-.652-.3-.87-.775-1.414-2.12l-.557.231.557-.231-.557-1.386a.606.606,0,0,0-.788-.34l-1.482.6a.615.615,0,0,0-.34.326.549.549,0,0,0,0,.462l.979,2.46a4,4,0,0,0,3.928,2.678,7.4,7.4,0,0,0,2.773-.6c4.921-1.971,3.493-5.532,3.031-6.7ZM130.607,128.831h3.833c3.86-.136,4.717-.3,6.5-.8,6.361-1.9,6.429-7.354,6.525-10.562V104.093c0-7.911-3.33-9.039-11.064-9.039h-5.926c-.544.054-.72.367-.72.884,0,0,.041,31.793.041,32.106,0,.489.163.8.761.8h.082Zm19.75,18.106a8.508,8.508,0,0,0-3.629-4.458,17.017,17.017,0,0,0-7.367-2.107,80.762,80.762,0,0,0-8.7-.285.647.647,0,0,0-.72.734c0,.285.1,33.778.1,39.854,0,.707.285,1.155,1.033,1.155.639,0,8.89-.027,8.89-.027,4.8-.163,6.688-.8,8.224-1.9,2.569-2,2.99-5.152,2.99-11.894l-.041-14.775a20.547,20.547,0,0,0-.761-6.293Zm50.347,5.777c-8.659,4.173-19.777,7.734-32.188,10.344v-5.179c13.647-2.936,24.345-6.837,31.821-10.7a70.342,70.342,0,0,0-1.332-8.1c-.408-1.835-.856-3.643-1.318-5.423a39.165,39.165,0,0,1-9.148,2.324,35.428,35.428,0,0,1-4.839.326c-6.919,0-14.327-1.849-21.816-4.73a15.114,15.114,0,0,0,1.957-4.7c8.5,3.249,16.719,5.043,23.991,4.051a33.88,33.88,0,0,0,8.441-2.216,101.572,101.572,0,0,0-17.032-33.492,81.029,81.029,0,0,0-26.859-22.1,84.27,84.27,0,0,0-19.057-6.973,41.837,41.837,0,0,0-27.281,2.827A77.15,77.15,0,0,0,77.228,92.308c7.5-1.386,20.2-1.685,35.124,6.389v5.845c-.734-.421-1.482-.843-2.2-1.237-19-10.4-34.05-5.763-37.312-4.54a76.241,76.241,0,0,0-10.9,34.009,69.666,69.666,0,0,0,18.377,16.053,89.809,89.809,0,0,0,32.16,11.88v5.179a95.237,95.237,0,0,1-35.1-12.872,79.713,79.713,0,0,1-15.632-12.628,76.536,76.536,0,0,0,26.846,56.383,39.7,39.7,0,0,0,23.57,9.5,82.789,82.789,0,0,0,29.455-3.357c21.259-6.81,33.044-16.257,45.209-27a91.84,91.84,0,0,1,12.927-9.868,68.359,68.359,0,0,0,.951-13.334ZM157.452,187.96c-5.94,5.07-13.076,5.084-15.4,5.084l-21.9.054a2.556,2.556,0,0,1-1.359-.381,2.413,2.413,0,0,1-1.183-2.08l-.19-104.229a2.321,2.321,0,0,1,.707-1.7,2.52,2.52,0,0,1,1.74-.72l21.531-.054h.122c5.981,0,10.7,1.794,13.837,5.247,3.548,4.051,4.037,9.066,4.173,13.457l.054,15.876a24.931,24.931,0,0,1-.843,7.626,13.8,13.8,0,0,1-5.573,7.435,16.348,16.348,0,0,1,4.39,2.583c5.831,4.825,5.831,11.649,5.831,17.236l.041,17.834c-.15,6.321-.693,11.962-5.967,16.733Zm32.745-8.21c-12.138,10.725-24.861,20.933-47.031,28.028a84.953,84.953,0,0,1-25.69,3.792c-.884,0-1.74,0-2.583-.041a76.618,76.618,0,0,0,57.171-4.091,44.859,44.859,0,0,0,19.614-18.595c.884-1.618,1.781-3.371,2.651-5.274a72.968,72.968,0,0,0,3.765-10.263c-2.216,1.618-4.812,3.711-7.9,6.429ZM212.5,118.542a24.312,24.312,0,0,1-3.548,6.783,23.872,23.872,0,0,1-6.606,5.994q.9,3.262,1.645,6.647c.489,2.2.856,4.594,1.142,6.715a26.064,26.064,0,0,0,9.936-9.977,76.372,76.372,0,0,0-2.542-16.162Zm-8.237,50.891a77.321,77.321,0,0,1-5.138,15.931,76.712,76.712,0,0,0,10.059-17.222C208.724,168.019,207.338,167.9,204.266,169.433Zm-21.028-77.37a106.139,106.139,0,0,1,17.589,34.131,18.6,18.6,0,0,0,4.051-3.942c.15-.2.3-.421.449-.625a18.341,18.341,0,0,0,.938-18.935,76.79,76.79,0,0,0-67.828-40.9c-.462,0-.924,0-1.386.014a89.032,89.032,0,0,1,17.643,6.769,86.15,86.15,0,0,1,28.531,23.475Zm28.015,70.587A75.581,75.581,0,0,0,215,143.117a39.725,39.725,0,0,1-4.717,4,53.982,53.982,0,0,1-4.608,2.977,74.883,74.883,0,0,1-.421,13.321,17.444,17.444,0,0,1,4.173-.884,4.329,4.329,0,0,1,1.821.136Z" transform="translate(-23.397 -23.08)" fill="#fff"/></svg>