<svg xmlns="http://www.w3.org/2000/svg" width="255.595" height="170.939" viewBox="0 0 255.595 170.939"><path d="M78.433,213a18.474,18.474,0,0,1-9.062-2.372c-17.579-9.8-9.813-32.124-5.639-44.115.156-.467.337-.946.506-1.439-6.326,9.658-12.938,14.921-20.081,16.01a22.158,22.158,0,0,1-3.189.246,19.274,19.274,0,0,1-14.96-6.9c-8.439-10.215-3.228-24.9-1.517-29.726A156.987,156.987,0,0,1,38.66,114.472c-2.45-.765-4.887-1.582-7.3-2.515-12.432-4.81-19.433-10.98-21.4-18.849a19.045,19.045,0,0,1,5.017-17.994c5.717-5.86,13.4-8.5,20.171-10.319a110.765,110.765,0,0,1,14.066-2.683A62.931,62.931,0,0,1,57.86,61.4c3.008,0,12.575-.428,17.242,9.23a166.638,166.638,0,0,1,15.453-13.08C105.073,46.983,115.937,42.07,124.7,42.07a19.51,19.51,0,0,1,8.789,1.983,18.466,18.466,0,0,1,9.775,10.915,17.75,17.75,0,0,1,.817,3.811c7.6.1,24.087.661,36.493,1.582,1.115.078,5.134.363,5.717.415A135.44,135.44,0,0,1,194.575,49.5a12.476,12.476,0,0,1,2.645-2.645c1.335-.843,3.5-1.128,13.469-.519a75.134,75.134,0,0,1,9.165,1.05c5.393,1,5.432,3.1,4.576,4.861s-3.656,6.456-6.456,12.043c3.772.635,7.61,1.413,11.46,2.411,7.454,1.945,16.049,4.447,23.62,9.425,10.591,6.962,14.714,18.771,10.008,28.7a20.518,20.518,0,0,1-4.071,5.743c-4.537,4.537-10.241,6.78-14.7,8.232a91.189,91.189,0,0,1-20.547,4.006s-2.087.13-3.293.13a110.2,110.2,0,0,1-6.858,11.408c.065.143.117.3.181.441.843,2.061,1.763,4.148,2.58,5.989,4.239,9.541,9.5,21.416,4.161,35.417A28.5,28.5,0,0,1,201.2,194.043a27.367,27.367,0,0,1-7.026.92,25.659,25.659,0,0,1-15.868-5.315c-6.145,8.271-13.573,15.349-23.14,15.569h-.557a19.888,19.888,0,0,1-16.269-7.778,24.018,24.018,0,0,1-4.55-14,32.485,32.485,0,0,1-12.847,2.748A27.858,27.858,0,0,1,112.5,184.9a25.785,25.785,0,0,1-4.511-1.919c-.8,1.7-1.478,3.1-1.983,4.122l-.207.4c-5.108,10.228-11.434,21.442-21.818,24.644a18.885,18.885,0,0,1-5.6.856Z" transform="translate(-9.395 -42.07)"/><g transform="translate(8.936 8.99)"><path d="M202.4,77.551c-5.356-3.523-11.891-5.4-17.592-6.9a138.091,138.091,0,0,0-17.669-3.134c-1.611-.2-3.234-.378-4.856-.556l-.467-.044.511-.9c1.978-3.489,6.545-9.779,8.2-12.024a.628.628,0,0,0-.422-1c-.611-.078-1.489-.167-2.645-.222-1.489-.067-2.389-.089-2.812-.089a.639.639,0,0,0-.478.211,103.354,103.354,0,0,0-6.7,9.035c-.578.867-1.434,2.267-2.545,4.145l-.1.167h-.189c-2.234-.2-4.467-.367-6.7-.522-1.134-.078-2.278-.156-3.423-.244-10.857-.811-25.426-1.278-31.394-1.334a.626.626,0,0,0-.589.411,39.164,39.164,0,0,1-2.267,4.845c-.333.622-.978,1.745-2.056,3.634a.634.634,0,0,0,.533.945c3.378.078,6.712.178,9.935.3,3.856.144,7.723.289,11.58.467,5.079.233,9.668.478,14.035.778,5.456.367,10.357.778,14.969,1.256,5.39.556,10.1,1.178,14.38,1.889a100.3,100.3,0,0,1,12.28,2.712c7.879,2.334,12.313,4.6,13.18,6.745a1.977,1.977,0,0,1,.011,1.589c-.556,1.256-2.4,1.956-3.756,2.467l-.222.089a59.1,59.1,0,0,1-11.2,2.423.6.6,0,0,0-.522.645,21.227,21.227,0,0,1-.367,4.9.635.635,0,0,0,.678.756,68.749,68.749,0,0,0,13.324-2.823c2.867-.933,6.49-2.323,9.035-4.867a8.769,8.769,0,0,0,1.734-2.423c2.434-5.134-.967-10.379-5.412-13.3Z" transform="translate(29.147 -49.88)" fill="#fff"/><path d="M211.226,94.847h-.393c-7.785,0-13.485,7.589-14.893,14.728-1.53,7.734.853,15.482,3.371,22.039,1.638,4.244,3.48,8.514,5.267,12.639.718,1.666,1.449,3.332,2.153,5.011a95.476,95.476,0,0,1,3.764,10.273,17.422,17.422,0,0,1-.663,10.3,11.3,11.3,0,0,1-7.65,7.205,10.362,10.362,0,0,1-2.627.331,8.55,8.55,0,0,1-5.253-1.653,12.364,12.364,0,0,1-4.062-6.029c-1.354-4.244-.812-7.972,1.327-12.137a74.152,74.152,0,0,1,3.845-6.346.7.7,0,0,0,.054-.674c-.284-.648-.569-1.309-.853-1.97l-.135-.331c-.677-1.573-1.367-3.16-2.044-4.76a.561.561,0,0,0-.988-.079c-1.652,2.644-3.29,5.275-5.05,8.131-3.236,5.235-9.532,14.94-15.624,24.1a68.046,68.046,0,0,1-5.876,7.6,26.63,26.63,0,0,1-2.9,2.856,8.822,8.822,0,0,1-2.275,1.441,4.325,4.325,0,0,1-1.625.344,3.145,3.145,0,0,1-.8-.093c-2.41-.595-2.356-3.583-2.342-5.368v-.251a39.633,39.633,0,0,1,.975-7.483c.542-2.552,1.273-5.315,2.247-8.461,4.685-15.059,31.587-67.837,35.594-75.663a.726.726,0,0,0-.609-1.058c-2.112-.172-4.305-.331-6.58-.489a.747.747,0,0,0-.718.383c-3.7,6.981-11.969,22.608-18.169,33.581-11.17,19.792-23.626,34.824-35.107,42.32a17.857,17.857,0,0,1-9.532,3.133,10.927,10.927,0,0,1-3.209-.463,7.6,7.6,0,0,1-5.064-4.68c-3.141-7.972,2.491-21.55,3.155-23.07l.108-.264.284.04a28.038,28.038,0,0,0,4.333.317,29.047,29.047,0,0,0,11.887-2.459c10.926-4.971,21.459-16.275,26.2-28.121,4.211-10.537.772-15.125-1.652-16.91a9.011,9.011,0,0,0-5.5-1.719c-3.669,0-7.92,1.772-12.646,5.275-17.046,12.626-26,32.008-34.647,50.768-1.273,2.763-2.545,5.526-3.832,8.237l-1.733,3.649c-3.9,8.223-8.327,17.557-9.748,20.321l-.2.4c-1.868,3.649-3.4,6.372-4.969,8.832a42.241,42.241,0,0,1-2.789,3.913c-1.273,1.547-2.8,3.133-4.373,3.133a2.007,2.007,0,0,1-.745-.132c-3.358-1.269-1.137-10.537-.379-13.353.907-3.345,2.071-6.677,3.182-9.8,4.035-11.317,14.988-35.6,24.411-54.153,7.149-14.067,19.009-34.269,24.709-43.973,1.774-3.014,2.938-5,3.4-5.83,1.516-2.75,4.333-7.853,2.8-12.388a8.212,8.212,0,0,0-4.522-4.839,9.743,9.743,0,0,0-4.509-.992c-6.566,0-16.409,4.627-29.258,13.75-10.466,7.43-20.566,17.438-27.2,24.512l-.569.595-.081-.806c-.988-9.493-2.532-13.062-3.371-14.331-1.882-2.882-4.509-4.006-9.356-4.006a55.7,55.7,0,0,0-7.514.621,107.685,107.685,0,0,0-13.39,2.486c-5.917,1.547-11.969,3.556-16.1,7.681A8.6,8.6,0,0,0,17.7,88.99c1.124,4.363,6.4,8.369,15.719,11.886,3.019,1.137,6.12,2.1,9.477,3.094a.782.782,0,0,0,.853-.278c1.232-1.666,2.518-3.371,3.886-5.13a.746.746,0,0,0-.393-1.177C36.667,94.252,29.315,91.766,29.478,89c.135-2.168,3.723-3.358,9.87-4.68a107.045,107.045,0,0,1,14.974-2.142c.623-.04,1.219-.066,1.774-.066,1.855,0,4.157.159,4.685,2.036A69.5,69.5,0,0,1,62.5,94.741l.217,2.419-.095.119c-1.652,1.93-3.2,3.794-4.59,5.526C48.013,115.3,39.848,127.714,32.564,147.757c-3.466,9.559-3.561,16.1-.284,19.977a9.39,9.39,0,0,0,7.23,3.173,10.264,10.264,0,0,0,1.679-.132c6.986-1.044,13.647-11.039,18.007-19.25a124.557,124.557,0,0,0,10.533-26.9c.569-2.486,1.043-5.262,1.408-7.853a.346.346,0,0,0-.623-.238A133.394,133.394,0,0,0,59.453,132.9a6.269,6.269,0,0,0-.447.965,122.142,122.142,0,0,1-8.719,18.324,60.016,60.016,0,0,1-4.129,6.148l-.149.2c-1.313,1.745-3.764,5-6.12,5a2.414,2.414,0,0,1-1.313-.383c-1.34-.859-1.151-3.226-1.083-4.072a28.942,28.942,0,0,1,1.286-6.135c.271-.873.569-1.772.907-2.7,6.932-19.091,14.717-30.95,24.289-42.862,9.315-11.608,24.249-27.552,38.194-37.468,15.191-10.788,21.771-12.4,24.343-12.4a2.758,2.758,0,0,1,1.99.555c.88.859.718,2.023-1.936,6.848-.393.714-1.516,2.618-3.344,5.738-5.727,9.757-17.655,30.078-24.871,44.29-9.708,19.091-20.593,43.259-24.79,55.012-3.994,11.2-9.464,26.548.907,32.193a8.6,8.6,0,0,0,4.157,1.071,9.134,9.134,0,0,0,2.64-.4c6.4-1.93,11.6-10.63,16.26-19.739l.2-.4c1.571-3.067,4.766-9.8,8.773-18.271l.42-.886.284.939c.176.595.338,1.071.514,1.52a15.2,15.2,0,0,0,9.829,9.07,18.593,18.593,0,0,0,5.524.806,25.292,25.292,0,0,0,13.7-4.389,83.607,83.607,0,0,0,15.746-13.908l1.367-1.56c-.934,2.406-2.424,6.425-2.952,8.118-4.414,14.186-4.725,22.647-1,27.42a9.973,9.973,0,0,0,8.313,3.728h.338c8.029-.185,15.259-10.339,23.193-22.581l.975-1.494.244.754a19.662,19.662,0,0,0,6.5,9.532,16.062,16.062,0,0,0,10.073,3.345,18.261,18.261,0,0,0,4.549-.582A18.608,18.608,0,0,0,216.9,172.533c3.967-10.18.041-18.84-4.129-28.015-.894-1.957-1.9-4.165-2.83-6.425-.812-1.943-1.571-3.794-2.261-5.526l-.068-.172s1.449-2.115,1.95-2.856c3.615-5.262,7.338-10.709,9.789-16.605,1.719-4.138,2.139-7.628,1.3-10.669-1.3-4.693-4.468-7.153-9.423-7.311Zm-89.345,37.534c2.261-4.641,10.655-20.532,23.639-30.157l.2-.145c1.692-1.256,4.847-3.6,7.108-3.6a2.485,2.485,0,0,1,1.11.238c2.532,1.2-.19,8.237-.217,8.3-4.712,11.78-14.609,20.6-22.34,24.115a21.262,21.262,0,0,1-8.692,1.772h-1.056Zm91.023-23.626a48.953,48.953,0,0,1-5.064,9.638c-.826,1.322-1.747,2.737-2.9,4.455l-.46.687-.217-.793c-1.3-4.68-1.584-8.422-.921-11.793a13.306,13.306,0,0,1,2.708-5.764c1.11-1.362,2.816-2.975,4.671-2.975a2.671,2.671,0,0,1,.325.013,2.613,2.613,0,0,1,2.017,1.124c.988,1.507.325,4.032-.162,5.407Z" transform="translate(-17.437 -50.16)" fill="#fff"/></g></svg>