<?xml version="1.0" encoding="UTF-8" standalone="no"?>
<!DOCTYPE svg PUBLIC "-//W3C//DTD SVG 1.1//EN" "http://www.w3.org/Graphics/SVG/1.1/DTD/svg11.dtd">
<svg width="100%" height="100%" viewBox="0 0 800 800" version="1.1" xmlns="http://www.w3.org/2000/svg" xmlns:xlink="http://www.w3.org/1999/xlink" xml:space="preserve" xmlns:serif="http://www.serif.com/" style="fill-rule:evenodd;clip-rule:evenodd;stroke-linejoin:round;stroke-miterlimit:1.41421;">
    <g transform="matrix(2.37171,0,0,2.37171,-548.683,-548.683)">
        <g transform="matrix(1,0,0,1,241.886,241.886)">
            <path d="M142.789,140.1L150.294,140.1C157.85,139.835 159.513,139.512 163.007,138.533C175.456,134.811 175.589,124.138 175.758,117.847L175.758,91.666C175.758,76.175 169.24,73.966 154.11,73.966L142.487,73.966C141.429,74.079 141.07,74.665 141.07,75.685C141.07,75.685 141.145,137.933 141.145,138.521C141.145,139.466 141.466,140.088 142.637,140.088L142.784,140.088L142.789,140.1Z" style="fill:white;fill-rule:nonzero;"/>
            <path d="M181.397,173.776C180.121,170.127 177.607,167.038 174.294,165.048C170.044,162.327 164.792,161.459 159.861,160.928C154.201,160.437 148.52,160.247 142.84,160.361C142.789,160.355 142.737,160.351 142.685,160.351C141.995,160.351 141.428,160.919 141.428,161.608C141.428,161.671 141.433,161.735 141.442,161.797C141.442,162.345 141.613,227.915 141.613,239.817C141.613,241.196 142.18,242.084 143.635,242.084C144.881,242.084 161.033,242.045 161.033,242.045C170.441,241.725 174.131,240.478 177.128,238.305C182.173,234.395 182.985,228.217 182.985,215.032L182.91,186.109C183.057,181.951 182.553,177.795 181.418,173.792L181.397,173.776Z" style="fill:white;fill-rule:nonzero;"/>
            <g transform="matrix(1.00165,0,0,1.00165,0.106499,-0.0897737)">
                <path d="M277.956,185.426C261.25,193.485 239.842,200.351 215.891,205.375L215.891,195.382C242.198,189.706 262.812,182.187 277.231,174.762C276.672,169.507 275.814,164.287 274.663,159.129C273.882,155.597 273.007,152.113 272.114,148.69C266.429,150.887 260.5,152.393 254.455,153.175C251.366,153.596 248.252,153.801 245.134,153.789C231.777,153.789 217.524,150.235 203.088,144.665C204.847,141.877 206.123,138.813 206.864,135.602C223.236,141.874 239.107,145.335 253.116,143.401C258.699,142.69 264.165,141.256 269.377,139.133C261.712,114.159 250.716,92.498 236.54,74.559C222.568,56.776 204.902,42.235 184.764,31.944C173.105,25.99 160.767,21.472 148.02,18.489C130.377,14.342 111.841,16.268 95.428,23.953C73.535,34.216 54.471,49.662 39.892,68.951C54.347,66.271 78.831,65.694 107.593,81.271L107.593,92.548C106.161,91.729 104.728,90.929 103.326,90.165C66.674,70.122 37.693,79.055 31.401,81.418C19.296,101.302 12.092,123.783 10.385,146.999C13.976,151.689 25.395,165.311 45.809,177.946C64.806,189.498 85.855,197.277 107.799,200.854L107.799,210.848C83.83,207.133 60.835,198.694 40.152,186.022C29.124,179.214 19.003,171.035 10.032,161.681C11.051,203.613 29.888,243.185 61.79,270.416C74.519,281.342 90.494,287.785 107.241,288.746C122.665,289.602 143.428,288.877 164.044,282.271C205.031,269.152 227.764,250.926 251.207,230.22C258.941,223.152 267.283,216.781 276.138,211.182C277.591,202.69 278.201,194.075 277.961,185.463L277.956,185.426ZM194.571,253.413C183.11,263.183 169.361,263.22 164.877,263.22L122.643,263.332C121.716,263.333 120.807,263.075 120.019,262.587C118.608,261.751 117.743,260.226 117.75,258.586L117.397,57.584C117.373,56.352 117.866,55.163 118.755,54.309C119.65,53.43 120.85,52.929 122.104,52.914L163.612,52.802L163.835,52.802C175.37,52.802 184.468,56.263 190.515,62.925C197.361,70.74 198.292,80.4 198.571,88.866L198.663,119.475C198.886,124.43 198.333,129.39 197.025,134.176C195.203,140.049 191.41,145.118 186.29,148.524C189.358,149.727 192.215,151.411 194.755,153.511C205.992,162.816 205.992,175.973 205.992,186.748L206.067,221.139C205.772,233.353 204.728,244.195 194.569,253.407L194.571,253.413Z" style="fill:white;fill-rule:nonzero;"/>
            </g>
            <g transform="matrix(1.00271,0,0,1.00271,1.28013,-0.672753)">
                <path d="M257.403,236.773C233.657,257.76 208.739,277.747 165.328,291.632C149.046,296.675 132.084,299.179 115.039,299.056C113.301,299.056 111.619,299.037 109.977,298.981C146.912,310.883 187.06,308.01 221.925,290.971C238.162,283.074 251.577,270.36 260.333,254.569C262.071,251.413 263.828,247.957 265.508,244.254C268.457,237.752 270.92,231.04 272.876,224.173C268.55,227.328 263.45,231.427 257.404,236.755L257.403,236.773Z" style="fill:white;fill-rule:nonzero;"/>
            </g>
            <g transform="matrix(1,0,0,1,0,-0.191406)">
                <path d="M301.06,119.233C297.601,129.665 290.549,138.538 281.167,144.263C282.32,148.514 283.39,152.853 284.378,157.279C285.342,161.587 286.06,166.272 286.608,170.409C292.936,166.858 301.627,159.641 306.047,150.875C305.525,140.181 303.853,129.573 301.06,119.236L301.06,119.233Z" style="fill:white;fill-rule:nonzero;"/>
            </g>
            <g transform="matrix(1,0,0,1,0.189453,0.502604)">
                <path d="M284.945,217.483C282.733,228.212 279.364,238.67 274.896,248.672C282.902,238.341 289.52,227.004 294.579,214.952C293.673,214.706 290.952,214.48 284.945,217.483Z" style="fill:white;fill-rule:nonzero;"/>
            </g>
            <g transform="matrix(1,0,0,1,0.49889,-0.829427)">
                <path d="M243.763,69.235C258.555,87.937 270.078,110.361 278.198,136.052C281.216,133.904 283.886,131.304 286.113,128.344C286.415,127.946 286.718,127.532 286.996,127.117C294.428,116.068 295.135,101.76 288.828,90.033C262.845,40.896 211.646,10.025 156.063,9.979C155.156,9.979 154.267,9.979 153.361,10.017C165.315,13.202 176.897,17.648 187.912,23.279C209.638,34.376 228.699,50.059 243.773,69.241L243.763,69.235Z" style="fill:white;fill-rule:nonzero;"/>
            </g>
            <g transform="matrix(1,0,0,1,0.0941811,0)">
                <path d="M298.604,204.923C302.715,192.554 305.186,179.699 305.953,166.687C303.079,169.528 299.991,172.142 296.716,174.509C293.807,176.601 290.794,178.543 287.686,180.327C288.189,189.024 287.917,197.748 286.874,206.396C289.517,205.476 292.266,204.892 295.055,204.658C296.25,204.508 297.464,204.598 298.625,204.923L298.604,204.923Z" style="fill:white;fill-rule:nonzero;"/>
            </g>
        </g>
        <g transform="matrix(1,0,0,1,241.886,241.886)">
            <path d="M165.107,263.511C169.601,263.511 183.382,263.475 194.868,253.684C205.05,244.453 206.093,233.582 206.392,221.349L206.317,186.888C206.317,176.11 206.317,162.901 195.053,153.583C192.508,151.476 189.644,149.787 186.568,148.58C191.7,145.167 195.502,140.088 197.329,134.202C198.638,129.407 199.192,124.436 198.969,119.47L198.877,88.795C198.597,80.31 197.664,70.633 190.802,62.8C184.744,56.13 175.624,52.668 164.066,52.668L163.843,52.668L122.24,52.78C120.983,52.796 119.78,53.297 118.883,54.178C117.992,55.034 117.499,56.224 117.522,57.459L117.876,258.873C117.866,260.517 118.734,262.048 120.152,262.882C120.941,263.371 121.852,263.629 122.781,263.628L165.111,263.516L165.107,263.511ZM181.163,174.394C182.291,178.344 182.788,182.447 182.635,186.552L182.71,215.101C182.71,228.117 181.908,234.231 176.93,238.075C173.964,240.202 170.328,241.451 161.036,241.767C161.036,241.767 145.092,241.804 143.862,241.804C142.425,241.804 141.866,240.921 141.866,239.566C141.866,227.818 141.698,163.091 141.698,162.551C141.689,162.489 141.684,162.427 141.684,162.365C141.684,161.684 142.244,161.124 142.925,161.124C142.976,161.124 143.028,161.127 143.079,161.134C148.685,161.012 154.294,161.199 159.88,161.693C164.746,162.215 169.931,163.091 174.126,165.757C177.392,167.727 179.872,170.774 181.138,174.372L181.163,174.394ZM142.693,74.144L154.161,74.144C169.098,74.144 175.531,76.351 175.531,91.618L175.531,117.461C175.345,123.672 175.237,134.189 162.944,137.881C159.512,138.851 157.871,139.15 150.394,139.41L142.99,139.41C142.942,139.42 142.893,139.426 142.843,139.429C141.687,139.429 141.372,138.814 141.372,137.881C141.372,137.284 141.297,75.858 141.297,75.858C141.297,74.852 141.651,74.274 142.695,74.162L142.693,74.144ZM158.115,0C158.115,0 158.114,0 158.114,0C71.375,0 0,71.375 0,158.114C0,244.853 71.375,316.228 158.114,316.228C244.852,316.228 316.227,244.853 316.228,158.115L316.228,158.114C316.125,71.414 244.814,0.102 158.114,0L158.115,0ZM301.256,119.513C304.011,129.718 305.661,140.189 306.178,150.747C301.815,159.4 293.237,166.522 286.99,170.025C286.45,165.941 285.741,161.316 284.783,157.065C283.814,152.701 282.757,148.418 281.613,144.216C286.562,141.187 290.896,137.252 294.387,132.617C297.356,128.64 299.672,124.215 301.249,119.508L301.256,119.513ZM158.115,9.864C212.987,9.897 263.532,40.375 289.171,88.888C295.406,100.461 294.708,114.591 287.363,125.493C287.083,125.904 286.804,126.295 286.48,126.706C284.281,129.628 281.645,132.194 278.666,134.314C270.647,108.953 259.272,86.819 244.672,68.356C229.787,49.426 210.973,33.946 189.531,22.986C178.654,17.433 167.222,13.043 155.424,9.889C156.319,9.889 157.19,9.852 158.09,9.852L158.115,9.864ZM61.78,270.691C29.812,243.403 10.933,203.751 9.902,161.732C18.899,171.101 29.043,179.297 40.093,186.124C60.832,198.819 83.886,207.272 107.915,210.994L107.915,200.987C85.916,197.396 64.813,189.602 45.762,178.03C25.324,165.375 13.855,151.718 10.257,147.02C11.97,123.755 19.194,101.228 31.33,81.305C37.614,78.937 66.686,69.985 103.423,90.07C104.821,90.835 106.257,91.635 107.712,92.456L107.712,81.155C78.869,65.547 54.323,66.106 39.834,68.81C54.455,49.49 73.558,34.014 95.491,23.72C111.945,16.022 130.525,14.096 148.209,18.256C160.982,21.254 173.348,25.781 185.038,31.739C205.22,42.057 222.928,56.629 236.938,74.447C251.147,92.424 262.168,114.149 269.851,139.156C264.626,141.277 259.147,142.711 253.553,143.423C239.511,145.363 223.605,141.894 207.198,135.609C206.447,138.824 205.168,141.893 203.414,144.69C217.884,150.247 232.187,153.827 245.558,153.827C248.683,153.83 251.804,153.625 254.901,153.212C260.958,152.425 266.9,150.917 272.598,148.718C273.512,152.152 274.363,155.639 275.153,159.179C276.298,164.349 277.157,169.578 277.727,174.843C263.274,182.302 242.613,189.835 216.227,195.504L216.227,205.511C240.244,200.476 261.709,193.591 278.454,185.521C278.696,194.15 278.084,202.783 276.626,211.292C267.747,216.897 259.385,223.281 251.639,230.368C228.142,251.118 205.355,269.38 164.274,282.526C143.611,289.148 122.802,289.891 107.343,289.015C90.554,288.064 74.537,281.609 61.78,270.653L61.78,270.691ZM266.159,245.199C264.499,248.878 262.765,252.263 261.049,255.381C252.396,270.96 239.158,283.508 223.139,291.315C188.723,308.136 149.091,310.972 112.632,299.222C114.251,299.259 115.913,299.297 117.635,299.297C134.46,299.418 151.204,296.947 167.276,291.969C210.109,278.243 234.707,258.515 258.165,237.815C264.132,232.557 269.167,228.51 273.437,225.394C271.509,232.173 269.078,238.799 266.165,245.217L266.159,245.199ZM275.408,248.648C279.826,238.778 283.153,228.455 285.328,217.861C291.276,214.896 293.942,215.12 294.838,215.36C289.832,227.249 283.302,238.438 275.413,248.645L275.408,248.648ZM298.829,204.77C297.682,204.447 296.48,204.358 295.297,204.51C292.545,204.743 289.833,205.32 287.223,206.226C288.262,197.689 288.53,189.077 288.025,180.492C291.092,178.732 294.067,176.817 296.938,174.753C300.181,172.428 303.232,169.847 306.062,167.033C305.298,179.876 302.859,192.565 298.809,204.776L298.829,204.77Z" style="fill-rule:nonzero;"/>
        </g>
    </g>
</svg>
