<svg xmlns="http://www.w3.org/2000/svg" width="214.89" height="75.882" viewBox="0 0 214.89 75.882"><path d="M42.617,123.845c-2.441-3.771-4.653-5.711-8.642-4.85a.078.078,0,0,1-.087-.109c.937-1.842.97-4.1-1.166-7.4l-3.629-5.6c-4.675-7.215-9.765-3.912-12.217-2.321L9.824,108.13a.925.925,0,0,0-.272,1.275l25.425,39.244a.917.917,0,0,0,.578.4c.033,0,.065.011.1.011a.931.931,0,0,0,.588-.142l7.77-5.035c3.084-1.994,4.741-4.327,4.948-6.942a10.4,10.4,0,0,0-2.038-6.43l-4.316-6.659Zm-1.58,16.4-3.411,2.212a.5.5,0,0,1-.7-.153l-9.819-15.148a.5.5,0,0,1,.153-.7L28.9,125.4c5.645-3.651,7.749-1.439,9.427,1.155l3.6,5.547c1.046,1.613,1.907,3.041,1.94,4.337C43.881,137.271,43.619,138.579,41.036,140.246ZM26.128,121.61l-1.471.948a.5.5,0,0,1-.7-.153l-7.868-12.151a.5.5,0,0,1,.153-.7l2.245-1.46c3.433-2.223,4.653-2.071,6.528.817l3.051,4.719c1.362,2.1,3.062,4.73-1.94,7.966ZM57.809,109.83a.263.263,0,0,1,.011-.381c4.664-4.141,2.474-8.893,1.722-10.528l-3.041-6.6c-1.537-3.335-3.771-5.166-6.637-5.438a12.933,12.933,0,0,0-6.4,1.471l-8.174,3.76a.917.917,0,0,0-.447,1.221l19.54,42.415a.918.918,0,0,0,.839.534.929.929,0,0,0,.381-.087l2.942-1.351a.922.922,0,0,0,.48-.512.864.864,0,0,0-.033-.7l-8.947-19.42a.448.448,0,0,1,.218-.589l2.485-1.144a.517.517,0,0,1,.567.1l16.576,16.4a.935.935,0,0,0,1.035.185l3.128-1.439a.945.945,0,0,0,.523-.676.891.891,0,0,0-.262-.806l-16.5-16.369Zm-5.362-2.31-4.054,1.864a.5.5,0,0,1-.665-.251L41.222,95.019a.5.5,0,0,1,.251-.665L45.712,92.4c2.354-1.079,4.316-1.558,6.364,2.9l3.019,6.55c1.188,2.572.392,4.272-2.637,5.667ZM88.966,87.347c-.632-2.888-1.34-6.157-3.684-8.391-2.169-2.071-5.329-2.768-8.925-1.994-3.814.828-6.473,2.833-7.7,5.8-.839,2.038-.883,4.5-.12,8.01l5.6,25.719c.534,2.452,2.027,9.329,9.252,9.416a14.641,14.641,0,0,0,3.2-.349c5.318-1.155,7.149-4.555,7.683-5.95a12.478,12.478,0,0,0,.163-7.127L88.966,87.336Zm-6.681,33.315c-1.874-.839-2.681-2.278-3.6-6.452L73.218,89.069c-.185-.828-.73-3.367.545-5.275a5.282,5.282,0,0,1,3.4-2.158,6.327,6.327,0,0,1,1.351-.142,4.953,4.953,0,0,1,2.561.687c1.983,1.33,2.79,4.991,3.422,7.945l4.839,22.232c.708,3.237.752,5.58-1.21,7.313a4.919,4.919,0,0,1-2.43,1.2,5.814,5.814,0,0,1-3.422-.229Zm36.748-34.928c-.076-2.953-.174-6.3-2.06-8.926-1.744-2.43-4.73-3.716-8.4-3.618-3.9.109-6.888,1.591-8.642,4.272-1.21,1.842-1.7,4.261-1.6,7.847l.73,26.319a15,15,0,0,0,1.449,6.768c1.569,2.877,4.37,4.381,8.3,4.457h.806c5.449-.153,7.868-3.15,8.653-4.425a12.47,12.47,0,0,0,1.482-6.964l-.708-25.719Zm-6.811,31.626a4.952,4.952,0,0,1-2.6.73,5.785,5.785,0,0,1-3.313-.85c-1.689-1.166-2.212-2.735-2.332-7.007l-.708-25.719c-.022-.85-.1-3.444,1.5-5.078a5.3,5.3,0,0,1,3.738-1.493h.272a5.284,5.284,0,0,1,3.466,1.275c1.711,1.678,1.809,5.427,1.9,8.435l.632,22.744c.087,3.313-.294,5.623-2.55,6.964Zm31.332,5.776a.908.908,0,0,1-.24.806.927.927,0,0,1-.7.272h-.109l-3.4-.534a.941.941,0,0,1-.763-.741l-4.228-22.733a.21.21,0,0,0-.371-.087l-2.637,3.509a.616.616,0,0,0-.12.272l-2.714,17.132a.912.912,0,0,1-1.046.763l-3.139-.5a.947.947,0,0,1-.6-.371.908.908,0,0,1-.163-.687l7.313-46.121a.947.947,0,0,1,.371-.6.908.908,0,0,1,.687-.163l3.2.512a.914.914,0,0,1,.763,1.046l-2.844,17.96a.2.2,0,0,0,.371.153l12.315-16.968a.911.911,0,0,1,.883-.371l3.6.567a.922.922,0,0,1,.708.567.906.906,0,0,1-.12.894L138.214,94.049a.409.409,0,0,0-.076.316l5.416,28.76Zm22.81-42.143L154.3,121.687a.427.427,0,0,0,.283.523l10.386,3.073a.93.93,0,0,1,.621,1.144l-.828,2.79a.909.909,0,0,1-.883.654,1.076,1.076,0,0,1-.262-.033l-14.778-4.381a.918.918,0,0,1-.621-1.144l13.263-44.769a.93.93,0,0,1,1.144-.621l3.106.915a.918.918,0,0,1,.621,1.144Zm15.606,33.348a.817.817,0,0,0-.2.305l-8.119,18.592a.958.958,0,0,1-.5.49.782.782,0,0,1-.316.065,1,1,0,0,1-.392-.076l-2.91-1.275a.924.924,0,0,1-.48-1.21l8.119-18.6a1.187,1.187,0,0,0,.087-.338l1.973-27.234a.927.927,0,0,1,.436-.719.914.914,0,0,1,.839-.054l3.15,1.373a.915.915,0,0,1,.545.926l-1.711,19.769a.21.21,0,0,0,.36.163l13.394-14.68a.9.9,0,0,1,1.046-.218l3.269,1.428a.946.946,0,0,1,.534.665.908.908,0,0,1-.24.817l-18.919,19.824Zm42.143-3.4L196.355,148.5a.89.89,0,0,1-.6.36h-.12a.876.876,0,0,1-.556-.185l-3.989-2.953a.917.917,0,0,1-.305-1.09L204.5,111.65a.2.2,0,0,0-.349-.2c-4.218,5.765-20.336,27.746-20.336,27.746a.89.89,0,0,1-.6.36.915.915,0,0,1-.687-.174l-2.452-1.809a.89.89,0,0,1-.36-.6.915.915,0,0,1,.174-.687l27.757-37.555a.89.89,0,0,1,.6-.36.915.915,0,0,1,.687.174l3.825,2.833a.917.917,0,0,1,.305,1.09l-13.841,33.49a.2.2,0,0,0,.349.2c4.239-5.841,20.521-28.2,20.521-28.2a.947.947,0,0,1,.6-.371.87.87,0,0,1,.687.174l2.55,1.885a.89.89,0,0,1,.36.6.915.915,0,0,1-.174.687Z" transform="translate(-9.406 -73.185)" fill="#fff"/></svg>